G04 #@! TF.GenerationSoftware,KiCad,Pcbnew,(7.0.0)*
G04 #@! TF.CreationDate,2023-08-19T21:43:34+02:00*
G04 #@! TF.ProjectId,Watchy,57617463-6879-42e6-9b69-6361645f7063,rev?*
G04 #@! TF.SameCoordinates,Original*
G04 #@! TF.FileFunction,Copper,L2,Bot*
G04 #@! TF.FilePolarity,Positive*
%FSLAX46Y46*%
G04 Gerber Fmt 4.6, Leading zero omitted, Abs format (unit mm)*
G04 Created by KiCad (PCBNEW (7.0.0)) date 2023-08-19 21:43:34*
%MOMM*%
%LPD*%
G01*
G04 APERTURE LIST*
G04 #@! TA.AperFunction,ComponentPad*
%ADD10O,2.000000X0.900000*%
G04 #@! TD*
G04 #@! TA.AperFunction,ComponentPad*
%ADD11O,1.700000X0.900000*%
G04 #@! TD*
G04 #@! TA.AperFunction,ViaPad*
%ADD12C,0.600000*%
G04 #@! TD*
G04 #@! TA.AperFunction,Conductor*
%ADD13C,0.152400*%
G04 #@! TD*
G04 #@! TA.AperFunction,Conductor*
%ADD14C,0.250000*%
G04 #@! TD*
G04 #@! TA.AperFunction,Conductor*
%ADD15C,0.500000*%
G04 #@! TD*
G04 APERTURE END LIST*
D10*
X96269999Y-98679999D03*
D11*
X100439999Y-98679999D03*
D10*
X96269999Y-90039999D03*
D11*
X100439999Y-90039999D03*
D12*
X92720000Y-106075000D03*
X86130000Y-87950000D03*
X84720000Y-106075000D03*
X100720000Y-101075000D03*
X93192600Y-85369400D03*
X87720000Y-107075000D03*
X69720000Y-111075000D03*
X70720000Y-94075000D03*
X101720000Y-94075000D03*
X85720000Y-110075000D03*
X77720000Y-105075000D03*
X101720000Y-93075000D03*
X82720000Y-105075000D03*
X89636600Y-80975200D03*
X82720000Y-106075000D03*
X89128600Y-100025200D03*
X80720000Y-105075000D03*
X91720000Y-108075000D03*
X84720000Y-105075000D03*
X69720000Y-91075000D03*
X85720000Y-106075000D03*
X85720000Y-107075000D03*
X76720000Y-111075000D03*
X87720000Y-110075000D03*
X77720000Y-106075000D03*
X97256600Y-95478600D03*
X78500000Y-93600000D03*
X87720000Y-103075000D03*
X98781901Y-87184161D03*
X93116400Y-83896200D03*
X95859600Y-79705200D03*
X101720000Y-91075000D03*
X82290000Y-86900000D03*
X70720000Y-90075000D03*
X72517000Y-83947000D03*
X88417400Y-100761800D03*
X94742000Y-97536000D03*
X101720000Y-111075000D03*
X81720000Y-105075000D03*
X70720000Y-100075000D03*
X90720000Y-109075000D03*
X101720000Y-92075000D03*
X81720000Y-109075000D03*
X101720000Y-102075000D03*
X84850000Y-89000000D03*
X69720000Y-100075000D03*
X79720000Y-105075000D03*
X90678000Y-85267800D03*
X85720000Y-109075000D03*
X81720000Y-110075000D03*
X77720000Y-109075000D03*
X81720000Y-103075000D03*
X89720000Y-103075000D03*
X69720000Y-89075000D03*
X87720000Y-106075000D03*
X69720000Y-92075000D03*
X73720000Y-111075000D03*
X101720000Y-96075000D03*
X100720000Y-111075000D03*
X80720000Y-110075000D03*
X69720000Y-90075000D03*
X91722800Y-90383600D03*
X84720000Y-109075000D03*
X86720000Y-103075000D03*
X79248000Y-102565200D03*
X90720000Y-108075000D03*
X89720000Y-106075000D03*
X79720000Y-109075000D03*
X82290000Y-89000000D03*
X82720000Y-107075000D03*
X82720000Y-103075000D03*
X69720000Y-93075000D03*
X81720000Y-106075000D03*
X92985000Y-96774000D03*
X78720000Y-110075000D03*
X89720000Y-109075000D03*
X86720000Y-107075000D03*
X83720000Y-103075000D03*
X82720000Y-110075000D03*
X88720000Y-109075000D03*
X69720000Y-88075000D03*
X89720000Y-105075000D03*
X85720000Y-103075000D03*
X101720000Y-95075000D03*
X87720000Y-105075000D03*
X82720000Y-109075000D03*
X77720000Y-110075000D03*
X88720000Y-103075000D03*
X88720000Y-107075000D03*
X83559000Y-84817900D03*
X78720000Y-109075000D03*
X92720000Y-109075000D03*
X86130000Y-86900000D03*
X84720000Y-107075000D03*
X92720000Y-108075000D03*
X77546200Y-79959200D03*
X86130000Y-89000000D03*
X69720000Y-95075000D03*
X97967800Y-84023200D03*
X75720000Y-80075000D03*
X74720000Y-96075000D03*
X101720000Y-101075000D03*
X69720000Y-94075000D03*
X91720000Y-110075000D03*
X89103200Y-100736400D03*
X89281000Y-83845400D03*
X101720000Y-105075000D03*
X70720000Y-80075000D03*
X69720000Y-87075000D03*
X79720000Y-106075000D03*
X83720000Y-110075000D03*
X84720000Y-103075000D03*
X92720000Y-107075000D03*
X86720000Y-110075000D03*
X74041000Y-92075000D03*
X83591400Y-82143600D03*
X93720000Y-109075000D03*
X84850000Y-86900000D03*
X70720000Y-93075000D03*
X79720000Y-110075000D03*
X83570000Y-89000000D03*
X96113600Y-83108800D03*
X95690000Y-91160000D03*
X86720000Y-105075000D03*
X86720000Y-109075000D03*
X75720000Y-111075000D03*
X92007222Y-81207222D03*
X89720000Y-110075000D03*
X85110000Y-93865000D03*
X100720000Y-107075000D03*
X100720000Y-100075000D03*
X80720000Y-109075000D03*
X80720000Y-106075000D03*
X88720000Y-110075000D03*
X91720000Y-107075000D03*
X92720000Y-110075000D03*
X101720000Y-100075000D03*
X76606400Y-92481400D03*
X83720000Y-107075000D03*
X99720000Y-111075000D03*
X101720000Y-97075000D03*
X91720000Y-109075000D03*
X86720000Y-106075000D03*
X74720000Y-111075000D03*
X90720000Y-110075000D03*
X87720000Y-109075000D03*
X88720000Y-106075000D03*
X88720000Y-105075000D03*
X83720000Y-109075000D03*
X83720000Y-106075000D03*
X95859600Y-85699600D03*
X98720000Y-111075000D03*
X84720000Y-110075000D03*
X80720000Y-107075000D03*
X85720000Y-105075000D03*
X98094800Y-83159600D03*
X75209400Y-91643200D03*
X82290000Y-87950000D03*
X81720000Y-107075000D03*
X84710000Y-92090000D03*
X70720000Y-111075000D03*
X79720000Y-107075000D03*
X83570000Y-87950000D03*
X71094600Y-86131400D03*
X74447400Y-87909400D03*
X83720000Y-105075000D03*
X84850000Y-87950000D03*
X83570000Y-86900000D03*
X70720000Y-91075000D03*
X100720000Y-102075000D03*
X85267800Y-79679800D03*
X98272600Y-89585800D03*
X89103200Y-93802200D03*
X97790000Y-96215200D03*
X87579200Y-92100400D03*
X95889400Y-103650800D03*
X87706200Y-81508600D03*
X79833297Y-87348450D03*
X88300736Y-85233657D03*
X100909170Y-81259630D03*
X93370400Y-104140000D03*
X94919800Y-84658200D03*
X85875850Y-81755369D03*
X93675200Y-88112600D03*
X94691200Y-89281000D03*
X93185600Y-80924400D03*
X92144200Y-86233000D03*
X87216600Y-99568000D03*
X88537400Y-89662000D03*
X82900476Y-100944724D03*
X80213200Y-92506800D03*
X85521800Y-100355400D03*
X83508200Y-91846400D03*
X84727400Y-99568000D03*
X86962600Y-91541600D03*
X86434500Y-92227400D03*
X85286200Y-99009200D03*
X85906400Y-91567000D03*
X85753100Y-98405053D03*
X77005800Y-95986600D03*
X91077400Y-103124000D03*
X78504400Y-97764600D03*
X91510491Y-101537111D03*
X75862800Y-97155000D03*
X74491200Y-100838000D03*
X79984600Y-88976200D03*
X91872100Y-96063053D03*
X88537900Y-90754200D03*
X81889600Y-91900924D03*
X74676000Y-90805000D03*
X89352076Y-85374524D03*
X75797300Y-90819700D03*
X89128800Y-87223600D03*
X81958800Y-92659200D03*
X88965498Y-92394498D03*
X78551599Y-84859051D03*
X98628500Y-102133400D03*
X73888600Y-89738200D03*
X73175430Y-86231030D03*
X80035400Y-84848450D03*
X97810000Y-79670000D03*
X88620600Y-83145990D03*
X97637600Y-78435200D03*
X81781000Y-82245200D03*
X74796000Y-82194400D03*
X98138600Y-85345000D03*
X95217600Y-109016800D03*
X77894800Y-85750400D03*
X73373600Y-84201000D03*
X101008800Y-88595200D03*
X94141600Y-81085702D03*
X80467776Y-90746624D03*
X71367000Y-104876600D03*
X72281400Y-110820200D03*
X98628500Y-90957400D03*
X82484852Y-81408781D03*
X74646072Y-86272500D03*
X79095600Y-85979000D03*
X79883000Y-88138000D03*
X78091733Y-83774190D03*
X91894088Y-94096400D03*
X89089056Y-87987450D03*
X93475100Y-93568300D03*
X89839800Y-88061800D03*
X79019336Y-90781084D03*
X74465800Y-94107900D03*
X74872200Y-93421200D03*
X78268224Y-90746624D03*
X94531300Y-90719076D03*
X96894000Y-94157800D03*
X94814812Y-90022672D03*
X94582600Y-94691200D03*
X91458400Y-83667600D03*
X81171400Y-81305400D03*
X84942050Y-81800709D03*
X93338000Y-86283800D03*
X73907000Y-86410800D03*
X77234400Y-85344000D03*
X71900400Y-86690200D03*
X76320000Y-85293200D03*
D13*
X76606400Y-92481400D02*
X76047600Y-92481400D01*
D14*
X75209400Y-91643200D02*
X74472800Y-91643200D01*
X95690000Y-92137233D02*
X97471400Y-93918633D01*
X97471400Y-95263800D02*
X97256600Y-95478600D01*
X83559000Y-82176000D02*
X83559000Y-84817900D01*
X94742000Y-97536000D02*
X93747000Y-97536000D01*
X97471400Y-93918633D02*
X97471400Y-95263800D01*
X78604200Y-79959200D02*
X79720000Y-81075000D01*
X84710000Y-92090000D02*
X84720000Y-92100000D01*
X84720000Y-92080000D02*
X84710000Y-92090000D01*
X84720000Y-93475000D02*
X85110000Y-93865000D01*
X95690000Y-91160000D02*
X95690000Y-92137233D01*
X93747000Y-97536000D02*
X92985000Y-96774000D01*
X74472800Y-91643200D02*
X74041000Y-92075000D01*
D13*
X76047600Y-92481400D02*
X75209400Y-91643200D01*
D14*
X84720000Y-92100000D02*
X84720000Y-93475000D01*
X84720000Y-92075000D02*
X84720000Y-92080000D01*
X83591400Y-82143600D02*
X83559000Y-82176000D01*
X77546200Y-79959200D02*
X78604200Y-79959200D01*
X89751000Y-94450000D02*
X89103200Y-93802200D01*
X94342400Y-84397400D02*
X94342400Y-85223800D01*
X91431121Y-94450000D02*
X89751000Y-94450000D01*
X97739200Y-88620600D02*
X98272600Y-89154000D01*
X90170000Y-79944600D02*
X93817065Y-79944600D01*
X94342400Y-85223800D02*
X97739200Y-88620600D01*
X98272600Y-89154000D02*
X98272600Y-89585800D01*
X97790000Y-96215200D02*
X93196321Y-96215200D01*
X93196321Y-96215200D02*
X91431121Y-94450000D01*
X94719000Y-80846535D02*
X94719000Y-84020800D01*
X94719000Y-84020800D02*
X94342400Y-84397400D01*
X93817065Y-79944600D02*
X94719000Y-80846535D01*
X85532600Y-79944600D02*
X90170000Y-79944600D01*
X85267800Y-79679800D02*
X85532600Y-79944600D01*
X87579200Y-92100400D02*
X87579200Y-85955193D01*
X95605600Y-84658200D02*
X99004170Y-81259630D01*
X86122619Y-81508600D02*
X85875850Y-81755369D01*
X80834974Y-86346774D02*
X80948748Y-86233000D01*
X94919800Y-84658200D02*
X95605600Y-84658200D01*
X95400200Y-104140000D02*
X95889400Y-103650800D01*
X93370400Y-104140000D02*
X95400200Y-104140000D01*
X87706200Y-81508600D02*
X86122619Y-81508600D01*
X80948748Y-86233000D02*
X87301394Y-86233000D01*
X87301394Y-86233000D02*
X87922897Y-85611497D01*
X87922897Y-85611497D02*
X88300736Y-85233657D01*
X99004170Y-81259630D02*
X100909170Y-81259630D01*
X87579200Y-85955193D02*
X87922897Y-85611497D01*
X80834974Y-86346774D02*
X79833297Y-87348450D01*
X94691200Y-89128600D02*
X93675200Y-88112600D01*
X92144200Y-81965800D02*
X93185600Y-80924400D01*
X94691200Y-89281000D02*
X94691200Y-89128600D01*
X92144200Y-86233000D02*
X92144200Y-81965800D01*
D13*
X88537400Y-89662000D02*
X88009300Y-90190100D01*
X88009300Y-90190100D02*
X88009300Y-90973154D01*
X88009300Y-90973154D02*
X88196746Y-91160600D01*
X87623000Y-99161600D02*
X87216600Y-99568000D01*
X88196746Y-92720454D02*
X87623000Y-93294200D01*
X87623000Y-93294200D02*
X87623000Y-99161600D01*
X88196746Y-91160600D02*
X88196746Y-92720454D01*
X81889600Y-94183200D02*
X80213200Y-92506800D01*
X81889600Y-99263200D02*
X81889600Y-98577400D01*
X81889600Y-98323400D02*
X81889600Y-99933848D01*
X81889600Y-99933848D02*
X82900476Y-100944724D01*
X81889600Y-98323400D02*
X81889600Y-94183200D01*
X81889600Y-98577400D02*
X81889600Y-98323400D01*
X83508200Y-91846400D02*
X83508200Y-99815000D01*
X84175600Y-100482400D02*
X85394800Y-100482400D01*
X85394800Y-100482400D02*
X85521800Y-100355400D01*
X83508200Y-99815000D02*
X84175600Y-100482400D01*
X86962600Y-98856800D02*
X86962600Y-91541600D01*
X84727400Y-99568000D02*
X86251400Y-99568000D01*
X86251400Y-99568000D02*
X86962600Y-98856800D01*
X85286200Y-99009200D02*
X85895800Y-99009200D01*
X86434500Y-98470500D02*
X86434500Y-92227400D01*
X85895800Y-99009200D02*
X86434500Y-98470500D01*
X85753100Y-98405053D02*
X85906400Y-98251753D01*
X85906400Y-98251753D02*
X85906400Y-91567000D01*
D14*
X90239200Y-103962200D02*
X91077400Y-103124000D01*
X79342600Y-103962200D02*
X90239200Y-103962200D01*
X77005800Y-95986600D02*
X77005800Y-101625400D01*
X77005800Y-101625400D02*
X79342600Y-103962200D01*
X78504400Y-97764600D02*
X78504400Y-100761800D01*
X79279711Y-101537111D02*
X91510491Y-101537111D01*
X78504400Y-100761800D02*
X79279711Y-101537111D01*
X74491200Y-98526600D02*
X75862800Y-97155000D01*
X74491200Y-100838000D02*
X74491200Y-98526600D01*
D13*
X86817754Y-101117400D02*
X91872100Y-96063053D01*
X82517600Y-99815000D02*
X83820000Y-101117400D01*
X79984600Y-88976200D02*
X81584800Y-88976200D01*
X81838800Y-89230200D02*
X82517600Y-89909000D01*
X81584800Y-88976200D02*
X81838800Y-89230200D01*
X83820000Y-101117400D02*
X86817754Y-101117400D01*
X82517600Y-89909000D02*
X82517600Y-99815000D01*
X80844650Y-91440000D02*
X81153000Y-91748350D01*
X89066000Y-89443046D02*
X87932800Y-88309846D01*
X87932800Y-86766400D02*
X87960200Y-86766400D01*
X79330082Y-89913224D02*
X79857600Y-90440742D01*
X88537900Y-90754200D02*
X89066000Y-90226100D01*
X87960200Y-86766400D02*
X89352076Y-85374524D01*
X89066000Y-90226100D02*
X89066000Y-89443046D01*
X80365600Y-91440000D02*
X80844650Y-91440000D01*
X75567776Y-89913224D02*
X79330082Y-89913224D01*
X81153000Y-91748350D02*
X81305574Y-91900924D01*
X79857600Y-90932000D02*
X80365600Y-91440000D01*
X74676000Y-90805000D02*
X75567776Y-89913224D01*
X87932800Y-88309846D02*
X87932800Y-86766400D01*
X81305574Y-91900924D02*
X81889600Y-91900924D01*
X79857600Y-90440742D02*
X79857600Y-90932000D01*
X80718398Y-91744800D02*
X81632798Y-92659200D01*
X88965498Y-92394498D02*
X89408000Y-91951996D01*
X88560456Y-87768496D02*
X89105352Y-87223600D01*
X80056000Y-91744800D02*
X80718398Y-91744800D01*
X89408000Y-89353994D02*
X88560456Y-88506450D01*
X88560456Y-88506450D02*
X88560456Y-87768496D01*
X89408000Y-91951996D02*
X89408000Y-89353994D01*
X89105352Y-87223600D02*
X89128800Y-87223600D01*
X79547936Y-90562130D02*
X79547936Y-91236736D01*
X81632798Y-92659200D02*
X81958800Y-92659200D01*
X75797300Y-90819700D02*
X76398976Y-90218024D01*
X79203830Y-90218024D02*
X79547936Y-90562130D01*
X79547936Y-91236736D02*
X80056000Y-91744800D01*
X76398976Y-90218024D02*
X79203830Y-90218024D01*
X79844900Y-86158242D02*
X79844900Y-85836556D01*
D14*
X77201233Y-104364600D02*
X73332217Y-100495585D01*
D13*
X78931941Y-87071200D02*
X79844900Y-86158242D01*
X78867395Y-84859051D02*
X78551599Y-84859051D01*
X73175430Y-86426784D02*
X73819846Y-87071200D01*
D14*
X73332217Y-90294583D02*
X73888600Y-89738200D01*
X73332217Y-100495585D02*
X73332217Y-90294583D01*
D13*
X79844900Y-85836556D02*
X78867395Y-84859051D01*
D14*
X90653367Y-104364600D02*
X77201233Y-104364600D01*
D13*
X73175430Y-86231030D02*
X73175430Y-86426784D01*
X73819846Y-87071200D02*
X78931941Y-87071200D01*
D14*
X98628500Y-102133400D02*
X92884567Y-102133400D01*
X92884567Y-102133400D02*
X90653367Y-104364600D01*
X80035400Y-84912200D02*
X80518000Y-85394800D01*
X80518000Y-85394800D02*
X86371790Y-85394800D01*
X80035400Y-84848450D02*
X80035400Y-84912200D01*
X86371790Y-85394800D02*
X88620600Y-83145990D01*
X97637600Y-79497600D02*
X97810000Y-79670000D01*
X97637600Y-78435200D02*
X97637600Y-79497600D01*
X74846800Y-82245200D02*
X74796000Y-82194400D01*
X81781000Y-82245200D02*
X74846800Y-82245200D01*
D13*
X77894800Y-85256846D02*
X76838954Y-84201000D01*
D14*
X81313234Y-80346999D02*
X80010000Y-81650233D01*
X99205400Y-89845901D02*
X100456101Y-88595200D01*
X80010000Y-81737200D02*
X75155367Y-81737200D01*
X93446400Y-80347000D02*
X81313234Y-80346999D01*
X94141600Y-81085702D02*
X94141600Y-81042200D01*
X94141600Y-81042200D02*
X93446400Y-80347000D01*
D13*
X76838954Y-84201000D02*
X73373600Y-84201000D01*
D14*
X101008800Y-88595200D02*
X98138600Y-85725000D01*
X74535200Y-81617000D02*
X74084800Y-82067400D01*
X75035167Y-81617000D02*
X74535200Y-81617000D01*
X75155367Y-81737200D02*
X75035167Y-81617000D01*
X74084800Y-82067400D02*
X74084800Y-83489800D01*
X98138600Y-85725000D02*
X98138600Y-85345000D01*
D13*
X77894800Y-85750400D02*
X77894800Y-85256846D01*
D14*
X99205400Y-105029000D02*
X99205400Y-89845901D01*
X95217600Y-109016800D02*
X99205400Y-105029000D01*
X74084800Y-83489800D02*
X73373600Y-84201000D01*
X80010000Y-81650233D02*
X80010000Y-81737200D01*
X100456101Y-88595200D02*
X101008800Y-88595200D01*
X72281400Y-110820200D02*
X71155000Y-109693800D01*
X80467776Y-90550852D02*
X80467776Y-90746624D01*
X78664524Y-88747600D02*
X80467776Y-90550852D01*
X71367000Y-104876600D02*
X71367000Y-91211400D01*
X71155000Y-109693800D02*
X71155000Y-105088600D01*
X73830800Y-88747600D02*
X78664524Y-88747600D01*
X71367000Y-91211400D02*
X73830800Y-88747600D01*
X71155000Y-105088600D02*
X71367000Y-104876600D01*
D13*
X91310800Y-84698606D02*
X89200963Y-82588769D01*
X96969885Y-89230200D02*
X96182800Y-89230200D01*
X83845400Y-81432400D02*
X82508471Y-81432400D01*
X94147300Y-87194700D02*
X91919100Y-87194700D01*
X84982556Y-82588769D02*
X83845400Y-81451613D01*
X91310800Y-86586400D02*
X91310800Y-84698606D01*
X98628500Y-90888815D02*
X96969885Y-89230200D01*
X98628500Y-90957400D02*
X98628500Y-90888815D01*
X91919100Y-87194700D02*
X91310800Y-86586400D01*
X89200963Y-82588769D02*
X84982556Y-82588769D01*
X82508471Y-81432400D02*
X82484852Y-81408781D01*
X96182800Y-89230200D02*
X94147300Y-87194700D01*
X78405872Y-86541728D02*
X75463400Y-86541728D01*
X78405872Y-86541728D02*
X78968600Y-85979000D01*
X78968600Y-85979000D02*
X79095600Y-85979000D01*
X75463400Y-86541728D02*
X74915300Y-86541728D01*
X74915300Y-86541728D02*
X74646072Y-86272500D01*
X78213586Y-83774190D02*
X78091733Y-83774190D01*
X80149700Y-86296500D02*
X80149700Y-85710304D01*
X79875293Y-88138000D02*
X79304697Y-87567404D01*
X79603600Y-86842600D02*
X80149700Y-86296500D01*
X79304697Y-87567404D02*
X79304697Y-87129496D01*
X79591593Y-86842600D02*
X79603600Y-86842600D01*
X79883000Y-88138000D02*
X79875293Y-88138000D01*
X79304697Y-87129496D02*
X79591593Y-86842600D01*
X80149700Y-85710304D02*
X78213586Y-83774190D01*
X89089056Y-88058610D02*
X89789000Y-88758554D01*
X89089056Y-87987450D02*
X89089056Y-88058610D01*
X90230000Y-93335800D02*
X89789000Y-92894800D01*
X89789000Y-88758554D02*
X89789000Y-89185652D01*
X89789000Y-92894800D02*
X89789000Y-89185652D01*
X91894088Y-94096400D02*
X90990600Y-94096400D01*
X90990600Y-94096400D02*
X90230000Y-93335800D01*
X90093800Y-88315800D02*
X90093800Y-92768548D01*
X89839800Y-88061800D02*
X90093800Y-88315800D01*
X90893552Y-93568300D02*
X93475100Y-93568300D01*
X90093800Y-92768548D02*
X90893552Y-93568300D01*
X76650200Y-93827600D02*
X76369900Y-94107900D01*
X76369900Y-94107900D02*
X74465800Y-94107900D01*
X79019336Y-91458464D02*
X76650200Y-93827600D01*
X79019336Y-90781084D02*
X79019336Y-91458464D01*
X78268224Y-91778524D02*
X78268224Y-90746624D01*
X76625548Y-93421200D02*
X78268224Y-91778524D01*
X74872200Y-93421200D02*
X76625548Y-93421200D01*
X94531300Y-90719076D02*
X94531300Y-91795100D01*
X94531300Y-91795100D02*
X96894000Y-94157800D01*
X94003200Y-94111800D02*
X94582600Y-94691200D01*
X94406728Y-90022672D02*
X94003200Y-90426200D01*
X94814812Y-90022672D02*
X94406728Y-90022672D01*
X94003200Y-90426200D02*
X94003200Y-94111800D01*
D15*
X98492400Y-96859000D02*
X96671400Y-98680000D01*
X96671400Y-98680000D02*
X96270000Y-98680000D01*
X96270000Y-90040000D02*
X96451371Y-90040000D01*
X98492400Y-92081029D02*
X98492400Y-96859000D01*
X96451371Y-90040000D02*
X98492400Y-92081029D01*
D14*
X88540200Y-80749400D02*
X91458400Y-83667600D01*
X81727400Y-80749400D02*
X82746200Y-80749400D01*
X82746200Y-80749400D02*
X88540200Y-80749400D01*
X81171400Y-81305400D02*
X81727400Y-80749400D01*
D13*
X85347250Y-81974323D02*
X85115664Y-81974323D01*
X93338000Y-86283800D02*
X92731900Y-86889900D01*
X91615600Y-84572354D02*
X89932423Y-82889177D01*
X85656896Y-82283969D02*
X85347250Y-81974323D01*
X92731900Y-86889900D02*
X92053546Y-86889900D01*
X92053546Y-86889900D02*
X91615600Y-86451954D01*
X85115664Y-81974323D02*
X84942050Y-81800709D01*
X89932423Y-82889177D02*
X89327215Y-82283969D01*
X91615600Y-86451954D02*
X91615600Y-84572354D01*
X89327215Y-82283969D02*
X85656896Y-82283969D01*
D14*
X74019600Y-85695600D02*
X73907000Y-85808200D01*
X75615800Y-85695600D02*
X74019600Y-85695600D01*
X77234400Y-85344000D02*
X76707800Y-85870600D01*
X76707800Y-85870600D02*
X75790800Y-85870600D01*
X75790800Y-85870600D02*
X75615800Y-85695600D01*
X73907000Y-85808200D02*
X73907000Y-86410800D01*
X73297400Y-85293200D02*
X76320000Y-85293200D01*
X71900400Y-86690200D02*
X73297400Y-85293200D01*
G04 #@! TA.AperFunction,Conductor*
G36*
X69322063Y-79045585D02*
G01*
X69346665Y-79068688D01*
X69371268Y-79045586D01*
X69431969Y-79030000D01*
X71861362Y-79030000D01*
X71922063Y-79045585D01*
X71946665Y-79068688D01*
X71971268Y-79045586D01*
X72031969Y-79030000D01*
X84918118Y-79030000D01*
X84980076Y-79046286D01*
X85026018Y-79090934D01*
X85044067Y-79152402D01*
X85029557Y-79214800D01*
X84986239Y-79261998D01*
X84942134Y-79290342D01*
X84942131Y-79290344D01*
X84934554Y-79295214D01*
X84928653Y-79302023D01*
X84928653Y-79302024D01*
X84847455Y-79395733D01*
X84839703Y-79404679D01*
X84835961Y-79412872D01*
X84835957Y-79412879D01*
X84783982Y-79526690D01*
X84779533Y-79536432D01*
X84778252Y-79545340D01*
X84778250Y-79545348D01*
X84760744Y-79667114D01*
X84758920Y-79679800D01*
X84760202Y-79688717D01*
X84778250Y-79814251D01*
X84778251Y-79814257D01*
X84779533Y-79823168D01*
X84783275Y-79831363D01*
X84783276Y-79831364D01*
X84787200Y-79839956D01*
X84798266Y-79901287D01*
X84778585Y-79960419D01*
X84732973Y-80002886D01*
X84672587Y-80018299D01*
X81333081Y-80018299D01*
X81322098Y-80017819D01*
X81295127Y-80015459D01*
X81284144Y-80014498D01*
X81273497Y-80017350D01*
X81273491Y-80017351D01*
X81247330Y-80024361D01*
X81236605Y-80026739D01*
X81209935Y-80031442D01*
X81209933Y-80031442D01*
X81199078Y-80033357D01*
X81189535Y-80038865D01*
X81186115Y-80040111D01*
X81182817Y-80041648D01*
X81172176Y-80044500D01*
X81163153Y-80050817D01*
X81163150Y-80050819D01*
X81140953Y-80066361D01*
X81131692Y-80072260D01*
X81108238Y-80085802D01*
X81108233Y-80085805D01*
X81098690Y-80091316D01*
X81091605Y-80099758D01*
X81091605Y-80099759D01*
X81074188Y-80120515D01*
X81066764Y-80128615D01*
X79823785Y-81371595D01*
X79782908Y-81398909D01*
X79734690Y-81408500D01*
X75348057Y-81408500D01*
X75294804Y-81396693D01*
X75266690Y-81375119D01*
X75265241Y-81376847D01*
X75256795Y-81369760D01*
X75249711Y-81361317D01*
X75240166Y-81355806D01*
X75240165Y-81355805D01*
X75216711Y-81342264D01*
X75207442Y-81336359D01*
X75185254Y-81320823D01*
X75185253Y-81320822D01*
X75176225Y-81314501D01*
X75165578Y-81311648D01*
X75162290Y-81310115D01*
X75158869Y-81308870D01*
X75149323Y-81303358D01*
X75138464Y-81301443D01*
X75111796Y-81296740D01*
X75101072Y-81294362D01*
X75074905Y-81287351D01*
X75074899Y-81287350D01*
X75064257Y-81284499D01*
X75053282Y-81285459D01*
X75053280Y-81285459D01*
X75026287Y-81287821D01*
X75015305Y-81288300D01*
X74555062Y-81288300D01*
X74544080Y-81287821D01*
X74517086Y-81285459D01*
X74517084Y-81285459D01*
X74506110Y-81284499D01*
X74495467Y-81287350D01*
X74495462Y-81287351D01*
X74469296Y-81294362D01*
X74458571Y-81296740D01*
X74431901Y-81301443D01*
X74431899Y-81301443D01*
X74421044Y-81303358D01*
X74411501Y-81308866D01*
X74408081Y-81310112D01*
X74404783Y-81311649D01*
X74394142Y-81314501D01*
X74385119Y-81320818D01*
X74385116Y-81320820D01*
X74362919Y-81336362D01*
X74353658Y-81342261D01*
X74330204Y-81355803D01*
X74330199Y-81355806D01*
X74320656Y-81361317D01*
X74313571Y-81369759D01*
X74313571Y-81369760D01*
X74296154Y-81390516D01*
X74288730Y-81398616D01*
X73866415Y-81820931D01*
X73858314Y-81828355D01*
X73837562Y-81845768D01*
X73837557Y-81845773D01*
X73829117Y-81852856D01*
X73823606Y-81862399D01*
X73823603Y-81862404D01*
X73810061Y-81885858D01*
X73804162Y-81895119D01*
X73788620Y-81917316D01*
X73788618Y-81917319D01*
X73782301Y-81926342D01*
X73779449Y-81936983D01*
X73777912Y-81940281D01*
X73776666Y-81943701D01*
X73771158Y-81953244D01*
X73769243Y-81964099D01*
X73769243Y-81964101D01*
X73764540Y-81990771D01*
X73762162Y-82001496D01*
X73755151Y-82027662D01*
X73755150Y-82027667D01*
X73752299Y-82038310D01*
X73753259Y-82049284D01*
X73753259Y-82049286D01*
X73755621Y-82076280D01*
X73756100Y-82087262D01*
X73756100Y-83301458D01*
X73746509Y-83349676D01*
X73719195Y-83390553D01*
X73449353Y-83660395D01*
X73408476Y-83687709D01*
X73360258Y-83697300D01*
X73301179Y-83697300D01*
X73292536Y-83699837D01*
X73292534Y-83699838D01*
X73170849Y-83735567D01*
X73170845Y-83735568D01*
X73162204Y-83738106D01*
X73154625Y-83742976D01*
X73154624Y-83742977D01*
X73047934Y-83811542D01*
X73047931Y-83811544D01*
X73040354Y-83816414D01*
X73034453Y-83823223D01*
X73034453Y-83823224D01*
X72952185Y-83918168D01*
X72945503Y-83925879D01*
X72941761Y-83934072D01*
X72941757Y-83934079D01*
X72892878Y-84041110D01*
X72885333Y-84057632D01*
X72884052Y-84066540D01*
X72884050Y-84066548D01*
X72870200Y-84162885D01*
X72864720Y-84201000D01*
X72866002Y-84209917D01*
X72884050Y-84335451D01*
X72884051Y-84335457D01*
X72885333Y-84344368D01*
X72889075Y-84352563D01*
X72889076Y-84352564D01*
X72941757Y-84467920D01*
X72941759Y-84467923D01*
X72945503Y-84476121D01*
X73040354Y-84585586D01*
X73162204Y-84663894D01*
X73301179Y-84704700D01*
X73437012Y-84704700D01*
X73446021Y-84704700D01*
X73584996Y-84663894D01*
X73706846Y-84585586D01*
X73759873Y-84524388D01*
X73802757Y-84492286D01*
X73855099Y-84480900D01*
X76670826Y-84480900D01*
X76719044Y-84490491D01*
X76759921Y-84517805D01*
X76973452Y-84731336D01*
X77003180Y-84778512D01*
X77009635Y-84833899D01*
X76991555Y-84886648D01*
X76952479Y-84926428D01*
X76908736Y-84954540D01*
X76908729Y-84954545D01*
X76901154Y-84959414D01*
X76895255Y-84966221D01*
X76895250Y-84966226D01*
X76894432Y-84967171D01*
X76893380Y-84967846D01*
X76888442Y-84972126D01*
X76887826Y-84971415D01*
X76834706Y-85005554D01*
X76763710Y-85005553D01*
X76703984Y-84967169D01*
X76659147Y-84915424D01*
X76659146Y-84915423D01*
X76653246Y-84908614D01*
X76531396Y-84830306D01*
X76522752Y-84827767D01*
X76522750Y-84827767D01*
X76401065Y-84792038D01*
X76401064Y-84792037D01*
X76392421Y-84789500D01*
X76247579Y-84789500D01*
X76238936Y-84792037D01*
X76238934Y-84792038D01*
X76117249Y-84827767D01*
X76117245Y-84827768D01*
X76108604Y-84830306D01*
X76101025Y-84835176D01*
X76101024Y-84835177D01*
X75994334Y-84903742D01*
X75994331Y-84903744D01*
X75986754Y-84908614D01*
X75980856Y-84915419D01*
X75980852Y-84915424D01*
X75976010Y-84921013D01*
X75933128Y-84953114D01*
X75880786Y-84964500D01*
X73317251Y-84964500D01*
X73306269Y-84964021D01*
X73279286Y-84961660D01*
X73279284Y-84961660D01*
X73268310Y-84960700D01*
X73257669Y-84963550D01*
X73257668Y-84963551D01*
X73247685Y-84966226D01*
X73231493Y-84970564D01*
X73220778Y-84972939D01*
X73194095Y-84977644D01*
X73194092Y-84977644D01*
X73183244Y-84979558D01*
X73173706Y-84985064D01*
X73170291Y-84986307D01*
X73166983Y-84987849D01*
X73156342Y-84990701D01*
X73147319Y-84997018D01*
X73147312Y-84997022D01*
X73125122Y-85012560D01*
X73115857Y-85018463D01*
X73092401Y-85032005D01*
X73092396Y-85032008D01*
X73082856Y-85037517D01*
X73075774Y-85045955D01*
X73075771Y-85045959D01*
X73058354Y-85066716D01*
X73050930Y-85074816D01*
X71976150Y-86149597D01*
X71935276Y-86176909D01*
X71887058Y-86186500D01*
X71827979Y-86186500D01*
X71819336Y-86189037D01*
X71819334Y-86189038D01*
X71697649Y-86224767D01*
X71697645Y-86224768D01*
X71689004Y-86227306D01*
X71681425Y-86232176D01*
X71681424Y-86232177D01*
X71574734Y-86300742D01*
X71574731Y-86300744D01*
X71567154Y-86305614D01*
X71561253Y-86312423D01*
X71561253Y-86312424D01*
X71512182Y-86369056D01*
X71472303Y-86415079D01*
X71468561Y-86423272D01*
X71468557Y-86423279D01*
X71415876Y-86538635D01*
X71412133Y-86546832D01*
X71410852Y-86555740D01*
X71410850Y-86555748D01*
X71392802Y-86681283D01*
X71391520Y-86690200D01*
X71392802Y-86699117D01*
X71410850Y-86824651D01*
X71410851Y-86824657D01*
X71412133Y-86833568D01*
X71415875Y-86841763D01*
X71415876Y-86841764D01*
X71468557Y-86957120D01*
X71468559Y-86957123D01*
X71472303Y-86965321D01*
X71567154Y-87074786D01*
X71689004Y-87153094D01*
X71827979Y-87193900D01*
X71963812Y-87193900D01*
X71972821Y-87193900D01*
X72111796Y-87153094D01*
X72233646Y-87074786D01*
X72328497Y-86965321D01*
X72388667Y-86833568D01*
X72409280Y-86690200D01*
X72409860Y-86690283D01*
X72417585Y-86651432D01*
X72444899Y-86610551D01*
X72560225Y-86495225D01*
X72607399Y-86465500D01*
X72662785Y-86459044D01*
X72715533Y-86477123D01*
X72746138Y-86507185D01*
X72747333Y-86506151D01*
X72842184Y-86615616D01*
X72964034Y-86693924D01*
X73018070Y-86709790D01*
X73050251Y-86719239D01*
X73103848Y-86751040D01*
X73588166Y-87235358D01*
X73589897Y-87237347D01*
X73592612Y-87242799D01*
X73621131Y-87268798D01*
X73624364Y-87271745D01*
X73628573Y-87275765D01*
X73640266Y-87287458D01*
X73644934Y-87290655D01*
X73648772Y-87293996D01*
X73669945Y-87313298D01*
X73680837Y-87317517D01*
X73687759Y-87321803D01*
X73695198Y-87325087D01*
X73704830Y-87331686D01*
X73728332Y-87337213D01*
X73745000Y-87342373D01*
X73767524Y-87351100D01*
X73779205Y-87351100D01*
X73787202Y-87352595D01*
X73795329Y-87352970D01*
X73806695Y-87355644D01*
X73830610Y-87352308D01*
X73848018Y-87351100D01*
X78884205Y-87351100D01*
X78886828Y-87351282D01*
X78892601Y-87353217D01*
X78904260Y-87352678D01*
X78915829Y-87354292D01*
X78915277Y-87358245D01*
X78958500Y-87368108D01*
X79006960Y-87414438D01*
X79024797Y-87479066D01*
X79024797Y-87519661D01*
X79024614Y-87522289D01*
X79022679Y-87528064D01*
X79023218Y-87539725D01*
X79023218Y-87539727D01*
X79024663Y-87570976D01*
X79024797Y-87576795D01*
X79024797Y-87593339D01*
X79025834Y-87598891D01*
X79026190Y-87604018D01*
X79026972Y-87620935D01*
X79026972Y-87620938D01*
X79027512Y-87632597D01*
X79032226Y-87643275D01*
X79034091Y-87651202D01*
X79037031Y-87658791D01*
X79039177Y-87670267D01*
X79051892Y-87690802D01*
X79060025Y-87706232D01*
X79069781Y-87728326D01*
X79078037Y-87736582D01*
X79082635Y-87743294D01*
X79088118Y-87749308D01*
X79094266Y-87759237D01*
X79113536Y-87773789D01*
X79126699Y-87785244D01*
X79342762Y-88001307D01*
X79373219Y-88050610D01*
X79378385Y-88108331D01*
X79375963Y-88125177D01*
X79374120Y-88138000D01*
X79375402Y-88146917D01*
X79393450Y-88272451D01*
X79393451Y-88272457D01*
X79394733Y-88281368D01*
X79398475Y-88289563D01*
X79398476Y-88289564D01*
X79451157Y-88404920D01*
X79451159Y-88404923D01*
X79454903Y-88413121D01*
X79549754Y-88522586D01*
X79550182Y-88522861D01*
X79584118Y-88573000D01*
X79588774Y-88638051D01*
X79565658Y-88685646D01*
X79567277Y-88686687D01*
X79562404Y-88694268D01*
X79556503Y-88701079D01*
X79552761Y-88709272D01*
X79552757Y-88709279D01*
X79503058Y-88818106D01*
X79496333Y-88832832D01*
X79495051Y-88841747D01*
X79493248Y-88847888D01*
X79459842Y-88903060D01*
X79403512Y-88934474D01*
X79339017Y-88933897D01*
X79283258Y-88901482D01*
X78910993Y-88529217D01*
X78903566Y-88521113D01*
X78879068Y-88491917D01*
X78869523Y-88486406D01*
X78869522Y-88486405D01*
X78846068Y-88472864D01*
X78836799Y-88466959D01*
X78814611Y-88451423D01*
X78814610Y-88451422D01*
X78805582Y-88445101D01*
X78794935Y-88442248D01*
X78791647Y-88440715D01*
X78788226Y-88439470D01*
X78778680Y-88433958D01*
X78767821Y-88432043D01*
X78741153Y-88427340D01*
X78730429Y-88424962D01*
X78704262Y-88417951D01*
X78704256Y-88417950D01*
X78693614Y-88415099D01*
X78682639Y-88416059D01*
X78682637Y-88416059D01*
X78655644Y-88418421D01*
X78644662Y-88418900D01*
X73850651Y-88418900D01*
X73839669Y-88418421D01*
X73812686Y-88416060D01*
X73812684Y-88416060D01*
X73801710Y-88415100D01*
X73791069Y-88417950D01*
X73791068Y-88417951D01*
X73783671Y-88419933D01*
X73764893Y-88424964D01*
X73754178Y-88427339D01*
X73727495Y-88432044D01*
X73727492Y-88432044D01*
X73716644Y-88433958D01*
X73707106Y-88439464D01*
X73703691Y-88440707D01*
X73700383Y-88442249D01*
X73689742Y-88445101D01*
X73680719Y-88451418D01*
X73680712Y-88451422D01*
X73658522Y-88466960D01*
X73649257Y-88472863D01*
X73625801Y-88486405D01*
X73625796Y-88486408D01*
X73616256Y-88491917D01*
X73609174Y-88500355D01*
X73609171Y-88500359D01*
X73591754Y-88521116D01*
X73584330Y-88529216D01*
X71148615Y-90964931D01*
X71140514Y-90972355D01*
X71119762Y-90989768D01*
X71119757Y-90989773D01*
X71111317Y-90996856D01*
X71105806Y-91006399D01*
X71105803Y-91006404D01*
X71092261Y-91029858D01*
X71086362Y-91039119D01*
X71070820Y-91061316D01*
X71070818Y-91061319D01*
X71064501Y-91070342D01*
X71061649Y-91080983D01*
X71060112Y-91084281D01*
X71058866Y-91087701D01*
X71053358Y-91097244D01*
X71051443Y-91108099D01*
X71051443Y-91108101D01*
X71046740Y-91134771D01*
X71044362Y-91145496D01*
X71037351Y-91171662D01*
X71037350Y-91171667D01*
X71034499Y-91182310D01*
X71035459Y-91193284D01*
X71035459Y-91193286D01*
X71037821Y-91220280D01*
X71038300Y-91231262D01*
X71038300Y-104439772D01*
X71030356Y-104483804D01*
X71007524Y-104522284D01*
X70938903Y-104601479D01*
X70935161Y-104609672D01*
X70935157Y-104609679D01*
X70889260Y-104710181D01*
X70878733Y-104733232D01*
X70877452Y-104742140D01*
X70877450Y-104742148D01*
X70859402Y-104867683D01*
X70858120Y-104876600D01*
X70859402Y-104885517D01*
X70859402Y-104885521D01*
X70859747Y-104887921D01*
X70859674Y-104924275D01*
X70852834Y-104947065D01*
X70852501Y-104947542D01*
X70850911Y-104953472D01*
X70850581Y-104954575D01*
X70850613Y-104954587D01*
X70850588Y-104954678D01*
X70850371Y-104955275D01*
X70849225Y-104959095D01*
X70848112Y-104961481D01*
X70846866Y-104964901D01*
X70841358Y-104974444D01*
X70839443Y-104985299D01*
X70839443Y-104985301D01*
X70834740Y-105011971D01*
X70832362Y-105022696D01*
X70825351Y-105048862D01*
X70825350Y-105048867D01*
X70822499Y-105059510D01*
X70823459Y-105070484D01*
X70823459Y-105070486D01*
X70825821Y-105097480D01*
X70826300Y-105108462D01*
X70826300Y-109673938D01*
X70825821Y-109684919D01*
X70822499Y-109722890D01*
X70825350Y-109733532D01*
X70825351Y-109733538D01*
X70832362Y-109759705D01*
X70834740Y-109770429D01*
X70841358Y-109807956D01*
X70846870Y-109817502D01*
X70848115Y-109820923D01*
X70849648Y-109824211D01*
X70852501Y-109834858D01*
X70858822Y-109843886D01*
X70858823Y-109843887D01*
X70874359Y-109866075D01*
X70880263Y-109875343D01*
X70899317Y-109908344D01*
X70907758Y-109915427D01*
X70907760Y-109915429D01*
X70928515Y-109932844D01*
X70936619Y-109940271D01*
X71736897Y-110740549D01*
X71764211Y-110781426D01*
X71771940Y-110820283D01*
X71772520Y-110820200D01*
X71791850Y-110954651D01*
X71791851Y-110954657D01*
X71793133Y-110963568D01*
X71796875Y-110971763D01*
X71796876Y-110971764D01*
X71849557Y-111087120D01*
X71849559Y-111087123D01*
X71853303Y-111095321D01*
X71948154Y-111204786D01*
X72070004Y-111283094D01*
X72208979Y-111323900D01*
X72344812Y-111323900D01*
X72353821Y-111323900D01*
X72492796Y-111283094D01*
X72614646Y-111204786D01*
X72709497Y-111095321D01*
X72769667Y-110963568D01*
X72790280Y-110820200D01*
X72788998Y-110811283D01*
X72770949Y-110685748D01*
X72770948Y-110685747D01*
X72769667Y-110676832D01*
X72709497Y-110545079D01*
X72614646Y-110435614D01*
X72492796Y-110357306D01*
X72484152Y-110354767D01*
X72484150Y-110354767D01*
X72362465Y-110319038D01*
X72362464Y-110319037D01*
X72353821Y-110316500D01*
X72344812Y-110316500D01*
X72294742Y-110316500D01*
X72246524Y-110306909D01*
X72205647Y-110279595D01*
X71520605Y-109594553D01*
X71493291Y-109553676D01*
X71483700Y-109505458D01*
X71483700Y-107040018D01*
X71500253Y-106977590D01*
X71545562Y-106931564D01*
X71607723Y-106914034D01*
X71670398Y-106929602D01*
X71688632Y-106939627D01*
X71847823Y-106980500D01*
X71966966Y-106980500D01*
X71970925Y-106980500D01*
X72093058Y-106965071D01*
X72245871Y-106904568D01*
X72378837Y-106807963D01*
X72483600Y-106681326D01*
X72539991Y-106561487D01*
X72583834Y-106510480D01*
X72647669Y-106489294D01*
X72713309Y-106503966D01*
X72762048Y-106550316D01*
X72780000Y-106615135D01*
X72780000Y-108880000D01*
X77263410Y-108880000D01*
X77280000Y-108880000D01*
X77280000Y-104819300D01*
X77296881Y-104756300D01*
X77343000Y-104710181D01*
X77406000Y-104693300D01*
X90633505Y-104693300D01*
X90644486Y-104693778D01*
X90682457Y-104697101D01*
X90719289Y-104687231D01*
X90729984Y-104684860D01*
X90767523Y-104678242D01*
X90777080Y-104672723D01*
X90780492Y-104671481D01*
X90783767Y-104669953D01*
X90794425Y-104667099D01*
X90825656Y-104645229D01*
X90834885Y-104639349D01*
X90867911Y-104620283D01*
X90892413Y-104591081D01*
X90899829Y-104582988D01*
X91342817Y-104140000D01*
X92861520Y-104140000D01*
X92862802Y-104148917D01*
X92880850Y-104274451D01*
X92880851Y-104274457D01*
X92882133Y-104283368D01*
X92885875Y-104291563D01*
X92885876Y-104291564D01*
X92938557Y-104406920D01*
X92938559Y-104406923D01*
X92942303Y-104415121D01*
X93037154Y-104524586D01*
X93159004Y-104602894D01*
X93297979Y-104643700D01*
X93433812Y-104643700D01*
X93442821Y-104643700D01*
X93581796Y-104602894D01*
X93703646Y-104524586D01*
X93714389Y-104512187D01*
X93757272Y-104480086D01*
X93809614Y-104468700D01*
X95380338Y-104468700D01*
X95391319Y-104469178D01*
X95429290Y-104472501D01*
X95466122Y-104462631D01*
X95476817Y-104460260D01*
X95514356Y-104453642D01*
X95523913Y-104448123D01*
X95527325Y-104446881D01*
X95530600Y-104445353D01*
X95541258Y-104442499D01*
X95572489Y-104420629D01*
X95581718Y-104414749D01*
X95614744Y-104395683D01*
X95624962Y-104383506D01*
X95639238Y-104366491D01*
X95646655Y-104358395D01*
X95813647Y-104191404D01*
X95854525Y-104164091D01*
X95902743Y-104154500D01*
X95952812Y-104154500D01*
X95961821Y-104154500D01*
X96100796Y-104113694D01*
X96222646Y-104035386D01*
X96317497Y-103925921D01*
X96377667Y-103794168D01*
X96392746Y-103689293D01*
X96396998Y-103659717D01*
X96398280Y-103650800D01*
X96377667Y-103507432D01*
X96317497Y-103375679D01*
X96222646Y-103266214D01*
X96100796Y-103187906D01*
X96092152Y-103185367D01*
X96092150Y-103185367D01*
X95970465Y-103149638D01*
X95970464Y-103149637D01*
X95961821Y-103147100D01*
X95816979Y-103147100D01*
X95808336Y-103149637D01*
X95808334Y-103149638D01*
X95686649Y-103185367D01*
X95686645Y-103185368D01*
X95678004Y-103187906D01*
X95670425Y-103192776D01*
X95670424Y-103192777D01*
X95563734Y-103261342D01*
X95563731Y-103261344D01*
X95556154Y-103266214D01*
X95461303Y-103375679D01*
X95457561Y-103383872D01*
X95457557Y-103383879D01*
X95404876Y-103499235D01*
X95401133Y-103507432D01*
X95399852Y-103516340D01*
X95399850Y-103516348D01*
X95380520Y-103650800D01*
X95379939Y-103650716D01*
X95372211Y-103689571D01*
X95344898Y-103730448D01*
X95300953Y-103774394D01*
X95260076Y-103801709D01*
X95211857Y-103811300D01*
X93809614Y-103811300D01*
X93757272Y-103799914D01*
X93714390Y-103767813D01*
X93709547Y-103762224D01*
X93709546Y-103762223D01*
X93703646Y-103755414D01*
X93581796Y-103677106D01*
X93573152Y-103674567D01*
X93573150Y-103674567D01*
X93451465Y-103638838D01*
X93451464Y-103638837D01*
X93442821Y-103636300D01*
X93297979Y-103636300D01*
X93289336Y-103638837D01*
X93289334Y-103638838D01*
X93167649Y-103674567D01*
X93167645Y-103674568D01*
X93159004Y-103677106D01*
X93151425Y-103681976D01*
X93151424Y-103681977D01*
X93044734Y-103750542D01*
X93044731Y-103750544D01*
X93037154Y-103755414D01*
X93031253Y-103762223D01*
X93031253Y-103762224D01*
X92997040Y-103801709D01*
X92942303Y-103864879D01*
X92938561Y-103873072D01*
X92938557Y-103873079D01*
X92885876Y-103988435D01*
X92882133Y-103996632D01*
X92880852Y-104005540D01*
X92880850Y-104005548D01*
X92865302Y-104113694D01*
X92861520Y-104140000D01*
X91342817Y-104140000D01*
X92983813Y-102499005D01*
X93024691Y-102471691D01*
X93072909Y-102462100D01*
X98189286Y-102462100D01*
X98241628Y-102473486D01*
X98284510Y-102505587D01*
X98295254Y-102517986D01*
X98417104Y-102596294D01*
X98556079Y-102637100D01*
X98691912Y-102637100D01*
X98700921Y-102637100D01*
X98715204Y-102632905D01*
X98773073Y-102629805D01*
X98826210Y-102652935D01*
X98863373Y-102697404D01*
X98876700Y-102753803D01*
X98876700Y-104840658D01*
X98867109Y-104888876D01*
X98839795Y-104929753D01*
X95293353Y-108476195D01*
X95252476Y-108503509D01*
X95204258Y-108513100D01*
X95145179Y-108513100D01*
X95136536Y-108515637D01*
X95136534Y-108515638D01*
X95014849Y-108551367D01*
X95014845Y-108551368D01*
X95006204Y-108553906D01*
X94998625Y-108558776D01*
X94998624Y-108558777D01*
X94891934Y-108627342D01*
X94891931Y-108627344D01*
X94884354Y-108632214D01*
X94789503Y-108741679D01*
X94785761Y-108749872D01*
X94785757Y-108749879D01*
X94733076Y-108865235D01*
X94729333Y-108873432D01*
X94728052Y-108882340D01*
X94728050Y-108882348D01*
X94710002Y-109007883D01*
X94708720Y-109016800D01*
X94710002Y-109025717D01*
X94728050Y-109151251D01*
X94728051Y-109151257D01*
X94729333Y-109160168D01*
X94733075Y-109168363D01*
X94733076Y-109168364D01*
X94785757Y-109283720D01*
X94785759Y-109283723D01*
X94789503Y-109291921D01*
X94884354Y-109401386D01*
X95006204Y-109479694D01*
X95145179Y-109520500D01*
X95281012Y-109520500D01*
X95290021Y-109520500D01*
X95428996Y-109479694D01*
X95550846Y-109401386D01*
X95645697Y-109291921D01*
X95705867Y-109160168D01*
X95726480Y-109016800D01*
X95727060Y-109016883D01*
X95734785Y-108978032D01*
X95762099Y-108937151D01*
X98406156Y-106293094D01*
X98454810Y-106262857D01*
X98511826Y-106257286D01*
X98565415Y-106277536D01*
X98604500Y-106319420D01*
X98621000Y-106374279D01*
X98625944Y-106452860D01*
X98628393Y-106460397D01*
X98661238Y-106561487D01*
X98676732Y-106609171D01*
X98680979Y-106615864D01*
X98680981Y-106615867D01*
X98760548Y-106741244D01*
X98760550Y-106741246D01*
X98764798Y-106747940D01*
X98884607Y-106860448D01*
X99028632Y-106939627D01*
X99187823Y-106980500D01*
X99306966Y-106980500D01*
X99310925Y-106980500D01*
X99433058Y-106965071D01*
X99585871Y-106904568D01*
X99718837Y-106807963D01*
X99823600Y-106681326D01*
X99893579Y-106532613D01*
X99924376Y-106371170D01*
X99914056Y-106207140D01*
X99863268Y-106050829D01*
X99817477Y-105978674D01*
X99779451Y-105918755D01*
X99779450Y-105918753D01*
X99775202Y-105912060D01*
X99655393Y-105799552D01*
X99511368Y-105720373D01*
X99503693Y-105718402D01*
X99503692Y-105718402D01*
X99359854Y-105681471D01*
X99359853Y-105681470D01*
X99352177Y-105679500D01*
X99323941Y-105679500D01*
X99266738Y-105665767D01*
X99222005Y-105627561D01*
X99199492Y-105573211D01*
X99204108Y-105514564D01*
X99234843Y-105464407D01*
X99423806Y-105275444D01*
X99431864Y-105268059D01*
X99461083Y-105243544D01*
X99480149Y-105210518D01*
X99486029Y-105201289D01*
X99507899Y-105170058D01*
X99510753Y-105159400D01*
X99512281Y-105156125D01*
X99513523Y-105152713D01*
X99519042Y-105143156D01*
X99525660Y-105105617D01*
X99528031Y-105094922D01*
X99537901Y-105058090D01*
X99534578Y-105020119D01*
X99534100Y-105009138D01*
X99534100Y-99360906D01*
X99550652Y-99298478D01*
X99595961Y-99252452D01*
X99658121Y-99234922D01*
X99720801Y-99250491D01*
X99797444Y-99292626D01*
X99957418Y-99333700D01*
X100877168Y-99333700D01*
X100881131Y-99333700D01*
X101003861Y-99318196D01*
X101157426Y-99257395D01*
X101291045Y-99160315D01*
X101396324Y-99033054D01*
X101466647Y-98883610D01*
X101497596Y-98721372D01*
X101487225Y-98556535D01*
X101436187Y-98399456D01*
X101376223Y-98304968D01*
X101351937Y-98266699D01*
X101351936Y-98266697D01*
X101347688Y-98260004D01*
X101227289Y-98146942D01*
X101082556Y-98067374D01*
X100922582Y-98026300D01*
X99998869Y-98026300D01*
X99994944Y-98026795D01*
X99994941Y-98026796D01*
X99883998Y-98040811D01*
X99883996Y-98040811D01*
X99876139Y-98041804D01*
X99868777Y-98044718D01*
X99868772Y-98044720D01*
X99729940Y-98099688D01*
X99729936Y-98099690D01*
X99722574Y-98102605D01*
X99719087Y-98105138D01*
X99658123Y-98120283D01*
X99595962Y-98102753D01*
X99550653Y-98056727D01*
X99534100Y-97994299D01*
X99534100Y-90720906D01*
X99550652Y-90658478D01*
X99595961Y-90612452D01*
X99658121Y-90594922D01*
X99720801Y-90610491D01*
X99797444Y-90652626D01*
X99957418Y-90693700D01*
X100877168Y-90693700D01*
X100881131Y-90693700D01*
X101003861Y-90678196D01*
X101157426Y-90617395D01*
X101291045Y-90520315D01*
X101396324Y-90393054D01*
X101466647Y-90243610D01*
X101497596Y-90081372D01*
X101487225Y-89916535D01*
X101436187Y-89759456D01*
X101393598Y-89692346D01*
X101351937Y-89626699D01*
X101351936Y-89626697D01*
X101347688Y-89620004D01*
X101323080Y-89596896D01*
X101233065Y-89512366D01*
X101233064Y-89512365D01*
X101227289Y-89506942D01*
X101082556Y-89427374D01*
X100971680Y-89398906D01*
X100930259Y-89388271D01*
X100930258Y-89388270D01*
X100922582Y-89386300D01*
X100914653Y-89386300D01*
X100434043Y-89386300D01*
X100376840Y-89372567D01*
X100332107Y-89334361D01*
X100309594Y-89280011D01*
X100314210Y-89221364D01*
X100344945Y-89171207D01*
X100519027Y-88997125D01*
X100566907Y-88967154D01*
X100623076Y-88961115D01*
X100676238Y-88980225D01*
X100797404Y-89058094D01*
X100936379Y-89098900D01*
X101072212Y-89098900D01*
X101081221Y-89098900D01*
X101220196Y-89058094D01*
X101342046Y-88979786D01*
X101436897Y-88870321D01*
X101497067Y-88738568D01*
X101517680Y-88595200D01*
X101507240Y-88522586D01*
X101498349Y-88460748D01*
X101498348Y-88460747D01*
X101497067Y-88451832D01*
X101436897Y-88320079D01*
X101342046Y-88210614D01*
X101220196Y-88132306D01*
X101211552Y-88129767D01*
X101211550Y-88129767D01*
X101089865Y-88094038D01*
X101089864Y-88094037D01*
X101081221Y-88091500D01*
X101072212Y-88091500D01*
X101022142Y-88091500D01*
X100973924Y-88081909D01*
X100933047Y-88054595D01*
X98607199Y-85728747D01*
X98579319Y-85686481D01*
X98570330Y-85636653D01*
X98581680Y-85587312D01*
X98626867Y-85488368D01*
X98641953Y-85383441D01*
X98646198Y-85353917D01*
X98647480Y-85345000D01*
X98646198Y-85336083D01*
X98628149Y-85210548D01*
X98628148Y-85210547D01*
X98626867Y-85201632D01*
X98577069Y-85092590D01*
X98570442Y-85078079D01*
X98570441Y-85078078D01*
X98566697Y-85069879D01*
X98471846Y-84960414D01*
X98349996Y-84882106D01*
X98341352Y-84879567D01*
X98341350Y-84879567D01*
X98219665Y-84843838D01*
X98219664Y-84843837D01*
X98211021Y-84841300D01*
X98066179Y-84841300D01*
X98057536Y-84843837D01*
X98057534Y-84843838D01*
X97935849Y-84879567D01*
X97935845Y-84879568D01*
X97927204Y-84882106D01*
X97919625Y-84886976D01*
X97919624Y-84886977D01*
X97812934Y-84955542D01*
X97812931Y-84955544D01*
X97805354Y-84960414D01*
X97799453Y-84967223D01*
X97799453Y-84967224D01*
X97731230Y-85045959D01*
X97710503Y-85069879D01*
X97706761Y-85078072D01*
X97706757Y-85078079D01*
X97654890Y-85191653D01*
X97650333Y-85201632D01*
X97649052Y-85210540D01*
X97649050Y-85210548D01*
X97631002Y-85336083D01*
X97629720Y-85345000D01*
X97631002Y-85353917D01*
X97649050Y-85479451D01*
X97649051Y-85479457D01*
X97650333Y-85488368D01*
X97654075Y-85496563D01*
X97654076Y-85496564D01*
X97706757Y-85611920D01*
X97706759Y-85611923D01*
X97710503Y-85620121D01*
X97779198Y-85699400D01*
X97799995Y-85732771D01*
X97805352Y-85754292D01*
X97806099Y-85754092D01*
X97815962Y-85790905D01*
X97818340Y-85801629D01*
X97824958Y-85839156D01*
X97830470Y-85848702D01*
X97831715Y-85852123D01*
X97833248Y-85855411D01*
X97836101Y-85866058D01*
X97842422Y-85875086D01*
X97842423Y-85875087D01*
X97857959Y-85897275D01*
X97863864Y-85906544D01*
X97868820Y-85915129D01*
X97882917Y-85939544D01*
X97891358Y-85946627D01*
X97891360Y-85946629D01*
X97912115Y-85964044D01*
X97920219Y-85971471D01*
X100178503Y-88229755D01*
X100211115Y-88286239D01*
X100211115Y-88351461D01*
X100178503Y-88407945D01*
X98987020Y-89599427D01*
X98926901Y-89632955D01*
X98858134Y-89629884D01*
X98801243Y-89591131D01*
X98773207Y-89528264D01*
X98760867Y-89442432D01*
X98700697Y-89310679D01*
X98634051Y-89233765D01*
X98609412Y-89190091D01*
X98603757Y-89140267D01*
X98605101Y-89124911D01*
X98595233Y-89088087D01*
X98592859Y-89077374D01*
X98589907Y-89060632D01*
X98586242Y-89039844D01*
X98580728Y-89030294D01*
X98579484Y-89026877D01*
X98577951Y-89023591D01*
X98575099Y-89012942D01*
X98553232Y-88981713D01*
X98547336Y-88972457D01*
X98528283Y-88939456D01*
X98499083Y-88914954D01*
X98490980Y-88907528D01*
X94951548Y-85368096D01*
X94919132Y-85312336D01*
X94918557Y-85247840D01*
X94949972Y-85191510D01*
X95005146Y-85158105D01*
X95026836Y-85151736D01*
X95131196Y-85121094D01*
X95253046Y-85042786D01*
X95263789Y-85030387D01*
X95306672Y-84998286D01*
X95359014Y-84986900D01*
X95585738Y-84986900D01*
X95596719Y-84987378D01*
X95634690Y-84990701D01*
X95671522Y-84980831D01*
X95682217Y-84978460D01*
X95719756Y-84971842D01*
X95729313Y-84966323D01*
X95732725Y-84965081D01*
X95736000Y-84963553D01*
X95746658Y-84960699D01*
X95777889Y-84938829D01*
X95787118Y-84932949D01*
X95820144Y-84913883D01*
X95844646Y-84884681D01*
X95852062Y-84876588D01*
X99103416Y-81625235D01*
X99144294Y-81597921D01*
X99192512Y-81588330D01*
X100469956Y-81588330D01*
X100522298Y-81599716D01*
X100565180Y-81631817D01*
X100575924Y-81644216D01*
X100697774Y-81722524D01*
X100836749Y-81763330D01*
X100972582Y-81763330D01*
X100981591Y-81763330D01*
X101120566Y-81722524D01*
X101242416Y-81644216D01*
X101337267Y-81534751D01*
X101397437Y-81402998D01*
X101418050Y-81259630D01*
X101400272Y-81135980D01*
X101398719Y-81125178D01*
X101398718Y-81125177D01*
X101397437Y-81116262D01*
X101337267Y-80984509D01*
X101242416Y-80875044D01*
X101120566Y-80796736D01*
X101111922Y-80794197D01*
X101111920Y-80794197D01*
X100990235Y-80758468D01*
X100990234Y-80758467D01*
X100981591Y-80755930D01*
X100836749Y-80755930D01*
X100828106Y-80758467D01*
X100828104Y-80758468D01*
X100706419Y-80794197D01*
X100706415Y-80794198D01*
X100697774Y-80796736D01*
X100690195Y-80801606D01*
X100690194Y-80801607D01*
X100583504Y-80870172D01*
X100583501Y-80870174D01*
X100575924Y-80875044D01*
X100570026Y-80881849D01*
X100570022Y-80881854D01*
X100565180Y-80887443D01*
X100522298Y-80919544D01*
X100469956Y-80930930D01*
X99024032Y-80930930D01*
X99013050Y-80930451D01*
X98986056Y-80928089D01*
X98986054Y-80928089D01*
X98975080Y-80927129D01*
X98964437Y-80929980D01*
X98964432Y-80929981D01*
X98938266Y-80936992D01*
X98927541Y-80939370D01*
X98900871Y-80944073D01*
X98900869Y-80944073D01*
X98890014Y-80945988D01*
X98880471Y-80951496D01*
X98877051Y-80952742D01*
X98873753Y-80954279D01*
X98863112Y-80957131D01*
X98854089Y-80963448D01*
X98854086Y-80963450D01*
X98831889Y-80978992D01*
X98822628Y-80984891D01*
X98799174Y-80998433D01*
X98799169Y-80998436D01*
X98789626Y-81003947D01*
X98782541Y-81012389D01*
X98782541Y-81012390D01*
X98765124Y-81033146D01*
X98757700Y-81041246D01*
X95506353Y-84292595D01*
X95465476Y-84319909D01*
X95417258Y-84329500D01*
X95359014Y-84329500D01*
X95306672Y-84318114D01*
X95263790Y-84286013D01*
X95258947Y-84280424D01*
X95258946Y-84280423D01*
X95253046Y-84273614D01*
X95226170Y-84256342D01*
X95138776Y-84200177D01*
X95138774Y-84200176D01*
X95131196Y-84195306D01*
X95122551Y-84192767D01*
X95121293Y-84192193D01*
X95079954Y-84161839D01*
X95054136Y-84117525D01*
X95048117Y-84066593D01*
X95048646Y-84060542D01*
X95051501Y-84049890D01*
X95048178Y-84011919D01*
X95047700Y-84000938D01*
X95047700Y-80866398D01*
X95048179Y-80855416D01*
X95050540Y-80828425D01*
X95051501Y-80817446D01*
X95041633Y-80780622D01*
X95039259Y-80769909D01*
X95034556Y-80743236D01*
X95032642Y-80732379D01*
X95027128Y-80722829D01*
X95025884Y-80719412D01*
X95024351Y-80716126D01*
X95021499Y-80705477D01*
X94999632Y-80674248D01*
X94993736Y-80664992D01*
X94980193Y-80641535D01*
X94974683Y-80631991D01*
X94945483Y-80607489D01*
X94937380Y-80600063D01*
X94063534Y-79726217D01*
X94056107Y-79718113D01*
X94038693Y-79697360D01*
X94031609Y-79688917D01*
X94022064Y-79683406D01*
X94022063Y-79683405D01*
X93998609Y-79669864D01*
X93989340Y-79663959D01*
X93967152Y-79648423D01*
X93967151Y-79648422D01*
X93958123Y-79642101D01*
X93947476Y-79639248D01*
X93944188Y-79637715D01*
X93940767Y-79636470D01*
X93931221Y-79630958D01*
X93920362Y-79629043D01*
X93893694Y-79624340D01*
X93882970Y-79621962D01*
X93856803Y-79614951D01*
X93856797Y-79614950D01*
X93846155Y-79612099D01*
X93835180Y-79613059D01*
X93835178Y-79613059D01*
X93808185Y-79615421D01*
X93797203Y-79615900D01*
X90198759Y-79615900D01*
X85872386Y-79615900D01*
X85820042Y-79604513D01*
X85777159Y-79572410D01*
X85757226Y-79535902D01*
X85756067Y-79536432D01*
X85699642Y-79412879D01*
X85699641Y-79412878D01*
X85695897Y-79404679D01*
X85601046Y-79295214D01*
X85578216Y-79280542D01*
X85549361Y-79261998D01*
X85506043Y-79214800D01*
X85491533Y-79152402D01*
X85509582Y-79090934D01*
X85555524Y-79046286D01*
X85617482Y-79030000D01*
X97182900Y-79030000D01*
X97245900Y-79046881D01*
X97292019Y-79093000D01*
X97308900Y-79156000D01*
X97308900Y-79477738D01*
X97308421Y-79488719D01*
X97305099Y-79526690D01*
X97307951Y-79537334D01*
X97309231Y-79542112D01*
X97312240Y-79592645D01*
X97304222Y-79648423D01*
X97301120Y-79670000D01*
X97302402Y-79678917D01*
X97320450Y-79804451D01*
X97320451Y-79804457D01*
X97321733Y-79813368D01*
X97325475Y-79821563D01*
X97325476Y-79821564D01*
X97378157Y-79936920D01*
X97378159Y-79936923D01*
X97381903Y-79945121D01*
X97476754Y-80054586D01*
X97598604Y-80132894D01*
X97737579Y-80173700D01*
X97873412Y-80173700D01*
X97882421Y-80173700D01*
X98021396Y-80132894D01*
X98143246Y-80054586D01*
X98238097Y-79945121D01*
X98263804Y-79888830D01*
X98615624Y-79888830D01*
X98616121Y-79896735D01*
X98616121Y-79896741D01*
X98624596Y-80031442D01*
X98625944Y-80052860D01*
X98628393Y-80060397D01*
X98654187Y-80139786D01*
X98676732Y-80209171D01*
X98680979Y-80215864D01*
X98680981Y-80215867D01*
X98760548Y-80341244D01*
X98760550Y-80341246D01*
X98764798Y-80347940D01*
X98884607Y-80460448D01*
X99028632Y-80539627D01*
X99187823Y-80580500D01*
X99306966Y-80580500D01*
X99310925Y-80580500D01*
X99433058Y-80565071D01*
X99585871Y-80504568D01*
X99718837Y-80407963D01*
X99823600Y-80281326D01*
X99893579Y-80132613D01*
X99924376Y-79971170D01*
X99914056Y-79807140D01*
X99863268Y-79650829D01*
X99849442Y-79629043D01*
X99779451Y-79518755D01*
X99779450Y-79518753D01*
X99775202Y-79512060D01*
X99750347Y-79488720D01*
X99661169Y-79404976D01*
X99661168Y-79404975D01*
X99655393Y-79399552D01*
X99511368Y-79320373D01*
X99503693Y-79318402D01*
X99503692Y-79318402D01*
X99359854Y-79281471D01*
X99359853Y-79281470D01*
X99352738Y-79279644D01*
X99352733Y-79279642D01*
X99352177Y-79279500D01*
X99352195Y-79279429D01*
X99297910Y-79257937D01*
X99286665Y-79244345D01*
X99275423Y-79257936D01*
X99217154Y-79281006D01*
X99114807Y-79293935D01*
X99114803Y-79293935D01*
X99106942Y-79294929D01*
X99099577Y-79297844D01*
X99099573Y-79297846D01*
X98961497Y-79352514D01*
X98961491Y-79352516D01*
X98954129Y-79355432D01*
X98947717Y-79360090D01*
X98947716Y-79360091D01*
X98827576Y-79447377D01*
X98827572Y-79447380D01*
X98821163Y-79452037D01*
X98816113Y-79458140D01*
X98816109Y-79458145D01*
X98721452Y-79572566D01*
X98721448Y-79572571D01*
X98716400Y-79578674D01*
X98713026Y-79585843D01*
X98713024Y-79585847D01*
X98649796Y-79720213D01*
X98649794Y-79720218D01*
X98646421Y-79727387D01*
X98644936Y-79735169D01*
X98644935Y-79735174D01*
X98626586Y-79831364D01*
X98615624Y-79888830D01*
X98263804Y-79888830D01*
X98298267Y-79813368D01*
X98318880Y-79670000D01*
X98310555Y-79612099D01*
X98299549Y-79535548D01*
X98299548Y-79535547D01*
X98298267Y-79526632D01*
X98246317Y-79412879D01*
X98241842Y-79403079D01*
X98241841Y-79403078D01*
X98238097Y-79394879D01*
X98143246Y-79285414D01*
X98106810Y-79261998D01*
X98063492Y-79214800D01*
X98048982Y-79152402D01*
X98067031Y-79090934D01*
X98112973Y-79046286D01*
X98174931Y-79030000D01*
X99201362Y-79030000D01*
X99262063Y-79045585D01*
X99286665Y-79068688D01*
X99311268Y-79045586D01*
X99371969Y-79030000D01*
X101801362Y-79030000D01*
X101862063Y-79045585D01*
X101886665Y-79068688D01*
X101911268Y-79045586D01*
X101971969Y-79030000D01*
X102298500Y-79030000D01*
X102361500Y-79046881D01*
X102407619Y-79093000D01*
X102424500Y-79156000D01*
X102424500Y-79279466D01*
X102407947Y-79341894D01*
X102362639Y-79387920D01*
X102300479Y-79405450D01*
X102237801Y-79389880D01*
X102111368Y-79320373D01*
X102103693Y-79318402D01*
X102103692Y-79318402D01*
X101959854Y-79281471D01*
X101959853Y-79281470D01*
X101952738Y-79279644D01*
X101952733Y-79279642D01*
X101952177Y-79279500D01*
X101952195Y-79279429D01*
X101897910Y-79257937D01*
X101886665Y-79244345D01*
X101875423Y-79257936D01*
X101817154Y-79281006D01*
X101714807Y-79293935D01*
X101714803Y-79293935D01*
X101706942Y-79294929D01*
X101699577Y-79297844D01*
X101699573Y-79297846D01*
X101561497Y-79352514D01*
X101561491Y-79352516D01*
X101554129Y-79355432D01*
X101547717Y-79360090D01*
X101547716Y-79360091D01*
X101427576Y-79447377D01*
X101427572Y-79447380D01*
X101421163Y-79452037D01*
X101416113Y-79458140D01*
X101416109Y-79458145D01*
X101321452Y-79572566D01*
X101321448Y-79572571D01*
X101316400Y-79578674D01*
X101313026Y-79585843D01*
X101313024Y-79585847D01*
X101249796Y-79720213D01*
X101249794Y-79720218D01*
X101246421Y-79727387D01*
X101244936Y-79735169D01*
X101244935Y-79735174D01*
X101226586Y-79831364D01*
X101215624Y-79888830D01*
X101216121Y-79896735D01*
X101216121Y-79896741D01*
X101224596Y-80031442D01*
X101225944Y-80052860D01*
X101228393Y-80060397D01*
X101254187Y-80139786D01*
X101276732Y-80209171D01*
X101280979Y-80215864D01*
X101280981Y-80215867D01*
X101360548Y-80341244D01*
X101360550Y-80341246D01*
X101364798Y-80347940D01*
X101484607Y-80460448D01*
X101628632Y-80539627D01*
X101787823Y-80580500D01*
X101906966Y-80580500D01*
X101910925Y-80580500D01*
X102033058Y-80565071D01*
X102185871Y-80504568D01*
X102224440Y-80476545D01*
X102288615Y-80452871D01*
X102355703Y-80466216D01*
X102405933Y-80512648D01*
X102424500Y-80578483D01*
X102424500Y-105679466D01*
X102407947Y-105741894D01*
X102362639Y-105787920D01*
X102300479Y-105805450D01*
X102237801Y-105789880D01*
X102111368Y-105720373D01*
X102103693Y-105718402D01*
X102103692Y-105718402D01*
X101959854Y-105681471D01*
X101959853Y-105681470D01*
X101952177Y-105679500D01*
X101829075Y-105679500D01*
X101825154Y-105679995D01*
X101825143Y-105679996D01*
X101714807Y-105693935D01*
X101714803Y-105693935D01*
X101706942Y-105694929D01*
X101699577Y-105697844D01*
X101699573Y-105697846D01*
X101561497Y-105752514D01*
X101561491Y-105752516D01*
X101554129Y-105755432D01*
X101547717Y-105760090D01*
X101547716Y-105760091D01*
X101427576Y-105847377D01*
X101427572Y-105847380D01*
X101421163Y-105852037D01*
X101416113Y-105858140D01*
X101416109Y-105858145D01*
X101321452Y-105972566D01*
X101321448Y-105972571D01*
X101316400Y-105978674D01*
X101313026Y-105985843D01*
X101313024Y-105985847D01*
X101249796Y-106120213D01*
X101249794Y-106120218D01*
X101246421Y-106127387D01*
X101244936Y-106135169D01*
X101244935Y-106135174D01*
X101217778Y-106277536D01*
X101215624Y-106288830D01*
X101216121Y-106296735D01*
X101216121Y-106296741D01*
X101220804Y-106371170D01*
X101225944Y-106452860D01*
X101228393Y-106460397D01*
X101261238Y-106561487D01*
X101276732Y-106609171D01*
X101280979Y-106615864D01*
X101280981Y-106615867D01*
X101360548Y-106741244D01*
X101360550Y-106741246D01*
X101364798Y-106747940D01*
X101484607Y-106860448D01*
X101628632Y-106939627D01*
X101787823Y-106980500D01*
X101906966Y-106980500D01*
X101910925Y-106980500D01*
X102033058Y-106965071D01*
X102185871Y-106904568D01*
X102224440Y-106876545D01*
X102288615Y-106852871D01*
X102355703Y-106866216D01*
X102405933Y-106912648D01*
X102424500Y-106978483D01*
X102424500Y-111884000D01*
X102407619Y-111947000D01*
X102361500Y-111993119D01*
X102298500Y-112010000D01*
X94440967Y-112010000D01*
X94392748Y-112000408D01*
X94353074Y-111983974D01*
X94324589Y-111967529D01*
X94262993Y-111920265D01*
X94239734Y-111897006D01*
X94192470Y-111835410D01*
X94176024Y-111806924D01*
X94146311Y-111735191D01*
X94137798Y-111703420D01*
X94135439Y-111685500D01*
X94128285Y-111631159D01*
X94127946Y-111625989D01*
X94129124Y-111623952D01*
X94127208Y-111613085D01*
X94127208Y-111611905D01*
X94126087Y-111599095D01*
X94125500Y-111595388D01*
X94125500Y-111585469D01*
X94121773Y-111580340D01*
X94121202Y-111579026D01*
X94119581Y-111569828D01*
X94111137Y-111562742D01*
X94109438Y-111560717D01*
X94109093Y-111560401D01*
X94102489Y-111553797D01*
X94096661Y-111545776D01*
X94088703Y-111543190D01*
X94085923Y-111541584D01*
X94077480Y-111534500D01*
X94066457Y-111534500D01*
X94059948Y-111533352D01*
X94057937Y-111533194D01*
X94050000Y-111530615D01*
X94042060Y-111533194D01*
X94025472Y-111534500D01*
X78074528Y-111534500D01*
X78057939Y-111533194D01*
X78050000Y-111530615D01*
X78040567Y-111533679D01*
X78040566Y-111533680D01*
X78038043Y-111534500D01*
X78037913Y-111534100D01*
X78036603Y-111534307D01*
X78036674Y-111534504D01*
X78034525Y-111535286D01*
X78027446Y-111537862D01*
X78023322Y-111539281D01*
X78011283Y-111543193D01*
X78011277Y-111543196D01*
X78003339Y-111545776D01*
X78002487Y-111546947D01*
X77998355Y-111548452D01*
X77992845Y-111557993D01*
X77992843Y-111557997D01*
X77989891Y-111563110D01*
X77982721Y-111574151D01*
X77980329Y-111577443D01*
X77980324Y-111577450D01*
X77974500Y-111585469D01*
X77974500Y-111588883D01*
X77974140Y-111589590D01*
X77973763Y-111591046D01*
X77970876Y-111596048D01*
X77972790Y-111606904D01*
X77972790Y-111614730D01*
X77971712Y-111631176D01*
X77962201Y-111703420D01*
X77953687Y-111735193D01*
X77923974Y-111806925D01*
X77907529Y-111835410D01*
X77860265Y-111897006D01*
X77837006Y-111920265D01*
X77775410Y-111967529D01*
X77746926Y-111983974D01*
X77707253Y-112000408D01*
X77659033Y-112010000D01*
X68901500Y-112010000D01*
X68838500Y-111993119D01*
X68792381Y-111947000D01*
X68775500Y-111884000D01*
X68775500Y-106980534D01*
X68792053Y-106918106D01*
X68837361Y-106872080D01*
X68899521Y-106854550D01*
X68962198Y-106870119D01*
X69088632Y-106939627D01*
X69247823Y-106980500D01*
X69366966Y-106980500D01*
X69370925Y-106980500D01*
X69493058Y-106965071D01*
X69645871Y-106904568D01*
X69778837Y-106807963D01*
X69883600Y-106681326D01*
X69953579Y-106532613D01*
X69984376Y-106371170D01*
X69974056Y-106207140D01*
X69923268Y-106050829D01*
X69877477Y-105978674D01*
X69839451Y-105918755D01*
X69839450Y-105918753D01*
X69835202Y-105912060D01*
X69715393Y-105799552D01*
X69571368Y-105720373D01*
X69563693Y-105718402D01*
X69563692Y-105718402D01*
X69419854Y-105681471D01*
X69419853Y-105681470D01*
X69412177Y-105679500D01*
X69289075Y-105679500D01*
X69285154Y-105679995D01*
X69285143Y-105679996D01*
X69174807Y-105693935D01*
X69174803Y-105693935D01*
X69166942Y-105694929D01*
X69159577Y-105697844D01*
X69159573Y-105697846D01*
X69021497Y-105752514D01*
X69021491Y-105752516D01*
X69014129Y-105755432D01*
X69007720Y-105760088D01*
X69007717Y-105760090D01*
X68975560Y-105783454D01*
X68911385Y-105807129D01*
X68844297Y-105793784D01*
X68794067Y-105747352D01*
X68775500Y-105681517D01*
X68775500Y-80580534D01*
X68792053Y-80518106D01*
X68837361Y-80472080D01*
X68899521Y-80454550D01*
X68962198Y-80470119D01*
X69088632Y-80539627D01*
X69247823Y-80580500D01*
X69366966Y-80580500D01*
X69370925Y-80580500D01*
X69493058Y-80565071D01*
X69645871Y-80504568D01*
X69778837Y-80407963D01*
X69883600Y-80281326D01*
X69953579Y-80132613D01*
X69984376Y-79971170D01*
X69979196Y-79888830D01*
X71275624Y-79888830D01*
X71276121Y-79896735D01*
X71276121Y-79896741D01*
X71284596Y-80031442D01*
X71285944Y-80052860D01*
X71288393Y-80060397D01*
X71314187Y-80139786D01*
X71336732Y-80209171D01*
X71340979Y-80215864D01*
X71340981Y-80215867D01*
X71420548Y-80341244D01*
X71420550Y-80341246D01*
X71424798Y-80347940D01*
X71544607Y-80460448D01*
X71688632Y-80539627D01*
X71847823Y-80580500D01*
X71966966Y-80580500D01*
X71970925Y-80580500D01*
X72093058Y-80565071D01*
X72245871Y-80504568D01*
X72378837Y-80407963D01*
X72483600Y-80281326D01*
X72553579Y-80132613D01*
X72584376Y-79971170D01*
X72574056Y-79807140D01*
X72523268Y-79650829D01*
X72509442Y-79629043D01*
X72439451Y-79518755D01*
X72439450Y-79518753D01*
X72435202Y-79512060D01*
X72410347Y-79488720D01*
X72321169Y-79404976D01*
X72321168Y-79404975D01*
X72315393Y-79399552D01*
X72171368Y-79320373D01*
X72163693Y-79318402D01*
X72163692Y-79318402D01*
X72019854Y-79281471D01*
X72019853Y-79281470D01*
X72012738Y-79279644D01*
X72012733Y-79279642D01*
X72012177Y-79279500D01*
X72012195Y-79279429D01*
X71957910Y-79257937D01*
X71946665Y-79244345D01*
X71935423Y-79257936D01*
X71877154Y-79281006D01*
X71774807Y-79293935D01*
X71774803Y-79293935D01*
X71766942Y-79294929D01*
X71759577Y-79297844D01*
X71759573Y-79297846D01*
X71621497Y-79352514D01*
X71621491Y-79352516D01*
X71614129Y-79355432D01*
X71607717Y-79360090D01*
X71607716Y-79360091D01*
X71487576Y-79447377D01*
X71487572Y-79447380D01*
X71481163Y-79452037D01*
X71476113Y-79458140D01*
X71476109Y-79458145D01*
X71381452Y-79572566D01*
X71381448Y-79572571D01*
X71376400Y-79578674D01*
X71373026Y-79585843D01*
X71373024Y-79585847D01*
X71309796Y-79720213D01*
X71309794Y-79720218D01*
X71306421Y-79727387D01*
X71304936Y-79735169D01*
X71304935Y-79735174D01*
X71286586Y-79831364D01*
X71275624Y-79888830D01*
X69979196Y-79888830D01*
X69974056Y-79807140D01*
X69923268Y-79650829D01*
X69909442Y-79629043D01*
X69839451Y-79518755D01*
X69839450Y-79518753D01*
X69835202Y-79512060D01*
X69810347Y-79488720D01*
X69721169Y-79404976D01*
X69721168Y-79404975D01*
X69715393Y-79399552D01*
X69571368Y-79320373D01*
X69563693Y-79318402D01*
X69563692Y-79318402D01*
X69419854Y-79281471D01*
X69419853Y-79281470D01*
X69412738Y-79279644D01*
X69412733Y-79279642D01*
X69412177Y-79279500D01*
X69412195Y-79279429D01*
X69357910Y-79257937D01*
X69346665Y-79244345D01*
X69335423Y-79257936D01*
X69277154Y-79281006D01*
X69174807Y-79293935D01*
X69174803Y-79293935D01*
X69166942Y-79294929D01*
X69159577Y-79297844D01*
X69159573Y-79297846D01*
X69021497Y-79352514D01*
X69021491Y-79352516D01*
X69014129Y-79355432D01*
X69007720Y-79360088D01*
X69007717Y-79360090D01*
X68975560Y-79383454D01*
X68911385Y-79407129D01*
X68844297Y-79393784D01*
X68794067Y-79347352D01*
X68775500Y-79281517D01*
X68775500Y-79156000D01*
X68792381Y-79093000D01*
X68838500Y-79046881D01*
X68901500Y-79030000D01*
X69261362Y-79030000D01*
X69322063Y-79045585D01*
G37*
G04 #@! TD.AperFunction*
G04 #@! TA.AperFunction,Conductor*
G36*
X78524400Y-89085891D02*
G01*
X78565277Y-89113205D01*
X78870301Y-89418229D01*
X78901039Y-89468388D01*
X78905655Y-89527035D01*
X78883142Y-89581385D01*
X78838409Y-89619591D01*
X78781206Y-89633324D01*
X75615519Y-89633324D01*
X75612890Y-89633141D01*
X75607116Y-89631206D01*
X75595453Y-89631745D01*
X75564204Y-89633190D01*
X75558385Y-89633324D01*
X75541841Y-89633324D01*
X75536285Y-89634361D01*
X75531171Y-89634716D01*
X75514249Y-89635499D01*
X75514246Y-89635499D01*
X75502583Y-89636039D01*
X75491903Y-89640754D01*
X75483977Y-89642618D01*
X75476386Y-89645558D01*
X75464913Y-89647704D01*
X75454987Y-89653849D01*
X75454981Y-89653852D01*
X75444378Y-89660417D01*
X75428955Y-89668547D01*
X75417537Y-89673589D01*
X75417534Y-89673591D01*
X75406854Y-89678307D01*
X75398599Y-89686561D01*
X75391887Y-89691159D01*
X75385864Y-89696649D01*
X75375943Y-89702793D01*
X75368910Y-89712104D01*
X75368907Y-89712108D01*
X75361391Y-89722061D01*
X75349941Y-89735218D01*
X74820766Y-90264395D01*
X74779888Y-90291709D01*
X74731670Y-90301300D01*
X74603579Y-90301300D01*
X74594936Y-90303837D01*
X74594934Y-90303838D01*
X74473249Y-90339567D01*
X74473245Y-90339568D01*
X74464604Y-90342106D01*
X74457025Y-90346976D01*
X74457024Y-90346977D01*
X74350334Y-90415542D01*
X74350331Y-90415544D01*
X74342754Y-90420414D01*
X74336853Y-90427223D01*
X74336853Y-90427224D01*
X74261484Y-90514206D01*
X74247903Y-90529879D01*
X74244161Y-90538072D01*
X74244157Y-90538079D01*
X74191476Y-90653435D01*
X74187733Y-90661632D01*
X74186452Y-90670540D01*
X74186450Y-90670548D01*
X74174231Y-90755541D01*
X74167120Y-90805000D01*
X74168402Y-90813917D01*
X74186450Y-90939451D01*
X74186451Y-90939457D01*
X74187733Y-90948368D01*
X74191475Y-90956563D01*
X74191476Y-90956564D01*
X74244157Y-91071920D01*
X74244158Y-91071921D01*
X74247903Y-91080121D01*
X74342754Y-91189586D01*
X74464604Y-91267894D01*
X74603579Y-91308700D01*
X74739412Y-91308700D01*
X74748421Y-91308700D01*
X74887396Y-91267894D01*
X75009246Y-91189586D01*
X75104097Y-91080121D01*
X75118680Y-91048188D01*
X75153533Y-91002990D01*
X75204753Y-90977806D01*
X75261831Y-90977805D01*
X75313052Y-91002989D01*
X75347906Y-91048188D01*
X75364847Y-91085283D01*
X75369203Y-91094821D01*
X75464054Y-91204286D01*
X75585904Y-91282594D01*
X75724879Y-91323400D01*
X75860712Y-91323400D01*
X75869721Y-91323400D01*
X76008696Y-91282594D01*
X76130546Y-91204286D01*
X76225397Y-91094821D01*
X76285567Y-90963068D01*
X76306180Y-90819700D01*
X76300946Y-90783297D01*
X76306111Y-90725575D01*
X76336568Y-90676270D01*
X76478011Y-90534828D01*
X76518888Y-90507515D01*
X76567106Y-90497924D01*
X77649689Y-90497924D01*
X77717810Y-90517926D01*
X77764302Y-90571581D01*
X77774407Y-90641855D01*
X77767237Y-90691728D01*
X77759344Y-90746624D01*
X77760626Y-90755541D01*
X77778674Y-90881075D01*
X77778675Y-90881081D01*
X77779957Y-90889992D01*
X77783699Y-90898185D01*
X77783700Y-90898188D01*
X77836381Y-91013544D01*
X77836383Y-91013547D01*
X77840127Y-91021745D01*
X77934978Y-91131210D01*
X77942559Y-91136082D01*
X77944834Y-91138053D01*
X77976937Y-91180935D01*
X77988324Y-91233279D01*
X77988324Y-91610395D01*
X77978733Y-91658613D01*
X77951419Y-91699490D01*
X76546515Y-93104395D01*
X76505638Y-93131709D01*
X76457420Y-93141300D01*
X75353699Y-93141300D01*
X75301357Y-93129914D01*
X75258474Y-93097812D01*
X75211347Y-93043424D01*
X75211346Y-93043423D01*
X75205446Y-93036614D01*
X75083596Y-92958306D01*
X75074952Y-92955767D01*
X75074950Y-92955767D01*
X74953265Y-92920038D01*
X74953264Y-92920037D01*
X74944621Y-92917500D01*
X74799779Y-92917500D01*
X74791136Y-92920037D01*
X74791134Y-92920038D01*
X74669449Y-92955767D01*
X74669445Y-92955768D01*
X74660804Y-92958306D01*
X74653225Y-92963176D01*
X74653224Y-92963177D01*
X74546534Y-93031742D01*
X74546531Y-93031744D01*
X74538954Y-93036614D01*
X74533053Y-93043423D01*
X74533053Y-93043424D01*
X74456555Y-93131709D01*
X74444103Y-93146079D01*
X74440361Y-93154272D01*
X74440357Y-93154279D01*
X74391287Y-93261729D01*
X74383933Y-93277832D01*
X74382652Y-93286740D01*
X74382650Y-93286748D01*
X74364910Y-93410138D01*
X74363320Y-93421200D01*
X74364602Y-93430117D01*
X74374245Y-93497187D01*
X74368597Y-93556328D01*
X74336478Y-93606307D01*
X74285028Y-93636013D01*
X74263052Y-93642466D01*
X74263047Y-93642468D01*
X74254404Y-93645006D01*
X74246825Y-93649876D01*
X74246824Y-93649877D01*
X74140134Y-93718442D01*
X74140131Y-93718444D01*
X74132554Y-93723314D01*
X74126653Y-93730123D01*
X74126653Y-93730124D01*
X74064200Y-93802200D01*
X74037703Y-93832779D01*
X74033961Y-93840972D01*
X74033957Y-93840979D01*
X73981557Y-93955720D01*
X73977533Y-93964532D01*
X73976252Y-93973440D01*
X73976250Y-93973448D01*
X73960883Y-94080337D01*
X73956920Y-94107900D01*
X73958202Y-94116817D01*
X73976250Y-94242351D01*
X73976251Y-94242357D01*
X73977533Y-94251268D01*
X73981275Y-94259463D01*
X73981276Y-94259464D01*
X74033957Y-94374820D01*
X74033959Y-94374823D01*
X74037703Y-94383021D01*
X74132554Y-94492486D01*
X74254404Y-94570794D01*
X74393379Y-94611600D01*
X74529212Y-94611600D01*
X74538221Y-94611600D01*
X74677196Y-94570794D01*
X74799046Y-94492486D01*
X74852073Y-94431288D01*
X74894957Y-94399186D01*
X74947299Y-94387800D01*
X76322157Y-94387800D01*
X76324785Y-94387982D01*
X76330560Y-94389918D01*
X76373471Y-94387934D01*
X76379291Y-94387800D01*
X76390004Y-94387800D01*
X76395835Y-94387800D01*
X76401392Y-94386760D01*
X76406475Y-94386407D01*
X76435093Y-94385085D01*
X76445779Y-94380366D01*
X76453700Y-94378503D01*
X76461281Y-94375566D01*
X76472763Y-94373420D01*
X76493290Y-94360708D01*
X76508729Y-94352570D01*
X76530822Y-94342816D01*
X76539082Y-94334554D01*
X76545790Y-94329960D01*
X76551800Y-94324480D01*
X76561733Y-94318331D01*
X76576285Y-94299059D01*
X76587732Y-94285904D01*
X76866458Y-94007180D01*
X76866457Y-94007180D01*
X79183505Y-91690132D01*
X79185481Y-91688412D01*
X79190935Y-91685698D01*
X79210956Y-91663736D01*
X79219859Y-91653970D01*
X79223883Y-91649755D01*
X79228528Y-91645110D01*
X79235594Y-91638045D01*
X79238790Y-91633377D01*
X79242139Y-91629528D01*
X79261434Y-91608365D01*
X79265652Y-91597474D01*
X79271325Y-91588313D01*
X79276881Y-91577772D01*
X79279071Y-91574575D01*
X79319184Y-91537174D01*
X79371390Y-91520357D01*
X79425795Y-91527314D01*
X79472089Y-91556727D01*
X79824320Y-91908958D01*
X79826051Y-91910947D01*
X79828766Y-91916399D01*
X79839229Y-91925937D01*
X79860518Y-91945345D01*
X79864727Y-91949365D01*
X79870177Y-91954815D01*
X79901978Y-92008411D01*
X79904203Y-92070692D01*
X79876307Y-92126422D01*
X79791604Y-92224176D01*
X79785103Y-92231679D01*
X79781361Y-92239872D01*
X79781357Y-92239879D01*
X79728676Y-92355235D01*
X79724933Y-92363432D01*
X79723652Y-92372340D01*
X79723650Y-92372348D01*
X79711312Y-92458168D01*
X79704320Y-92506800D01*
X79705602Y-92515717D01*
X79723650Y-92641251D01*
X79723651Y-92641257D01*
X79724933Y-92650168D01*
X79728675Y-92658363D01*
X79728676Y-92658364D01*
X79781357Y-92773720D01*
X79781359Y-92773723D01*
X79785103Y-92781921D01*
X79879954Y-92891386D01*
X80001804Y-92969694D01*
X80140779Y-93010500D01*
X80149788Y-93010500D01*
X80268872Y-93010500D01*
X80317090Y-93020091D01*
X80357967Y-93047405D01*
X81572795Y-94262233D01*
X81600109Y-94303110D01*
X81609700Y-94351328D01*
X81609700Y-99886105D01*
X81609517Y-99888733D01*
X81607582Y-99894508D01*
X81608121Y-99906169D01*
X81608121Y-99906171D01*
X81609566Y-99937420D01*
X81609700Y-99943239D01*
X81609700Y-99959783D01*
X81610737Y-99965335D01*
X81611093Y-99970462D01*
X81611875Y-99987379D01*
X81611875Y-99987382D01*
X81612415Y-99999041D01*
X81617129Y-100009719D01*
X81618994Y-100017646D01*
X81621934Y-100025235D01*
X81624080Y-100036711D01*
X81636795Y-100057246D01*
X81644929Y-100072677D01*
X81648285Y-100080279D01*
X81654684Y-100094770D01*
X81662940Y-100103026D01*
X81667538Y-100109738D01*
X81673021Y-100115752D01*
X81679169Y-100125681D01*
X81698439Y-100140233D01*
X81711602Y-100151688D01*
X82361207Y-100801293D01*
X82391664Y-100850597D01*
X82396830Y-100908318D01*
X82391596Y-100944724D01*
X82392878Y-100953641D01*
X82408814Y-101064480D01*
X82398710Y-101134753D01*
X82352217Y-101188409D01*
X82284096Y-101208411D01*
X79468053Y-101208411D01*
X79419835Y-101198820D01*
X79378958Y-101171506D01*
X78870005Y-100662553D01*
X78842691Y-100621676D01*
X78833100Y-100573458D01*
X78833100Y-98201428D01*
X78841044Y-98157396D01*
X78863875Y-98118916D01*
X78873971Y-98107264D01*
X78932497Y-98039721D01*
X78992667Y-97907968D01*
X79002973Y-97836283D01*
X79011998Y-97773517D01*
X79013280Y-97764600D01*
X78992667Y-97621232D01*
X78932497Y-97489479D01*
X78837646Y-97380014D01*
X78715796Y-97301706D01*
X78707152Y-97299167D01*
X78707150Y-97299167D01*
X78585465Y-97263438D01*
X78585464Y-97263437D01*
X78576821Y-97260900D01*
X78431979Y-97260900D01*
X78423336Y-97263437D01*
X78423334Y-97263438D01*
X78301649Y-97299167D01*
X78301645Y-97299168D01*
X78293004Y-97301706D01*
X78285425Y-97306576D01*
X78285424Y-97306577D01*
X78178734Y-97375142D01*
X78178731Y-97375144D01*
X78171154Y-97380014D01*
X78165253Y-97386823D01*
X78165253Y-97386824D01*
X78115059Y-97444752D01*
X78076303Y-97489479D01*
X78072561Y-97497672D01*
X78072557Y-97497679D01*
X78019882Y-97613022D01*
X78016133Y-97621232D01*
X78014852Y-97630140D01*
X78014850Y-97630148D01*
X77996872Y-97755194D01*
X77995520Y-97764600D01*
X77996802Y-97773517D01*
X78014850Y-97899051D01*
X78014851Y-97899057D01*
X78016133Y-97907968D01*
X78019875Y-97916163D01*
X78019876Y-97916164D01*
X78072557Y-98031520D01*
X78072559Y-98031523D01*
X78076303Y-98039721D01*
X78100264Y-98067374D01*
X78144925Y-98118916D01*
X78167756Y-98157396D01*
X78175700Y-98201428D01*
X78175700Y-100741938D01*
X78175221Y-100752920D01*
X78173562Y-100771886D01*
X78171899Y-100790890D01*
X78174750Y-100801532D01*
X78174751Y-100801538D01*
X78181762Y-100827705D01*
X78184140Y-100838429D01*
X78190758Y-100875956D01*
X78196270Y-100885502D01*
X78197515Y-100888923D01*
X78199048Y-100892211D01*
X78201901Y-100902858D01*
X78208222Y-100911886D01*
X78208223Y-100911887D01*
X78223759Y-100934075D01*
X78229663Y-100943343D01*
X78248717Y-100976344D01*
X78257158Y-100983427D01*
X78257160Y-100983429D01*
X78277915Y-101000844D01*
X78286019Y-101008271D01*
X79033240Y-101755492D01*
X79040667Y-101763596D01*
X79058080Y-101784349D01*
X79058082Y-101784351D01*
X79065167Y-101792794D01*
X79098175Y-101811851D01*
X79107435Y-101817750D01*
X79120787Y-101827100D01*
X79126215Y-101830901D01*
X79138653Y-101839610D01*
X79149306Y-101842464D01*
X79152596Y-101843998D01*
X79156003Y-101845238D01*
X79165555Y-101850753D01*
X79202346Y-101857240D01*
X79203083Y-101857370D01*
X79213809Y-101859747D01*
X79250621Y-101869611D01*
X79288583Y-101866290D01*
X79299565Y-101865811D01*
X91071277Y-101865811D01*
X91123619Y-101877197D01*
X91166501Y-101909298D01*
X91171343Y-101914886D01*
X91177245Y-101921697D01*
X91299095Y-102000005D01*
X91438070Y-102040811D01*
X91573903Y-102040811D01*
X91582912Y-102040811D01*
X91721887Y-102000005D01*
X91843737Y-101921697D01*
X91938588Y-101812232D01*
X91998758Y-101680479D01*
X92019371Y-101537111D01*
X92018089Y-101528194D01*
X92000040Y-101402659D01*
X92000039Y-101402658D01*
X91998758Y-101393743D01*
X91938588Y-101261990D01*
X91843737Y-101152525D01*
X91721887Y-101074217D01*
X91713243Y-101071678D01*
X91713241Y-101071678D01*
X91591556Y-101035949D01*
X91591555Y-101035948D01*
X91582912Y-101033411D01*
X91438070Y-101033411D01*
X91429427Y-101035948D01*
X91429425Y-101035949D01*
X91307740Y-101071678D01*
X91307736Y-101071679D01*
X91299095Y-101074217D01*
X91291516Y-101079087D01*
X91291515Y-101079088D01*
X91184825Y-101147653D01*
X91184822Y-101147655D01*
X91177245Y-101152525D01*
X91171347Y-101159330D01*
X91171343Y-101159335D01*
X91166501Y-101164924D01*
X91123619Y-101197025D01*
X91071277Y-101208411D01*
X87426771Y-101208411D01*
X87369568Y-101194678D01*
X87324835Y-101156472D01*
X87302322Y-101102122D01*
X87306938Y-101043475D01*
X87337676Y-100993316D01*
X91727333Y-96603658D01*
X91768210Y-96576344D01*
X91816428Y-96566753D01*
X91935512Y-96566753D01*
X91944521Y-96566753D01*
X92083496Y-96525947D01*
X92205346Y-96447639D01*
X92300197Y-96338174D01*
X92360367Y-96206421D01*
X92370089Y-96138795D01*
X92398124Y-96075929D01*
X92455016Y-96037176D01*
X92523783Y-96034105D01*
X92583902Y-96067633D01*
X92949850Y-96433581D01*
X92957277Y-96441685D01*
X92981777Y-96470883D01*
X92991323Y-96476394D01*
X92991324Y-96476395D01*
X93014778Y-96489936D01*
X93024034Y-96495832D01*
X93055263Y-96517699D01*
X93065916Y-96520552D01*
X93069202Y-96522085D01*
X93072613Y-96523327D01*
X93082165Y-96528842D01*
X93114969Y-96534626D01*
X93119686Y-96535458D01*
X93130419Y-96537838D01*
X93156577Y-96544847D01*
X93156581Y-96544847D01*
X93167231Y-96547701D01*
X93205201Y-96544378D01*
X93216183Y-96543900D01*
X96394228Y-96543900D01*
X96456731Y-96560495D01*
X96502769Y-96605909D01*
X96520216Y-96668180D01*
X96504476Y-96730903D01*
X96462408Y-96774729D01*
X96461280Y-96775220D01*
X96454600Y-96780654D01*
X96454596Y-96780657D01*
X96350576Y-96865283D01*
X96350571Y-96865287D01*
X96343892Y-96870722D01*
X96338927Y-96877755D01*
X96338921Y-96877762D01*
X96261592Y-96987312D01*
X96261588Y-96987317D01*
X96256623Y-96994353D01*
X96253738Y-97002468D01*
X96253737Y-97002472D01*
X96208832Y-97128822D01*
X96208831Y-97128825D01*
X96205946Y-97136944D01*
X96205358Y-97145538D01*
X96205357Y-97145544D01*
X96196207Y-97279323D01*
X96195619Y-97287921D01*
X96197370Y-97296351D01*
X96197371Y-97296354D01*
X96214756Y-97380014D01*
X96226408Y-97436085D01*
X96230371Y-97443733D01*
X96230372Y-97443736D01*
X96276509Y-97532775D01*
X96296029Y-97570447D01*
X96301909Y-97576743D01*
X96301910Y-97576744D01*
X96335791Y-97613022D01*
X96399320Y-97681044D01*
X96528618Y-97759672D01*
X96578031Y-97773517D01*
X96597501Y-97778972D01*
X96649509Y-97808215D01*
X96682232Y-97858105D01*
X96688333Y-97917457D01*
X96666445Y-97972962D01*
X96621475Y-98012174D01*
X96563507Y-98026300D01*
X95678869Y-98026300D01*
X95674944Y-98026795D01*
X95674941Y-98026796D01*
X95563998Y-98040811D01*
X95563996Y-98040811D01*
X95556139Y-98041804D01*
X95548777Y-98044718D01*
X95548772Y-98044720D01*
X95409942Y-98099687D01*
X95409936Y-98099689D01*
X95402574Y-98102605D01*
X95396162Y-98107262D01*
X95396161Y-98107264D01*
X95275368Y-98195025D01*
X95275364Y-98195027D01*
X95268955Y-98199685D01*
X95263905Y-98205788D01*
X95263901Y-98205793D01*
X95168728Y-98320837D01*
X95168722Y-98320846D01*
X95163676Y-98326946D01*
X95160302Y-98334115D01*
X95160300Y-98334119D01*
X95096728Y-98469216D01*
X95096726Y-98469221D01*
X95093353Y-98476390D01*
X95091868Y-98484173D01*
X95091867Y-98484177D01*
X95065881Y-98620401D01*
X95062404Y-98638628D01*
X95062901Y-98646532D01*
X95062901Y-98646538D01*
X95068409Y-98734079D01*
X95072775Y-98803465D01*
X95075224Y-98811002D01*
X95117071Y-98939796D01*
X95123813Y-98960544D01*
X95128060Y-98967237D01*
X95128062Y-98967240D01*
X95208062Y-99093300D01*
X95208064Y-99093303D01*
X95212312Y-99099996D01*
X95218090Y-99105422D01*
X95218091Y-99105423D01*
X95270040Y-99154206D01*
X95332711Y-99213058D01*
X95477444Y-99292626D01*
X95637418Y-99333700D01*
X96857168Y-99333700D01*
X96861131Y-99333700D01*
X96983861Y-99318196D01*
X97137426Y-99257395D01*
X97271045Y-99160315D01*
X97376324Y-99033054D01*
X97446647Y-98883610D01*
X97477596Y-98721372D01*
X97468978Y-98584399D01*
X97476863Y-98531950D01*
X97505632Y-98487395D01*
X98661604Y-97331423D01*
X98711764Y-97300685D01*
X98770411Y-97296069D01*
X98824761Y-97318582D01*
X98862967Y-97363315D01*
X98876700Y-97420518D01*
X98876700Y-101512997D01*
X98863373Y-101569396D01*
X98826210Y-101613865D01*
X98773073Y-101636995D01*
X98715204Y-101633894D01*
X98713477Y-101633386D01*
X98709563Y-101632237D01*
X98709559Y-101632236D01*
X98700921Y-101629700D01*
X98556079Y-101629700D01*
X98547436Y-101632237D01*
X98547434Y-101632238D01*
X98425749Y-101667967D01*
X98425745Y-101667968D01*
X98417104Y-101670506D01*
X98409525Y-101675376D01*
X98409524Y-101675377D01*
X98302834Y-101743942D01*
X98302831Y-101743944D01*
X98295254Y-101748814D01*
X98289356Y-101755619D01*
X98289352Y-101755624D01*
X98284510Y-101761213D01*
X98241628Y-101793314D01*
X98189286Y-101804700D01*
X92904418Y-101804700D01*
X92893436Y-101804221D01*
X92866453Y-101801860D01*
X92866451Y-101801860D01*
X92855477Y-101800900D01*
X92844836Y-101803750D01*
X92844835Y-101803751D01*
X92834506Y-101806518D01*
X92818660Y-101810764D01*
X92807945Y-101813139D01*
X92781262Y-101817844D01*
X92781259Y-101817844D01*
X92770411Y-101819758D01*
X92760873Y-101825264D01*
X92757458Y-101826507D01*
X92754150Y-101828049D01*
X92743509Y-101830901D01*
X92734486Y-101837218D01*
X92734479Y-101837222D01*
X92712289Y-101852760D01*
X92703024Y-101858663D01*
X92679568Y-101872205D01*
X92679563Y-101872208D01*
X92670023Y-101877717D01*
X92662941Y-101886155D01*
X92662938Y-101886159D01*
X92645521Y-101906916D01*
X92638097Y-101915016D01*
X91692882Y-102860231D01*
X91645706Y-102889959D01*
X91590320Y-102896414D01*
X91537571Y-102878334D01*
X91506606Y-102847917D01*
X91505497Y-102848879D01*
X91410646Y-102739414D01*
X91288796Y-102661106D01*
X91280152Y-102658567D01*
X91280150Y-102658567D01*
X91158465Y-102622838D01*
X91158464Y-102622837D01*
X91149821Y-102620300D01*
X91004979Y-102620300D01*
X90996336Y-102622837D01*
X90996334Y-102622838D01*
X90874649Y-102658567D01*
X90874645Y-102658568D01*
X90866004Y-102661106D01*
X90858425Y-102665976D01*
X90858424Y-102665977D01*
X90751734Y-102734542D01*
X90751731Y-102734544D01*
X90744154Y-102739414D01*
X90649303Y-102848879D01*
X90645561Y-102857072D01*
X90645557Y-102857079D01*
X90592876Y-102972435D01*
X90589133Y-102980632D01*
X90587852Y-102989540D01*
X90587850Y-102989548D01*
X90568520Y-103124000D01*
X90567939Y-103123916D01*
X90560211Y-103162772D01*
X90532898Y-103203649D01*
X90139953Y-103596595D01*
X90099075Y-103623909D01*
X90050857Y-103633500D01*
X79530942Y-103633500D01*
X79482724Y-103623909D01*
X79441847Y-103596595D01*
X77371405Y-101526153D01*
X77344091Y-101485276D01*
X77334500Y-101437058D01*
X77334500Y-96423428D01*
X77342444Y-96379396D01*
X77365275Y-96340916D01*
X77374757Y-96329973D01*
X77433897Y-96261721D01*
X77494067Y-96129968D01*
X77514680Y-95986600D01*
X77494067Y-95843232D01*
X77433897Y-95711479D01*
X77339046Y-95602014D01*
X77217196Y-95523706D01*
X77208552Y-95521167D01*
X77208550Y-95521167D01*
X77086865Y-95485438D01*
X77086864Y-95485437D01*
X77078221Y-95482900D01*
X76933379Y-95482900D01*
X76924736Y-95485437D01*
X76924734Y-95485438D01*
X76803049Y-95521167D01*
X76803045Y-95521168D01*
X76794404Y-95523706D01*
X76786825Y-95528576D01*
X76786824Y-95528577D01*
X76680134Y-95597142D01*
X76680131Y-95597144D01*
X76672554Y-95602014D01*
X76666653Y-95608823D01*
X76666653Y-95608824D01*
X76606308Y-95678467D01*
X76577703Y-95711479D01*
X76573961Y-95719672D01*
X76573957Y-95719679D01*
X76525520Y-95825742D01*
X76517533Y-95843232D01*
X76516252Y-95852140D01*
X76516250Y-95852148D01*
X76498202Y-95977683D01*
X76496920Y-95986600D01*
X76498202Y-95995517D01*
X76516250Y-96121051D01*
X76516251Y-96121057D01*
X76517533Y-96129968D01*
X76521275Y-96138163D01*
X76521276Y-96138164D01*
X76573957Y-96253520D01*
X76573959Y-96253523D01*
X76577703Y-96261721D01*
X76583606Y-96268533D01*
X76646325Y-96340916D01*
X76669156Y-96379396D01*
X76677100Y-96423428D01*
X76677100Y-101605538D01*
X76676621Y-101616520D01*
X76674830Y-101636995D01*
X76673299Y-101654490D01*
X76676150Y-101665132D01*
X76676151Y-101665138D01*
X76683162Y-101691305D01*
X76685540Y-101702029D01*
X76692158Y-101739556D01*
X76697670Y-101749102D01*
X76698915Y-101752523D01*
X76700448Y-101755811D01*
X76703301Y-101766458D01*
X76709622Y-101775486D01*
X76709623Y-101775487D01*
X76725159Y-101797675D01*
X76731063Y-101806943D01*
X76750117Y-101839944D01*
X76758558Y-101847027D01*
X76758560Y-101847029D01*
X76779315Y-101864444D01*
X76787419Y-101871871D01*
X78736353Y-103820805D01*
X78767091Y-103870964D01*
X78771707Y-103929611D01*
X78749194Y-103983961D01*
X78704461Y-104022167D01*
X78647258Y-104035900D01*
X77389575Y-104035900D01*
X77341357Y-104026309D01*
X77300480Y-103998995D01*
X76036027Y-102734542D01*
X74752146Y-101450662D01*
X74722419Y-101403486D01*
X74715964Y-101348099D01*
X74734045Y-101295349D01*
X74773122Y-101255570D01*
X74816863Y-101227459D01*
X74824446Y-101222586D01*
X74919297Y-101113121D01*
X74979467Y-100981368D01*
X75000080Y-100838000D01*
X74993307Y-100790890D01*
X74980749Y-100703548D01*
X74980748Y-100703547D01*
X74979467Y-100694632D01*
X74919297Y-100562879D01*
X74850675Y-100483684D01*
X74827844Y-100445204D01*
X74819900Y-100401172D01*
X74819900Y-98714942D01*
X74829491Y-98666724D01*
X74856805Y-98625847D01*
X75787047Y-97695605D01*
X75827924Y-97668291D01*
X75876142Y-97658700D01*
X75926212Y-97658700D01*
X75935221Y-97658700D01*
X76074196Y-97617894D01*
X76196046Y-97539586D01*
X76290897Y-97430121D01*
X76351067Y-97298368D01*
X76371680Y-97155000D01*
X76370398Y-97146083D01*
X76352349Y-97020548D01*
X76352348Y-97020547D01*
X76351067Y-97011632D01*
X76290897Y-96879879D01*
X76196046Y-96770414D01*
X76074196Y-96692106D01*
X76065552Y-96689567D01*
X76065550Y-96689567D01*
X75943865Y-96653838D01*
X75943864Y-96653837D01*
X75935221Y-96651300D01*
X75790379Y-96651300D01*
X75781736Y-96653837D01*
X75781734Y-96653838D01*
X75660049Y-96689567D01*
X75660045Y-96689568D01*
X75651404Y-96692106D01*
X75643825Y-96696976D01*
X75643824Y-96696977D01*
X75537134Y-96765542D01*
X75537131Y-96765544D01*
X75529554Y-96770414D01*
X75523653Y-96777223D01*
X75523653Y-96777224D01*
X75442638Y-96870722D01*
X75434703Y-96879879D01*
X75430961Y-96888072D01*
X75430957Y-96888079D01*
X75382424Y-96994353D01*
X75374533Y-97011632D01*
X75373252Y-97020540D01*
X75373250Y-97020548D01*
X75353920Y-97155000D01*
X75353339Y-97154916D01*
X75345611Y-97193773D01*
X75318297Y-97234650D01*
X74272815Y-98280131D01*
X74264714Y-98287555D01*
X74243962Y-98304968D01*
X74243957Y-98304973D01*
X74235517Y-98312056D01*
X74230006Y-98321599D01*
X74230003Y-98321604D01*
X74216461Y-98345058D01*
X74210562Y-98354319D01*
X74195020Y-98376516D01*
X74195018Y-98376519D01*
X74188701Y-98385542D01*
X74185849Y-98396183D01*
X74184312Y-98399481D01*
X74183066Y-98402901D01*
X74177558Y-98412444D01*
X74175643Y-98423299D01*
X74175643Y-98423301D01*
X74170940Y-98449971D01*
X74168562Y-98460696D01*
X74161551Y-98486862D01*
X74161550Y-98486867D01*
X74158699Y-98497510D01*
X74159659Y-98508484D01*
X74159659Y-98508486D01*
X74162021Y-98535480D01*
X74162500Y-98546462D01*
X74162500Y-100401172D01*
X74154556Y-100445204D01*
X74131725Y-100483684D01*
X74063103Y-100562879D01*
X74061995Y-100561919D01*
X74031016Y-100592341D01*
X73978270Y-100610415D01*
X73922889Y-100603957D01*
X73875717Y-100574232D01*
X73697822Y-100396338D01*
X73670508Y-100355460D01*
X73660917Y-100307242D01*
X73660917Y-90482925D01*
X73670508Y-90434707D01*
X73697822Y-90393830D01*
X73812847Y-90278805D01*
X73853724Y-90251491D01*
X73901942Y-90241900D01*
X73952012Y-90241900D01*
X73961021Y-90241900D01*
X74099996Y-90201094D01*
X74221846Y-90122786D01*
X74316697Y-90013321D01*
X74376867Y-89881568D01*
X74397480Y-89738200D01*
X74388307Y-89674401D01*
X74378149Y-89603748D01*
X74378148Y-89603747D01*
X74376867Y-89594832D01*
X74316697Y-89463079D01*
X74221846Y-89353614D01*
X74151333Y-89308298D01*
X74108015Y-89261100D01*
X74093505Y-89198702D01*
X74111554Y-89137234D01*
X74157496Y-89092586D01*
X74219454Y-89076300D01*
X78476182Y-89076300D01*
X78524400Y-89085891D01*
G37*
G04 #@! TD.AperFunction*
G04 #@! TA.AperFunction,Conductor*
G36*
X87187500Y-86578581D02*
G01*
X87233619Y-86624700D01*
X87250500Y-86687700D01*
X87250500Y-90932854D01*
X87237172Y-90989254D01*
X87200009Y-91033722D01*
X87146872Y-91056852D01*
X87089002Y-91053750D01*
X87043665Y-91040438D01*
X87043664Y-91040437D01*
X87035021Y-91037900D01*
X86890179Y-91037900D01*
X86881536Y-91040437D01*
X86881534Y-91040438D01*
X86759849Y-91076167D01*
X86759845Y-91076168D01*
X86751204Y-91078706D01*
X86743625Y-91083576D01*
X86743624Y-91083577D01*
X86636934Y-91152142D01*
X86636931Y-91152144D01*
X86629354Y-91157014D01*
X86623453Y-91163823D01*
X86623453Y-91163824D01*
X86540400Y-91259672D01*
X86540396Y-91259677D01*
X86534503Y-91266479D01*
X86531278Y-91273538D01*
X86490128Y-91313245D01*
X86434823Y-91330561D01*
X86377617Y-91321290D01*
X86330611Y-91287394D01*
X86245547Y-91189224D01*
X86245546Y-91189223D01*
X86239646Y-91182414D01*
X86117796Y-91104106D01*
X86109152Y-91101567D01*
X86109150Y-91101567D01*
X85987465Y-91065838D01*
X85987464Y-91065837D01*
X85978821Y-91063300D01*
X85833979Y-91063300D01*
X85825336Y-91065837D01*
X85825334Y-91065838D01*
X85703649Y-91101567D01*
X85703645Y-91101568D01*
X85695004Y-91104106D01*
X85687425Y-91108976D01*
X85687424Y-91108977D01*
X85580734Y-91177542D01*
X85580731Y-91177544D01*
X85573154Y-91182414D01*
X85567253Y-91189223D01*
X85567253Y-91189224D01*
X85496887Y-91270432D01*
X85478303Y-91291879D01*
X85474561Y-91300072D01*
X85474557Y-91300079D01*
X85421876Y-91415435D01*
X85418133Y-91423632D01*
X85416852Y-91432540D01*
X85416850Y-91432548D01*
X85403226Y-91527314D01*
X85397520Y-91567000D01*
X85398802Y-91575917D01*
X85416850Y-91701451D01*
X85416851Y-91701457D01*
X85418133Y-91710368D01*
X85421875Y-91718563D01*
X85421876Y-91718564D01*
X85474557Y-91833920D01*
X85474559Y-91833923D01*
X85478303Y-91842121D01*
X85573154Y-91951586D01*
X85580735Y-91956458D01*
X85583010Y-91958429D01*
X85615113Y-92001311D01*
X85626500Y-92053655D01*
X85626500Y-97823869D01*
X85617474Y-97870699D01*
X85591689Y-97910820D01*
X85552840Y-97938484D01*
X85550354Y-97939619D01*
X85541704Y-97942159D01*
X85534122Y-97947031D01*
X85534121Y-97947032D01*
X85427434Y-98015595D01*
X85427431Y-98015597D01*
X85419854Y-98020467D01*
X85413953Y-98027276D01*
X85413953Y-98027277D01*
X85333364Y-98120283D01*
X85325003Y-98129932D01*
X85321261Y-98138125D01*
X85321257Y-98138132D01*
X85268576Y-98253488D01*
X85264833Y-98261685D01*
X85263552Y-98270593D01*
X85263550Y-98270601D01*
X85251514Y-98354319D01*
X85244220Y-98405053D01*
X85244453Y-98406680D01*
X85234115Y-98454206D01*
X85202014Y-98497088D01*
X85154999Y-98522759D01*
X85083451Y-98543766D01*
X85083444Y-98543768D01*
X85074804Y-98546306D01*
X85067225Y-98551176D01*
X85067224Y-98551177D01*
X84960534Y-98619742D01*
X84960531Y-98619744D01*
X84952954Y-98624614D01*
X84947053Y-98631423D01*
X84947053Y-98631424D01*
X84869114Y-98721372D01*
X84858103Y-98734079D01*
X84854361Y-98742272D01*
X84854357Y-98742279D01*
X84801676Y-98857635D01*
X84797933Y-98865832D01*
X84796651Y-98874747D01*
X84796651Y-98874748D01*
X84784936Y-98956231D01*
X84762855Y-99011387D01*
X84717955Y-99050293D01*
X84672661Y-99061281D01*
X84672911Y-99063017D01*
X84663987Y-99064300D01*
X84654979Y-99064300D01*
X84646336Y-99066837D01*
X84646334Y-99066838D01*
X84524649Y-99102567D01*
X84524645Y-99102568D01*
X84516004Y-99105106D01*
X84508425Y-99109976D01*
X84508424Y-99109977D01*
X84401734Y-99178542D01*
X84401731Y-99178544D01*
X84394154Y-99183414D01*
X84388253Y-99190223D01*
X84388253Y-99190224D01*
X84311878Y-99278367D01*
X84299303Y-99292879D01*
X84295561Y-99301072D01*
X84295557Y-99301079D01*
X84242876Y-99416435D01*
X84239133Y-99424632D01*
X84237852Y-99433540D01*
X84237850Y-99433548D01*
X84228676Y-99497361D01*
X84218520Y-99568000D01*
X84219802Y-99576917D01*
X84237850Y-99702451D01*
X84237851Y-99702457D01*
X84239133Y-99711368D01*
X84242875Y-99719563D01*
X84242876Y-99719564D01*
X84295557Y-99834920D01*
X84295559Y-99834923D01*
X84299303Y-99843121D01*
X84338354Y-99888189D01*
X84372106Y-99927141D01*
X84400312Y-99984337D01*
X84396898Y-100048019D01*
X84362739Y-100101872D01*
X84306586Y-100132101D01*
X84242824Y-100130963D01*
X84187786Y-100098748D01*
X83825005Y-99735967D01*
X83797691Y-99695090D01*
X83788100Y-99646872D01*
X83788100Y-92333055D01*
X83799487Y-92280711D01*
X83831590Y-92237829D01*
X83833863Y-92235858D01*
X83841446Y-92230986D01*
X83936297Y-92121521D01*
X83996467Y-91989768D01*
X84017080Y-91846400D01*
X84015206Y-91833364D01*
X83997749Y-91711948D01*
X83997748Y-91711947D01*
X83996467Y-91703032D01*
X83952227Y-91606160D01*
X83940042Y-91579479D01*
X83940040Y-91579476D01*
X83936297Y-91571279D01*
X83841446Y-91461814D01*
X83719596Y-91383506D01*
X83710952Y-91380967D01*
X83710950Y-91380967D01*
X83589265Y-91345238D01*
X83589264Y-91345237D01*
X83580621Y-91342700D01*
X83435779Y-91342700D01*
X83427136Y-91345237D01*
X83427134Y-91345238D01*
X83305449Y-91380967D01*
X83305445Y-91380968D01*
X83296804Y-91383506D01*
X83289225Y-91388376D01*
X83289224Y-91388377D01*
X83182534Y-91456942D01*
X83182531Y-91456944D01*
X83174954Y-91461814D01*
X83169053Y-91468623D01*
X83169053Y-91468624D01*
X83105820Y-91541600D01*
X83080103Y-91571279D01*
X83076360Y-91579473D01*
X83076359Y-91579476D01*
X83063166Y-91608365D01*
X83038112Y-91663224D01*
X82994620Y-91714891D01*
X82930693Y-91736676D01*
X82864700Y-91722320D01*
X82815600Y-91675947D01*
X82797500Y-91610881D01*
X82797500Y-89956736D01*
X82797682Y-89954112D01*
X82799617Y-89948340D01*
X82797633Y-89905440D01*
X82797500Y-89899623D01*
X82797500Y-89888891D01*
X82797500Y-89883065D01*
X82796460Y-89877509D01*
X82796106Y-89872415D01*
X82794785Y-89843807D01*
X82790069Y-89833126D01*
X82788206Y-89825204D01*
X82785265Y-89817613D01*
X82783120Y-89806137D01*
X82770409Y-89785609D01*
X82762269Y-89770166D01*
X82757232Y-89758759D01*
X82757231Y-89758758D01*
X82752516Y-89748078D01*
X82744259Y-89739821D01*
X82739662Y-89733110D01*
X82734177Y-89727093D01*
X82728031Y-89717167D01*
X82718713Y-89710130D01*
X82718712Y-89710129D01*
X82708759Y-89702613D01*
X82695597Y-89691159D01*
X81816478Y-88812040D01*
X81814748Y-88810052D01*
X81812034Y-88804601D01*
X81780280Y-88775653D01*
X81776071Y-88771633D01*
X81768506Y-88764068D01*
X81764380Y-88759942D01*
X81759713Y-88756745D01*
X81755859Y-88753391D01*
X81743327Y-88741966D01*
X81734701Y-88734102D01*
X81723816Y-88729885D01*
X81716900Y-88725603D01*
X81709448Y-88722312D01*
X81699816Y-88715714D01*
X81688450Y-88713040D01*
X81688444Y-88713038D01*
X81676308Y-88710184D01*
X81659646Y-88705025D01*
X81648010Y-88700517D01*
X81648005Y-88700516D01*
X81637122Y-88696300D01*
X81625449Y-88696300D01*
X81617446Y-88694804D01*
X81609311Y-88694427D01*
X81597951Y-88691756D01*
X81586393Y-88693368D01*
X81586390Y-88693368D01*
X81574035Y-88695092D01*
X81556628Y-88696300D01*
X80466099Y-88696300D01*
X80413757Y-88684914D01*
X80370874Y-88652812D01*
X80323745Y-88598422D01*
X80317846Y-88591614D01*
X80317416Y-88591338D01*
X80283477Y-88541188D01*
X80278829Y-88476128D01*
X80301944Y-88428555D01*
X80300323Y-88427513D01*
X80305194Y-88419933D01*
X80311097Y-88413121D01*
X80371267Y-88281368D01*
X80391880Y-88138000D01*
X80371267Y-87994632D01*
X80311097Y-87862879D01*
X80254062Y-87797056D01*
X80226838Y-87744248D01*
X80226839Y-87684835D01*
X80250909Y-87638148D01*
X80250620Y-87637963D01*
X80252567Y-87634932D01*
X80254063Y-87632030D01*
X80261394Y-87623571D01*
X80321564Y-87491818D01*
X80342177Y-87348450D01*
X80342757Y-87348533D01*
X80350482Y-87309683D01*
X80377796Y-87268801D01*
X81047995Y-86598604D01*
X81088873Y-86571291D01*
X81137091Y-86561700D01*
X87124500Y-86561700D01*
X87187500Y-86578581D01*
G37*
G04 #@! TD.AperFunction*
G04 #@! TA.AperFunction,Conductor*
G36*
X89431305Y-92756499D02*
G01*
X89485199Y-92800539D01*
X89507491Y-92866472D01*
X89508966Y-92898371D01*
X89509100Y-92904191D01*
X89509100Y-92920735D01*
X89510137Y-92926287D01*
X89510493Y-92931414D01*
X89511275Y-92948331D01*
X89511275Y-92948334D01*
X89511815Y-92959993D01*
X89516529Y-92970671D01*
X89518394Y-92978598D01*
X89521334Y-92986187D01*
X89523480Y-92997663D01*
X89536195Y-93018198D01*
X89544329Y-93033629D01*
X89548813Y-93043786D01*
X89554084Y-93055722D01*
X89562340Y-93063978D01*
X89566938Y-93070690D01*
X89572421Y-93076704D01*
X89578569Y-93086633D01*
X89597836Y-93101183D01*
X89610998Y-93112636D01*
X90050418Y-93552057D01*
X90050429Y-93552067D01*
X90404567Y-93906205D01*
X90435305Y-93956364D01*
X90439921Y-94015011D01*
X90417408Y-94069361D01*
X90372675Y-94107567D01*
X90315472Y-94121300D01*
X89939342Y-94121300D01*
X89891124Y-94111709D01*
X89850247Y-94084395D01*
X89647702Y-93881850D01*
X89620385Y-93840966D01*
X89612661Y-93802116D01*
X89612080Y-93802200D01*
X89592749Y-93667748D01*
X89592748Y-93667747D01*
X89591467Y-93658832D01*
X89531297Y-93527079D01*
X89436446Y-93417614D01*
X89314596Y-93339306D01*
X89305952Y-93336767D01*
X89305950Y-93336767D01*
X89184265Y-93301038D01*
X89184264Y-93301037D01*
X89175621Y-93298500D01*
X89030779Y-93298500D01*
X89022136Y-93301037D01*
X89022134Y-93301038D01*
X88900449Y-93336767D01*
X88900445Y-93336768D01*
X88891804Y-93339306D01*
X88884225Y-93344176D01*
X88884224Y-93344177D01*
X88777534Y-93412742D01*
X88777531Y-93412744D01*
X88769954Y-93417614D01*
X88675103Y-93527079D01*
X88671361Y-93535272D01*
X88671357Y-93535279D01*
X88618676Y-93650635D01*
X88614933Y-93658832D01*
X88613652Y-93667740D01*
X88613650Y-93667748D01*
X88597508Y-93780024D01*
X88594320Y-93802200D01*
X88595602Y-93811117D01*
X88613650Y-93936651D01*
X88613651Y-93936657D01*
X88614933Y-93945568D01*
X88618675Y-93953763D01*
X88618676Y-93953764D01*
X88671357Y-94069120D01*
X88671359Y-94069123D01*
X88675103Y-94077321D01*
X88769954Y-94186786D01*
X88891804Y-94265094D01*
X89030779Y-94305900D01*
X89089858Y-94305900D01*
X89138076Y-94315491D01*
X89178953Y-94342805D01*
X89504529Y-94668381D01*
X89511956Y-94676485D01*
X89536456Y-94705683D01*
X89546002Y-94711194D01*
X89546003Y-94711195D01*
X89569457Y-94724736D01*
X89578713Y-94730632D01*
X89609942Y-94752499D01*
X89620591Y-94755351D01*
X89623877Y-94756884D01*
X89627294Y-94758128D01*
X89636844Y-94763642D01*
X89674379Y-94770260D01*
X89685087Y-94772633D01*
X89721911Y-94782501D01*
X89759884Y-94779179D01*
X89770866Y-94778700D01*
X91242779Y-94778700D01*
X91290997Y-94788291D01*
X91331874Y-94815605D01*
X91864077Y-95347808D01*
X91897604Y-95407924D01*
X91894536Y-95476688D01*
X91855789Y-95533579D01*
X91799485Y-95558693D01*
X91799679Y-95559353D01*
X91794783Y-95560790D01*
X91794779Y-95560791D01*
X91791036Y-95561890D01*
X91791034Y-95561891D01*
X91669349Y-95597620D01*
X91669345Y-95597621D01*
X91660704Y-95600159D01*
X91653125Y-95605029D01*
X91653124Y-95605030D01*
X91546434Y-95673595D01*
X91546431Y-95673597D01*
X91538854Y-95678467D01*
X91532953Y-95685276D01*
X91532953Y-95685277D01*
X91474873Y-95752306D01*
X91444003Y-95787932D01*
X91440261Y-95796125D01*
X91440257Y-95796132D01*
X91403368Y-95876909D01*
X91383833Y-95919685D01*
X91382552Y-95928593D01*
X91382550Y-95928601D01*
X91364502Y-96054136D01*
X91363220Y-96063053D01*
X91364502Y-96071970D01*
X91364502Y-96071974D01*
X91368453Y-96099460D01*
X91363286Y-96157181D01*
X91332830Y-96206483D01*
X87979991Y-99559323D01*
X87924443Y-99591680D01*
X87860162Y-99592422D01*
X87803882Y-99561357D01*
X87770251Y-99506571D01*
X87768025Y-99442324D01*
X87797780Y-99385344D01*
X87823525Y-99357102D01*
X87827548Y-99352890D01*
X87839258Y-99341181D01*
X87842454Y-99336513D01*
X87845803Y-99332664D01*
X87865098Y-99311501D01*
X87869317Y-99300608D01*
X87873599Y-99293693D01*
X87876884Y-99286252D01*
X87883486Y-99276616D01*
X87889016Y-99253098D01*
X87894171Y-99236451D01*
X87902900Y-99213922D01*
X87902900Y-99202244D01*
X87904393Y-99194258D01*
X87904769Y-99186119D01*
X87907443Y-99174751D01*
X87905429Y-99160315D01*
X87904108Y-99150841D01*
X87902900Y-99133435D01*
X87902900Y-93462328D01*
X87912491Y-93414110D01*
X87939801Y-93373236D01*
X88360922Y-92952115D01*
X88362889Y-92950403D01*
X88368345Y-92947688D01*
X88397273Y-92915954D01*
X88401294Y-92911744D01*
X88404570Y-92908468D01*
X88413004Y-92900035D01*
X88416200Y-92895367D01*
X88419549Y-92891518D01*
X88438844Y-92870355D01*
X88443063Y-92859462D01*
X88447345Y-92852547D01*
X88450630Y-92845105D01*
X88457232Y-92835470D01*
X88458066Y-92831920D01*
X88485850Y-92793939D01*
X88532999Y-92767708D01*
X88586798Y-92763605D01*
X88637380Y-92782379D01*
X88754102Y-92857392D01*
X88893077Y-92898198D01*
X89028910Y-92898198D01*
X89037919Y-92898198D01*
X89176894Y-92857392D01*
X89298744Y-92779084D01*
X89301416Y-92776000D01*
X89362252Y-92747790D01*
X89431305Y-92756499D01*
G37*
G04 #@! TD.AperFunction*
G04 #@! TA.AperFunction,Conductor*
G36*
X95178593Y-90448957D02*
G01*
X95232396Y-90478856D01*
X95332711Y-90573058D01*
X95477444Y-90652626D01*
X95637418Y-90693700D01*
X96411252Y-90693700D01*
X96459470Y-90703291D01*
X96500347Y-90730605D01*
X96542092Y-90772350D01*
X96573414Y-90824355D01*
X96576781Y-90884970D01*
X96551412Y-90940124D01*
X96503196Y-90977013D01*
X96469187Y-90991785D01*
X96469184Y-90991786D01*
X96461280Y-90995220D01*
X96454596Y-91000657D01*
X96454594Y-91000659D01*
X96350576Y-91085283D01*
X96350571Y-91085287D01*
X96343892Y-91090722D01*
X96338927Y-91097755D01*
X96338921Y-91097762D01*
X96261592Y-91207312D01*
X96261588Y-91207317D01*
X96256623Y-91214353D01*
X96253738Y-91222468D01*
X96253737Y-91222472D01*
X96208832Y-91348822D01*
X96208831Y-91348825D01*
X96205946Y-91356944D01*
X96205358Y-91365538D01*
X96205357Y-91365544D01*
X96198307Y-91468624D01*
X96195619Y-91507921D01*
X96197370Y-91516351D01*
X96197371Y-91516354D01*
X96224127Y-91645110D01*
X96226408Y-91656085D01*
X96230371Y-91663733D01*
X96230372Y-91663736D01*
X96260728Y-91722320D01*
X96296029Y-91790447D01*
X96301909Y-91796743D01*
X96301910Y-91796744D01*
X96378883Y-91879162D01*
X96399320Y-91901044D01*
X96406681Y-91905520D01*
X96406682Y-91905521D01*
X96420180Y-91913729D01*
X96528618Y-91979672D01*
X96674335Y-92020500D01*
X96783353Y-92020500D01*
X96787658Y-92020500D01*
X96899920Y-92005070D01*
X97038720Y-91944780D01*
X97156108Y-91849278D01*
X97243377Y-91725647D01*
X97246265Y-91717518D01*
X97249302Y-91711659D01*
X97287637Y-91667312D01*
X97341890Y-91645110D01*
X97400317Y-91649858D01*
X97450272Y-91680530D01*
X98001795Y-92232053D01*
X98029109Y-92272930D01*
X98038700Y-92321148D01*
X98038700Y-95594944D01*
X98025372Y-95651344D01*
X97988209Y-95695812D01*
X97935072Y-95718942D01*
X97877202Y-95715840D01*
X97871065Y-95714038D01*
X97871064Y-95714037D01*
X97862421Y-95711500D01*
X97717579Y-95711500D01*
X97708936Y-95714037D01*
X97708934Y-95714038D01*
X97587249Y-95749767D01*
X97587245Y-95749768D01*
X97578604Y-95752306D01*
X97571025Y-95757176D01*
X97571024Y-95757177D01*
X97464334Y-95825742D01*
X97464331Y-95825744D01*
X97456754Y-95830614D01*
X97450856Y-95837419D01*
X97450852Y-95837424D01*
X97446010Y-95843013D01*
X97403128Y-95875114D01*
X97350786Y-95886500D01*
X93384663Y-95886500D01*
X93336445Y-95876909D01*
X93295568Y-95849595D01*
X92155035Y-94709062D01*
X92125307Y-94661885D01*
X92118852Y-94606497D01*
X92136934Y-94553747D01*
X92176010Y-94513969D01*
X92227334Y-94480986D01*
X92322185Y-94371521D01*
X92382355Y-94239768D01*
X92402968Y-94096400D01*
X92399095Y-94069461D01*
X92387977Y-93992131D01*
X92398082Y-93921857D01*
X92444574Y-93868202D01*
X92512695Y-93848200D01*
X92993601Y-93848200D01*
X93045943Y-93859586D01*
X93088826Y-93891688D01*
X93113675Y-93920366D01*
X93141854Y-93952886D01*
X93263704Y-94031194D01*
X93402679Y-94072000D01*
X93538512Y-94072000D01*
X93547521Y-94072000D01*
X93565762Y-94066643D01*
X93633187Y-94065651D01*
X93691471Y-94099572D01*
X93723914Y-94158691D01*
X93725475Y-94165330D01*
X93726015Y-94176993D01*
X93730729Y-94187671D01*
X93732594Y-94195599D01*
X93735534Y-94203189D01*
X93737680Y-94214663D01*
X93750395Y-94235198D01*
X93758529Y-94250629D01*
X93762764Y-94260222D01*
X93768284Y-94272722D01*
X93776540Y-94280978D01*
X93781138Y-94287690D01*
X93786621Y-94293704D01*
X93792769Y-94303633D01*
X93812036Y-94318183D01*
X93825198Y-94329636D01*
X94043331Y-94547770D01*
X94073787Y-94597073D01*
X94078953Y-94654793D01*
X94075002Y-94682279D01*
X94075002Y-94682283D01*
X94073720Y-94691200D01*
X94075002Y-94700117D01*
X94093050Y-94825651D01*
X94093051Y-94825657D01*
X94094333Y-94834568D01*
X94098075Y-94842763D01*
X94098076Y-94842764D01*
X94150757Y-94958120D01*
X94150759Y-94958123D01*
X94154503Y-94966321D01*
X94249354Y-95075786D01*
X94371204Y-95154094D01*
X94510179Y-95194900D01*
X94646012Y-95194900D01*
X94655021Y-95194900D01*
X94793996Y-95154094D01*
X94915846Y-95075786D01*
X95010697Y-94966321D01*
X95070867Y-94834568D01*
X95091480Y-94691200D01*
X95089364Y-94676485D01*
X95072149Y-94556748D01*
X95072148Y-94556747D01*
X95070867Y-94547832D01*
X95026627Y-94450960D01*
X95014442Y-94424279D01*
X95014441Y-94424278D01*
X95010697Y-94416079D01*
X94915846Y-94306614D01*
X94793996Y-94228306D01*
X94785352Y-94225767D01*
X94785350Y-94225767D01*
X94663665Y-94190038D01*
X94663664Y-94190037D01*
X94655021Y-94187500D01*
X94526928Y-94187500D01*
X94478710Y-94177909D01*
X94437833Y-94150595D01*
X94320005Y-94032767D01*
X94292691Y-93991890D01*
X94283100Y-93943672D01*
X94283100Y-92246928D01*
X94296833Y-92189725D01*
X94335039Y-92144992D01*
X94389389Y-92122479D01*
X94448036Y-92127095D01*
X94498194Y-92157832D01*
X95426994Y-93086633D01*
X96354730Y-94014369D01*
X96385186Y-94063671D01*
X96390353Y-94121391D01*
X96386402Y-94148877D01*
X96386402Y-94148883D01*
X96385120Y-94157800D01*
X96386402Y-94166717D01*
X96404450Y-94292251D01*
X96404451Y-94292257D01*
X96405733Y-94301168D01*
X96409475Y-94309363D01*
X96409476Y-94309364D01*
X96462157Y-94424720D01*
X96462159Y-94424723D01*
X96465903Y-94432921D01*
X96560754Y-94542386D01*
X96682604Y-94620694D01*
X96821579Y-94661500D01*
X96957412Y-94661500D01*
X96966421Y-94661500D01*
X97105396Y-94620694D01*
X97227246Y-94542386D01*
X97322097Y-94432921D01*
X97382267Y-94301168D01*
X97398610Y-94187500D01*
X97401598Y-94166717D01*
X97402880Y-94157800D01*
X97394508Y-94099572D01*
X97383549Y-94023348D01*
X97383548Y-94023347D01*
X97382267Y-94014432D01*
X97322097Y-93882679D01*
X97227246Y-93773214D01*
X97105396Y-93694906D01*
X97096752Y-93692367D01*
X97096750Y-93692367D01*
X96975065Y-93656638D01*
X96975064Y-93656637D01*
X96966421Y-93654100D01*
X96838328Y-93654100D01*
X96790110Y-93644509D01*
X96749233Y-93617195D01*
X94848105Y-91716067D01*
X94820791Y-91675190D01*
X94811200Y-91626972D01*
X94811200Y-91205731D01*
X94822587Y-91153387D01*
X94854690Y-91110505D01*
X94856963Y-91108534D01*
X94864546Y-91103662D01*
X94959397Y-90994197D01*
X95019567Y-90862444D01*
X95040180Y-90719076D01*
X95021426Y-90588638D01*
X95027814Y-90527417D01*
X95062442Y-90476527D01*
X95117045Y-90448113D01*
X95178593Y-90448957D01*
G37*
G04 #@! TD.AperFunction*
G04 #@! TA.AperFunction,Conductor*
G36*
X93675162Y-81308954D02*
G01*
X93703762Y-81345769D01*
X93704889Y-81345046D01*
X93709757Y-81352621D01*
X93713503Y-81360823D01*
X93808354Y-81470288D01*
X93930204Y-81548596D01*
X94069179Y-81589402D01*
X94205012Y-81589402D01*
X94214021Y-81589402D01*
X94228801Y-81585062D01*
X94286672Y-81581960D01*
X94339809Y-81605090D01*
X94376972Y-81649558D01*
X94390300Y-81705958D01*
X94390300Y-83832457D01*
X94380709Y-83880675D01*
X94353395Y-83921553D01*
X94124009Y-84150937D01*
X94115908Y-84158360D01*
X94095162Y-84175768D01*
X94095157Y-84175773D01*
X94086717Y-84182856D01*
X94081206Y-84192399D01*
X94081203Y-84192404D01*
X94067661Y-84215858D01*
X94061762Y-84225119D01*
X94046220Y-84247316D01*
X94046218Y-84247319D01*
X94039901Y-84256342D01*
X94037049Y-84266983D01*
X94035512Y-84270281D01*
X94034266Y-84273701D01*
X94028758Y-84283244D01*
X94026843Y-84294099D01*
X94026843Y-84294101D01*
X94022140Y-84320771D01*
X94019762Y-84331496D01*
X94012751Y-84357662D01*
X94012750Y-84357667D01*
X94009899Y-84368310D01*
X94010859Y-84379284D01*
X94010859Y-84379286D01*
X94013221Y-84406280D01*
X94013700Y-84417262D01*
X94013700Y-85203938D01*
X94013221Y-85214920D01*
X94011582Y-85233657D01*
X94009899Y-85252890D01*
X94012750Y-85263532D01*
X94012751Y-85263538D01*
X94019762Y-85289705D01*
X94022140Y-85300429D01*
X94026843Y-85327097D01*
X94028758Y-85337956D01*
X94034270Y-85347502D01*
X94035515Y-85350923D01*
X94037048Y-85354211D01*
X94039901Y-85364858D01*
X94046222Y-85373886D01*
X94046223Y-85373887D01*
X94061759Y-85396075D01*
X94067663Y-85405343D01*
X94086717Y-85438344D01*
X94095158Y-85445427D01*
X94095160Y-85445429D01*
X94115915Y-85462844D01*
X94124019Y-85470271D01*
X97820551Y-89166803D01*
X97850523Y-89214678D01*
X97856567Y-89270837D01*
X97842570Y-89309797D01*
X97844502Y-89310679D01*
X97833688Y-89334361D01*
X97795018Y-89419034D01*
X97757702Y-89466195D01*
X97702776Y-89490688D01*
X97642754Y-89486933D01*
X97591310Y-89455786D01*
X97201560Y-89066037D01*
X97199833Y-89064053D01*
X97197119Y-89058601D01*
X97165365Y-89029653D01*
X97161156Y-89025633D01*
X97153591Y-89018068D01*
X97153590Y-89018067D01*
X97149465Y-89013942D01*
X97144798Y-89010745D01*
X97140944Y-89007391D01*
X97139285Y-89005879D01*
X97119786Y-88988102D01*
X97108901Y-88983885D01*
X97101985Y-88979603D01*
X97094533Y-88976312D01*
X97084901Y-88969714D01*
X97073535Y-88967040D01*
X97073529Y-88967038D01*
X97061393Y-88964184D01*
X97044731Y-88959025D01*
X97033095Y-88954517D01*
X97033090Y-88954516D01*
X97022207Y-88950300D01*
X97010534Y-88950300D01*
X97002531Y-88948804D01*
X96994396Y-88948427D01*
X96983036Y-88945756D01*
X96971478Y-88947368D01*
X96971475Y-88947368D01*
X96959120Y-88949092D01*
X96941713Y-88950300D01*
X96350929Y-88950300D01*
X96302711Y-88940709D01*
X96261834Y-88913395D01*
X94378978Y-87030540D01*
X94377248Y-87028552D01*
X94374534Y-87023101D01*
X94342780Y-86994153D01*
X94338571Y-86990133D01*
X94331006Y-86982568D01*
X94326880Y-86978442D01*
X94322213Y-86975245D01*
X94318359Y-86971891D01*
X94311152Y-86965321D01*
X94297201Y-86952602D01*
X94286316Y-86948385D01*
X94279400Y-86944103D01*
X94271948Y-86940812D01*
X94262316Y-86934214D01*
X94250950Y-86931540D01*
X94250944Y-86931538D01*
X94238808Y-86928684D01*
X94222146Y-86923525D01*
X94210510Y-86919017D01*
X94210505Y-86919016D01*
X94199622Y-86914800D01*
X94187949Y-86914800D01*
X94179946Y-86913304D01*
X94171811Y-86912927D01*
X94160451Y-86910256D01*
X94148893Y-86911868D01*
X94148890Y-86911868D01*
X94136535Y-86913592D01*
X94119128Y-86914800D01*
X93716935Y-86914800D01*
X93654977Y-86898514D01*
X93609035Y-86853866D01*
X93590986Y-86792398D01*
X93605497Y-86729999D01*
X93648815Y-86682802D01*
X93663663Y-86673259D01*
X93671246Y-86668386D01*
X93766097Y-86558921D01*
X93826267Y-86427168D01*
X93846880Y-86283800D01*
X93842610Y-86254100D01*
X93827549Y-86149348D01*
X93827548Y-86149347D01*
X93826267Y-86140432D01*
X93766097Y-86008679D01*
X93671246Y-85899214D01*
X93549396Y-85820906D01*
X93540752Y-85818367D01*
X93540750Y-85818367D01*
X93419065Y-85782638D01*
X93419064Y-85782637D01*
X93410421Y-85780100D01*
X93265579Y-85780100D01*
X93256936Y-85782637D01*
X93256934Y-85782638D01*
X93135249Y-85818367D01*
X93135245Y-85818368D01*
X93126604Y-85820906D01*
X93119025Y-85825776D01*
X93119024Y-85825777D01*
X93012334Y-85894342D01*
X93012331Y-85894344D01*
X93004754Y-85899214D01*
X92998853Y-85906023D01*
X92998853Y-85906024D01*
X92932063Y-85983105D01*
X92909903Y-86008679D01*
X92906159Y-86016876D01*
X92906159Y-86016877D01*
X92866091Y-86104612D01*
X92828418Y-86152049D01*
X92772962Y-86176423D01*
X92712540Y-86172101D01*
X92661118Y-86140081D01*
X92632727Y-86091441D01*
X92632467Y-86089632D01*
X92581174Y-85977317D01*
X92576042Y-85966079D01*
X92576041Y-85966078D01*
X92572297Y-85957879D01*
X92511244Y-85887419D01*
X92503675Y-85878684D01*
X92480844Y-85840204D01*
X92472900Y-85796172D01*
X92472900Y-82154142D01*
X92482491Y-82105924D01*
X92509805Y-82065047D01*
X93109847Y-81465005D01*
X93150724Y-81437691D01*
X93198942Y-81428100D01*
X93249012Y-81428100D01*
X93258021Y-81428100D01*
X93396996Y-81387294D01*
X93518846Y-81308986D01*
X93518897Y-81309066D01*
X93564938Y-81284981D01*
X93622882Y-81283944D01*
X93675162Y-81308954D01*
G37*
G04 #@! TD.AperFunction*
G04 #@! TA.AperFunction,Conductor*
G36*
X83706277Y-81721891D02*
G01*
X83747153Y-81749204D01*
X84252065Y-82254117D01*
X84750879Y-82752931D01*
X84752607Y-82754917D01*
X84755322Y-82760368D01*
X84787062Y-82789303D01*
X84791271Y-82793323D01*
X84802975Y-82805027D01*
X84807638Y-82808221D01*
X84811503Y-82811585D01*
X84824023Y-82822998D01*
X84832655Y-82830867D01*
X84843545Y-82835085D01*
X84850463Y-82839369D01*
X84857905Y-82842655D01*
X84867540Y-82849255D01*
X84891052Y-82854784D01*
X84907708Y-82859942D01*
X84930234Y-82868669D01*
X84941916Y-82868669D01*
X84949903Y-82870162D01*
X84958034Y-82870537D01*
X84969405Y-82873212D01*
X84993313Y-82869876D01*
X85010721Y-82868669D01*
X88006180Y-82868669D01*
X88074301Y-82888671D01*
X88120793Y-82942326D01*
X88130898Y-83012600D01*
X88111720Y-83145990D01*
X88111139Y-83145906D01*
X88103411Y-83184763D01*
X88076097Y-83225640D01*
X86272543Y-85029195D01*
X86231666Y-85056509D01*
X86183448Y-85066100D01*
X80706342Y-85066100D01*
X80658124Y-85056509D01*
X80617247Y-85029195D01*
X80575329Y-84987277D01*
X80544871Y-84937971D01*
X80539707Y-84880251D01*
X80544280Y-84848450D01*
X80523667Y-84705082D01*
X80463497Y-84573329D01*
X80368646Y-84463864D01*
X80246796Y-84385556D01*
X80238152Y-84383017D01*
X80238150Y-84383017D01*
X80116465Y-84347288D01*
X80116464Y-84347287D01*
X80107821Y-84344750D01*
X79962979Y-84344750D01*
X79954336Y-84347287D01*
X79954334Y-84347288D01*
X79832649Y-84383017D01*
X79832645Y-84383018D01*
X79824004Y-84385556D01*
X79816425Y-84390426D01*
X79816424Y-84390427D01*
X79709734Y-84458992D01*
X79709731Y-84458994D01*
X79702154Y-84463864D01*
X79696253Y-84470673D01*
X79696253Y-84470674D01*
X79607303Y-84573329D01*
X79606195Y-84572369D01*
X79575216Y-84602791D01*
X79522470Y-84620865D01*
X79467089Y-84614407D01*
X79419917Y-84584682D01*
X78628787Y-83793553D01*
X78605209Y-83760856D01*
X78593165Y-83722390D01*
X78580000Y-83630822D01*
X78519830Y-83499069D01*
X78424979Y-83389604D01*
X78303129Y-83311296D01*
X78294485Y-83308757D01*
X78294483Y-83308757D01*
X78172798Y-83273028D01*
X78172797Y-83273027D01*
X78164154Y-83270490D01*
X78019312Y-83270490D01*
X78010669Y-83273027D01*
X78010667Y-83273028D01*
X77888982Y-83308757D01*
X77888978Y-83308758D01*
X77880337Y-83311296D01*
X77872758Y-83316166D01*
X77872757Y-83316167D01*
X77766067Y-83384732D01*
X77766064Y-83384734D01*
X77758487Y-83389604D01*
X77752586Y-83396413D01*
X77752586Y-83396414D01*
X77679363Y-83480919D01*
X77663636Y-83499069D01*
X77659894Y-83507262D01*
X77659890Y-83507269D01*
X77609928Y-83616672D01*
X77603466Y-83630822D01*
X77602185Y-83639730D01*
X77602183Y-83639738D01*
X77584770Y-83760856D01*
X77582853Y-83774190D01*
X77584135Y-83783107D01*
X77602183Y-83908641D01*
X77602184Y-83908647D01*
X77603466Y-83917558D01*
X77607208Y-83925753D01*
X77607209Y-83925754D01*
X77659890Y-84041110D01*
X77659892Y-84041113D01*
X77663636Y-84049311D01*
X77758487Y-84158776D01*
X77880337Y-84237084D01*
X78019312Y-84277890D01*
X78028321Y-84277890D01*
X78112785Y-84277890D01*
X78180906Y-84297892D01*
X78227399Y-84351548D01*
X78237503Y-84421821D01*
X78208010Y-84486402D01*
X78132688Y-84573329D01*
X78123502Y-84583930D01*
X78119760Y-84592123D01*
X78119756Y-84592130D01*
X78068173Y-84705082D01*
X78063332Y-84715683D01*
X78062050Y-84724594D01*
X78062048Y-84724604D01*
X78059700Y-84740936D01*
X78031663Y-84803803D01*
X77974772Y-84842554D01*
X77906006Y-84845624D01*
X77845889Y-84812096D01*
X77070631Y-84036839D01*
X77068902Y-84034852D01*
X77066188Y-84029401D01*
X77034434Y-84000453D01*
X77030225Y-83996433D01*
X77022660Y-83988868D01*
X77018534Y-83984742D01*
X77013867Y-83981545D01*
X77010013Y-83978191D01*
X76997481Y-83966766D01*
X76988855Y-83958902D01*
X76977970Y-83954685D01*
X76971054Y-83950403D01*
X76963602Y-83947112D01*
X76953970Y-83940514D01*
X76942604Y-83937840D01*
X76942598Y-83937838D01*
X76930462Y-83934984D01*
X76913800Y-83929825D01*
X76902164Y-83925317D01*
X76902159Y-83925316D01*
X76891276Y-83921100D01*
X76879603Y-83921100D01*
X76871600Y-83919604D01*
X76863465Y-83919227D01*
X76852105Y-83916556D01*
X76840547Y-83918168D01*
X76840544Y-83918168D01*
X76828189Y-83919892D01*
X76810782Y-83921100D01*
X74426311Y-83921100D01*
X74358611Y-83901367D01*
X74312116Y-83848349D01*
X74301389Y-83778651D01*
X74329791Y-83714106D01*
X74332032Y-83711434D01*
X74340483Y-83704344D01*
X74359549Y-83671318D01*
X74365429Y-83662089D01*
X74387299Y-83630858D01*
X74390153Y-83620202D01*
X74391680Y-83616928D01*
X74392922Y-83613513D01*
X74398442Y-83603956D01*
X74405059Y-83566421D01*
X74407436Y-83555702D01*
X74417301Y-83518889D01*
X74413978Y-83480918D01*
X74413500Y-83469937D01*
X74413500Y-82773803D01*
X74428913Y-82713417D01*
X74471380Y-82667805D01*
X74530512Y-82648124D01*
X74584439Y-82657854D01*
X74584604Y-82657294D01*
X74723579Y-82698100D01*
X74859412Y-82698100D01*
X74868421Y-82698100D01*
X75007396Y-82657294D01*
X75106036Y-82593901D01*
X75174157Y-82573900D01*
X81341786Y-82573900D01*
X81394128Y-82585286D01*
X81437010Y-82617387D01*
X81447754Y-82629786D01*
X81569604Y-82708094D01*
X81708579Y-82748900D01*
X81844412Y-82748900D01*
X81853421Y-82748900D01*
X81992396Y-82708094D01*
X82114246Y-82629786D01*
X82209097Y-82520321D01*
X82269267Y-82388568D01*
X82289880Y-82245200D01*
X82269267Y-82101832D01*
X82261843Y-82085577D01*
X82250510Y-82029613D01*
X82265044Y-81974391D01*
X82302460Y-81931255D01*
X82355074Y-81909065D01*
X82394477Y-81911354D01*
X82394865Y-81908660D01*
X82403786Y-81909942D01*
X82412431Y-81912481D01*
X82548264Y-81912481D01*
X82557273Y-81912481D01*
X82696248Y-81871675D01*
X82818098Y-81793367D01*
X82850659Y-81755788D01*
X82893542Y-81723687D01*
X82945885Y-81712300D01*
X83658059Y-81712300D01*
X83706277Y-81721891D01*
G37*
G04 #@! TD.AperFunction*
G04 #@! TA.AperFunction,Conductor*
G36*
X92619408Y-80687085D02*
G01*
X92662291Y-80719187D01*
X92687962Y-80766201D01*
X92691783Y-80819631D01*
X92676719Y-80924401D01*
X92676139Y-80924317D01*
X92668411Y-80963173D01*
X92641099Y-81004047D01*
X92279915Y-81365232D01*
X91925815Y-81719332D01*
X91917714Y-81726755D01*
X91896962Y-81744168D01*
X91896957Y-81744173D01*
X91888517Y-81751256D01*
X91883006Y-81760799D01*
X91883003Y-81760804D01*
X91869461Y-81784258D01*
X91863562Y-81793519D01*
X91848020Y-81815716D01*
X91848018Y-81815719D01*
X91841701Y-81824742D01*
X91838849Y-81835383D01*
X91837312Y-81838681D01*
X91836066Y-81842101D01*
X91830558Y-81851644D01*
X91828643Y-81862499D01*
X91828643Y-81862501D01*
X91823940Y-81889171D01*
X91821562Y-81899896D01*
X91814551Y-81926062D01*
X91814550Y-81926067D01*
X91811699Y-81936710D01*
X91812659Y-81947684D01*
X91812659Y-81947686D01*
X91815021Y-81974680D01*
X91815500Y-81985662D01*
X91815500Y-83079173D01*
X91802172Y-83135573D01*
X91765009Y-83180041D01*
X91711872Y-83203171D01*
X91654003Y-83200069D01*
X91530821Y-83163900D01*
X91521812Y-83163900D01*
X91471742Y-83163900D01*
X91423524Y-83154309D01*
X91382647Y-83126995D01*
X89146446Y-80890794D01*
X89115708Y-80840635D01*
X89111092Y-80781988D01*
X89133605Y-80727638D01*
X89178338Y-80689432D01*
X89235541Y-80675699D01*
X92567066Y-80675699D01*
X92619408Y-80687085D01*
G37*
G04 #@! TD.AperFunction*
G04 #@! TA.AperFunction,NonConductor*
G36*
X89336742Y-83120386D02*
G01*
X90993995Y-84777639D01*
X91021309Y-84818516D01*
X91030900Y-84866734D01*
X91030900Y-86538657D01*
X91030717Y-86541285D01*
X91028782Y-86547060D01*
X91029321Y-86558721D01*
X91029321Y-86558723D01*
X91030766Y-86589972D01*
X91030900Y-86595791D01*
X91030900Y-86612335D01*
X91031937Y-86617887D01*
X91032293Y-86623014D01*
X91033075Y-86639931D01*
X91033075Y-86639934D01*
X91033615Y-86651593D01*
X91038329Y-86662271D01*
X91040194Y-86670198D01*
X91043134Y-86677787D01*
X91045280Y-86689263D01*
X91057995Y-86709798D01*
X91066128Y-86725228D01*
X91075884Y-86747322D01*
X91084140Y-86755578D01*
X91088738Y-86762290D01*
X91094221Y-86768304D01*
X91100369Y-86778233D01*
X91119639Y-86792785D01*
X91132802Y-86804240D01*
X91687420Y-87358858D01*
X91689151Y-87360847D01*
X91691866Y-87366299D01*
X91701583Y-87375157D01*
X91723618Y-87395245D01*
X91727826Y-87399264D01*
X91739520Y-87410958D01*
X91744188Y-87414155D01*
X91748026Y-87417496D01*
X91769199Y-87436798D01*
X91780091Y-87441017D01*
X91787013Y-87445303D01*
X91794452Y-87448587D01*
X91804084Y-87455186D01*
X91827586Y-87460713D01*
X91844254Y-87465873D01*
X91866778Y-87474600D01*
X91878459Y-87474600D01*
X91886456Y-87476095D01*
X91894583Y-87476470D01*
X91905949Y-87479144D01*
X91929864Y-87475808D01*
X91947272Y-87474600D01*
X93307157Y-87474600D01*
X93369115Y-87490886D01*
X93415057Y-87535534D01*
X93433106Y-87597002D01*
X93418596Y-87659400D01*
X93375278Y-87706598D01*
X93349534Y-87723142D01*
X93349531Y-87723144D01*
X93341954Y-87728014D01*
X93336053Y-87734823D01*
X93336053Y-87734824D01*
X93284016Y-87794879D01*
X93247103Y-87837479D01*
X93243361Y-87845672D01*
X93243357Y-87845679D01*
X93190676Y-87961035D01*
X93186933Y-87969232D01*
X93185652Y-87978140D01*
X93185650Y-87978148D01*
X93169354Y-88091500D01*
X93166320Y-88112600D01*
X93167602Y-88121517D01*
X93185650Y-88247051D01*
X93185651Y-88247057D01*
X93186933Y-88255968D01*
X93190675Y-88264163D01*
X93190676Y-88264164D01*
X93243357Y-88379520D01*
X93243359Y-88379523D01*
X93247103Y-88387721D01*
X93341954Y-88497186D01*
X93463804Y-88575494D01*
X93602779Y-88616300D01*
X93661858Y-88616300D01*
X93710076Y-88625891D01*
X93750953Y-88653205D01*
X94162413Y-89064665D01*
X94192870Y-89113969D01*
X94198036Y-89171691D01*
X94190894Y-89221364D01*
X94182320Y-89281000D01*
X94183602Y-89289917D01*
X94201650Y-89415451D01*
X94201651Y-89415457D01*
X94202933Y-89424368D01*
X94206675Y-89432563D01*
X94206676Y-89432564D01*
X94259357Y-89547920D01*
X94259359Y-89547923D01*
X94263103Y-89556121D01*
X94269006Y-89562933D01*
X94291803Y-89589243D01*
X94318760Y-89640972D01*
X94319531Y-89699298D01*
X94293950Y-89751721D01*
X94264503Y-89774089D01*
X94266116Y-89776443D01*
X94256487Y-89783038D01*
X94245806Y-89787755D01*
X94237550Y-89796009D01*
X94230839Y-89800607D01*
X94224816Y-89806097D01*
X94214895Y-89812241D01*
X94207862Y-89821552D01*
X94207859Y-89821556D01*
X94200343Y-89831509D01*
X94188893Y-89844666D01*
X93839039Y-90194521D01*
X93837049Y-90196252D01*
X93831601Y-90198966D01*
X93823742Y-90207585D01*
X93823741Y-90207587D01*
X93802663Y-90230708D01*
X93798649Y-90234912D01*
X93791058Y-90242503D01*
X93791054Y-90242507D01*
X93786942Y-90246620D01*
X93783751Y-90251276D01*
X93780389Y-90255141D01*
X93768966Y-90267671D01*
X93768963Y-90267675D01*
X93761102Y-90276299D01*
X93756885Y-90287183D01*
X93752598Y-90294108D01*
X93749309Y-90301555D01*
X93742714Y-90311184D01*
X93740041Y-90322546D01*
X93740040Y-90322550D01*
X93737184Y-90334692D01*
X93732025Y-90351353D01*
X93727518Y-90362986D01*
X93727516Y-90362992D01*
X93723300Y-90373878D01*
X93723300Y-90385551D01*
X93721804Y-90393554D01*
X93721427Y-90401689D01*
X93718756Y-90413049D01*
X93720368Y-90424606D01*
X93720368Y-90424609D01*
X93722092Y-90436965D01*
X93723300Y-90454372D01*
X93723300Y-92947897D01*
X93709973Y-93004296D01*
X93672810Y-93048765D01*
X93619673Y-93071895D01*
X93561804Y-93068794D01*
X93560077Y-93068286D01*
X93556163Y-93067137D01*
X93556159Y-93067136D01*
X93547521Y-93064600D01*
X93402679Y-93064600D01*
X93394036Y-93067137D01*
X93394034Y-93067138D01*
X93272349Y-93102867D01*
X93272345Y-93102868D01*
X93263704Y-93105406D01*
X93256125Y-93110276D01*
X93256124Y-93110277D01*
X93149434Y-93178842D01*
X93149431Y-93178844D01*
X93141854Y-93183714D01*
X93135956Y-93190519D01*
X93135952Y-93190524D01*
X93088826Y-93244912D01*
X93045943Y-93277014D01*
X92993601Y-93288400D01*
X91061680Y-93288400D01*
X91013462Y-93278809D01*
X90972585Y-93251495D01*
X90410605Y-92689515D01*
X90383291Y-92648638D01*
X90373700Y-92600420D01*
X90373700Y-88363536D01*
X90373882Y-88360912D01*
X90375817Y-88355140D01*
X90373833Y-88312240D01*
X90373700Y-88306423D01*
X90373700Y-88295691D01*
X90373700Y-88289865D01*
X90372660Y-88284309D01*
X90372306Y-88279215D01*
X90370985Y-88250607D01*
X90366269Y-88239926D01*
X90364406Y-88232004D01*
X90361465Y-88224412D01*
X90359320Y-88212937D01*
X90353174Y-88203011D01*
X90348955Y-88192121D01*
X90350065Y-88191690D01*
X90340944Y-88168869D01*
X90339566Y-88125184D01*
X90348680Y-88061800D01*
X90328067Y-87918432D01*
X90283827Y-87821560D01*
X90271642Y-87794879D01*
X90271641Y-87794878D01*
X90267897Y-87786679D01*
X90173046Y-87677214D01*
X90051196Y-87598906D01*
X90042552Y-87596367D01*
X90042550Y-87596367D01*
X89920865Y-87560638D01*
X89920864Y-87560637D01*
X89912221Y-87558100D01*
X89767379Y-87558100D01*
X89758739Y-87560636D01*
X89758731Y-87560638D01*
X89757705Y-87560940D01*
X89755930Y-87561041D01*
X89749813Y-87561921D01*
X89749737Y-87561395D01*
X89700721Y-87564197D01*
X89648146Y-87541976D01*
X89610770Y-87498839D01*
X89596262Y-87443636D01*
X89607597Y-87387702D01*
X89617067Y-87366968D01*
X89628499Y-87287458D01*
X89636398Y-87232517D01*
X89637680Y-87223600D01*
X89617067Y-87080232D01*
X89569335Y-86975715D01*
X89560642Y-86956679D01*
X89560641Y-86956678D01*
X89556897Y-86948479D01*
X89462046Y-86839014D01*
X89340196Y-86760706D01*
X89331552Y-86758167D01*
X89331550Y-86758167D01*
X89209865Y-86722438D01*
X89209864Y-86722437D01*
X89201221Y-86719900D01*
X89056379Y-86719900D01*
X89047736Y-86722437D01*
X89047734Y-86722438D01*
X88926049Y-86758167D01*
X88926045Y-86758168D01*
X88917404Y-86760706D01*
X88909825Y-86765576D01*
X88909824Y-86765577D01*
X88803134Y-86834142D01*
X88803131Y-86834144D01*
X88795554Y-86839014D01*
X88789653Y-86845823D01*
X88789653Y-86845824D01*
X88713064Y-86934214D01*
X88700703Y-86948479D01*
X88696961Y-86956672D01*
X88696957Y-86956679D01*
X88644276Y-87072035D01*
X88640533Y-87080232D01*
X88639252Y-87089140D01*
X88639250Y-87089148D01*
X88630057Y-87153094D01*
X88619920Y-87223600D01*
X88621202Y-87232517D01*
X88621202Y-87232521D01*
X88622206Y-87239506D01*
X88617040Y-87297226D01*
X88586583Y-87346529D01*
X88427793Y-87505319D01*
X88377636Y-87536056D01*
X88318989Y-87540672D01*
X88264639Y-87518159D01*
X88226433Y-87473426D01*
X88212700Y-87416223D01*
X88212700Y-86961928D01*
X88222291Y-86913710D01*
X88249602Y-86872835D01*
X89207310Y-85915126D01*
X89248185Y-85887815D01*
X89296403Y-85878224D01*
X89415488Y-85878224D01*
X89424497Y-85878224D01*
X89563472Y-85837418D01*
X89685322Y-85759110D01*
X89780173Y-85649645D01*
X89840343Y-85517892D01*
X89857210Y-85400581D01*
X89859674Y-85383441D01*
X89860956Y-85374524D01*
X89842742Y-85247840D01*
X89841625Y-85240072D01*
X89841624Y-85240071D01*
X89840343Y-85231156D01*
X89780173Y-85099403D01*
X89685322Y-84989938D01*
X89563472Y-84911630D01*
X89554828Y-84909091D01*
X89554826Y-84909091D01*
X89433141Y-84873362D01*
X89433140Y-84873361D01*
X89424497Y-84870824D01*
X89279655Y-84870824D01*
X89271012Y-84873361D01*
X89271010Y-84873362D01*
X89149325Y-84909091D01*
X89149321Y-84909092D01*
X89140680Y-84911630D01*
X89133101Y-84916500D01*
X89133100Y-84916501D01*
X89026410Y-84985066D01*
X89026407Y-84985068D01*
X89018830Y-84989938D01*
X89012932Y-84996743D01*
X89012928Y-84996748D01*
X88966705Y-85050093D01*
X88915513Y-85085636D01*
X88853550Y-85092298D01*
X88795972Y-85068449D01*
X88756868Y-85019923D01*
X88740949Y-84985066D01*
X88728833Y-84958536D01*
X88633982Y-84849071D01*
X88512132Y-84770763D01*
X88503488Y-84768224D01*
X88503486Y-84768224D01*
X88381801Y-84732495D01*
X88381800Y-84732494D01*
X88373157Y-84729957D01*
X88228315Y-84729957D01*
X88219672Y-84732494D01*
X88219670Y-84732495D01*
X88097985Y-84768224D01*
X88097981Y-84768225D01*
X88089340Y-84770763D01*
X88081761Y-84775633D01*
X88081760Y-84775634D01*
X87975070Y-84844199D01*
X87975067Y-84844201D01*
X87967490Y-84849071D01*
X87961589Y-84855880D01*
X87961589Y-84855881D01*
X87905153Y-84921013D01*
X87872639Y-84958536D01*
X87868897Y-84966729D01*
X87868893Y-84966736D01*
X87821313Y-85070923D01*
X87812469Y-85090289D01*
X87811188Y-85099197D01*
X87811186Y-85099205D01*
X87791856Y-85233657D01*
X87791276Y-85233573D01*
X87783547Y-85272431D01*
X87756232Y-85313308D01*
X87710806Y-85358735D01*
X87710807Y-85358735D01*
X87360809Y-85708730D01*
X87352709Y-85716153D01*
X87323517Y-85740649D01*
X87318008Y-85750189D01*
X87314543Y-85754319D01*
X87307120Y-85762420D01*
X87202147Y-85867395D01*
X87161270Y-85894709D01*
X87113051Y-85904300D01*
X86616948Y-85904300D01*
X86553948Y-85887419D01*
X86507829Y-85841300D01*
X86490948Y-85778299D01*
X86507829Y-85715299D01*
X86553949Y-85669180D01*
X86557479Y-85667142D01*
X86586334Y-85650483D01*
X86610836Y-85621281D01*
X86618241Y-85613199D01*
X88544849Y-83686592D01*
X88585724Y-83659281D01*
X88633942Y-83649690D01*
X88684012Y-83649690D01*
X88693021Y-83649690D01*
X88831996Y-83608884D01*
X88953846Y-83530576D01*
X89048697Y-83421111D01*
X89108867Y-83289358D01*
X89122929Y-83191548D01*
X89150965Y-83128682D01*
X89207856Y-83089929D01*
X89276623Y-83086858D01*
X89336742Y-83120386D01*
G37*
G04 #@! TD.AperFunction*
G04 #@! TA.AperFunction,NonConductor*
G36*
X72951578Y-90241988D02*
G01*
X72989784Y-90286721D01*
X73003517Y-90343924D01*
X73003517Y-100475723D01*
X73003038Y-100486705D01*
X73001266Y-100506964D01*
X72999716Y-100524675D01*
X73002567Y-100535317D01*
X73002568Y-100535323D01*
X73009579Y-100561490D01*
X73011957Y-100572214D01*
X73016660Y-100598882D01*
X73018575Y-100609741D01*
X73024087Y-100619287D01*
X73025332Y-100622708D01*
X73026865Y-100625996D01*
X73029718Y-100636643D01*
X73036039Y-100645671D01*
X73036040Y-100645672D01*
X73051576Y-100667860D01*
X73057481Y-100677129D01*
X73067586Y-100694632D01*
X73076534Y-100710129D01*
X73084975Y-100717212D01*
X73084977Y-100717214D01*
X73105732Y-100734629D01*
X73113836Y-100742056D01*
X74894637Y-102522857D01*
X76536686Y-104164905D01*
X76567424Y-104215064D01*
X76572040Y-104273711D01*
X76549527Y-104328061D01*
X76504794Y-104366267D01*
X76447591Y-104380000D01*
X72780000Y-104380000D01*
X72780000Y-104396590D01*
X72780000Y-106045437D01*
X72760385Y-106112951D01*
X72707648Y-106159445D01*
X72638208Y-106170443D01*
X72573684Y-106142521D01*
X72534167Y-106084373D01*
X72525718Y-106058370D01*
X72523268Y-106050829D01*
X72477477Y-105978674D01*
X72439451Y-105918755D01*
X72439450Y-105918753D01*
X72435202Y-105912060D01*
X72315393Y-105799552D01*
X72171368Y-105720373D01*
X72163693Y-105718402D01*
X72163692Y-105718402D01*
X72019854Y-105681471D01*
X72019853Y-105681470D01*
X72012177Y-105679500D01*
X71889075Y-105679500D01*
X71885154Y-105679995D01*
X71885143Y-105679996D01*
X71774807Y-105693935D01*
X71774803Y-105693935D01*
X71766942Y-105694929D01*
X71759577Y-105697844D01*
X71759573Y-105697846D01*
X71656084Y-105738821D01*
X71595874Y-105746908D01*
X71538878Y-105725881D01*
X71498346Y-105680628D01*
X71483700Y-105621669D01*
X71483700Y-105461621D01*
X71495088Y-105409275D01*
X71527194Y-105366391D01*
X71562231Y-105347262D01*
X71561553Y-105345776D01*
X71569747Y-105342033D01*
X71578396Y-105339494D01*
X71700246Y-105261186D01*
X71795097Y-105151721D01*
X71855267Y-105019968D01*
X71875880Y-104876600D01*
X71855267Y-104733232D01*
X71811027Y-104636360D01*
X71798842Y-104609679D01*
X71798841Y-104609678D01*
X71795097Y-104601479D01*
X71726475Y-104522284D01*
X71703644Y-104483804D01*
X71695700Y-104439772D01*
X71695700Y-91399742D01*
X71705291Y-91351524D01*
X71732605Y-91310647D01*
X72259954Y-90783298D01*
X72788422Y-90254828D01*
X72838581Y-90224091D01*
X72897228Y-90219475D01*
X72951578Y-90241988D01*
G37*
G04 #@! TD.AperFunction*
M02*
