G04 #@! TF.GenerationSoftware,KiCad,Pcbnew,(7.0.0)*
G04 #@! TF.CreationDate,2023-09-20T22:00:44+02:00*
G04 #@! TF.ProjectId,Watchy,57617463-6879-42e6-9b69-6361645f7063,rev?*
G04 #@! TF.SameCoordinates,Original*
G04 #@! TF.FileFunction,Soldermask,Top*
G04 #@! TF.FilePolarity,Negative*
%FSLAX46Y46*%
G04 Gerber Fmt 4.6, Leading zero omitted, Abs format (unit mm)*
G04 Created by KiCad (PCBNEW (7.0.0)) date 2023-09-20 22:00:44*
%MOMM*%
%LPD*%
G01*
G04 APERTURE LIST*
G04 Aperture macros list*
%AMRoundRect*
0 Rectangle with rounded corners*
0 $1 Rounding radius*
0 $2 $3 $4 $5 $6 $7 $8 $9 X,Y pos of 4 corners*
0 Add a 4 corners polygon primitive as box body*
4,1,4,$2,$3,$4,$5,$6,$7,$8,$9,$2,$3,0*
0 Add four circle primitives for the rounded corners*
1,1,$1+$1,$2,$3*
1,1,$1+$1,$4,$5*
1,1,$1+$1,$6,$7*
1,1,$1+$1,$8,$9*
0 Add four rect primitives between the rounded corners*
20,1,$1+$1,$2,$3,$4,$5,0*
20,1,$1+$1,$4,$5,$6,$7,0*
20,1,$1+$1,$6,$7,$8,$9,0*
20,1,$1+$1,$8,$9,$2,$3,0*%
G04 Aperture macros list end*
%ADD10C,0.125000*%
%ADD11C,0.300000*%
%ADD12C,0.150000*%
%ADD13RoundRect,0.168000X-1.232000X0.882000X-1.232000X-0.882000X1.232000X-0.882000X1.232000X0.882000X0*%
%ADD14R,0.800000X0.900000*%
%ADD15R,0.900000X0.800000*%
%ADD16R,0.400000X0.600000*%
%ADD17R,0.600000X0.400000*%
%ADD18RoundRect,0.062500X0.350000X0.062500X-0.350000X0.062500X-0.350000X-0.062500X0.350000X-0.062500X0*%
%ADD19RoundRect,0.062500X0.062500X0.350000X-0.062500X0.350000X-0.062500X-0.350000X0.062500X-0.350000X0*%
%ADD20R,2.600000X2.600000*%
%ADD21R,3.700000X1.200000*%
%ADD22R,1.100000X1.100000*%
%ADD23RoundRect,0.062500X-0.062500X0.375000X-0.062500X-0.375000X0.062500X-0.375000X0.062500X0.375000X0*%
%ADD24RoundRect,0.062500X-0.375000X0.062500X-0.375000X-0.062500X0.375000X-0.062500X0.375000X0.062500X0*%
%ADD25R,5.150000X5.150000*%
%ADD26R,0.400000X0.650000*%
%ADD27R,1.000000X1.250000*%
%ADD28C,0.800000*%
%ADD29R,1.000000X1.400000*%
%ADD30R,0.800000X0.800000*%
%ADD31RoundRect,0.150000X0.150000X-0.512500X0.150000X0.512500X-0.150000X0.512500X-0.150000X-0.512500X0*%
%ADD32R,0.650000X1.060000*%
%ADD33R,0.300000X1.300000*%
%ADD34R,2.000000X3.000000*%
%ADD35O,1.350000X1.350000*%
%ADD36R,1.350000X1.350000*%
%ADD37R,0.500000X0.500000*%
%ADD38R,0.900000X0.500000*%
%ADD39R,1.000000X1.800000*%
%ADD40R,0.375000X0.350000*%
%ADD41R,0.350000X0.375000*%
%ADD42RoundRect,0.062500X-0.062500X0.350000X-0.062500X-0.350000X0.062500X-0.350000X0.062500X0.350000X0*%
%ADD43R,2.500000X1.700000*%
%ADD44RoundRect,0.225000X-0.225000X-0.250000X0.225000X-0.250000X0.225000X0.250000X-0.225000X0.250000X0*%
%ADD45RoundRect,0.225000X0.250000X-0.225000X0.250000X0.225000X-0.250000X0.225000X-0.250000X-0.225000X0*%
%ADD46RoundRect,0.225000X-0.250000X0.225000X-0.250000X-0.225000X0.250000X-0.225000X0.250000X0.225000X0*%
%ADD47RoundRect,0.140000X0.170000X-0.140000X0.170000X0.140000X-0.170000X0.140000X-0.170000X-0.140000X0*%
%ADD48RoundRect,0.140000X-0.140000X-0.170000X0.140000X-0.170000X0.140000X0.170000X-0.140000X0.170000X0*%
%ADD49C,0.600000*%
%ADD50R,1.160000X0.600000*%
%ADD51R,1.160000X0.300000*%
%ADD52O,2.000000X0.900000*%
%ADD53O,1.700000X0.900000*%
G04 APERTURE END LIST*
D10*
X94934991Y-102096080D02*
X95006419Y-102119890D01*
X95006419Y-102119890D02*
X95125467Y-102119890D01*
X95125467Y-102119890D02*
X95173086Y-102096080D01*
X95173086Y-102096080D02*
X95196895Y-102072271D01*
X95196895Y-102072271D02*
X95220705Y-102024652D01*
X95220705Y-102024652D02*
X95220705Y-101977033D01*
X95220705Y-101977033D02*
X95196895Y-101929414D01*
X95196895Y-101929414D02*
X95173086Y-101905604D01*
X95173086Y-101905604D02*
X95125467Y-101881795D01*
X95125467Y-101881795D02*
X95030229Y-101857985D01*
X95030229Y-101857985D02*
X94982610Y-101834176D01*
X94982610Y-101834176D02*
X94958800Y-101810366D01*
X94958800Y-101810366D02*
X94934991Y-101762747D01*
X94934991Y-101762747D02*
X94934991Y-101715128D01*
X94934991Y-101715128D02*
X94958800Y-101667509D01*
X94958800Y-101667509D02*
X94982610Y-101643700D01*
X94982610Y-101643700D02*
X95030229Y-101619890D01*
X95030229Y-101619890D02*
X95149276Y-101619890D01*
X95149276Y-101619890D02*
X95220705Y-101643700D01*
X95768323Y-102167509D02*
X95720704Y-102143700D01*
X95720704Y-102143700D02*
X95673085Y-102096080D01*
X95673085Y-102096080D02*
X95601657Y-102024652D01*
X95601657Y-102024652D02*
X95554038Y-102000842D01*
X95554038Y-102000842D02*
X95506419Y-102000842D01*
X95530228Y-102119890D02*
X95482609Y-102096080D01*
X95482609Y-102096080D02*
X95434990Y-102048461D01*
X95434990Y-102048461D02*
X95411181Y-101953223D01*
X95411181Y-101953223D02*
X95411181Y-101786557D01*
X95411181Y-101786557D02*
X95434990Y-101691319D01*
X95434990Y-101691319D02*
X95482609Y-101643700D01*
X95482609Y-101643700D02*
X95530228Y-101619890D01*
X95530228Y-101619890D02*
X95625466Y-101619890D01*
X95625466Y-101619890D02*
X95673085Y-101643700D01*
X95673085Y-101643700D02*
X95720704Y-101691319D01*
X95720704Y-101691319D02*
X95744514Y-101786557D01*
X95744514Y-101786557D02*
X95744514Y-101953223D01*
X95744514Y-101953223D02*
X95720704Y-102048461D01*
X95720704Y-102048461D02*
X95673085Y-102096080D01*
X95673085Y-102096080D02*
X95625466Y-102119890D01*
X95625466Y-102119890D02*
X95530228Y-102119890D01*
X96125467Y-101857985D02*
X95958800Y-101857985D01*
X95958800Y-102119890D02*
X95958800Y-101619890D01*
X95958800Y-101619890D02*
X96196895Y-101619890D01*
X96387371Y-102119890D02*
X96387371Y-101619890D01*
X96387371Y-101619890D02*
X96554038Y-101977033D01*
X96554038Y-101977033D02*
X96720704Y-101619890D01*
X96720704Y-101619890D02*
X96720704Y-102119890D01*
X96958800Y-102119890D02*
X96958800Y-101619890D01*
D11*
X82102381Y-114357595D02*
X82411905Y-115657595D01*
X82411905Y-115657595D02*
X82659524Y-114729023D01*
X82659524Y-114729023D02*
X82907143Y-115657595D01*
X82907143Y-115657595D02*
X83216667Y-114357595D01*
X83650000Y-115286166D02*
X84269047Y-115286166D01*
X83526190Y-115657595D02*
X83959523Y-114357595D01*
X83959523Y-114357595D02*
X84392857Y-115657595D01*
X84640476Y-114357595D02*
X85383333Y-114357595D01*
X85011905Y-115657595D02*
X85011905Y-114357595D01*
X86559523Y-115533785D02*
X86497619Y-115595690D01*
X86497619Y-115595690D02*
X86311904Y-115657595D01*
X86311904Y-115657595D02*
X86188095Y-115657595D01*
X86188095Y-115657595D02*
X86002381Y-115595690D01*
X86002381Y-115595690D02*
X85878571Y-115471880D01*
X85878571Y-115471880D02*
X85816666Y-115348071D01*
X85816666Y-115348071D02*
X85754762Y-115100452D01*
X85754762Y-115100452D02*
X85754762Y-114914738D01*
X85754762Y-114914738D02*
X85816666Y-114667119D01*
X85816666Y-114667119D02*
X85878571Y-114543309D01*
X85878571Y-114543309D02*
X86002381Y-114419500D01*
X86002381Y-114419500D02*
X86188095Y-114357595D01*
X86188095Y-114357595D02*
X86311904Y-114357595D01*
X86311904Y-114357595D02*
X86497619Y-114419500D01*
X86497619Y-114419500D02*
X86559523Y-114481404D01*
X87116666Y-115657595D02*
X87116666Y-114357595D01*
X87116666Y-114976642D02*
X87859523Y-114976642D01*
X87859523Y-115657595D02*
X87859523Y-114357595D01*
X88726190Y-115038547D02*
X88726190Y-115657595D01*
X88292857Y-114357595D02*
X88726190Y-115038547D01*
X88726190Y-115038547D02*
X89159524Y-114357595D01*
D12*
X70380714Y-96692857D02*
X71047380Y-96521429D01*
X71047380Y-96521429D02*
X70571190Y-96350000D01*
X70571190Y-96350000D02*
X71047380Y-96178571D01*
X71047380Y-96178571D02*
X70380714Y-96007143D01*
X71047380Y-95278572D02*
X70523571Y-95278572D01*
X70523571Y-95278572D02*
X70428333Y-95321429D01*
X70428333Y-95321429D02*
X70380714Y-95407143D01*
X70380714Y-95407143D02*
X70380714Y-95578572D01*
X70380714Y-95578572D02*
X70428333Y-95664286D01*
X70999761Y-95278572D02*
X71047380Y-95364286D01*
X71047380Y-95364286D02*
X71047380Y-95578572D01*
X71047380Y-95578572D02*
X70999761Y-95664286D01*
X70999761Y-95664286D02*
X70904523Y-95707143D01*
X70904523Y-95707143D02*
X70809285Y-95707143D01*
X70809285Y-95707143D02*
X70714047Y-95664286D01*
X70714047Y-95664286D02*
X70666428Y-95578572D01*
X70666428Y-95578572D02*
X70666428Y-95364286D01*
X70666428Y-95364286D02*
X70618809Y-95278572D01*
X70380714Y-94978571D02*
X70380714Y-94635714D01*
X70047380Y-94850000D02*
X70904523Y-94850000D01*
X70904523Y-94850000D02*
X70999761Y-94807143D01*
X70999761Y-94807143D02*
X71047380Y-94721428D01*
X71047380Y-94721428D02*
X71047380Y-94635714D01*
X70999761Y-93950000D02*
X71047380Y-94035714D01*
X71047380Y-94035714D02*
X71047380Y-94207142D01*
X71047380Y-94207142D02*
X70999761Y-94292857D01*
X70999761Y-94292857D02*
X70952142Y-94335714D01*
X70952142Y-94335714D02*
X70856904Y-94378571D01*
X70856904Y-94378571D02*
X70571190Y-94378571D01*
X70571190Y-94378571D02*
X70475952Y-94335714D01*
X70475952Y-94335714D02*
X70428333Y-94292857D01*
X70428333Y-94292857D02*
X70380714Y-94207142D01*
X70380714Y-94207142D02*
X70380714Y-94035714D01*
X70380714Y-94035714D02*
X70428333Y-93950000D01*
X71047380Y-93564285D02*
X70047380Y-93564285D01*
X71047380Y-93178571D02*
X70523571Y-93178571D01*
X70523571Y-93178571D02*
X70428333Y-93221428D01*
X70428333Y-93221428D02*
X70380714Y-93307142D01*
X70380714Y-93307142D02*
X70380714Y-93435713D01*
X70380714Y-93435713D02*
X70428333Y-93521428D01*
X70428333Y-93521428D02*
X70475952Y-93564285D01*
X70380714Y-92835713D02*
X71047380Y-92621427D01*
X70380714Y-92407142D02*
X71047380Y-92621427D01*
X71047380Y-92621427D02*
X71285476Y-92707142D01*
X71285476Y-92707142D02*
X71333095Y-92749999D01*
X71333095Y-92749999D02*
X71380714Y-92835713D01*
D11*
X82102381Y-70407595D02*
X82411905Y-71707595D01*
X82411905Y-71707595D02*
X82659524Y-70779023D01*
X82659524Y-70779023D02*
X82907143Y-71707595D01*
X82907143Y-71707595D02*
X83216667Y-70407595D01*
X83650000Y-71336166D02*
X84269047Y-71336166D01*
X83526190Y-71707595D02*
X83959523Y-70407595D01*
X83959523Y-70407595D02*
X84392857Y-71707595D01*
X84640476Y-70407595D02*
X85383333Y-70407595D01*
X85011905Y-71707595D02*
X85011905Y-70407595D01*
X86559523Y-71583785D02*
X86497619Y-71645690D01*
X86497619Y-71645690D02*
X86311904Y-71707595D01*
X86311904Y-71707595D02*
X86188095Y-71707595D01*
X86188095Y-71707595D02*
X86002381Y-71645690D01*
X86002381Y-71645690D02*
X85878571Y-71521880D01*
X85878571Y-71521880D02*
X85816666Y-71398071D01*
X85816666Y-71398071D02*
X85754762Y-71150452D01*
X85754762Y-71150452D02*
X85754762Y-70964738D01*
X85754762Y-70964738D02*
X85816666Y-70717119D01*
X85816666Y-70717119D02*
X85878571Y-70593309D01*
X85878571Y-70593309D02*
X86002381Y-70469500D01*
X86002381Y-70469500D02*
X86188095Y-70407595D01*
X86188095Y-70407595D02*
X86311904Y-70407595D01*
X86311904Y-70407595D02*
X86497619Y-70469500D01*
X86497619Y-70469500D02*
X86559523Y-70531404D01*
X87116666Y-71707595D02*
X87116666Y-70407595D01*
X87116666Y-71026642D02*
X87859523Y-71026642D01*
X87859523Y-71707595D02*
X87859523Y-70407595D01*
X88726190Y-71088547D02*
X88726190Y-71707595D01*
X88292857Y-70407595D02*
X88726190Y-71088547D01*
X88726190Y-71088547D02*
X89159524Y-70407595D01*
D13*
X96870000Y-81530000D03*
X96870000Y-87862000D03*
D14*
X95435999Y-111185199D03*
X97335999Y-111185199D03*
X96385999Y-109185199D03*
D15*
X76735799Y-81874399D03*
X76735799Y-79974399D03*
X74735799Y-80924399D03*
D16*
X83312199Y-79603599D03*
X84212199Y-79603599D03*
D17*
X99099999Y-88359999D03*
X99099999Y-87459999D03*
X93947599Y-110889199D03*
X93947599Y-109989199D03*
D18*
X93660300Y-91633600D03*
X93660300Y-91133600D03*
X93660300Y-90633600D03*
X93660300Y-90133600D03*
X93660300Y-89633600D03*
X93660300Y-89133600D03*
D19*
X92972800Y-88446100D03*
X92472800Y-88446100D03*
X91972800Y-88446100D03*
X91472800Y-88446100D03*
X90972800Y-88446100D03*
X90472800Y-88446100D03*
D18*
X89785300Y-89133600D03*
X89785300Y-89633600D03*
X89785300Y-90133600D03*
X89785300Y-90633600D03*
X89785300Y-91133600D03*
X89785300Y-91633600D03*
D19*
X90472800Y-92321100D03*
X90972800Y-92321100D03*
X91472800Y-92321100D03*
X91972800Y-92321100D03*
X92472800Y-92321100D03*
X92972800Y-92321100D03*
D20*
X91722799Y-90383599D03*
D15*
X78005799Y-96834999D03*
X78005799Y-94934999D03*
X76005799Y-95884999D03*
D21*
X75029999Y-105239999D03*
X75029999Y-108039999D03*
D16*
X76200199Y-83184999D03*
X77100199Y-83184999D03*
D22*
X74549999Y-98889999D03*
X74549999Y-101689999D03*
D23*
X86952750Y-83632850D03*
X86452750Y-83632850D03*
X85952750Y-83632850D03*
X85452750Y-83632850D03*
X84952750Y-83632850D03*
X84452750Y-83632850D03*
X83952750Y-83632850D03*
X83452750Y-83632850D03*
X82952750Y-83632850D03*
X82452750Y-83632850D03*
X81952750Y-83632850D03*
X81452750Y-83632850D03*
D24*
X80765250Y-84320350D03*
X80765250Y-84820350D03*
X80765250Y-85320350D03*
X80765250Y-85820350D03*
X80765250Y-86320350D03*
X80765250Y-86820350D03*
X80765250Y-87320350D03*
X80765250Y-87820350D03*
X80765250Y-88320350D03*
X80765250Y-88820350D03*
X80765250Y-89320350D03*
X80765250Y-89820350D03*
D23*
X81452750Y-90507850D03*
X81952750Y-90507850D03*
X82452750Y-90507850D03*
X82952750Y-90507850D03*
X83452750Y-90507850D03*
X83952750Y-90507850D03*
X84452750Y-90507850D03*
X84952750Y-90507850D03*
X85452750Y-90507850D03*
X85952750Y-90507850D03*
X86452750Y-90507850D03*
X86952750Y-90507850D03*
D24*
X87640250Y-89820350D03*
X87640250Y-89320350D03*
X87640250Y-88820350D03*
X87640250Y-88320350D03*
X87640250Y-87820350D03*
X87640250Y-87320350D03*
X87640250Y-86820350D03*
X87640250Y-86320350D03*
X87640250Y-85820350D03*
X87640250Y-85320350D03*
X87640250Y-84820350D03*
X87640250Y-84320350D03*
D25*
X84202749Y-87070349D03*
D26*
X89817799Y-95691999D03*
X90467799Y-95691999D03*
X91117799Y-95691999D03*
X91117799Y-93791999D03*
X90467799Y-93791999D03*
X89817799Y-93791999D03*
D17*
X73249999Y-110219999D03*
X73249999Y-109319999D03*
D27*
X95020999Y-101015799D03*
X97020999Y-101015799D03*
D16*
X101915999Y-87579199D03*
X101015999Y-87579199D03*
D17*
X99999999Y-88359999D03*
X99999999Y-87459999D03*
D28*
X71930000Y-106330000D03*
X69330000Y-106330000D03*
D29*
X71529999Y-103529999D03*
X71529999Y-109129999D03*
X69829999Y-103529999D03*
X69829999Y-109129999D03*
D28*
X99270000Y-106330000D03*
X101870000Y-106330000D03*
D29*
X99669999Y-109129999D03*
X99669999Y-103529999D03*
X101369999Y-109129999D03*
X101369999Y-103529999D03*
D16*
X93025999Y-103098599D03*
X92125999Y-103098599D03*
D22*
X72249999Y-98889999D03*
X72249999Y-101689999D03*
D27*
X73529999Y-103519999D03*
X75529999Y-103519999D03*
D16*
X96909999Y-79669999D03*
X97809999Y-79669999D03*
D30*
X101739999Y-86379999D03*
X101739999Y-84779999D03*
D27*
X74529999Y-109769999D03*
X76529999Y-109769999D03*
D22*
X97406599Y-107169199D03*
X94606599Y-107169199D03*
D31*
X92210200Y-82341300D03*
X93160200Y-82341300D03*
X94110200Y-82341300D03*
X94110200Y-80066300D03*
X92210200Y-80066300D03*
D16*
X90249999Y-86232999D03*
X89349999Y-86232999D03*
X92125999Y-102082599D03*
X93025999Y-102082599D03*
D17*
X99662599Y-101251599D03*
X99662599Y-102151599D03*
D22*
X69949999Y-101689999D03*
X69949999Y-98889999D03*
D32*
X95081999Y-105043399D03*
X96031999Y-105043399D03*
X96981999Y-105043399D03*
X96981999Y-102843399D03*
X95081999Y-102843399D03*
D28*
X99270000Y-79930000D03*
X101870000Y-79930000D03*
D29*
X99669999Y-82729999D03*
X99669999Y-77129999D03*
X101369999Y-82729999D03*
X101369999Y-77129999D03*
D28*
X71930000Y-79930000D03*
X69330000Y-79930000D03*
D29*
X71529999Y-77129999D03*
X71529999Y-82729999D03*
X69829999Y-77129999D03*
X69829999Y-82729999D03*
D33*
X91224999Y-97419999D03*
X90724999Y-97419999D03*
X90224999Y-97419999D03*
X89724999Y-97419999D03*
X89224999Y-97419999D03*
X88724999Y-97419999D03*
X88224999Y-97419999D03*
X87724999Y-97419999D03*
X87224999Y-97419999D03*
X86724999Y-97419999D03*
X86224999Y-97419999D03*
X85724999Y-97419999D03*
X85224999Y-97419999D03*
X84724999Y-97419999D03*
X84224999Y-97419999D03*
X83724999Y-97419999D03*
X83224999Y-97419999D03*
X82724999Y-97419999D03*
X82224999Y-97419999D03*
X81724999Y-97419999D03*
X81224999Y-97419999D03*
X80724999Y-97419999D03*
X80224999Y-97419999D03*
X79724999Y-97419999D03*
D34*
X78074999Y-99769999D03*
X92874999Y-99769999D03*
D16*
X90249999Y-87223599D03*
X89349999Y-87223599D03*
X73493399Y-83159599D03*
X72593399Y-83159599D03*
D22*
X78732999Y-79981599D03*
X78732999Y-82781599D03*
D35*
X71899999Y-85154999D03*
D36*
X69899999Y-85154999D03*
D17*
X74440399Y-84233599D03*
X74440399Y-85133599D03*
D37*
X88724999Y-79649999D03*
D38*
X90824999Y-79649999D03*
D16*
X74396799Y-83311999D03*
X75296799Y-83311999D03*
X76454199Y-84277199D03*
X77354199Y-84277199D03*
D39*
X73455199Y-87909399D03*
X70955199Y-87909399D03*
D40*
X75837399Y-91752799D03*
X75837399Y-92252799D03*
X75837399Y-92752799D03*
X75837399Y-93252799D03*
D41*
X76349899Y-93265299D03*
X76849899Y-93265299D03*
D40*
X77362399Y-93252799D03*
X77362399Y-92752799D03*
X77362399Y-92252799D03*
X77362399Y-91752799D03*
D41*
X76849899Y-91740299D03*
X76349899Y-91740299D03*
D42*
X77269200Y-86741000D03*
X76769200Y-86741000D03*
X76269200Y-86741000D03*
X75769200Y-86741000D03*
X75269200Y-86741000D03*
X75269200Y-89666000D03*
X75769200Y-89666000D03*
X76269200Y-89666000D03*
X76769200Y-89666000D03*
X77269200Y-89666000D03*
D43*
X76269199Y-88203499D03*
D17*
X75456399Y-84182799D03*
X75456399Y-85082799D03*
X90772599Y-82796799D03*
X90772599Y-81896799D03*
D44*
X83800000Y-80899000D03*
X85350000Y-80899000D03*
D45*
X87710000Y-95415000D03*
X87710000Y-93865000D03*
X82510000Y-95415000D03*
X82510000Y-93865000D03*
X85110000Y-95415000D03*
X85110000Y-93865000D03*
X86410000Y-95415000D03*
X86410000Y-93865000D03*
X83810000Y-95415000D03*
X83810000Y-93865000D03*
X81160000Y-95415000D03*
X81160000Y-93865000D03*
X79860000Y-95415000D03*
X79860000Y-93865000D03*
D46*
X73221200Y-80073200D03*
X73221200Y-81623200D03*
D16*
X78340799Y-92074999D03*
X79240799Y-92074999D03*
D47*
X94811200Y-88516400D03*
X94811200Y-87556400D03*
D48*
X92985000Y-96774000D03*
X93945000Y-96774000D03*
D16*
X93864199Y-95630999D03*
X92964199Y-95630999D03*
D49*
X96750000Y-97250000D03*
X96750000Y-91470000D03*
D50*
X95689999Y-97559999D03*
X95689999Y-96759999D03*
D51*
X95689999Y-95609999D03*
X95689999Y-94609999D03*
X95689999Y-94109999D03*
X95689999Y-93109999D03*
D50*
X95689999Y-91959999D03*
X95689999Y-91159999D03*
X95689999Y-91159999D03*
X95689999Y-91959999D03*
D51*
X95689999Y-92609999D03*
X95689999Y-93609999D03*
X95689999Y-95109999D03*
X95689999Y-96109999D03*
D50*
X95689999Y-96759999D03*
X95689999Y-97559999D03*
D52*
X96269999Y-98679999D03*
D53*
X100439999Y-98679999D03*
D52*
X96269999Y-90039999D03*
D53*
X100439999Y-90039999D03*
D16*
X92735599Y-87172799D03*
X93635599Y-87172799D03*
X93864199Y-94640399D03*
X92964199Y-94640399D03*
X99720599Y-86486999D03*
X100620599Y-86486999D03*
X91908399Y-87147399D03*
X91008399Y-87147399D03*
M02*
