%TF.GenerationSoftware,KiCad,Pcbnew,7.0.2*%
%TF.CreationDate,2023-08-08T21:17:31+02:00*%
%TF.ProjectId,Watchy,57617463-6879-42e6-9b69-6361645f7063,rev?*%
%TF.SameCoordinates,Original*%
%TF.FileFunction,Plated,1,2,PTH,Mixed*%
%TF.FilePolarity,Positive*%
%FSLAX46Y46*%
G04 Gerber Fmt 4.6, Leading zero omitted, Abs format (unit mm)*
G04 Created by KiCad (PCBNEW 7.0.2) date 2023-08-08 21:17:31*
%MOMM*%
%LPD*%
G01*
G04 APERTURE LIST*
%TA.AperFunction,ViaDrill*%
%ADD10C,0.400000*%
%TD*%
G04 aperture for slot hole*
%TA.AperFunction,ComponentDrill*%
%ADD11O,1.700000X0.600000*%
%TD*%
G04 aperture for slot hole*
%TA.AperFunction,ComponentDrill*%
%ADD12O,1.400000X0.600000*%
%TD*%
G04 APERTURE END LIST*
D10*
X69720000Y-87075000D03*
X69720000Y-88075000D03*
X69720000Y-89075000D03*
X69720000Y-90075000D03*
X69720000Y-91075000D03*
X69720000Y-92075000D03*
X69720000Y-93075000D03*
X69720000Y-94075000D03*
X69720000Y-95075000D03*
X69720000Y-100075000D03*
X69720000Y-111075000D03*
X70720000Y-80075000D03*
X70720000Y-90075000D03*
X70720000Y-91075000D03*
X70720000Y-92075000D03*
X70720000Y-93075000D03*
X70720000Y-94075000D03*
X70720000Y-100075000D03*
X70720000Y-111075000D03*
X71094600Y-86131400D03*
X71367000Y-104876600D03*
X71900400Y-86690200D03*
X72281400Y-110820200D03*
X72517000Y-83947000D03*
X73175430Y-86231030D03*
X73373600Y-84201000D03*
X73720000Y-111075000D03*
X73888600Y-89738200D03*
X73907000Y-86410800D03*
X74041000Y-92075000D03*
X74447400Y-87909400D03*
X74465800Y-94107900D03*
X74491200Y-100838000D03*
X74646072Y-86272500D03*
X74676000Y-90805000D03*
X74720000Y-96075000D03*
X74720000Y-111075000D03*
X74796000Y-82194400D03*
X74872200Y-93421200D03*
X75209400Y-91643200D03*
X75720000Y-111075000D03*
X75797300Y-90819700D03*
X75862800Y-97155000D03*
X76320000Y-85293200D03*
X76606400Y-92481400D03*
X76720000Y-111075000D03*
X77005800Y-95986600D03*
X77234400Y-85344000D03*
X77546200Y-79959200D03*
X77720000Y-105075000D03*
X77720000Y-106075000D03*
X77720000Y-109075000D03*
X77720000Y-110075000D03*
X77894800Y-85750400D03*
X78091733Y-83774190D03*
X78268224Y-90746624D03*
X78504400Y-97764600D03*
X78551599Y-84859051D03*
X78720000Y-109075000D03*
X78720000Y-110075000D03*
X79019336Y-90781084D03*
X79095600Y-85979000D03*
X79248000Y-102565200D03*
X79720000Y-81075000D03*
X79720000Y-105075000D03*
X79720000Y-106075000D03*
X79720000Y-107075000D03*
X79720000Y-109075000D03*
X79720000Y-110075000D03*
X79833297Y-87348450D03*
X79883000Y-88138000D03*
X79984600Y-88976200D03*
X80035400Y-84848450D03*
X80213200Y-92506800D03*
X80467776Y-90746624D03*
X80720000Y-103075000D03*
X80720000Y-105075000D03*
X80720000Y-106075000D03*
X80720000Y-107075000D03*
X80720000Y-109075000D03*
X80720000Y-110075000D03*
X81171400Y-81305400D03*
X81720000Y-103075000D03*
X81720000Y-105075000D03*
X81720000Y-106075000D03*
X81720000Y-107075000D03*
X81720000Y-109075000D03*
X81720000Y-110075000D03*
X81781000Y-82245200D03*
X81889600Y-91900924D03*
X81958800Y-92659200D03*
X82194400Y-86918800D03*
X82194400Y-87960200D03*
X82484852Y-81408781D03*
X82720000Y-103075000D03*
X82720000Y-105075000D03*
X82720000Y-106075000D03*
X82720000Y-107075000D03*
X82720000Y-109075000D03*
X82720000Y-110075000D03*
X82900476Y-100944724D03*
X83108800Y-88874600D03*
X83185000Y-86918800D03*
X83261200Y-87833200D03*
X83508200Y-91846400D03*
X83559000Y-84817900D03*
X83591400Y-82143600D03*
X83720000Y-103075000D03*
X83720000Y-105075000D03*
X83720000Y-106075000D03*
X83720000Y-107075000D03*
X83720000Y-109075000D03*
X83720000Y-110075000D03*
X84150200Y-86868000D03*
X84328000Y-87833200D03*
X84353400Y-88874600D03*
X84720000Y-92075000D03*
X84720000Y-103075000D03*
X84720000Y-105075000D03*
X84720000Y-106075000D03*
X84720000Y-107075000D03*
X84720000Y-109075000D03*
X84720000Y-110075000D03*
X84727400Y-99568000D03*
X84942050Y-81800709D03*
X85110000Y-93865000D03*
X85267800Y-79679800D03*
X85286200Y-99009200D03*
X85521800Y-100355400D03*
X85720000Y-103075000D03*
X85720000Y-105075000D03*
X85720000Y-106075000D03*
X85720000Y-107075000D03*
X85720000Y-109075000D03*
X85720000Y-110075000D03*
X85725000Y-88874600D03*
X85750400Y-87858600D03*
X85753100Y-98405053D03*
X85775800Y-86893400D03*
X85875850Y-81755369D03*
X85906400Y-91567000D03*
X86434500Y-92227400D03*
X86720000Y-103075000D03*
X86720000Y-105075000D03*
X86720000Y-106075000D03*
X86720000Y-107075000D03*
X86720000Y-109075000D03*
X86720000Y-110075000D03*
X86962600Y-91541600D03*
X87216600Y-99568000D03*
X87579200Y-92100400D03*
X87706200Y-81508600D03*
X87720000Y-103075000D03*
X87720000Y-105075000D03*
X87720000Y-106075000D03*
X87720000Y-107075000D03*
X87720000Y-109075000D03*
X87720000Y-110075000D03*
X88300736Y-85233657D03*
X88417400Y-100761800D03*
X88537400Y-89662000D03*
X88537900Y-90754200D03*
X88620600Y-83145990D03*
X88720000Y-103075000D03*
X88720000Y-105075000D03*
X88720000Y-106075000D03*
X88720000Y-107075000D03*
X88720000Y-109075000D03*
X88720000Y-110075000D03*
X88965498Y-92394498D03*
X89089056Y-87987450D03*
X89103200Y-93802200D03*
X89103200Y-100736400D03*
X89128600Y-100025200D03*
X89128800Y-87223600D03*
X89281000Y-83845400D03*
X89352076Y-85374524D03*
X89636600Y-80975200D03*
X89720000Y-103075000D03*
X89720000Y-105075000D03*
X89720000Y-106075000D03*
X89720000Y-109075000D03*
X89720000Y-110075000D03*
X89839800Y-88061800D03*
X90678000Y-85267800D03*
X90720000Y-105075000D03*
X90720000Y-108075000D03*
X90720000Y-109075000D03*
X90720000Y-110075000D03*
X91077400Y-103124000D03*
X91458400Y-83667600D03*
X91510491Y-101537111D03*
X91720000Y-107075000D03*
X91720000Y-108075000D03*
X91720000Y-109075000D03*
X91720000Y-110075000D03*
X91872100Y-96063053D03*
X91894088Y-94096400D03*
X92144200Y-86233000D03*
X92720000Y-106075000D03*
X92720000Y-107075000D03*
X92720000Y-108075000D03*
X92720000Y-109075000D03*
X92720000Y-110075000D03*
X92985000Y-96774000D03*
X93116400Y-83896200D03*
X93185600Y-80924400D03*
X93192600Y-85369400D03*
X93338000Y-86283800D03*
X93370400Y-104140000D03*
X93475100Y-93568300D03*
X93675200Y-88112600D03*
X93720000Y-109075000D03*
X94141600Y-81085702D03*
X94531300Y-90719076D03*
X94582600Y-94691200D03*
X94691200Y-89281000D03*
X94742000Y-97536000D03*
X94814812Y-90022672D03*
X94919800Y-84658200D03*
X95217600Y-109016800D03*
X95690000Y-91160000D03*
X95859600Y-79705200D03*
X95859600Y-85699600D03*
X95889400Y-103650800D03*
X96113600Y-83108800D03*
X96894000Y-94157800D03*
X97256600Y-95478600D03*
X97637600Y-78435200D03*
X97790000Y-96215200D03*
X97810000Y-79670000D03*
X97967800Y-84023200D03*
X98094800Y-83159600D03*
X98138600Y-85345000D03*
X98272600Y-89585800D03*
X98628500Y-90957400D03*
X98628500Y-102133400D03*
X98720000Y-111075000D03*
X98781901Y-87184161D03*
X99720000Y-111075000D03*
X100720000Y-100075000D03*
X100720000Y-101075000D03*
X100720000Y-102075000D03*
X100720000Y-106075000D03*
X100720000Y-107075000D03*
X100720000Y-111075000D03*
X100909170Y-81259630D03*
X101008800Y-88595200D03*
X101720000Y-91075000D03*
X101720000Y-92075000D03*
X101720000Y-93075000D03*
X101720000Y-94075000D03*
X101720000Y-95075000D03*
X101720000Y-96075000D03*
X101720000Y-97075000D03*
X101720000Y-100075000D03*
X101720000Y-101075000D03*
X101720000Y-102075000D03*
X101720000Y-105075000D03*
X101720000Y-111075000D03*
D11*
%TO.C,J2*%
X96270000Y-90040000D03*
X96270000Y-98680000D03*
D12*
X100440000Y-90040000D03*
X100440000Y-98680000D03*
M02*
