%TF.GenerationSoftware,KiCad,Pcbnew,(7.0.0)*%
%TF.CreationDate,2023-08-19T21:43:32+02:00*%
%TF.ProjectId,Watchy,57617463-6879-42e6-9b69-6361645f7063,rev?*%
%TF.SameCoordinates,Original*%
%TF.FileFunction,Drillmap*%
%TF.FilePolarity,Positive*%
%FSLAX45Y45*%
G04 Gerber Fmt 4.5, Leading zero omitted, Abs format (unit mm)*
G04 Created by KiCad (PCBNEW (7.0.0)) date 2023-08-19 21:43:32*
%MOMM*%
%LPD*%
G01*
G04 APERTURE LIST*
%ADD10C,0.150000*%
%ADD11C,0.200000*%
%ADD12C,0.060000*%
%ADD13C,0.080000*%
G04 APERTURE END LIST*
D10*
X7160000Y-7315000D02*
G75*
G03*
X7260000Y-7415000I100000J0D01*
G01*
X7260000Y-11211000D02*
G75*
G03*
X7160000Y-11311000I0J-100000D01*
G01*
X9960000Y-11311000D02*
G75*
G03*
X9860000Y-11211000I-100000J0D01*
G01*
X9860000Y-7415000D02*
G75*
G03*
X9960000Y-7315000I0J100000D01*
G01*
X9860000Y-7415000D02*
X7260000Y-7415000D01*
X7260000Y-7215000D02*
X9860000Y-7215000D01*
X9850000Y-11611000D02*
G75*
G03*
X10250000Y-11211000I0J400000D01*
G01*
X6870000Y-11211000D02*
G75*
G03*
X7270000Y-11611000I400000J0D01*
G01*
X10250000Y-7415000D02*
G75*
G03*
X9850000Y-7015000I-400000J0D01*
G01*
X10250000Y-11211000D02*
X10250000Y-7415000D01*
X7755000Y-11211000D02*
G75*
G03*
X7805000Y-11161000I0J50000D01*
G01*
X9405000Y-11161000D02*
G75*
G03*
X9455000Y-11211000I50000J0D01*
G01*
X9860000Y-11211000D02*
X9455000Y-11211000D01*
X7805000Y-11161000D02*
X9405000Y-11161000D01*
X6870000Y-11211000D02*
X6870000Y-7415000D01*
X9850000Y-7015000D02*
X7270000Y-7015000D01*
X9860000Y-11411000D02*
G75*
G03*
X9960000Y-11311000I0J100000D01*
G01*
X9860000Y-11411000D02*
X7260000Y-11411000D01*
X7260000Y-11211000D02*
X7755000Y-11211000D01*
X7270000Y-11611000D02*
X9850000Y-11611000D01*
X7270000Y-7015000D02*
G75*
G03*
X6870000Y-7415000I0J-400000D01*
G01*
X9960000Y-7315000D02*
G75*
G03*
X9860000Y-7215000I-100000J0D01*
G01*
X7160000Y-11311000D02*
G75*
G03*
X7260000Y-11411000I100000J0D01*
G01*
X7260000Y-7215000D02*
G75*
G03*
X7160000Y-7315000I0J-100000D01*
G01*
D11*
D12*
X9645000Y-9117000D02*
X9705000Y-9177000D01*
X9705000Y-9117000D02*
X9645000Y-9177000D01*
X9645000Y-9695000D02*
X9705000Y-9755000D01*
X9705000Y-9695000D02*
X9645000Y-9755000D01*
D13*
X6973000Y-7993000D02*
G75*
G03*
X6973000Y-7993000I-40000J0D01*
G01*
X6973000Y-10633000D02*
G75*
G03*
X6973000Y-10633000I-40000J0D01*
G01*
X7233000Y-7993000D02*
G75*
G03*
X7233000Y-7993000I-40000J0D01*
G01*
X7233000Y-10633000D02*
G75*
G03*
X7233000Y-10633000I-40000J0D01*
G01*
X9967000Y-7993000D02*
G75*
G03*
X9967000Y-7993000I-40000J0D01*
G01*
X9967000Y-10633000D02*
G75*
G03*
X9967000Y-10633000I-40000J0D01*
G01*
X10227000Y-7993000D02*
G75*
G03*
X10227000Y-7993000I-40000J0D01*
G01*
X10227000Y-10633000D02*
G75*
G03*
X10227000Y-10633000I-40000J0D01*
G01*
D11*
X7110119Y-11911976D02*
X7110119Y-11711976D01*
X7110119Y-11711976D02*
X7157738Y-11711976D01*
X7157738Y-11711976D02*
X7186309Y-11721500D01*
X7186309Y-11721500D02*
X7205357Y-11740548D01*
X7205357Y-11740548D02*
X7214881Y-11759595D01*
X7214881Y-11759595D02*
X7224405Y-11797690D01*
X7224405Y-11797690D02*
X7224405Y-11826262D01*
X7224405Y-11826262D02*
X7214881Y-11864357D01*
X7214881Y-11864357D02*
X7205357Y-11883405D01*
X7205357Y-11883405D02*
X7186309Y-11902452D01*
X7186309Y-11902452D02*
X7157738Y-11911976D01*
X7157738Y-11911976D02*
X7110119Y-11911976D01*
X7310119Y-11911976D02*
X7310119Y-11778643D01*
X7310119Y-11816738D02*
X7319643Y-11797690D01*
X7319643Y-11797690D02*
X7329167Y-11788167D01*
X7329167Y-11788167D02*
X7348214Y-11778643D01*
X7348214Y-11778643D02*
X7367262Y-11778643D01*
X7433928Y-11911976D02*
X7433928Y-11778643D01*
X7433928Y-11711976D02*
X7424405Y-11721500D01*
X7424405Y-11721500D02*
X7433928Y-11731024D01*
X7433928Y-11731024D02*
X7443452Y-11721500D01*
X7443452Y-11721500D02*
X7433928Y-11711976D01*
X7433928Y-11711976D02*
X7433928Y-11731024D01*
X7557738Y-11911976D02*
X7538690Y-11902452D01*
X7538690Y-11902452D02*
X7529167Y-11883405D01*
X7529167Y-11883405D02*
X7529167Y-11711976D01*
X7662500Y-11911976D02*
X7643452Y-11902452D01*
X7643452Y-11902452D02*
X7633928Y-11883405D01*
X7633928Y-11883405D02*
X7633928Y-11711976D01*
X7858690Y-11911976D02*
X7858690Y-11711976D01*
X7858690Y-11711976D02*
X7925357Y-11854833D01*
X7925357Y-11854833D02*
X7992024Y-11711976D01*
X7992024Y-11711976D02*
X7992024Y-11911976D01*
X8172976Y-11911976D02*
X8172976Y-11807214D01*
X8172976Y-11807214D02*
X8163452Y-11788167D01*
X8163452Y-11788167D02*
X8144405Y-11778643D01*
X8144405Y-11778643D02*
X8106309Y-11778643D01*
X8106309Y-11778643D02*
X8087262Y-11788167D01*
X8172976Y-11902452D02*
X8153928Y-11911976D01*
X8153928Y-11911976D02*
X8106309Y-11911976D01*
X8106309Y-11911976D02*
X8087262Y-11902452D01*
X8087262Y-11902452D02*
X8077738Y-11883405D01*
X8077738Y-11883405D02*
X8077738Y-11864357D01*
X8077738Y-11864357D02*
X8087262Y-11845309D01*
X8087262Y-11845309D02*
X8106309Y-11835786D01*
X8106309Y-11835786D02*
X8153928Y-11835786D01*
X8153928Y-11835786D02*
X8172976Y-11826262D01*
X8268214Y-11778643D02*
X8268214Y-11978643D01*
X8268214Y-11788167D02*
X8287262Y-11778643D01*
X8287262Y-11778643D02*
X8325357Y-11778643D01*
X8325357Y-11778643D02*
X8344405Y-11788167D01*
X8344405Y-11788167D02*
X8353928Y-11797690D01*
X8353928Y-11797690D02*
X8363452Y-11816738D01*
X8363452Y-11816738D02*
X8363452Y-11873881D01*
X8363452Y-11873881D02*
X8353928Y-11892928D01*
X8353928Y-11892928D02*
X8344405Y-11902452D01*
X8344405Y-11902452D02*
X8325357Y-11911976D01*
X8325357Y-11911976D02*
X8287262Y-11911976D01*
X8287262Y-11911976D02*
X8268214Y-11902452D01*
X8449167Y-11892928D02*
X8458690Y-11902452D01*
X8458690Y-11902452D02*
X8449167Y-11911976D01*
X8449167Y-11911976D02*
X8439643Y-11902452D01*
X8439643Y-11902452D02*
X8449167Y-11892928D01*
X8449167Y-11892928D02*
X8449167Y-11911976D01*
X8449167Y-11788167D02*
X8458690Y-11797690D01*
X8458690Y-11797690D02*
X8449167Y-11807214D01*
X8449167Y-11807214D02*
X8439643Y-11797690D01*
X8439643Y-11797690D02*
X8449167Y-11788167D01*
X8449167Y-11788167D02*
X8449167Y-11807214D01*
D12*
X6802500Y-12228500D02*
X6862500Y-12288500D01*
X6862500Y-12228500D02*
X6802500Y-12288500D01*
D11*
X7148214Y-12131976D02*
X7167262Y-12131976D01*
X7167262Y-12131976D02*
X7186309Y-12141500D01*
X7186309Y-12141500D02*
X7195833Y-12151024D01*
X7195833Y-12151024D02*
X7205357Y-12170071D01*
X7205357Y-12170071D02*
X7214881Y-12208167D01*
X7214881Y-12208167D02*
X7214881Y-12255786D01*
X7214881Y-12255786D02*
X7205357Y-12293881D01*
X7205357Y-12293881D02*
X7195833Y-12312928D01*
X7195833Y-12312928D02*
X7186309Y-12322452D01*
X7186309Y-12322452D02*
X7167262Y-12331976D01*
X7167262Y-12331976D02*
X7148214Y-12331976D01*
X7148214Y-12331976D02*
X7129167Y-12322452D01*
X7129167Y-12322452D02*
X7119643Y-12312928D01*
X7119643Y-12312928D02*
X7110119Y-12293881D01*
X7110119Y-12293881D02*
X7100595Y-12255786D01*
X7100595Y-12255786D02*
X7100595Y-12208167D01*
X7100595Y-12208167D02*
X7110119Y-12170071D01*
X7110119Y-12170071D02*
X7119643Y-12151024D01*
X7119643Y-12151024D02*
X7129167Y-12141500D01*
X7129167Y-12141500D02*
X7148214Y-12131976D01*
X7300595Y-12312928D02*
X7310119Y-12322452D01*
X7310119Y-12322452D02*
X7300595Y-12331976D01*
X7300595Y-12331976D02*
X7291071Y-12322452D01*
X7291071Y-12322452D02*
X7300595Y-12312928D01*
X7300595Y-12312928D02*
X7300595Y-12331976D01*
X7481548Y-12131976D02*
X7443452Y-12131976D01*
X7443452Y-12131976D02*
X7424405Y-12141500D01*
X7424405Y-12141500D02*
X7414881Y-12151024D01*
X7414881Y-12151024D02*
X7395833Y-12179595D01*
X7395833Y-12179595D02*
X7386309Y-12217690D01*
X7386309Y-12217690D02*
X7386309Y-12293881D01*
X7386309Y-12293881D02*
X7395833Y-12312928D01*
X7395833Y-12312928D02*
X7405357Y-12322452D01*
X7405357Y-12322452D02*
X7424405Y-12331976D01*
X7424405Y-12331976D02*
X7462500Y-12331976D01*
X7462500Y-12331976D02*
X7481548Y-12322452D01*
X7481548Y-12322452D02*
X7491071Y-12312928D01*
X7491071Y-12312928D02*
X7500595Y-12293881D01*
X7500595Y-12293881D02*
X7500595Y-12246262D01*
X7500595Y-12246262D02*
X7491071Y-12227214D01*
X7491071Y-12227214D02*
X7481548Y-12217690D01*
X7481548Y-12217690D02*
X7462500Y-12208167D01*
X7462500Y-12208167D02*
X7424405Y-12208167D01*
X7424405Y-12208167D02*
X7405357Y-12217690D01*
X7405357Y-12217690D02*
X7395833Y-12227214D01*
X7395833Y-12227214D02*
X7386309Y-12246262D01*
X7624405Y-12131976D02*
X7643452Y-12131976D01*
X7643452Y-12131976D02*
X7662500Y-12141500D01*
X7662500Y-12141500D02*
X7672024Y-12151024D01*
X7672024Y-12151024D02*
X7681548Y-12170071D01*
X7681548Y-12170071D02*
X7691071Y-12208167D01*
X7691071Y-12208167D02*
X7691071Y-12255786D01*
X7691071Y-12255786D02*
X7681548Y-12293881D01*
X7681548Y-12293881D02*
X7672024Y-12312928D01*
X7672024Y-12312928D02*
X7662500Y-12322452D01*
X7662500Y-12322452D02*
X7643452Y-12331976D01*
X7643452Y-12331976D02*
X7624405Y-12331976D01*
X7624405Y-12331976D02*
X7605357Y-12322452D01*
X7605357Y-12322452D02*
X7595833Y-12312928D01*
X7595833Y-12312928D02*
X7586309Y-12293881D01*
X7586309Y-12293881D02*
X7576786Y-12255786D01*
X7576786Y-12255786D02*
X7576786Y-12208167D01*
X7576786Y-12208167D02*
X7586309Y-12170071D01*
X7586309Y-12170071D02*
X7595833Y-12151024D01*
X7595833Y-12151024D02*
X7605357Y-12141500D01*
X7605357Y-12141500D02*
X7624405Y-12131976D01*
X7814881Y-12131976D02*
X7833929Y-12131976D01*
X7833929Y-12131976D02*
X7852976Y-12141500D01*
X7852976Y-12141500D02*
X7862500Y-12151024D01*
X7862500Y-12151024D02*
X7872024Y-12170071D01*
X7872024Y-12170071D02*
X7881548Y-12208167D01*
X7881548Y-12208167D02*
X7881548Y-12255786D01*
X7881548Y-12255786D02*
X7872024Y-12293881D01*
X7872024Y-12293881D02*
X7862500Y-12312928D01*
X7862500Y-12312928D02*
X7852976Y-12322452D01*
X7852976Y-12322452D02*
X7833929Y-12331976D01*
X7833929Y-12331976D02*
X7814881Y-12331976D01*
X7814881Y-12331976D02*
X7795833Y-12322452D01*
X7795833Y-12322452D02*
X7786309Y-12312928D01*
X7786309Y-12312928D02*
X7776786Y-12293881D01*
X7776786Y-12293881D02*
X7767262Y-12255786D01*
X7767262Y-12255786D02*
X7767262Y-12208167D01*
X7767262Y-12208167D02*
X7776786Y-12170071D01*
X7776786Y-12170071D02*
X7786309Y-12151024D01*
X7786309Y-12151024D02*
X7795833Y-12141500D01*
X7795833Y-12141500D02*
X7814881Y-12131976D01*
X7967262Y-12331976D02*
X7967262Y-12198643D01*
X7967262Y-12217690D02*
X7976786Y-12208167D01*
X7976786Y-12208167D02*
X7995833Y-12198643D01*
X7995833Y-12198643D02*
X8024405Y-12198643D01*
X8024405Y-12198643D02*
X8043452Y-12208167D01*
X8043452Y-12208167D02*
X8052976Y-12227214D01*
X8052976Y-12227214D02*
X8052976Y-12331976D01*
X8052976Y-12227214D02*
X8062500Y-12208167D01*
X8062500Y-12208167D02*
X8081548Y-12198643D01*
X8081548Y-12198643D02*
X8110119Y-12198643D01*
X8110119Y-12198643D02*
X8129167Y-12208167D01*
X8129167Y-12208167D02*
X8138690Y-12227214D01*
X8138690Y-12227214D02*
X8138690Y-12331976D01*
X8233929Y-12331976D02*
X8233929Y-12198643D01*
X8233929Y-12217690D02*
X8243452Y-12208167D01*
X8243452Y-12208167D02*
X8262500Y-12198643D01*
X8262500Y-12198643D02*
X8291071Y-12198643D01*
X8291071Y-12198643D02*
X8310119Y-12208167D01*
X8310119Y-12208167D02*
X8319643Y-12227214D01*
X8319643Y-12227214D02*
X8319643Y-12331976D01*
X8319643Y-12227214D02*
X8329167Y-12208167D01*
X8329167Y-12208167D02*
X8348214Y-12198643D01*
X8348214Y-12198643D02*
X8376786Y-12198643D01*
X8376786Y-12198643D02*
X8395833Y-12208167D01*
X8395833Y-12208167D02*
X8405357Y-12227214D01*
X8405357Y-12227214D02*
X8405357Y-12331976D01*
X8763452Y-12122452D02*
X8592024Y-12379595D01*
X8988214Y-12131976D02*
X9007262Y-12131976D01*
X9007262Y-12131976D02*
X9026310Y-12141500D01*
X9026310Y-12141500D02*
X9035833Y-12151024D01*
X9035833Y-12151024D02*
X9045357Y-12170071D01*
X9045357Y-12170071D02*
X9054881Y-12208167D01*
X9054881Y-12208167D02*
X9054881Y-12255786D01*
X9054881Y-12255786D02*
X9045357Y-12293881D01*
X9045357Y-12293881D02*
X9035833Y-12312928D01*
X9035833Y-12312928D02*
X9026310Y-12322452D01*
X9026310Y-12322452D02*
X9007262Y-12331976D01*
X9007262Y-12331976D02*
X8988214Y-12331976D01*
X8988214Y-12331976D02*
X8969167Y-12322452D01*
X8969167Y-12322452D02*
X8959643Y-12312928D01*
X8959643Y-12312928D02*
X8950119Y-12293881D01*
X8950119Y-12293881D02*
X8940595Y-12255786D01*
X8940595Y-12255786D02*
X8940595Y-12208167D01*
X8940595Y-12208167D02*
X8950119Y-12170071D01*
X8950119Y-12170071D02*
X8959643Y-12151024D01*
X8959643Y-12151024D02*
X8969167Y-12141500D01*
X8969167Y-12141500D02*
X8988214Y-12131976D01*
X9140595Y-12312928D02*
X9150119Y-12322452D01*
X9150119Y-12322452D02*
X9140595Y-12331976D01*
X9140595Y-12331976D02*
X9131072Y-12322452D01*
X9131072Y-12322452D02*
X9140595Y-12312928D01*
X9140595Y-12312928D02*
X9140595Y-12331976D01*
X9273929Y-12131976D02*
X9292976Y-12131976D01*
X9292976Y-12131976D02*
X9312024Y-12141500D01*
X9312024Y-12141500D02*
X9321548Y-12151024D01*
X9321548Y-12151024D02*
X9331072Y-12170071D01*
X9331072Y-12170071D02*
X9340595Y-12208167D01*
X9340595Y-12208167D02*
X9340595Y-12255786D01*
X9340595Y-12255786D02*
X9331072Y-12293881D01*
X9331072Y-12293881D02*
X9321548Y-12312928D01*
X9321548Y-12312928D02*
X9312024Y-12322452D01*
X9312024Y-12322452D02*
X9292976Y-12331976D01*
X9292976Y-12331976D02*
X9273929Y-12331976D01*
X9273929Y-12331976D02*
X9254881Y-12322452D01*
X9254881Y-12322452D02*
X9245357Y-12312928D01*
X9245357Y-12312928D02*
X9235833Y-12293881D01*
X9235833Y-12293881D02*
X9226310Y-12255786D01*
X9226310Y-12255786D02*
X9226310Y-12208167D01*
X9226310Y-12208167D02*
X9235833Y-12170071D01*
X9235833Y-12170071D02*
X9245357Y-12151024D01*
X9245357Y-12151024D02*
X9254881Y-12141500D01*
X9254881Y-12141500D02*
X9273929Y-12131976D01*
X9416786Y-12151024D02*
X9426310Y-12141500D01*
X9426310Y-12141500D02*
X9445357Y-12131976D01*
X9445357Y-12131976D02*
X9492976Y-12131976D01*
X9492976Y-12131976D02*
X9512024Y-12141500D01*
X9512024Y-12141500D02*
X9521548Y-12151024D01*
X9521548Y-12151024D02*
X9531072Y-12170071D01*
X9531072Y-12170071D02*
X9531072Y-12189119D01*
X9531072Y-12189119D02*
X9521548Y-12217690D01*
X9521548Y-12217690D02*
X9407262Y-12331976D01*
X9407262Y-12331976D02*
X9531072Y-12331976D01*
X9597738Y-12131976D02*
X9721548Y-12131976D01*
X9721548Y-12131976D02*
X9654881Y-12208167D01*
X9654881Y-12208167D02*
X9683453Y-12208167D01*
X9683453Y-12208167D02*
X9702500Y-12217690D01*
X9702500Y-12217690D02*
X9712024Y-12227214D01*
X9712024Y-12227214D02*
X9721548Y-12246262D01*
X9721548Y-12246262D02*
X9721548Y-12293881D01*
X9721548Y-12293881D02*
X9712024Y-12312928D01*
X9712024Y-12312928D02*
X9702500Y-12322452D01*
X9702500Y-12322452D02*
X9683453Y-12331976D01*
X9683453Y-12331976D02*
X9626310Y-12331976D01*
X9626310Y-12331976D02*
X9607262Y-12322452D01*
X9607262Y-12322452D02*
X9597738Y-12312928D01*
X9892976Y-12131976D02*
X9854881Y-12131976D01*
X9854881Y-12131976D02*
X9835833Y-12141500D01*
X9835833Y-12141500D02*
X9826310Y-12151024D01*
X9826310Y-12151024D02*
X9807262Y-12179595D01*
X9807262Y-12179595D02*
X9797738Y-12217690D01*
X9797738Y-12217690D02*
X9797738Y-12293881D01*
X9797738Y-12293881D02*
X9807262Y-12312928D01*
X9807262Y-12312928D02*
X9816786Y-12322452D01*
X9816786Y-12322452D02*
X9835833Y-12331976D01*
X9835833Y-12331976D02*
X9873929Y-12331976D01*
X9873929Y-12331976D02*
X9892976Y-12322452D01*
X9892976Y-12322452D02*
X9902500Y-12312928D01*
X9902500Y-12312928D02*
X9912024Y-12293881D01*
X9912024Y-12293881D02*
X9912024Y-12246262D01*
X9912024Y-12246262D02*
X9902500Y-12227214D01*
X9902500Y-12227214D02*
X9892976Y-12217690D01*
X9892976Y-12217690D02*
X9873929Y-12208167D01*
X9873929Y-12208167D02*
X9835833Y-12208167D01*
X9835833Y-12208167D02*
X9816786Y-12217690D01*
X9816786Y-12217690D02*
X9807262Y-12227214D01*
X9807262Y-12227214D02*
X9797738Y-12246262D01*
X9988214Y-12131976D02*
X9988214Y-12170071D01*
X10064405Y-12131976D02*
X10064405Y-12170071D01*
X10327262Y-12408167D02*
X10317738Y-12398643D01*
X10317738Y-12398643D02*
X10298691Y-12370071D01*
X10298691Y-12370071D02*
X10289167Y-12351024D01*
X10289167Y-12351024D02*
X10279643Y-12322452D01*
X10279643Y-12322452D02*
X10270119Y-12274833D01*
X10270119Y-12274833D02*
X10270119Y-12236738D01*
X10270119Y-12236738D02*
X10279643Y-12189119D01*
X10279643Y-12189119D02*
X10289167Y-12160548D01*
X10289167Y-12160548D02*
X10298691Y-12141500D01*
X10298691Y-12141500D02*
X10317738Y-12112928D01*
X10317738Y-12112928D02*
X10327262Y-12103405D01*
X10393929Y-12151024D02*
X10403453Y-12141500D01*
X10403453Y-12141500D02*
X10422500Y-12131976D01*
X10422500Y-12131976D02*
X10470119Y-12131976D01*
X10470119Y-12131976D02*
X10489167Y-12141500D01*
X10489167Y-12141500D02*
X10498691Y-12151024D01*
X10498691Y-12151024D02*
X10508214Y-12170071D01*
X10508214Y-12170071D02*
X10508214Y-12189119D01*
X10508214Y-12189119D02*
X10498691Y-12217690D01*
X10498691Y-12217690D02*
X10384405Y-12331976D01*
X10384405Y-12331976D02*
X10508214Y-12331976D01*
X10713929Y-12331976D02*
X10713929Y-12131976D01*
X10799643Y-12331976D02*
X10799643Y-12227214D01*
X10799643Y-12227214D02*
X10790119Y-12208167D01*
X10790119Y-12208167D02*
X10771072Y-12198643D01*
X10771072Y-12198643D02*
X10742500Y-12198643D01*
X10742500Y-12198643D02*
X10723453Y-12208167D01*
X10723453Y-12208167D02*
X10713929Y-12217690D01*
X10923453Y-12331976D02*
X10904405Y-12322452D01*
X10904405Y-12322452D02*
X10894881Y-12312928D01*
X10894881Y-12312928D02*
X10885357Y-12293881D01*
X10885357Y-12293881D02*
X10885357Y-12236738D01*
X10885357Y-12236738D02*
X10894881Y-12217690D01*
X10894881Y-12217690D02*
X10904405Y-12208167D01*
X10904405Y-12208167D02*
X10923453Y-12198643D01*
X10923453Y-12198643D02*
X10952024Y-12198643D01*
X10952024Y-12198643D02*
X10971072Y-12208167D01*
X10971072Y-12208167D02*
X10980595Y-12217690D01*
X10980595Y-12217690D02*
X10990119Y-12236738D01*
X10990119Y-12236738D02*
X10990119Y-12293881D01*
X10990119Y-12293881D02*
X10980595Y-12312928D01*
X10980595Y-12312928D02*
X10971072Y-12322452D01*
X10971072Y-12322452D02*
X10952024Y-12331976D01*
X10952024Y-12331976D02*
X10923453Y-12331976D01*
X11104405Y-12331976D02*
X11085357Y-12322452D01*
X11085357Y-12322452D02*
X11075834Y-12303405D01*
X11075834Y-12303405D02*
X11075834Y-12131976D01*
X11256786Y-12322452D02*
X11237738Y-12331976D01*
X11237738Y-12331976D02*
X11199643Y-12331976D01*
X11199643Y-12331976D02*
X11180595Y-12322452D01*
X11180595Y-12322452D02*
X11171072Y-12303405D01*
X11171072Y-12303405D02*
X11171072Y-12227214D01*
X11171072Y-12227214D02*
X11180595Y-12208167D01*
X11180595Y-12208167D02*
X11199643Y-12198643D01*
X11199643Y-12198643D02*
X11237738Y-12198643D01*
X11237738Y-12198643D02*
X11256786Y-12208167D01*
X11256786Y-12208167D02*
X11266310Y-12227214D01*
X11266310Y-12227214D02*
X11266310Y-12246262D01*
X11266310Y-12246262D02*
X11171072Y-12265309D01*
X11342500Y-12322452D02*
X11361548Y-12331976D01*
X11361548Y-12331976D02*
X11399643Y-12331976D01*
X11399643Y-12331976D02*
X11418691Y-12322452D01*
X11418691Y-12322452D02*
X11428214Y-12303405D01*
X11428214Y-12303405D02*
X11428214Y-12293881D01*
X11428214Y-12293881D02*
X11418691Y-12274833D01*
X11418691Y-12274833D02*
X11399643Y-12265309D01*
X11399643Y-12265309D02*
X11371072Y-12265309D01*
X11371072Y-12265309D02*
X11352024Y-12255786D01*
X11352024Y-12255786D02*
X11342500Y-12236738D01*
X11342500Y-12236738D02*
X11342500Y-12227214D01*
X11342500Y-12227214D02*
X11352024Y-12208167D01*
X11352024Y-12208167D02*
X11371072Y-12198643D01*
X11371072Y-12198643D02*
X11399643Y-12198643D01*
X11399643Y-12198643D02*
X11418691Y-12208167D01*
X11494881Y-12408167D02*
X11504405Y-12398643D01*
X11504405Y-12398643D02*
X11523453Y-12370071D01*
X11523453Y-12370071D02*
X11532976Y-12351024D01*
X11532976Y-12351024D02*
X11542500Y-12322452D01*
X11542500Y-12322452D02*
X11552024Y-12274833D01*
X11552024Y-12274833D02*
X11552024Y-12236738D01*
X11552024Y-12236738D02*
X11542500Y-12189119D01*
X11542500Y-12189119D02*
X11532976Y-12160548D01*
X11532976Y-12160548D02*
X11523453Y-12141500D01*
X11523453Y-12141500D02*
X11504405Y-12112928D01*
X11504405Y-12112928D02*
X11494881Y-12103405D01*
X11824405Y-12408167D02*
X11814881Y-12398643D01*
X11814881Y-12398643D02*
X11795833Y-12370071D01*
X11795833Y-12370071D02*
X11786310Y-12351024D01*
X11786310Y-12351024D02*
X11776786Y-12322452D01*
X11776786Y-12322452D02*
X11767262Y-12274833D01*
X11767262Y-12274833D02*
X11767262Y-12236738D01*
X11767262Y-12236738D02*
X11776786Y-12189119D01*
X11776786Y-12189119D02*
X11786310Y-12160548D01*
X11786310Y-12160548D02*
X11795833Y-12141500D01*
X11795833Y-12141500D02*
X11814881Y-12112928D01*
X11814881Y-12112928D02*
X11824405Y-12103405D01*
X11900595Y-12198643D02*
X11900595Y-12331976D01*
X11900595Y-12217690D02*
X11910119Y-12208167D01*
X11910119Y-12208167D02*
X11929167Y-12198643D01*
X11929167Y-12198643D02*
X11957738Y-12198643D01*
X11957738Y-12198643D02*
X11976786Y-12208167D01*
X11976786Y-12208167D02*
X11986310Y-12227214D01*
X11986310Y-12227214D02*
X11986310Y-12331976D01*
X12110119Y-12331976D02*
X12091072Y-12322452D01*
X12091072Y-12322452D02*
X12081548Y-12312928D01*
X12081548Y-12312928D02*
X12072024Y-12293881D01*
X12072024Y-12293881D02*
X12072024Y-12236738D01*
X12072024Y-12236738D02*
X12081548Y-12217690D01*
X12081548Y-12217690D02*
X12091072Y-12208167D01*
X12091072Y-12208167D02*
X12110119Y-12198643D01*
X12110119Y-12198643D02*
X12138691Y-12198643D01*
X12138691Y-12198643D02*
X12157738Y-12208167D01*
X12157738Y-12208167D02*
X12167262Y-12217690D01*
X12167262Y-12217690D02*
X12176786Y-12236738D01*
X12176786Y-12236738D02*
X12176786Y-12293881D01*
X12176786Y-12293881D02*
X12167262Y-12312928D01*
X12167262Y-12312928D02*
X12157738Y-12322452D01*
X12157738Y-12322452D02*
X12138691Y-12331976D01*
X12138691Y-12331976D02*
X12110119Y-12331976D01*
X12233929Y-12198643D02*
X12310119Y-12198643D01*
X12262500Y-12131976D02*
X12262500Y-12303405D01*
X12262500Y-12303405D02*
X12272024Y-12322452D01*
X12272024Y-12322452D02*
X12291072Y-12331976D01*
X12291072Y-12331976D02*
X12310119Y-12331976D01*
X12496786Y-12198643D02*
X12496786Y-12398643D01*
X12496786Y-12208167D02*
X12515833Y-12198643D01*
X12515833Y-12198643D02*
X12553929Y-12198643D01*
X12553929Y-12198643D02*
X12572976Y-12208167D01*
X12572976Y-12208167D02*
X12582500Y-12217690D01*
X12582500Y-12217690D02*
X12592024Y-12236738D01*
X12592024Y-12236738D02*
X12592024Y-12293881D01*
X12592024Y-12293881D02*
X12582500Y-12312928D01*
X12582500Y-12312928D02*
X12572976Y-12322452D01*
X12572976Y-12322452D02*
X12553929Y-12331976D01*
X12553929Y-12331976D02*
X12515833Y-12331976D01*
X12515833Y-12331976D02*
X12496786Y-12322452D01*
X12706310Y-12331976D02*
X12687262Y-12322452D01*
X12687262Y-12322452D02*
X12677738Y-12303405D01*
X12677738Y-12303405D02*
X12677738Y-12131976D01*
X12868214Y-12331976D02*
X12868214Y-12227214D01*
X12868214Y-12227214D02*
X12858691Y-12208167D01*
X12858691Y-12208167D02*
X12839643Y-12198643D01*
X12839643Y-12198643D02*
X12801548Y-12198643D01*
X12801548Y-12198643D02*
X12782500Y-12208167D01*
X12868214Y-12322452D02*
X12849167Y-12331976D01*
X12849167Y-12331976D02*
X12801548Y-12331976D01*
X12801548Y-12331976D02*
X12782500Y-12322452D01*
X12782500Y-12322452D02*
X12772976Y-12303405D01*
X12772976Y-12303405D02*
X12772976Y-12284357D01*
X12772976Y-12284357D02*
X12782500Y-12265309D01*
X12782500Y-12265309D02*
X12801548Y-12255786D01*
X12801548Y-12255786D02*
X12849167Y-12255786D01*
X12849167Y-12255786D02*
X12868214Y-12246262D01*
X12934881Y-12198643D02*
X13011072Y-12198643D01*
X12963453Y-12131976D02*
X12963453Y-12303405D01*
X12963453Y-12303405D02*
X12972976Y-12322452D01*
X12972976Y-12322452D02*
X12992024Y-12331976D01*
X12992024Y-12331976D02*
X13011072Y-12331976D01*
X13153929Y-12322452D02*
X13134881Y-12331976D01*
X13134881Y-12331976D02*
X13096786Y-12331976D01*
X13096786Y-12331976D02*
X13077738Y-12322452D01*
X13077738Y-12322452D02*
X13068214Y-12303405D01*
X13068214Y-12303405D02*
X13068214Y-12227214D01*
X13068214Y-12227214D02*
X13077738Y-12208167D01*
X13077738Y-12208167D02*
X13096786Y-12198643D01*
X13096786Y-12198643D02*
X13134881Y-12198643D01*
X13134881Y-12198643D02*
X13153929Y-12208167D01*
X13153929Y-12208167D02*
X13163453Y-12227214D01*
X13163453Y-12227214D02*
X13163453Y-12246262D01*
X13163453Y-12246262D02*
X13068214Y-12265309D01*
X13334881Y-12331976D02*
X13334881Y-12131976D01*
X13334881Y-12322452D02*
X13315834Y-12331976D01*
X13315834Y-12331976D02*
X13277738Y-12331976D01*
X13277738Y-12331976D02*
X13258691Y-12322452D01*
X13258691Y-12322452D02*
X13249167Y-12312928D01*
X13249167Y-12312928D02*
X13239643Y-12293881D01*
X13239643Y-12293881D02*
X13239643Y-12236738D01*
X13239643Y-12236738D02*
X13249167Y-12217690D01*
X13249167Y-12217690D02*
X13258691Y-12208167D01*
X13258691Y-12208167D02*
X13277738Y-12198643D01*
X13277738Y-12198643D02*
X13315834Y-12198643D01*
X13315834Y-12198643D02*
X13334881Y-12208167D01*
X13411072Y-12408167D02*
X13420595Y-12398643D01*
X13420595Y-12398643D02*
X13439643Y-12370071D01*
X13439643Y-12370071D02*
X13449167Y-12351024D01*
X13449167Y-12351024D02*
X13458691Y-12322452D01*
X13458691Y-12322452D02*
X13468214Y-12274833D01*
X13468214Y-12274833D02*
X13468214Y-12236738D01*
X13468214Y-12236738D02*
X13458691Y-12189119D01*
X13458691Y-12189119D02*
X13449167Y-12160548D01*
X13449167Y-12160548D02*
X13439643Y-12141500D01*
X13439643Y-12141500D02*
X13420595Y-12112928D01*
X13420595Y-12112928D02*
X13411072Y-12103405D01*
D13*
X6862500Y-12522500D02*
G75*
G03*
X6862500Y-12522500I-40000J0D01*
G01*
D11*
X7148214Y-12395976D02*
X7167262Y-12395976D01*
X7167262Y-12395976D02*
X7186309Y-12405500D01*
X7186309Y-12405500D02*
X7195833Y-12415024D01*
X7195833Y-12415024D02*
X7205357Y-12434071D01*
X7205357Y-12434071D02*
X7214881Y-12472167D01*
X7214881Y-12472167D02*
X7214881Y-12519786D01*
X7214881Y-12519786D02*
X7205357Y-12557881D01*
X7205357Y-12557881D02*
X7195833Y-12576928D01*
X7195833Y-12576928D02*
X7186309Y-12586452D01*
X7186309Y-12586452D02*
X7167262Y-12595976D01*
X7167262Y-12595976D02*
X7148214Y-12595976D01*
X7148214Y-12595976D02*
X7129167Y-12586452D01*
X7129167Y-12586452D02*
X7119643Y-12576928D01*
X7119643Y-12576928D02*
X7110119Y-12557881D01*
X7110119Y-12557881D02*
X7100595Y-12519786D01*
X7100595Y-12519786D02*
X7100595Y-12472167D01*
X7100595Y-12472167D02*
X7110119Y-12434071D01*
X7110119Y-12434071D02*
X7119643Y-12415024D01*
X7119643Y-12415024D02*
X7129167Y-12405500D01*
X7129167Y-12405500D02*
X7148214Y-12395976D01*
X7300595Y-12576928D02*
X7310119Y-12586452D01*
X7310119Y-12586452D02*
X7300595Y-12595976D01*
X7300595Y-12595976D02*
X7291071Y-12586452D01*
X7291071Y-12586452D02*
X7300595Y-12576928D01*
X7300595Y-12576928D02*
X7300595Y-12595976D01*
X7424405Y-12481690D02*
X7405357Y-12472167D01*
X7405357Y-12472167D02*
X7395833Y-12462643D01*
X7395833Y-12462643D02*
X7386309Y-12443595D01*
X7386309Y-12443595D02*
X7386309Y-12434071D01*
X7386309Y-12434071D02*
X7395833Y-12415024D01*
X7395833Y-12415024D02*
X7405357Y-12405500D01*
X7405357Y-12405500D02*
X7424405Y-12395976D01*
X7424405Y-12395976D02*
X7462500Y-12395976D01*
X7462500Y-12395976D02*
X7481548Y-12405500D01*
X7481548Y-12405500D02*
X7491071Y-12415024D01*
X7491071Y-12415024D02*
X7500595Y-12434071D01*
X7500595Y-12434071D02*
X7500595Y-12443595D01*
X7500595Y-12443595D02*
X7491071Y-12462643D01*
X7491071Y-12462643D02*
X7481548Y-12472167D01*
X7481548Y-12472167D02*
X7462500Y-12481690D01*
X7462500Y-12481690D02*
X7424405Y-12481690D01*
X7424405Y-12481690D02*
X7405357Y-12491214D01*
X7405357Y-12491214D02*
X7395833Y-12500738D01*
X7395833Y-12500738D02*
X7386309Y-12519786D01*
X7386309Y-12519786D02*
X7386309Y-12557881D01*
X7386309Y-12557881D02*
X7395833Y-12576928D01*
X7395833Y-12576928D02*
X7405357Y-12586452D01*
X7405357Y-12586452D02*
X7424405Y-12595976D01*
X7424405Y-12595976D02*
X7462500Y-12595976D01*
X7462500Y-12595976D02*
X7481548Y-12586452D01*
X7481548Y-12586452D02*
X7491071Y-12576928D01*
X7491071Y-12576928D02*
X7500595Y-12557881D01*
X7500595Y-12557881D02*
X7500595Y-12519786D01*
X7500595Y-12519786D02*
X7491071Y-12500738D01*
X7491071Y-12500738D02*
X7481548Y-12491214D01*
X7481548Y-12491214D02*
X7462500Y-12481690D01*
X7624405Y-12395976D02*
X7643452Y-12395976D01*
X7643452Y-12395976D02*
X7662500Y-12405500D01*
X7662500Y-12405500D02*
X7672024Y-12415024D01*
X7672024Y-12415024D02*
X7681548Y-12434071D01*
X7681548Y-12434071D02*
X7691071Y-12472167D01*
X7691071Y-12472167D02*
X7691071Y-12519786D01*
X7691071Y-12519786D02*
X7681548Y-12557881D01*
X7681548Y-12557881D02*
X7672024Y-12576928D01*
X7672024Y-12576928D02*
X7662500Y-12586452D01*
X7662500Y-12586452D02*
X7643452Y-12595976D01*
X7643452Y-12595976D02*
X7624405Y-12595976D01*
X7624405Y-12595976D02*
X7605357Y-12586452D01*
X7605357Y-12586452D02*
X7595833Y-12576928D01*
X7595833Y-12576928D02*
X7586309Y-12557881D01*
X7586309Y-12557881D02*
X7576786Y-12519786D01*
X7576786Y-12519786D02*
X7576786Y-12472167D01*
X7576786Y-12472167D02*
X7586309Y-12434071D01*
X7586309Y-12434071D02*
X7595833Y-12415024D01*
X7595833Y-12415024D02*
X7605357Y-12405500D01*
X7605357Y-12405500D02*
X7624405Y-12395976D01*
X7814881Y-12395976D02*
X7833929Y-12395976D01*
X7833929Y-12395976D02*
X7852976Y-12405500D01*
X7852976Y-12405500D02*
X7862500Y-12415024D01*
X7862500Y-12415024D02*
X7872024Y-12434071D01*
X7872024Y-12434071D02*
X7881548Y-12472167D01*
X7881548Y-12472167D02*
X7881548Y-12519786D01*
X7881548Y-12519786D02*
X7872024Y-12557881D01*
X7872024Y-12557881D02*
X7862500Y-12576928D01*
X7862500Y-12576928D02*
X7852976Y-12586452D01*
X7852976Y-12586452D02*
X7833929Y-12595976D01*
X7833929Y-12595976D02*
X7814881Y-12595976D01*
X7814881Y-12595976D02*
X7795833Y-12586452D01*
X7795833Y-12586452D02*
X7786309Y-12576928D01*
X7786309Y-12576928D02*
X7776786Y-12557881D01*
X7776786Y-12557881D02*
X7767262Y-12519786D01*
X7767262Y-12519786D02*
X7767262Y-12472167D01*
X7767262Y-12472167D02*
X7776786Y-12434071D01*
X7776786Y-12434071D02*
X7786309Y-12415024D01*
X7786309Y-12415024D02*
X7795833Y-12405500D01*
X7795833Y-12405500D02*
X7814881Y-12395976D01*
X7967262Y-12595976D02*
X7967262Y-12462643D01*
X7967262Y-12481690D02*
X7976786Y-12472167D01*
X7976786Y-12472167D02*
X7995833Y-12462643D01*
X7995833Y-12462643D02*
X8024405Y-12462643D01*
X8024405Y-12462643D02*
X8043452Y-12472167D01*
X8043452Y-12472167D02*
X8052976Y-12491214D01*
X8052976Y-12491214D02*
X8052976Y-12595976D01*
X8052976Y-12491214D02*
X8062500Y-12472167D01*
X8062500Y-12472167D02*
X8081548Y-12462643D01*
X8081548Y-12462643D02*
X8110119Y-12462643D01*
X8110119Y-12462643D02*
X8129167Y-12472167D01*
X8129167Y-12472167D02*
X8138690Y-12491214D01*
X8138690Y-12491214D02*
X8138690Y-12595976D01*
X8233929Y-12595976D02*
X8233929Y-12462643D01*
X8233929Y-12481690D02*
X8243452Y-12472167D01*
X8243452Y-12472167D02*
X8262500Y-12462643D01*
X8262500Y-12462643D02*
X8291071Y-12462643D01*
X8291071Y-12462643D02*
X8310119Y-12472167D01*
X8310119Y-12472167D02*
X8319643Y-12491214D01*
X8319643Y-12491214D02*
X8319643Y-12595976D01*
X8319643Y-12491214D02*
X8329167Y-12472167D01*
X8329167Y-12472167D02*
X8348214Y-12462643D01*
X8348214Y-12462643D02*
X8376786Y-12462643D01*
X8376786Y-12462643D02*
X8395833Y-12472167D01*
X8395833Y-12472167D02*
X8405357Y-12491214D01*
X8405357Y-12491214D02*
X8405357Y-12595976D01*
X8763452Y-12386452D02*
X8592024Y-12643595D01*
X8988214Y-12395976D02*
X9007262Y-12395976D01*
X9007262Y-12395976D02*
X9026310Y-12405500D01*
X9026310Y-12405500D02*
X9035833Y-12415024D01*
X9035833Y-12415024D02*
X9045357Y-12434071D01*
X9045357Y-12434071D02*
X9054881Y-12472167D01*
X9054881Y-12472167D02*
X9054881Y-12519786D01*
X9054881Y-12519786D02*
X9045357Y-12557881D01*
X9045357Y-12557881D02*
X9035833Y-12576928D01*
X9035833Y-12576928D02*
X9026310Y-12586452D01*
X9026310Y-12586452D02*
X9007262Y-12595976D01*
X9007262Y-12595976D02*
X8988214Y-12595976D01*
X8988214Y-12595976D02*
X8969167Y-12586452D01*
X8969167Y-12586452D02*
X8959643Y-12576928D01*
X8959643Y-12576928D02*
X8950119Y-12557881D01*
X8950119Y-12557881D02*
X8940595Y-12519786D01*
X8940595Y-12519786D02*
X8940595Y-12472167D01*
X8940595Y-12472167D02*
X8950119Y-12434071D01*
X8950119Y-12434071D02*
X8959643Y-12415024D01*
X8959643Y-12415024D02*
X8969167Y-12405500D01*
X8969167Y-12405500D02*
X8988214Y-12395976D01*
X9140595Y-12576928D02*
X9150119Y-12586452D01*
X9150119Y-12586452D02*
X9140595Y-12595976D01*
X9140595Y-12595976D02*
X9131072Y-12586452D01*
X9131072Y-12586452D02*
X9140595Y-12576928D01*
X9140595Y-12576928D02*
X9140595Y-12595976D01*
X9273929Y-12395976D02*
X9292976Y-12395976D01*
X9292976Y-12395976D02*
X9312024Y-12405500D01*
X9312024Y-12405500D02*
X9321548Y-12415024D01*
X9321548Y-12415024D02*
X9331072Y-12434071D01*
X9331072Y-12434071D02*
X9340595Y-12472167D01*
X9340595Y-12472167D02*
X9340595Y-12519786D01*
X9340595Y-12519786D02*
X9331072Y-12557881D01*
X9331072Y-12557881D02*
X9321548Y-12576928D01*
X9321548Y-12576928D02*
X9312024Y-12586452D01*
X9312024Y-12586452D02*
X9292976Y-12595976D01*
X9292976Y-12595976D02*
X9273929Y-12595976D01*
X9273929Y-12595976D02*
X9254881Y-12586452D01*
X9254881Y-12586452D02*
X9245357Y-12576928D01*
X9245357Y-12576928D02*
X9235833Y-12557881D01*
X9235833Y-12557881D02*
X9226310Y-12519786D01*
X9226310Y-12519786D02*
X9226310Y-12472167D01*
X9226310Y-12472167D02*
X9235833Y-12434071D01*
X9235833Y-12434071D02*
X9245357Y-12415024D01*
X9245357Y-12415024D02*
X9254881Y-12405500D01*
X9254881Y-12405500D02*
X9273929Y-12395976D01*
X9407262Y-12395976D02*
X9531072Y-12395976D01*
X9531072Y-12395976D02*
X9464405Y-12472167D01*
X9464405Y-12472167D02*
X9492976Y-12472167D01*
X9492976Y-12472167D02*
X9512024Y-12481690D01*
X9512024Y-12481690D02*
X9521548Y-12491214D01*
X9521548Y-12491214D02*
X9531072Y-12510262D01*
X9531072Y-12510262D02*
X9531072Y-12557881D01*
X9531072Y-12557881D02*
X9521548Y-12576928D01*
X9521548Y-12576928D02*
X9512024Y-12586452D01*
X9512024Y-12586452D02*
X9492976Y-12595976D01*
X9492976Y-12595976D02*
X9435833Y-12595976D01*
X9435833Y-12595976D02*
X9416786Y-12586452D01*
X9416786Y-12586452D02*
X9407262Y-12576928D01*
X9721548Y-12595976D02*
X9607262Y-12595976D01*
X9664405Y-12595976D02*
X9664405Y-12395976D01*
X9664405Y-12395976D02*
X9645357Y-12424548D01*
X9645357Y-12424548D02*
X9626310Y-12443595D01*
X9626310Y-12443595D02*
X9607262Y-12453119D01*
X9902500Y-12395976D02*
X9807262Y-12395976D01*
X9807262Y-12395976D02*
X9797738Y-12491214D01*
X9797738Y-12491214D02*
X9807262Y-12481690D01*
X9807262Y-12481690D02*
X9826310Y-12472167D01*
X9826310Y-12472167D02*
X9873929Y-12472167D01*
X9873929Y-12472167D02*
X9892976Y-12481690D01*
X9892976Y-12481690D02*
X9902500Y-12491214D01*
X9902500Y-12491214D02*
X9912024Y-12510262D01*
X9912024Y-12510262D02*
X9912024Y-12557881D01*
X9912024Y-12557881D02*
X9902500Y-12576928D01*
X9902500Y-12576928D02*
X9892976Y-12586452D01*
X9892976Y-12586452D02*
X9873929Y-12595976D01*
X9873929Y-12595976D02*
X9826310Y-12595976D01*
X9826310Y-12595976D02*
X9807262Y-12586452D01*
X9807262Y-12586452D02*
X9797738Y-12576928D01*
X9988214Y-12395976D02*
X9988214Y-12434071D01*
X10064405Y-12395976D02*
X10064405Y-12434071D01*
X10327262Y-12672167D02*
X10317738Y-12662643D01*
X10317738Y-12662643D02*
X10298691Y-12634071D01*
X10298691Y-12634071D02*
X10289167Y-12615024D01*
X10289167Y-12615024D02*
X10279643Y-12586452D01*
X10279643Y-12586452D02*
X10270119Y-12538833D01*
X10270119Y-12538833D02*
X10270119Y-12500738D01*
X10270119Y-12500738D02*
X10279643Y-12453119D01*
X10279643Y-12453119D02*
X10289167Y-12424548D01*
X10289167Y-12424548D02*
X10298691Y-12405500D01*
X10298691Y-12405500D02*
X10317738Y-12376928D01*
X10317738Y-12376928D02*
X10327262Y-12367405D01*
X10432024Y-12481690D02*
X10412976Y-12472167D01*
X10412976Y-12472167D02*
X10403453Y-12462643D01*
X10403453Y-12462643D02*
X10393929Y-12443595D01*
X10393929Y-12443595D02*
X10393929Y-12434071D01*
X10393929Y-12434071D02*
X10403453Y-12415024D01*
X10403453Y-12415024D02*
X10412976Y-12405500D01*
X10412976Y-12405500D02*
X10432024Y-12395976D01*
X10432024Y-12395976D02*
X10470119Y-12395976D01*
X10470119Y-12395976D02*
X10489167Y-12405500D01*
X10489167Y-12405500D02*
X10498691Y-12415024D01*
X10498691Y-12415024D02*
X10508214Y-12434071D01*
X10508214Y-12434071D02*
X10508214Y-12443595D01*
X10508214Y-12443595D02*
X10498691Y-12462643D01*
X10498691Y-12462643D02*
X10489167Y-12472167D01*
X10489167Y-12472167D02*
X10470119Y-12481690D01*
X10470119Y-12481690D02*
X10432024Y-12481690D01*
X10432024Y-12481690D02*
X10412976Y-12491214D01*
X10412976Y-12491214D02*
X10403453Y-12500738D01*
X10403453Y-12500738D02*
X10393929Y-12519786D01*
X10393929Y-12519786D02*
X10393929Y-12557881D01*
X10393929Y-12557881D02*
X10403453Y-12576928D01*
X10403453Y-12576928D02*
X10412976Y-12586452D01*
X10412976Y-12586452D02*
X10432024Y-12595976D01*
X10432024Y-12595976D02*
X10470119Y-12595976D01*
X10470119Y-12595976D02*
X10489167Y-12586452D01*
X10489167Y-12586452D02*
X10498691Y-12576928D01*
X10498691Y-12576928D02*
X10508214Y-12557881D01*
X10508214Y-12557881D02*
X10508214Y-12519786D01*
X10508214Y-12519786D02*
X10498691Y-12500738D01*
X10498691Y-12500738D02*
X10489167Y-12491214D01*
X10489167Y-12491214D02*
X10470119Y-12481690D01*
X10713929Y-12595976D02*
X10713929Y-12395976D01*
X10799643Y-12595976D02*
X10799643Y-12491214D01*
X10799643Y-12491214D02*
X10790119Y-12472167D01*
X10790119Y-12472167D02*
X10771072Y-12462643D01*
X10771072Y-12462643D02*
X10742500Y-12462643D01*
X10742500Y-12462643D02*
X10723453Y-12472167D01*
X10723453Y-12472167D02*
X10713929Y-12481690D01*
X10923453Y-12595976D02*
X10904405Y-12586452D01*
X10904405Y-12586452D02*
X10894881Y-12576928D01*
X10894881Y-12576928D02*
X10885357Y-12557881D01*
X10885357Y-12557881D02*
X10885357Y-12500738D01*
X10885357Y-12500738D02*
X10894881Y-12481690D01*
X10894881Y-12481690D02*
X10904405Y-12472167D01*
X10904405Y-12472167D02*
X10923453Y-12462643D01*
X10923453Y-12462643D02*
X10952024Y-12462643D01*
X10952024Y-12462643D02*
X10971072Y-12472167D01*
X10971072Y-12472167D02*
X10980595Y-12481690D01*
X10980595Y-12481690D02*
X10990119Y-12500738D01*
X10990119Y-12500738D02*
X10990119Y-12557881D01*
X10990119Y-12557881D02*
X10980595Y-12576928D01*
X10980595Y-12576928D02*
X10971072Y-12586452D01*
X10971072Y-12586452D02*
X10952024Y-12595976D01*
X10952024Y-12595976D02*
X10923453Y-12595976D01*
X11104405Y-12595976D02*
X11085357Y-12586452D01*
X11085357Y-12586452D02*
X11075834Y-12567405D01*
X11075834Y-12567405D02*
X11075834Y-12395976D01*
X11256786Y-12586452D02*
X11237738Y-12595976D01*
X11237738Y-12595976D02*
X11199643Y-12595976D01*
X11199643Y-12595976D02*
X11180595Y-12586452D01*
X11180595Y-12586452D02*
X11171072Y-12567405D01*
X11171072Y-12567405D02*
X11171072Y-12491214D01*
X11171072Y-12491214D02*
X11180595Y-12472167D01*
X11180595Y-12472167D02*
X11199643Y-12462643D01*
X11199643Y-12462643D02*
X11237738Y-12462643D01*
X11237738Y-12462643D02*
X11256786Y-12472167D01*
X11256786Y-12472167D02*
X11266310Y-12491214D01*
X11266310Y-12491214D02*
X11266310Y-12510262D01*
X11266310Y-12510262D02*
X11171072Y-12529309D01*
X11342500Y-12586452D02*
X11361548Y-12595976D01*
X11361548Y-12595976D02*
X11399643Y-12595976D01*
X11399643Y-12595976D02*
X11418691Y-12586452D01*
X11418691Y-12586452D02*
X11428214Y-12567405D01*
X11428214Y-12567405D02*
X11428214Y-12557881D01*
X11428214Y-12557881D02*
X11418691Y-12538833D01*
X11418691Y-12538833D02*
X11399643Y-12529309D01*
X11399643Y-12529309D02*
X11371072Y-12529309D01*
X11371072Y-12529309D02*
X11352024Y-12519786D01*
X11352024Y-12519786D02*
X11342500Y-12500738D01*
X11342500Y-12500738D02*
X11342500Y-12491214D01*
X11342500Y-12491214D02*
X11352024Y-12472167D01*
X11352024Y-12472167D02*
X11371072Y-12462643D01*
X11371072Y-12462643D02*
X11399643Y-12462643D01*
X11399643Y-12462643D02*
X11418691Y-12472167D01*
X11494881Y-12672167D02*
X11504405Y-12662643D01*
X11504405Y-12662643D02*
X11523453Y-12634071D01*
X11523453Y-12634071D02*
X11532976Y-12615024D01*
X11532976Y-12615024D02*
X11542500Y-12586452D01*
X11542500Y-12586452D02*
X11552024Y-12538833D01*
X11552024Y-12538833D02*
X11552024Y-12500738D01*
X11552024Y-12500738D02*
X11542500Y-12453119D01*
X11542500Y-12453119D02*
X11532976Y-12424548D01*
X11532976Y-12424548D02*
X11523453Y-12405500D01*
X11523453Y-12405500D02*
X11504405Y-12376928D01*
X11504405Y-12376928D02*
X11494881Y-12367405D01*
X11824405Y-12672167D02*
X11814881Y-12662643D01*
X11814881Y-12662643D02*
X11795833Y-12634071D01*
X11795833Y-12634071D02*
X11786310Y-12615024D01*
X11786310Y-12615024D02*
X11776786Y-12586452D01*
X11776786Y-12586452D02*
X11767262Y-12538833D01*
X11767262Y-12538833D02*
X11767262Y-12500738D01*
X11767262Y-12500738D02*
X11776786Y-12453119D01*
X11776786Y-12453119D02*
X11786310Y-12424548D01*
X11786310Y-12424548D02*
X11795833Y-12405500D01*
X11795833Y-12405500D02*
X11814881Y-12376928D01*
X11814881Y-12376928D02*
X11824405Y-12367405D01*
X11900595Y-12462643D02*
X11900595Y-12595976D01*
X11900595Y-12481690D02*
X11910119Y-12472167D01*
X11910119Y-12472167D02*
X11929167Y-12462643D01*
X11929167Y-12462643D02*
X11957738Y-12462643D01*
X11957738Y-12462643D02*
X11976786Y-12472167D01*
X11976786Y-12472167D02*
X11986310Y-12491214D01*
X11986310Y-12491214D02*
X11986310Y-12595976D01*
X12110119Y-12595976D02*
X12091072Y-12586452D01*
X12091072Y-12586452D02*
X12081548Y-12576928D01*
X12081548Y-12576928D02*
X12072024Y-12557881D01*
X12072024Y-12557881D02*
X12072024Y-12500738D01*
X12072024Y-12500738D02*
X12081548Y-12481690D01*
X12081548Y-12481690D02*
X12091072Y-12472167D01*
X12091072Y-12472167D02*
X12110119Y-12462643D01*
X12110119Y-12462643D02*
X12138691Y-12462643D01*
X12138691Y-12462643D02*
X12157738Y-12472167D01*
X12157738Y-12472167D02*
X12167262Y-12481690D01*
X12167262Y-12481690D02*
X12176786Y-12500738D01*
X12176786Y-12500738D02*
X12176786Y-12557881D01*
X12176786Y-12557881D02*
X12167262Y-12576928D01*
X12167262Y-12576928D02*
X12157738Y-12586452D01*
X12157738Y-12586452D02*
X12138691Y-12595976D01*
X12138691Y-12595976D02*
X12110119Y-12595976D01*
X12233929Y-12462643D02*
X12310119Y-12462643D01*
X12262500Y-12395976D02*
X12262500Y-12567405D01*
X12262500Y-12567405D02*
X12272024Y-12586452D01*
X12272024Y-12586452D02*
X12291072Y-12595976D01*
X12291072Y-12595976D02*
X12310119Y-12595976D01*
X12496786Y-12462643D02*
X12496786Y-12662643D01*
X12496786Y-12472167D02*
X12515833Y-12462643D01*
X12515833Y-12462643D02*
X12553929Y-12462643D01*
X12553929Y-12462643D02*
X12572976Y-12472167D01*
X12572976Y-12472167D02*
X12582500Y-12481690D01*
X12582500Y-12481690D02*
X12592024Y-12500738D01*
X12592024Y-12500738D02*
X12592024Y-12557881D01*
X12592024Y-12557881D02*
X12582500Y-12576928D01*
X12582500Y-12576928D02*
X12572976Y-12586452D01*
X12572976Y-12586452D02*
X12553929Y-12595976D01*
X12553929Y-12595976D02*
X12515833Y-12595976D01*
X12515833Y-12595976D02*
X12496786Y-12586452D01*
X12706310Y-12595976D02*
X12687262Y-12586452D01*
X12687262Y-12586452D02*
X12677738Y-12567405D01*
X12677738Y-12567405D02*
X12677738Y-12395976D01*
X12868214Y-12595976D02*
X12868214Y-12491214D01*
X12868214Y-12491214D02*
X12858691Y-12472167D01*
X12858691Y-12472167D02*
X12839643Y-12462643D01*
X12839643Y-12462643D02*
X12801548Y-12462643D01*
X12801548Y-12462643D02*
X12782500Y-12472167D01*
X12868214Y-12586452D02*
X12849167Y-12595976D01*
X12849167Y-12595976D02*
X12801548Y-12595976D01*
X12801548Y-12595976D02*
X12782500Y-12586452D01*
X12782500Y-12586452D02*
X12772976Y-12567405D01*
X12772976Y-12567405D02*
X12772976Y-12548357D01*
X12772976Y-12548357D02*
X12782500Y-12529309D01*
X12782500Y-12529309D02*
X12801548Y-12519786D01*
X12801548Y-12519786D02*
X12849167Y-12519786D01*
X12849167Y-12519786D02*
X12868214Y-12510262D01*
X12934881Y-12462643D02*
X13011072Y-12462643D01*
X12963453Y-12395976D02*
X12963453Y-12567405D01*
X12963453Y-12567405D02*
X12972976Y-12586452D01*
X12972976Y-12586452D02*
X12992024Y-12595976D01*
X12992024Y-12595976D02*
X13011072Y-12595976D01*
X13153929Y-12586452D02*
X13134881Y-12595976D01*
X13134881Y-12595976D02*
X13096786Y-12595976D01*
X13096786Y-12595976D02*
X13077738Y-12586452D01*
X13077738Y-12586452D02*
X13068214Y-12567405D01*
X13068214Y-12567405D02*
X13068214Y-12491214D01*
X13068214Y-12491214D02*
X13077738Y-12472167D01*
X13077738Y-12472167D02*
X13096786Y-12462643D01*
X13096786Y-12462643D02*
X13134881Y-12462643D01*
X13134881Y-12462643D02*
X13153929Y-12472167D01*
X13153929Y-12472167D02*
X13163453Y-12491214D01*
X13163453Y-12491214D02*
X13163453Y-12510262D01*
X13163453Y-12510262D02*
X13068214Y-12529309D01*
X13334881Y-12595976D02*
X13334881Y-12395976D01*
X13334881Y-12586452D02*
X13315834Y-12595976D01*
X13315834Y-12595976D02*
X13277738Y-12595976D01*
X13277738Y-12595976D02*
X13258691Y-12586452D01*
X13258691Y-12586452D02*
X13249167Y-12576928D01*
X13249167Y-12576928D02*
X13239643Y-12557881D01*
X13239643Y-12557881D02*
X13239643Y-12500738D01*
X13239643Y-12500738D02*
X13249167Y-12481690D01*
X13249167Y-12481690D02*
X13258691Y-12472167D01*
X13258691Y-12472167D02*
X13277738Y-12462643D01*
X13277738Y-12462643D02*
X13315834Y-12462643D01*
X13315834Y-12462643D02*
X13334881Y-12472167D01*
X13411072Y-12672167D02*
X13420595Y-12662643D01*
X13420595Y-12662643D02*
X13439643Y-12634071D01*
X13439643Y-12634071D02*
X13449167Y-12615024D01*
X13449167Y-12615024D02*
X13458691Y-12586452D01*
X13458691Y-12586452D02*
X13468214Y-12538833D01*
X13468214Y-12538833D02*
X13468214Y-12500738D01*
X13468214Y-12500738D02*
X13458691Y-12453119D01*
X13458691Y-12453119D02*
X13449167Y-12424548D01*
X13449167Y-12424548D02*
X13439643Y-12405500D01*
X13439643Y-12405500D02*
X13420595Y-12376928D01*
X13420595Y-12376928D02*
X13411072Y-12367405D01*
M02*
