G04 #@! TF.GenerationSoftware,KiCad,Pcbnew,(7.0.0)*
G04 #@! TF.CreationDate,2023-09-20T22:00:44+02:00*
G04 #@! TF.ProjectId,Watchy,57617463-6879-42e6-9b69-6361645f7063,rev?*
G04 #@! TF.SameCoordinates,Original*
G04 #@! TF.FileFunction,Paste,Top*
G04 #@! TF.FilePolarity,Positive*
%FSLAX46Y46*%
G04 Gerber Fmt 4.6, Leading zero omitted, Abs format (unit mm)*
G04 Created by KiCad (PCBNEW (7.0.0)) date 2023-09-20 22:00:44*
%MOMM*%
%LPD*%
G01*
G04 APERTURE LIST*
G04 Aperture macros list*
%AMRoundRect*
0 Rectangle with rounded corners*
0 $1 Rounding radius*
0 $2 $3 $4 $5 $6 $7 $8 $9 X,Y pos of 4 corners*
0 Add a 4 corners polygon primitive as box body*
4,1,4,$2,$3,$4,$5,$6,$7,$8,$9,$2,$3,0*
0 Add four circle primitives for the rounded corners*
1,1,$1+$1,$2,$3*
1,1,$1+$1,$4,$5*
1,1,$1+$1,$6,$7*
1,1,$1+$1,$8,$9*
0 Add four rect primitives between the rounded corners*
20,1,$1+$1,$2,$3,$4,$5,0*
20,1,$1+$1,$4,$5,$6,$7,0*
20,1,$1+$1,$6,$7,$8,$9,0*
20,1,$1+$1,$8,$9,$2,$3,0*%
G04 Aperture macros list end*
%ADD10RoundRect,0.168000X-1.232000X0.882000X-1.232000X-0.882000X1.232000X-0.882000X1.232000X0.882000X0*%
%ADD11R,0.800000X0.900000*%
%ADD12R,0.900000X0.800000*%
%ADD13R,0.400000X0.600000*%
%ADD14R,0.600000X0.400000*%
%ADD15RoundRect,0.250000X0.275000X0.275000X-0.275000X0.275000X-0.275000X-0.275000X0.275000X-0.275000X0*%
%ADD16RoundRect,0.062500X0.350000X0.062500X-0.350000X0.062500X-0.350000X-0.062500X0.350000X-0.062500X0*%
%ADD17RoundRect,0.062500X0.062500X0.350000X-0.062500X0.350000X-0.062500X-0.350000X0.062500X-0.350000X0*%
%ADD18R,3.700000X1.200000*%
%ADD19R,1.100000X1.100000*%
%ADD20RoundRect,0.250000X-0.270000X0.270000X-0.270000X-0.270000X0.270000X-0.270000X0.270000X0.270000X0*%
%ADD21RoundRect,0.062500X-0.062500X0.375000X-0.062500X-0.375000X0.062500X-0.375000X0.062500X0.375000X0*%
%ADD22RoundRect,0.062500X-0.375000X0.062500X-0.375000X-0.062500X0.375000X-0.062500X0.375000X0.062500X0*%
%ADD23R,0.400000X0.650000*%
%ADD24R,1.000000X1.250000*%
%ADD25R,1.000000X1.400000*%
%ADD26R,0.800000X0.800000*%
%ADD27RoundRect,0.150000X0.150000X-0.512500X0.150000X0.512500X-0.150000X0.512500X-0.150000X-0.512500X0*%
%ADD28R,0.650000X1.060000*%
%ADD29R,0.300000X1.300000*%
%ADD30R,2.000000X3.000000*%
%ADD31O,1.350000X1.350000*%
%ADD32R,1.350000X1.350000*%
%ADD33R,0.500000X0.500000*%
%ADD34R,0.900000X0.500000*%
%ADD35R,1.000000X1.800000*%
%ADD36R,0.375000X0.350000*%
%ADD37R,0.350000X0.375000*%
%ADD38RoundRect,0.172500X-0.332500X0.172500X-0.332500X-0.172500X0.332500X-0.172500X0.332500X0.172500X0*%
%ADD39RoundRect,0.062500X-0.062500X0.350000X-0.062500X-0.350000X0.062500X-0.350000X0.062500X0.350000X0*%
%ADD40RoundRect,0.225000X-0.225000X-0.250000X0.225000X-0.250000X0.225000X0.250000X-0.225000X0.250000X0*%
%ADD41RoundRect,0.225000X0.250000X-0.225000X0.250000X0.225000X-0.250000X0.225000X-0.250000X-0.225000X0*%
%ADD42RoundRect,0.225000X-0.250000X0.225000X-0.250000X-0.225000X0.250000X-0.225000X0.250000X0.225000X0*%
%ADD43RoundRect,0.140000X0.170000X-0.140000X0.170000X0.140000X-0.170000X0.140000X-0.170000X-0.140000X0*%
%ADD44RoundRect,0.140000X-0.140000X-0.170000X0.140000X-0.170000X0.140000X0.170000X-0.140000X0.170000X0*%
%ADD45R,1.160000X0.600000*%
%ADD46R,1.160000X0.300000*%
G04 APERTURE END LIST*
D10*
X96870000Y-81530000D03*
X96870000Y-87862000D03*
D11*
X95435999Y-111185199D03*
X97335999Y-111185199D03*
X96385999Y-109185199D03*
D12*
X76735799Y-81874399D03*
X76735799Y-79974399D03*
X74735799Y-80924399D03*
D13*
X83312199Y-79603599D03*
X84212199Y-79603599D03*
D14*
X99099999Y-88359999D03*
X99099999Y-87459999D03*
X93947599Y-110889199D03*
X93947599Y-109989199D03*
D15*
X92372800Y-89733600D03*
X92372800Y-91033600D03*
X91072800Y-91033600D03*
X91072800Y-89733600D03*
D16*
X93660300Y-91633600D03*
X93660300Y-91133600D03*
X93660300Y-90633600D03*
X93660300Y-90133600D03*
X93660300Y-89633600D03*
X93660300Y-89133600D03*
D17*
X92972800Y-88446100D03*
X92472800Y-88446100D03*
X91972800Y-88446100D03*
X91472800Y-88446100D03*
X90972800Y-88446100D03*
X90472800Y-88446100D03*
D16*
X89785300Y-89133600D03*
X89785300Y-89633600D03*
X89785300Y-90133600D03*
X89785300Y-90633600D03*
X89785300Y-91133600D03*
X89785300Y-91633600D03*
D17*
X90472800Y-92321100D03*
X90972800Y-92321100D03*
X91472800Y-92321100D03*
X91972800Y-92321100D03*
X92472800Y-92321100D03*
X92972800Y-92321100D03*
D12*
X78005799Y-96834999D03*
X78005799Y-94934999D03*
X76005799Y-95884999D03*
D18*
X75029999Y-105239999D03*
X75029999Y-108039999D03*
D13*
X76200199Y-83184999D03*
X77100199Y-83184999D03*
D19*
X74549999Y-98889999D03*
X74549999Y-101689999D03*
D20*
X83557750Y-87715350D03*
X82267750Y-89005350D03*
X84847750Y-86425350D03*
X86137750Y-85135350D03*
X82267750Y-86425350D03*
X83557750Y-86425350D03*
X86137750Y-87715350D03*
X84847750Y-89005350D03*
X82267750Y-87715350D03*
X84847750Y-87715350D03*
X86137750Y-89005350D03*
X83557750Y-85135350D03*
X83557750Y-89005350D03*
X84847750Y-85135350D03*
X86137750Y-86425350D03*
X82267750Y-85135350D03*
D21*
X86952750Y-83632850D03*
X86452750Y-83632850D03*
X85952750Y-83632850D03*
X85452750Y-83632850D03*
X84952750Y-83632850D03*
X84452750Y-83632850D03*
X83952750Y-83632850D03*
X83452750Y-83632850D03*
X82952750Y-83632850D03*
X82452750Y-83632850D03*
X81952750Y-83632850D03*
X81452750Y-83632850D03*
D22*
X80765250Y-84320350D03*
X80765250Y-84820350D03*
X80765250Y-85320350D03*
X80765250Y-85820350D03*
X80765250Y-86320350D03*
X80765250Y-86820350D03*
X80765250Y-87320350D03*
X80765250Y-87820350D03*
X80765250Y-88320350D03*
X80765250Y-88820350D03*
X80765250Y-89320350D03*
X80765250Y-89820350D03*
D21*
X81452750Y-90507850D03*
X81952750Y-90507850D03*
X82452750Y-90507850D03*
X82952750Y-90507850D03*
X83452750Y-90507850D03*
X83952750Y-90507850D03*
X84452750Y-90507850D03*
X84952750Y-90507850D03*
X85452750Y-90507850D03*
X85952750Y-90507850D03*
X86452750Y-90507850D03*
X86952750Y-90507850D03*
D22*
X87640250Y-89820350D03*
X87640250Y-89320350D03*
X87640250Y-88820350D03*
X87640250Y-88320350D03*
X87640250Y-87820350D03*
X87640250Y-87320350D03*
X87640250Y-86820350D03*
X87640250Y-86320350D03*
X87640250Y-85820350D03*
X87640250Y-85320350D03*
X87640250Y-84820350D03*
X87640250Y-84320350D03*
D23*
X89817799Y-95691999D03*
X90467799Y-95691999D03*
X91117799Y-95691999D03*
X91117799Y-93791999D03*
X90467799Y-93791999D03*
X89817799Y-93791999D03*
D14*
X73249999Y-110219999D03*
X73249999Y-109319999D03*
D24*
X95020999Y-101015799D03*
X97020999Y-101015799D03*
D13*
X101915999Y-87579199D03*
X101015999Y-87579199D03*
D14*
X99999999Y-88359999D03*
X99999999Y-87459999D03*
D25*
X71529999Y-103529999D03*
X71529999Y-109129999D03*
X69829999Y-103529999D03*
X69829999Y-109129999D03*
X99669999Y-109129999D03*
X99669999Y-103529999D03*
X101369999Y-109129999D03*
X101369999Y-103529999D03*
D13*
X93025999Y-103098599D03*
X92125999Y-103098599D03*
D19*
X72249999Y-98889999D03*
X72249999Y-101689999D03*
D24*
X73529999Y-103519999D03*
X75529999Y-103519999D03*
D13*
X96909999Y-79669999D03*
X97809999Y-79669999D03*
D26*
X101739999Y-86379999D03*
X101739999Y-84779999D03*
D24*
X74529999Y-109769999D03*
X76529999Y-109769999D03*
D19*
X97406599Y-107169199D03*
X94606599Y-107169199D03*
D27*
X92210200Y-82341300D03*
X93160200Y-82341300D03*
X94110200Y-82341300D03*
X94110200Y-80066300D03*
X92210200Y-80066300D03*
D13*
X90249999Y-86232999D03*
X89349999Y-86232999D03*
X92125999Y-102082599D03*
X93025999Y-102082599D03*
D14*
X99662599Y-101251599D03*
X99662599Y-102151599D03*
D19*
X69949999Y-101689999D03*
X69949999Y-98889999D03*
D28*
X95081999Y-105043399D03*
X96031999Y-105043399D03*
X96981999Y-105043399D03*
X96981999Y-102843399D03*
X95081999Y-102843399D03*
D25*
X99669999Y-82729999D03*
X99669999Y-77129999D03*
X101369999Y-82729999D03*
X101369999Y-77129999D03*
X71529999Y-77129999D03*
X71529999Y-82729999D03*
X69829999Y-77129999D03*
X69829999Y-82729999D03*
D29*
X91224999Y-97419999D03*
X90724999Y-97419999D03*
X90224999Y-97419999D03*
X89724999Y-97419999D03*
X89224999Y-97419999D03*
X88724999Y-97419999D03*
X88224999Y-97419999D03*
X87724999Y-97419999D03*
X87224999Y-97419999D03*
X86724999Y-97419999D03*
X86224999Y-97419999D03*
X85724999Y-97419999D03*
X85224999Y-97419999D03*
X84724999Y-97419999D03*
X84224999Y-97419999D03*
X83724999Y-97419999D03*
X83224999Y-97419999D03*
X82724999Y-97419999D03*
X82224999Y-97419999D03*
X81724999Y-97419999D03*
X81224999Y-97419999D03*
X80724999Y-97419999D03*
X80224999Y-97419999D03*
X79724999Y-97419999D03*
D30*
X78074999Y-99769999D03*
X92874999Y-99769999D03*
D13*
X90249999Y-87223599D03*
X89349999Y-87223599D03*
X73493399Y-83159599D03*
X72593399Y-83159599D03*
D19*
X78732999Y-79981599D03*
X78732999Y-82781599D03*
D31*
X71899999Y-85154999D03*
D32*
X69899999Y-85154999D03*
D14*
X74440399Y-84233599D03*
X74440399Y-85133599D03*
D33*
X88724999Y-79649999D03*
D34*
X90824999Y-79649999D03*
D13*
X74396799Y-83311999D03*
X75296799Y-83311999D03*
X76454199Y-84277199D03*
X77354199Y-84277199D03*
D35*
X73455199Y-87909399D03*
X70955199Y-87909399D03*
D36*
X75837399Y-91752799D03*
X75837399Y-92252799D03*
X75837399Y-92752799D03*
X75837399Y-93252799D03*
D37*
X76349899Y-93265299D03*
X76849899Y-93265299D03*
D36*
X77362399Y-93252799D03*
X77362399Y-92752799D03*
X77362399Y-92252799D03*
X77362399Y-91752799D03*
D37*
X76849899Y-91740299D03*
X76349899Y-91740299D03*
D38*
X76894200Y-87778500D03*
X76894200Y-88628500D03*
X75644200Y-88628500D03*
X75644200Y-87778500D03*
D39*
X77269200Y-86741000D03*
X76769200Y-86741000D03*
X76269200Y-86741000D03*
X75769200Y-86741000D03*
X75269200Y-86741000D03*
X75269200Y-89666000D03*
X75769200Y-89666000D03*
X76269200Y-89666000D03*
X76769200Y-89666000D03*
X77269200Y-89666000D03*
D14*
X75456399Y-84182799D03*
X75456399Y-85082799D03*
X90772599Y-82796799D03*
X90772599Y-81896799D03*
D40*
X83800000Y-80899000D03*
X85350000Y-80899000D03*
D41*
X87710000Y-95415000D03*
X87710000Y-93865000D03*
X82510000Y-95415000D03*
X82510000Y-93865000D03*
X85110000Y-95415000D03*
X85110000Y-93865000D03*
X86410000Y-95415000D03*
X86410000Y-93865000D03*
X83810000Y-95415000D03*
X83810000Y-93865000D03*
X81160000Y-95415000D03*
X81160000Y-93865000D03*
X79860000Y-95415000D03*
X79860000Y-93865000D03*
D42*
X73221200Y-80073200D03*
X73221200Y-81623200D03*
D13*
X78340799Y-92074999D03*
X79240799Y-92074999D03*
D43*
X94811200Y-88516400D03*
X94811200Y-87556400D03*
D44*
X92985000Y-96774000D03*
X93945000Y-96774000D03*
D13*
X93864199Y-95630999D03*
X92964199Y-95630999D03*
D45*
X95689999Y-97559999D03*
X95689999Y-96759999D03*
D46*
X95689999Y-95609999D03*
X95689999Y-94609999D03*
X95689999Y-94109999D03*
X95689999Y-93109999D03*
D45*
X95689999Y-91959999D03*
X95689999Y-91159999D03*
X95689999Y-91159999D03*
X95689999Y-91959999D03*
D46*
X95689999Y-92609999D03*
X95689999Y-93609999D03*
X95689999Y-95109999D03*
X95689999Y-96109999D03*
D45*
X95689999Y-96759999D03*
X95689999Y-97559999D03*
D13*
X92735599Y-87172799D03*
X93635599Y-87172799D03*
X93864199Y-94640399D03*
X92964199Y-94640399D03*
X99720599Y-86486999D03*
X100620599Y-86486999D03*
X91908399Y-87147399D03*
X91008399Y-87147399D03*
M02*
