%TF.GenerationSoftware,KiCad,Pcbnew,(7.0.0)*%
%TF.CreationDate,2023-08-19T21:43:32+02:00*%
%TF.ProjectId,Watchy,57617463-6879-42e6-9b69-6361645f7063,rev?*%
%TF.SameCoordinates,Original*%
%TF.FileFunction,Drillmap*%
%TF.FilePolarity,Positive*%
%FSLAX45Y45*%
G04 Gerber Fmt 4.5, Leading zero omitted, Abs format (unit mm)*
G04 Created by KiCad (PCBNEW (7.0.0)) date 2023-08-19 21:43:32*
%MOMM*%
%LPD*%
G01*
G04 APERTURE LIST*
%ADD10C,0.150000*%
%ADD11C,0.200000*%
%ADD12C,0.032000*%
%ADD13C,0.040000*%
%ADD14C,0.060000*%
G04 APERTURE END LIST*
D10*
X7160000Y-7315000D02*
G75*
G03*
X7260000Y-7415000I100000J0D01*
G01*
X7260000Y-11211000D02*
G75*
G03*
X7160000Y-11311000I0J-100000D01*
G01*
X9960000Y-11311000D02*
G75*
G03*
X9860000Y-11211000I-100000J0D01*
G01*
X9860000Y-7415000D02*
G75*
G03*
X9960000Y-7315000I0J100000D01*
G01*
X9860000Y-7415000D02*
X7260000Y-7415000D01*
X7260000Y-7215000D02*
X9860000Y-7215000D01*
X9850000Y-11611000D02*
G75*
G03*
X10250000Y-11211000I0J400000D01*
G01*
X6870000Y-11211000D02*
G75*
G03*
X7270000Y-11611000I400000J0D01*
G01*
X10250000Y-7415000D02*
G75*
G03*
X9850000Y-7015000I-400000J0D01*
G01*
X10250000Y-11211000D02*
X10250000Y-7415000D01*
X7755000Y-11211000D02*
G75*
G03*
X7805000Y-11161000I0J50000D01*
G01*
X9405000Y-11161000D02*
G75*
G03*
X9455000Y-11211000I50000J0D01*
G01*
X9860000Y-11211000D02*
X9455000Y-11211000D01*
X7805000Y-11161000D02*
X9405000Y-11161000D01*
X6870000Y-11211000D02*
X6870000Y-7415000D01*
X9850000Y-7015000D02*
X7270000Y-7015000D01*
X9860000Y-11411000D02*
G75*
G03*
X9960000Y-11311000I0J100000D01*
G01*
X9860000Y-11411000D02*
X7260000Y-11411000D01*
X7260000Y-11211000D02*
X7755000Y-11211000D01*
X7270000Y-11611000D02*
X9850000Y-11611000D01*
X7270000Y-7015000D02*
G75*
G03*
X6870000Y-7415000I0J-400000D01*
G01*
X9960000Y-7315000D02*
G75*
G03*
X9860000Y-7215000I-100000J0D01*
G01*
X7160000Y-11311000D02*
G75*
G03*
X7260000Y-11411000I100000J0D01*
G01*
X7260000Y-7215000D02*
G75*
G03*
X7160000Y-7315000I0J-100000D01*
G01*
D11*
D12*
X7093460Y-8597140D02*
X7125460Y-8629140D01*
X7125460Y-8597140D02*
X7093460Y-8629140D01*
X7120700Y-10471660D02*
X7152700Y-10503660D01*
X7152700Y-10471660D02*
X7120700Y-10503660D01*
X7174040Y-8653020D02*
X7206040Y-8685020D01*
X7206040Y-8653020D02*
X7174040Y-8685020D01*
X7212140Y-11066020D02*
X7244140Y-11098020D01*
X7244140Y-11066020D02*
X7212140Y-11098020D01*
X7235700Y-8378700D02*
X7267700Y-8410700D01*
X7267700Y-8378700D02*
X7235700Y-8410700D01*
X7301543Y-8607103D02*
X7333543Y-8639103D01*
X7333543Y-8607103D02*
X7301543Y-8639103D01*
X7321360Y-8404100D02*
X7353360Y-8436100D01*
X7353360Y-8404100D02*
X7321360Y-8436100D01*
X7372860Y-8957820D02*
X7404860Y-8989820D01*
X7404860Y-8957820D02*
X7372860Y-8989820D01*
X7374700Y-8625080D02*
X7406700Y-8657080D01*
X7406700Y-8625080D02*
X7374700Y-8657080D01*
X7388100Y-9191500D02*
X7420100Y-9223500D01*
X7420100Y-9191500D02*
X7388100Y-9223500D01*
X7428740Y-8774940D02*
X7460740Y-8806940D01*
X7460740Y-8774940D02*
X7428740Y-8806940D01*
X7430580Y-9394790D02*
X7462580Y-9426790D01*
X7462580Y-9394790D02*
X7430580Y-9426790D01*
X7433120Y-10067800D02*
X7465120Y-10099800D01*
X7465120Y-10067800D02*
X7433120Y-10099800D01*
X7448607Y-8611250D02*
X7480607Y-8643250D01*
X7480607Y-8611250D02*
X7448607Y-8643250D01*
X7451600Y-9064500D02*
X7483600Y-9096500D01*
X7483600Y-9064500D02*
X7451600Y-9096500D01*
X7463600Y-8203440D02*
X7495600Y-8235440D01*
X7495600Y-8203440D02*
X7463600Y-8235440D01*
X7471220Y-9326120D02*
X7503220Y-9358120D01*
X7503220Y-9326120D02*
X7471220Y-9358120D01*
X7504940Y-9148320D02*
X7536940Y-9180320D01*
X7536940Y-9148320D02*
X7504940Y-9180320D01*
X7563730Y-9065970D02*
X7595730Y-9097970D01*
X7595730Y-9065970D02*
X7563730Y-9097970D01*
X7570280Y-9699500D02*
X7602280Y-9731500D01*
X7602280Y-9699500D02*
X7570280Y-9731500D01*
X7616000Y-8513320D02*
X7648000Y-8545320D01*
X7648000Y-8513320D02*
X7616000Y-8545320D01*
X7644640Y-9232140D02*
X7676640Y-9264140D01*
X7676640Y-9232140D02*
X7644640Y-9264140D01*
X7684580Y-9582660D02*
X7716580Y-9614660D01*
X7716580Y-9582660D02*
X7684580Y-9614660D01*
X7707440Y-8518400D02*
X7739440Y-8550400D01*
X7739440Y-8518400D02*
X7707440Y-8550400D01*
X7738620Y-7979920D02*
X7770620Y-8011920D01*
X7770620Y-7979920D02*
X7738620Y-8011920D01*
X7773480Y-8559040D02*
X7805480Y-8591040D01*
X7805480Y-8559040D02*
X7773480Y-8591040D01*
X7793173Y-8361419D02*
X7825173Y-8393419D01*
X7825173Y-8361419D02*
X7793173Y-8393419D01*
X7810822Y-9058662D02*
X7842822Y-9090662D01*
X7842822Y-9058662D02*
X7810822Y-9090662D01*
X7834000Y-9344000D02*
X7866000Y-9376000D01*
X7866000Y-9344000D02*
X7834000Y-9376000D01*
X7834440Y-9760460D02*
X7866440Y-9792460D01*
X7866440Y-9760460D02*
X7834440Y-9792460D01*
X7839160Y-8469905D02*
X7871160Y-8501905D01*
X7871160Y-8469905D02*
X7839160Y-8501905D01*
X7885934Y-9062108D02*
X7917934Y-9094108D01*
X7917934Y-9062108D02*
X7885934Y-9094108D01*
X7893560Y-8581900D02*
X7925560Y-8613900D01*
X7925560Y-8581900D02*
X7893560Y-8613900D01*
X7908800Y-10240520D02*
X7940800Y-10272520D01*
X7940800Y-10240520D02*
X7908800Y-10272520D01*
X7967330Y-8718845D02*
X7999330Y-8750845D01*
X7999330Y-8718845D02*
X7967330Y-8750845D01*
X7972300Y-8797800D02*
X8004300Y-8829800D01*
X8004300Y-8797800D02*
X7972300Y-8829800D01*
X7982460Y-8881620D02*
X8014460Y-8913620D01*
X8014460Y-8881620D02*
X7982460Y-8913620D01*
X7987540Y-8468845D02*
X8019540Y-8500845D01*
X8019540Y-8468845D02*
X7987540Y-8500845D01*
X8005320Y-9234680D02*
X8037320Y-9266680D01*
X8037320Y-9234680D02*
X8005320Y-9266680D01*
X8030778Y-9058662D02*
X8062778Y-9090662D01*
X8062778Y-9058662D02*
X8030778Y-9090662D01*
X8101140Y-8114540D02*
X8133140Y-8146540D01*
X8133140Y-8114540D02*
X8101140Y-8146540D01*
X8162100Y-8208520D02*
X8194100Y-8240520D01*
X8194100Y-8208520D02*
X8162100Y-8240520D01*
X8172960Y-9174092D02*
X8204960Y-9206092D01*
X8204960Y-9174092D02*
X8172960Y-9206092D01*
X8179880Y-9249920D02*
X8211880Y-9281920D01*
X8211880Y-9249920D02*
X8179880Y-9281920D01*
X8213000Y-8674000D02*
X8245000Y-8706000D01*
X8245000Y-8674000D02*
X8213000Y-8706000D01*
X8213000Y-8779000D02*
X8245000Y-8811000D01*
X8245000Y-8779000D02*
X8213000Y-8811000D01*
X8213000Y-8884000D02*
X8245000Y-8916000D01*
X8245000Y-8884000D02*
X8213000Y-8916000D01*
X8232485Y-8124878D02*
X8264485Y-8156878D01*
X8264485Y-8124878D02*
X8232485Y-8156878D01*
X8274048Y-10078472D02*
X8306048Y-10110472D01*
X8306048Y-10078472D02*
X8274048Y-10110472D01*
X8334820Y-9168640D02*
X8366820Y-9200640D01*
X8366820Y-9168640D02*
X8334820Y-9200640D01*
X8339900Y-8465790D02*
X8371900Y-8497790D01*
X8371900Y-8465790D02*
X8339900Y-8497790D01*
X8341000Y-8674000D02*
X8373000Y-8706000D01*
X8373000Y-8674000D02*
X8341000Y-8706000D01*
X8341000Y-8779000D02*
X8373000Y-8811000D01*
X8373000Y-8779000D02*
X8341000Y-8811000D01*
X8341000Y-8884000D02*
X8373000Y-8916000D01*
X8373000Y-8884000D02*
X8341000Y-8916000D01*
X8343140Y-8198360D02*
X8375140Y-8230360D01*
X8375140Y-8198360D02*
X8343140Y-8230360D01*
X8455000Y-9193000D02*
X8487000Y-9225000D01*
X8487000Y-9193000D02*
X8455000Y-9225000D01*
X8456740Y-9940800D02*
X8488740Y-9972800D01*
X8488740Y-9940800D02*
X8456740Y-9972800D01*
X8469000Y-8674000D02*
X8501000Y-8706000D01*
X8501000Y-8674000D02*
X8469000Y-8706000D01*
X8469000Y-8779000D02*
X8501000Y-8811000D01*
X8501000Y-8779000D02*
X8469000Y-8811000D01*
X8469000Y-8884000D02*
X8501000Y-8916000D01*
X8501000Y-8884000D02*
X8469000Y-8916000D01*
X8478205Y-8164071D02*
X8510205Y-8196071D01*
X8510205Y-8164071D02*
X8478205Y-8196071D01*
X8495000Y-9370500D02*
X8527000Y-9402500D01*
X8527000Y-9370500D02*
X8495000Y-9402500D01*
X8510780Y-7951980D02*
X8542780Y-7983980D01*
X8542780Y-7951980D02*
X8510780Y-7983980D01*
X8512620Y-9884920D02*
X8544620Y-9916920D01*
X8544620Y-9884920D02*
X8512620Y-9916920D01*
X8536180Y-10019540D02*
X8568180Y-10051540D01*
X8568180Y-10019540D02*
X8536180Y-10051540D01*
X8559310Y-9824505D02*
X8591310Y-9856505D01*
X8591310Y-9824505D02*
X8559310Y-9856505D01*
X8571585Y-8159537D02*
X8603585Y-8191537D01*
X8603585Y-8159537D02*
X8571585Y-8191537D01*
X8574640Y-9140700D02*
X8606640Y-9172700D01*
X8606640Y-9140700D02*
X8574640Y-9172700D01*
X8597000Y-8674000D02*
X8629000Y-8706000D01*
X8629000Y-8674000D02*
X8597000Y-8706000D01*
X8597000Y-8779000D02*
X8629000Y-8811000D01*
X8629000Y-8779000D02*
X8597000Y-8811000D01*
X8597000Y-8884000D02*
X8629000Y-8916000D01*
X8629000Y-8884000D02*
X8597000Y-8916000D01*
X8627450Y-9206740D02*
X8659450Y-9238740D01*
X8659450Y-9206740D02*
X8627450Y-9238740D01*
X8680260Y-9138160D02*
X8712260Y-9170160D01*
X8712260Y-9138160D02*
X8680260Y-9170160D01*
X8705660Y-9940800D02*
X8737660Y-9972800D01*
X8737660Y-9940800D02*
X8705660Y-9972800D01*
X8741920Y-9194040D02*
X8773920Y-9226040D01*
X8773920Y-9194040D02*
X8741920Y-9226040D01*
X8754620Y-8134860D02*
X8786620Y-8166860D01*
X8786620Y-8134860D02*
X8754620Y-8166860D01*
X8814074Y-8507366D02*
X8846074Y-8539366D01*
X8846074Y-8507366D02*
X8814074Y-8539366D01*
X8825740Y-10060180D02*
X8857740Y-10092180D01*
X8857740Y-10060180D02*
X8825740Y-10092180D01*
X8837740Y-8950200D02*
X8869740Y-8982200D01*
X8869740Y-8950200D02*
X8837740Y-8982200D01*
X8837790Y-9059420D02*
X8869790Y-9091420D01*
X8869790Y-9059420D02*
X8837790Y-9091420D01*
X8846060Y-8298599D02*
X8878060Y-8330599D01*
X8878060Y-8298599D02*
X8846060Y-8330599D01*
X8880550Y-9223450D02*
X8912550Y-9255450D01*
X8912550Y-9223450D02*
X8880550Y-9255450D01*
X8892906Y-8782745D02*
X8924906Y-8814745D01*
X8924906Y-8782745D02*
X8892906Y-8814745D01*
X8894320Y-9364220D02*
X8926320Y-9396220D01*
X8926320Y-9364220D02*
X8894320Y-9396220D01*
X8894320Y-10057640D02*
X8926320Y-10089640D01*
X8926320Y-10057640D02*
X8894320Y-10089640D01*
X8896860Y-9986520D02*
X8928860Y-10018520D01*
X8928860Y-9986520D02*
X8896860Y-10018520D01*
X8896880Y-8706360D02*
X8928880Y-8738360D01*
X8928880Y-8706360D02*
X8896880Y-8738360D01*
X8912100Y-8368540D02*
X8944100Y-8400540D01*
X8944100Y-8368540D02*
X8912100Y-8400540D01*
X8919208Y-8521452D02*
X8951208Y-8553452D01*
X8951208Y-8521452D02*
X8919208Y-8553452D01*
X8947660Y-8081520D02*
X8979660Y-8113520D01*
X8979660Y-8081520D02*
X8947660Y-8113520D01*
X8967980Y-8790180D02*
X8999980Y-8822180D01*
X8999980Y-8790180D02*
X8967980Y-8822180D01*
X9051800Y-8510780D02*
X9083800Y-8542780D01*
X9083800Y-8510780D02*
X9051800Y-8542780D01*
X9091740Y-10296400D02*
X9123740Y-10328400D01*
X9123740Y-10296400D02*
X9091740Y-10328400D01*
X9129840Y-8350760D02*
X9161840Y-8382760D01*
X9161840Y-8350760D02*
X9129840Y-8382760D01*
X9135049Y-10137711D02*
X9167049Y-10169711D01*
X9167049Y-10137711D02*
X9135049Y-10169711D01*
X9156280Y-9022360D02*
X9188280Y-9054360D01*
X9188280Y-9022360D02*
X9156280Y-9054360D01*
X9171210Y-9590305D02*
X9203210Y-9622305D01*
X9203210Y-9590305D02*
X9171210Y-9622305D01*
X9173409Y-9393640D02*
X9205409Y-9425640D01*
X9205409Y-9393640D02*
X9173409Y-9425640D01*
X9184722Y-8104722D02*
X9216722Y-8136722D01*
X9216722Y-8104722D02*
X9184722Y-8136722D01*
X9198420Y-8607300D02*
X9230420Y-8639300D01*
X9230420Y-8607300D02*
X9198420Y-8639300D01*
X9282500Y-9661400D02*
X9314500Y-9693400D01*
X9314500Y-9661400D02*
X9282500Y-9693400D01*
X9295640Y-8373620D02*
X9327640Y-8405620D01*
X9327640Y-8373620D02*
X9295640Y-8405620D01*
X9302560Y-8076440D02*
X9334560Y-8108440D01*
X9334560Y-8076440D02*
X9302560Y-8108440D01*
X9303260Y-8520940D02*
X9335260Y-8552940D01*
X9335260Y-8520940D02*
X9303260Y-8552940D01*
X9317800Y-8612380D02*
X9349800Y-8644380D01*
X9349800Y-8612380D02*
X9317800Y-8644380D01*
X9321040Y-10398000D02*
X9353040Y-10430000D01*
X9353040Y-10398000D02*
X9321040Y-10430000D01*
X9331510Y-9340830D02*
X9363510Y-9372830D01*
X9363510Y-9340830D02*
X9331510Y-9372830D01*
X9351520Y-8795260D02*
X9383520Y-8827260D01*
X9383520Y-8795260D02*
X9351520Y-8827260D01*
X9398160Y-8092570D02*
X9430160Y-8124570D01*
X9430160Y-8092570D02*
X9398160Y-8124570D01*
X9437130Y-9055908D02*
X9469130Y-9087908D01*
X9469130Y-9055908D02*
X9437130Y-9087908D01*
X9442260Y-9453120D02*
X9474260Y-9485120D01*
X9474260Y-9453120D02*
X9442260Y-9485120D01*
X9453120Y-8912100D02*
X9485120Y-8944100D01*
X9485120Y-8912100D02*
X9453120Y-8944100D01*
X9458200Y-9737600D02*
X9490200Y-9769600D01*
X9490200Y-9737600D02*
X9458200Y-9769600D01*
X9465481Y-8986267D02*
X9497481Y-9018267D01*
X9497481Y-8986267D02*
X9465481Y-9018267D01*
X9475980Y-8449820D02*
X9507980Y-8481820D01*
X9507980Y-8449820D02*
X9475980Y-8481820D01*
X9505760Y-10885680D02*
X9537760Y-10917680D01*
X9537760Y-10885680D02*
X9505760Y-10917680D01*
X9553000Y-9100000D02*
X9585000Y-9132000D01*
X9585000Y-9100000D02*
X9553000Y-9132000D01*
X9569960Y-7954520D02*
X9601960Y-7986520D01*
X9601960Y-7954520D02*
X9569960Y-7986520D01*
X9569960Y-8553960D02*
X9601960Y-8585960D01*
X9601960Y-8553960D02*
X9569960Y-8585960D01*
X9572940Y-10349080D02*
X9604940Y-10381080D01*
X9604940Y-10349080D02*
X9572940Y-10381080D01*
X9595360Y-8294880D02*
X9627360Y-8326880D01*
X9627360Y-8294880D02*
X9595360Y-8326880D01*
X9673400Y-9399780D02*
X9705400Y-9431780D01*
X9705400Y-9399780D02*
X9673400Y-9431780D01*
X9709660Y-9531860D02*
X9741660Y-9563860D01*
X9741660Y-9531860D02*
X9709660Y-9563860D01*
X9747760Y-7827520D02*
X9779760Y-7859520D01*
X9779760Y-7827520D02*
X9747760Y-7859520D01*
X9763000Y-9605520D02*
X9795000Y-9637520D01*
X9795000Y-9605520D02*
X9763000Y-9637520D01*
X9765000Y-7951000D02*
X9797000Y-7983000D01*
X9797000Y-7951000D02*
X9765000Y-7983000D01*
X9780780Y-8386320D02*
X9812780Y-8418320D01*
X9812780Y-8386320D02*
X9780780Y-8418320D01*
X9793480Y-8299960D02*
X9825480Y-8331960D01*
X9825480Y-8299960D02*
X9793480Y-8331960D01*
X9797860Y-8518500D02*
X9829860Y-8550500D01*
X9829860Y-8518500D02*
X9797860Y-8550500D01*
X9811260Y-8942580D02*
X9843260Y-8974580D01*
X9843260Y-8942580D02*
X9811260Y-8974580D01*
X9846850Y-9079740D02*
X9878850Y-9111740D01*
X9878850Y-9079740D02*
X9846850Y-9111740D01*
X9846850Y-10197340D02*
X9878850Y-10229340D01*
X9878850Y-10197340D02*
X9846850Y-10229340D01*
X9862190Y-8702416D02*
X9894190Y-8734416D01*
X9894190Y-8702416D02*
X9862190Y-8734416D01*
X10074917Y-8109963D02*
X10106917Y-8141963D01*
X10106917Y-8109963D02*
X10074917Y-8141963D01*
X10084880Y-8843520D02*
X10116880Y-8875520D01*
X10116880Y-8843520D02*
X10084880Y-8875520D01*
D13*
X6992000Y-8707500D02*
G75*
G03*
X6992000Y-8707500I-20000J0D01*
G01*
X6992000Y-8807500D02*
G75*
G03*
X6992000Y-8807500I-20000J0D01*
G01*
X6992000Y-8907500D02*
G75*
G03*
X6992000Y-8907500I-20000J0D01*
G01*
X6992000Y-9007500D02*
G75*
G03*
X6992000Y-9007500I-20000J0D01*
G01*
X6992000Y-9107500D02*
G75*
G03*
X6992000Y-9107500I-20000J0D01*
G01*
X6992000Y-9207500D02*
G75*
G03*
X6992000Y-9207500I-20000J0D01*
G01*
X6992000Y-9307500D02*
G75*
G03*
X6992000Y-9307500I-20000J0D01*
G01*
X6992000Y-9407500D02*
G75*
G03*
X6992000Y-9407500I-20000J0D01*
G01*
X6992000Y-9507500D02*
G75*
G03*
X6992000Y-9507500I-20000J0D01*
G01*
X6992000Y-10007500D02*
G75*
G03*
X6992000Y-10007500I-20000J0D01*
G01*
X6992000Y-11107500D02*
G75*
G03*
X6992000Y-11107500I-20000J0D01*
G01*
X7092000Y-8007500D02*
G75*
G03*
X7092000Y-8007500I-20000J0D01*
G01*
X7092000Y-9007500D02*
G75*
G03*
X7092000Y-9007500I-20000J0D01*
G01*
X7092000Y-9107500D02*
G75*
G03*
X7092000Y-9107500I-20000J0D01*
G01*
X7092000Y-9307500D02*
G75*
G03*
X7092000Y-9307500I-20000J0D01*
G01*
X7092000Y-9407500D02*
G75*
G03*
X7092000Y-9407500I-20000J0D01*
G01*
X7092000Y-10007500D02*
G75*
G03*
X7092000Y-10007500I-20000J0D01*
G01*
X7092000Y-11107500D02*
G75*
G03*
X7092000Y-11107500I-20000J0D01*
G01*
X7392000Y-11107500D02*
G75*
G03*
X7392000Y-11107500I-20000J0D01*
G01*
X7492000Y-9607500D02*
G75*
G03*
X7492000Y-9607500I-20000J0D01*
G01*
X7492000Y-11107500D02*
G75*
G03*
X7492000Y-11107500I-20000J0D01*
G01*
X7592000Y-8007500D02*
G75*
G03*
X7592000Y-8007500I-20000J0D01*
G01*
X7592000Y-11107500D02*
G75*
G03*
X7592000Y-11107500I-20000J0D01*
G01*
X7692000Y-11107500D02*
G75*
G03*
X7692000Y-11107500I-20000J0D01*
G01*
X7792000Y-10507500D02*
G75*
G03*
X7792000Y-10507500I-20000J0D01*
G01*
X7792000Y-10607500D02*
G75*
G03*
X7792000Y-10607500I-20000J0D01*
G01*
X7792000Y-10907500D02*
G75*
G03*
X7792000Y-10907500I-20000J0D01*
G01*
X7792000Y-11007500D02*
G75*
G03*
X7792000Y-11007500I-20000J0D01*
G01*
X7892000Y-10907500D02*
G75*
G03*
X7892000Y-10907500I-20000J0D01*
G01*
X7892000Y-11007500D02*
G75*
G03*
X7892000Y-11007500I-20000J0D01*
G01*
X7992000Y-10507500D02*
G75*
G03*
X7992000Y-10507500I-20000J0D01*
G01*
X7992000Y-10607500D02*
G75*
G03*
X7992000Y-10607500I-20000J0D01*
G01*
X7992000Y-10707500D02*
G75*
G03*
X7992000Y-10707500I-20000J0D01*
G01*
X7992000Y-10907500D02*
G75*
G03*
X7992000Y-10907500I-20000J0D01*
G01*
X7992000Y-11007500D02*
G75*
G03*
X7992000Y-11007500I-20000J0D01*
G01*
X8092000Y-10507500D02*
G75*
G03*
X8092000Y-10507500I-20000J0D01*
G01*
X8092000Y-10607500D02*
G75*
G03*
X8092000Y-10607500I-20000J0D01*
G01*
X8092000Y-10707500D02*
G75*
G03*
X8092000Y-10707500I-20000J0D01*
G01*
X8092000Y-10907500D02*
G75*
G03*
X8092000Y-10907500I-20000J0D01*
G01*
X8092000Y-11007500D02*
G75*
G03*
X8092000Y-11007500I-20000J0D01*
G01*
X8192000Y-10307500D02*
G75*
G03*
X8192000Y-10307500I-20000J0D01*
G01*
X8192000Y-10507500D02*
G75*
G03*
X8192000Y-10507500I-20000J0D01*
G01*
X8192000Y-10607500D02*
G75*
G03*
X8192000Y-10607500I-20000J0D01*
G01*
X8192000Y-10707500D02*
G75*
G03*
X8192000Y-10707500I-20000J0D01*
G01*
X8192000Y-10907500D02*
G75*
G03*
X8192000Y-10907500I-20000J0D01*
G01*
X8192000Y-11007500D02*
G75*
G03*
X8192000Y-11007500I-20000J0D01*
G01*
X8292000Y-10307500D02*
G75*
G03*
X8292000Y-10307500I-20000J0D01*
G01*
X8292000Y-10507500D02*
G75*
G03*
X8292000Y-10507500I-20000J0D01*
G01*
X8292000Y-10607500D02*
G75*
G03*
X8292000Y-10607500I-20000J0D01*
G01*
X8292000Y-10707500D02*
G75*
G03*
X8292000Y-10707500I-20000J0D01*
G01*
X8292000Y-10907500D02*
G75*
G03*
X8292000Y-10907500I-20000J0D01*
G01*
X8292000Y-11007500D02*
G75*
G03*
X8292000Y-11007500I-20000J0D01*
G01*
X8392000Y-10307500D02*
G75*
G03*
X8392000Y-10307500I-20000J0D01*
G01*
X8392000Y-10507500D02*
G75*
G03*
X8392000Y-10507500I-20000J0D01*
G01*
X8392000Y-10607500D02*
G75*
G03*
X8392000Y-10607500I-20000J0D01*
G01*
X8392000Y-10707500D02*
G75*
G03*
X8392000Y-10707500I-20000J0D01*
G01*
X8392000Y-10907500D02*
G75*
G03*
X8392000Y-10907500I-20000J0D01*
G01*
X8392000Y-11007500D02*
G75*
G03*
X8392000Y-11007500I-20000J0D01*
G01*
X8492000Y-10307500D02*
G75*
G03*
X8492000Y-10307500I-20000J0D01*
G01*
X8492000Y-10507500D02*
G75*
G03*
X8492000Y-10507500I-20000J0D01*
G01*
X8492000Y-10607500D02*
G75*
G03*
X8492000Y-10607500I-20000J0D01*
G01*
X8492000Y-10707500D02*
G75*
G03*
X8492000Y-10707500I-20000J0D01*
G01*
X8492000Y-10907500D02*
G75*
G03*
X8492000Y-10907500I-20000J0D01*
G01*
X8492000Y-11007500D02*
G75*
G03*
X8492000Y-11007500I-20000J0D01*
G01*
X8592000Y-10307500D02*
G75*
G03*
X8592000Y-10307500I-20000J0D01*
G01*
X8592000Y-10507500D02*
G75*
G03*
X8592000Y-10507500I-20000J0D01*
G01*
X8592000Y-10607500D02*
G75*
G03*
X8592000Y-10607500I-20000J0D01*
G01*
X8592000Y-10707500D02*
G75*
G03*
X8592000Y-10707500I-20000J0D01*
G01*
X8592000Y-10907500D02*
G75*
G03*
X8592000Y-10907500I-20000J0D01*
G01*
X8592000Y-11007500D02*
G75*
G03*
X8592000Y-11007500I-20000J0D01*
G01*
X8692000Y-10307500D02*
G75*
G03*
X8692000Y-10307500I-20000J0D01*
G01*
X8692000Y-10507500D02*
G75*
G03*
X8692000Y-10507500I-20000J0D01*
G01*
X8692000Y-10607500D02*
G75*
G03*
X8692000Y-10607500I-20000J0D01*
G01*
X8692000Y-10707500D02*
G75*
G03*
X8692000Y-10707500I-20000J0D01*
G01*
X8692000Y-10907500D02*
G75*
G03*
X8692000Y-10907500I-20000J0D01*
G01*
X8692000Y-11007500D02*
G75*
G03*
X8692000Y-11007500I-20000J0D01*
G01*
X8792000Y-10307500D02*
G75*
G03*
X8792000Y-10307500I-20000J0D01*
G01*
X8792000Y-10507500D02*
G75*
G03*
X8792000Y-10507500I-20000J0D01*
G01*
X8792000Y-10607500D02*
G75*
G03*
X8792000Y-10607500I-20000J0D01*
G01*
X8792000Y-10707500D02*
G75*
G03*
X8792000Y-10707500I-20000J0D01*
G01*
X8792000Y-10907500D02*
G75*
G03*
X8792000Y-10907500I-20000J0D01*
G01*
X8792000Y-11007500D02*
G75*
G03*
X8792000Y-11007500I-20000J0D01*
G01*
X8892000Y-10307500D02*
G75*
G03*
X8892000Y-10307500I-20000J0D01*
G01*
X8892000Y-10507500D02*
G75*
G03*
X8892000Y-10507500I-20000J0D01*
G01*
X8892000Y-10607500D02*
G75*
G03*
X8892000Y-10607500I-20000J0D01*
G01*
X8892000Y-10707500D02*
G75*
G03*
X8892000Y-10707500I-20000J0D01*
G01*
X8892000Y-10907500D02*
G75*
G03*
X8892000Y-10907500I-20000J0D01*
G01*
X8892000Y-11007500D02*
G75*
G03*
X8892000Y-11007500I-20000J0D01*
G01*
X8992000Y-10307500D02*
G75*
G03*
X8992000Y-10307500I-20000J0D01*
G01*
X8992000Y-10507500D02*
G75*
G03*
X8992000Y-10507500I-20000J0D01*
G01*
X8992000Y-10607500D02*
G75*
G03*
X8992000Y-10607500I-20000J0D01*
G01*
X8992000Y-10907500D02*
G75*
G03*
X8992000Y-10907500I-20000J0D01*
G01*
X8992000Y-11007500D02*
G75*
G03*
X8992000Y-11007500I-20000J0D01*
G01*
X9092000Y-10807500D02*
G75*
G03*
X9092000Y-10807500I-20000J0D01*
G01*
X9092000Y-10907500D02*
G75*
G03*
X9092000Y-10907500I-20000J0D01*
G01*
X9092000Y-11007500D02*
G75*
G03*
X9092000Y-11007500I-20000J0D01*
G01*
X9192000Y-10707500D02*
G75*
G03*
X9192000Y-10707500I-20000J0D01*
G01*
X9192000Y-10807500D02*
G75*
G03*
X9192000Y-10807500I-20000J0D01*
G01*
X9192000Y-10907500D02*
G75*
G03*
X9192000Y-10907500I-20000J0D01*
G01*
X9192000Y-11007500D02*
G75*
G03*
X9192000Y-11007500I-20000J0D01*
G01*
X9292000Y-10607500D02*
G75*
G03*
X9292000Y-10607500I-20000J0D01*
G01*
X9292000Y-10707500D02*
G75*
G03*
X9292000Y-10707500I-20000J0D01*
G01*
X9292000Y-10807500D02*
G75*
G03*
X9292000Y-10807500I-20000J0D01*
G01*
X9292000Y-10907500D02*
G75*
G03*
X9292000Y-10907500I-20000J0D01*
G01*
X9292000Y-11007500D02*
G75*
G03*
X9292000Y-11007500I-20000J0D01*
G01*
X9392000Y-10907500D02*
G75*
G03*
X9392000Y-10907500I-20000J0D01*
G01*
X9892000Y-11107500D02*
G75*
G03*
X9892000Y-11107500I-20000J0D01*
G01*
X9992000Y-11107500D02*
G75*
G03*
X9992000Y-11107500I-20000J0D01*
G01*
X10092000Y-10007500D02*
G75*
G03*
X10092000Y-10007500I-20000J0D01*
G01*
X10092000Y-10107500D02*
G75*
G03*
X10092000Y-10107500I-20000J0D01*
G01*
X10092000Y-10207500D02*
G75*
G03*
X10092000Y-10207500I-20000J0D01*
G01*
X10092000Y-10707500D02*
G75*
G03*
X10092000Y-10707500I-20000J0D01*
G01*
X10092000Y-11107500D02*
G75*
G03*
X10092000Y-11107500I-20000J0D01*
G01*
X10192000Y-9107500D02*
G75*
G03*
X10192000Y-9107500I-20000J0D01*
G01*
X10192000Y-9207500D02*
G75*
G03*
X10192000Y-9207500I-20000J0D01*
G01*
X10192000Y-9307500D02*
G75*
G03*
X10192000Y-9307500I-20000J0D01*
G01*
X10192000Y-9407500D02*
G75*
G03*
X10192000Y-9407500I-20000J0D01*
G01*
X10192000Y-9507500D02*
G75*
G03*
X10192000Y-9507500I-20000J0D01*
G01*
X10192000Y-9607500D02*
G75*
G03*
X10192000Y-9607500I-20000J0D01*
G01*
X10192000Y-9707500D02*
G75*
G03*
X10192000Y-9707500I-20000J0D01*
G01*
X10192000Y-10007500D02*
G75*
G03*
X10192000Y-10007500I-20000J0D01*
G01*
X10192000Y-10107500D02*
G75*
G03*
X10192000Y-10107500I-20000J0D01*
G01*
X10192000Y-10207500D02*
G75*
G03*
X10192000Y-10207500I-20000J0D01*
G01*
X10192000Y-10507500D02*
G75*
G03*
X10192000Y-10507500I-20000J0D01*
G01*
X10192000Y-11107500D02*
G75*
G03*
X10192000Y-11107500I-20000J0D01*
G01*
D14*
X9627000Y-8974000D02*
X9627000Y-9034000D01*
X9597000Y-9004000D02*
X9657000Y-9004000D01*
D11*
X9682000Y-8974000D02*
X9572000Y-8974000D01*
X9572000Y-8974000D02*
G75*
G03*
X9572000Y-9034000I0J-30000D01*
G01*
X9572000Y-9034000D02*
X9682000Y-9034000D01*
X9682000Y-9034000D02*
G75*
G03*
X9682000Y-8974000I0J30000D01*
G01*
D14*
X9627000Y-9838000D02*
X9627000Y-9898000D01*
X9597000Y-9868000D02*
X9657000Y-9868000D01*
D11*
X9682000Y-9838000D02*
X9572000Y-9838000D01*
X9572000Y-9838000D02*
G75*
G03*
X9572000Y-9898000I0J-30000D01*
G01*
X9572000Y-9898000D02*
X9682000Y-9898000D01*
X9682000Y-9898000D02*
G75*
G03*
X9682000Y-9838000I0J30000D01*
G01*
D14*
X10044000Y-8974000D02*
X10044000Y-9034000D01*
X10014000Y-9004000D02*
X10074000Y-9004000D01*
D11*
X10084000Y-8974000D02*
X10004000Y-8974000D01*
X10004000Y-8974000D02*
G75*
G03*
X10004000Y-9034000I0J-30000D01*
G01*
X10004000Y-9034000D02*
X10084000Y-9034000D01*
X10084000Y-9034000D02*
G75*
G03*
X10084000Y-8974000I0J30000D01*
G01*
D14*
X10044000Y-9838000D02*
X10044000Y-9898000D01*
X10014000Y-9868000D02*
X10074000Y-9868000D01*
D11*
X10084000Y-9838000D02*
X10004000Y-9838000D01*
X10004000Y-9838000D02*
G75*
G03*
X10004000Y-9898000I0J-30000D01*
G01*
X10004000Y-9898000D02*
X10084000Y-9898000D01*
X10084000Y-9898000D02*
G75*
G03*
X10084000Y-9838000I0J30000D01*
G01*
X7110119Y-11911976D02*
X7110119Y-11711976D01*
X7110119Y-11711976D02*
X7157738Y-11711976D01*
X7157738Y-11711976D02*
X7186309Y-11721500D01*
X7186309Y-11721500D02*
X7205357Y-11740548D01*
X7205357Y-11740548D02*
X7214881Y-11759595D01*
X7214881Y-11759595D02*
X7224405Y-11797690D01*
X7224405Y-11797690D02*
X7224405Y-11826262D01*
X7224405Y-11826262D02*
X7214881Y-11864357D01*
X7214881Y-11864357D02*
X7205357Y-11883405D01*
X7205357Y-11883405D02*
X7186309Y-11902452D01*
X7186309Y-11902452D02*
X7157738Y-11911976D01*
X7157738Y-11911976D02*
X7110119Y-11911976D01*
X7310119Y-11911976D02*
X7310119Y-11778643D01*
X7310119Y-11816738D02*
X7319643Y-11797690D01*
X7319643Y-11797690D02*
X7329167Y-11788167D01*
X7329167Y-11788167D02*
X7348214Y-11778643D01*
X7348214Y-11778643D02*
X7367262Y-11778643D01*
X7433928Y-11911976D02*
X7433928Y-11778643D01*
X7433928Y-11711976D02*
X7424405Y-11721500D01*
X7424405Y-11721500D02*
X7433928Y-11731024D01*
X7433928Y-11731024D02*
X7443452Y-11721500D01*
X7443452Y-11721500D02*
X7433928Y-11711976D01*
X7433928Y-11711976D02*
X7433928Y-11731024D01*
X7557738Y-11911976D02*
X7538690Y-11902452D01*
X7538690Y-11902452D02*
X7529167Y-11883405D01*
X7529167Y-11883405D02*
X7529167Y-11711976D01*
X7662500Y-11911976D02*
X7643452Y-11902452D01*
X7643452Y-11902452D02*
X7633928Y-11883405D01*
X7633928Y-11883405D02*
X7633928Y-11711976D01*
X7858690Y-11911976D02*
X7858690Y-11711976D01*
X7858690Y-11711976D02*
X7925357Y-11854833D01*
X7925357Y-11854833D02*
X7992024Y-11711976D01*
X7992024Y-11711976D02*
X7992024Y-11911976D01*
X8172976Y-11911976D02*
X8172976Y-11807214D01*
X8172976Y-11807214D02*
X8163452Y-11788167D01*
X8163452Y-11788167D02*
X8144405Y-11778643D01*
X8144405Y-11778643D02*
X8106309Y-11778643D01*
X8106309Y-11778643D02*
X8087262Y-11788167D01*
X8172976Y-11902452D02*
X8153928Y-11911976D01*
X8153928Y-11911976D02*
X8106309Y-11911976D01*
X8106309Y-11911976D02*
X8087262Y-11902452D01*
X8087262Y-11902452D02*
X8077738Y-11883405D01*
X8077738Y-11883405D02*
X8077738Y-11864357D01*
X8077738Y-11864357D02*
X8087262Y-11845309D01*
X8087262Y-11845309D02*
X8106309Y-11835786D01*
X8106309Y-11835786D02*
X8153928Y-11835786D01*
X8153928Y-11835786D02*
X8172976Y-11826262D01*
X8268214Y-11778643D02*
X8268214Y-11978643D01*
X8268214Y-11788167D02*
X8287262Y-11778643D01*
X8287262Y-11778643D02*
X8325357Y-11778643D01*
X8325357Y-11778643D02*
X8344405Y-11788167D01*
X8344405Y-11788167D02*
X8353928Y-11797690D01*
X8353928Y-11797690D02*
X8363452Y-11816738D01*
X8363452Y-11816738D02*
X8363452Y-11873881D01*
X8363452Y-11873881D02*
X8353928Y-11892928D01*
X8353928Y-11892928D02*
X8344405Y-11902452D01*
X8344405Y-11902452D02*
X8325357Y-11911976D01*
X8325357Y-11911976D02*
X8287262Y-11911976D01*
X8287262Y-11911976D02*
X8268214Y-11902452D01*
X8449167Y-11892928D02*
X8458690Y-11902452D01*
X8458690Y-11902452D02*
X8449167Y-11911976D01*
X8449167Y-11911976D02*
X8439643Y-11902452D01*
X8439643Y-11902452D02*
X8449167Y-11892928D01*
X8449167Y-11892928D02*
X8449167Y-11911976D01*
X8449167Y-11788167D02*
X8458690Y-11797690D01*
X8458690Y-11797690D02*
X8449167Y-11807214D01*
X8449167Y-11807214D02*
X8439643Y-11797690D01*
X8439643Y-11797690D02*
X8449167Y-11788167D01*
X8449167Y-11788167D02*
X8449167Y-11807214D01*
D12*
X6830500Y-12242500D02*
X6862500Y-12274500D01*
X6862500Y-12242500D02*
X6830500Y-12274500D01*
D11*
X7148214Y-12131976D02*
X7167262Y-12131976D01*
X7167262Y-12131976D02*
X7186309Y-12141500D01*
X7186309Y-12141500D02*
X7195833Y-12151024D01*
X7195833Y-12151024D02*
X7205357Y-12170071D01*
X7205357Y-12170071D02*
X7214881Y-12208167D01*
X7214881Y-12208167D02*
X7214881Y-12255786D01*
X7214881Y-12255786D02*
X7205357Y-12293881D01*
X7205357Y-12293881D02*
X7195833Y-12312928D01*
X7195833Y-12312928D02*
X7186309Y-12322452D01*
X7186309Y-12322452D02*
X7167262Y-12331976D01*
X7167262Y-12331976D02*
X7148214Y-12331976D01*
X7148214Y-12331976D02*
X7129167Y-12322452D01*
X7129167Y-12322452D02*
X7119643Y-12312928D01*
X7119643Y-12312928D02*
X7110119Y-12293881D01*
X7110119Y-12293881D02*
X7100595Y-12255786D01*
X7100595Y-12255786D02*
X7100595Y-12208167D01*
X7100595Y-12208167D02*
X7110119Y-12170071D01*
X7110119Y-12170071D02*
X7119643Y-12151024D01*
X7119643Y-12151024D02*
X7129167Y-12141500D01*
X7129167Y-12141500D02*
X7148214Y-12131976D01*
X7300595Y-12312928D02*
X7310119Y-12322452D01*
X7310119Y-12322452D02*
X7300595Y-12331976D01*
X7300595Y-12331976D02*
X7291071Y-12322452D01*
X7291071Y-12322452D02*
X7300595Y-12312928D01*
X7300595Y-12312928D02*
X7300595Y-12331976D01*
X7376786Y-12131976D02*
X7500595Y-12131976D01*
X7500595Y-12131976D02*
X7433928Y-12208167D01*
X7433928Y-12208167D02*
X7462500Y-12208167D01*
X7462500Y-12208167D02*
X7481548Y-12217690D01*
X7481548Y-12217690D02*
X7491071Y-12227214D01*
X7491071Y-12227214D02*
X7500595Y-12246262D01*
X7500595Y-12246262D02*
X7500595Y-12293881D01*
X7500595Y-12293881D02*
X7491071Y-12312928D01*
X7491071Y-12312928D02*
X7481548Y-12322452D01*
X7481548Y-12322452D02*
X7462500Y-12331976D01*
X7462500Y-12331976D02*
X7405357Y-12331976D01*
X7405357Y-12331976D02*
X7386309Y-12322452D01*
X7386309Y-12322452D02*
X7376786Y-12312928D01*
X7576786Y-12151024D02*
X7586309Y-12141500D01*
X7586309Y-12141500D02*
X7605357Y-12131976D01*
X7605357Y-12131976D02*
X7652976Y-12131976D01*
X7652976Y-12131976D02*
X7672024Y-12141500D01*
X7672024Y-12141500D02*
X7681548Y-12151024D01*
X7681548Y-12151024D02*
X7691071Y-12170071D01*
X7691071Y-12170071D02*
X7691071Y-12189119D01*
X7691071Y-12189119D02*
X7681548Y-12217690D01*
X7681548Y-12217690D02*
X7567262Y-12331976D01*
X7567262Y-12331976D02*
X7691071Y-12331976D01*
X7814881Y-12131976D02*
X7833929Y-12131976D01*
X7833929Y-12131976D02*
X7852976Y-12141500D01*
X7852976Y-12141500D02*
X7862500Y-12151024D01*
X7862500Y-12151024D02*
X7872024Y-12170071D01*
X7872024Y-12170071D02*
X7881548Y-12208167D01*
X7881548Y-12208167D02*
X7881548Y-12255786D01*
X7881548Y-12255786D02*
X7872024Y-12293881D01*
X7872024Y-12293881D02*
X7862500Y-12312928D01*
X7862500Y-12312928D02*
X7852976Y-12322452D01*
X7852976Y-12322452D02*
X7833929Y-12331976D01*
X7833929Y-12331976D02*
X7814881Y-12331976D01*
X7814881Y-12331976D02*
X7795833Y-12322452D01*
X7795833Y-12322452D02*
X7786309Y-12312928D01*
X7786309Y-12312928D02*
X7776786Y-12293881D01*
X7776786Y-12293881D02*
X7767262Y-12255786D01*
X7767262Y-12255786D02*
X7767262Y-12208167D01*
X7767262Y-12208167D02*
X7776786Y-12170071D01*
X7776786Y-12170071D02*
X7786309Y-12151024D01*
X7786309Y-12151024D02*
X7795833Y-12141500D01*
X7795833Y-12141500D02*
X7814881Y-12131976D01*
X7967262Y-12331976D02*
X7967262Y-12198643D01*
X7967262Y-12217690D02*
X7976786Y-12208167D01*
X7976786Y-12208167D02*
X7995833Y-12198643D01*
X7995833Y-12198643D02*
X8024405Y-12198643D01*
X8024405Y-12198643D02*
X8043452Y-12208167D01*
X8043452Y-12208167D02*
X8052976Y-12227214D01*
X8052976Y-12227214D02*
X8052976Y-12331976D01*
X8052976Y-12227214D02*
X8062500Y-12208167D01*
X8062500Y-12208167D02*
X8081548Y-12198643D01*
X8081548Y-12198643D02*
X8110119Y-12198643D01*
X8110119Y-12198643D02*
X8129167Y-12208167D01*
X8129167Y-12208167D02*
X8138690Y-12227214D01*
X8138690Y-12227214D02*
X8138690Y-12331976D01*
X8233929Y-12331976D02*
X8233929Y-12198643D01*
X8233929Y-12217690D02*
X8243452Y-12208167D01*
X8243452Y-12208167D02*
X8262500Y-12198643D01*
X8262500Y-12198643D02*
X8291071Y-12198643D01*
X8291071Y-12198643D02*
X8310119Y-12208167D01*
X8310119Y-12208167D02*
X8319643Y-12227214D01*
X8319643Y-12227214D02*
X8319643Y-12331976D01*
X8319643Y-12227214D02*
X8329167Y-12208167D01*
X8329167Y-12208167D02*
X8348214Y-12198643D01*
X8348214Y-12198643D02*
X8376786Y-12198643D01*
X8376786Y-12198643D02*
X8395833Y-12208167D01*
X8395833Y-12208167D02*
X8405357Y-12227214D01*
X8405357Y-12227214D02*
X8405357Y-12331976D01*
X8763452Y-12122452D02*
X8592024Y-12379595D01*
X8988214Y-12131976D02*
X9007262Y-12131976D01*
X9007262Y-12131976D02*
X9026310Y-12141500D01*
X9026310Y-12141500D02*
X9035833Y-12151024D01*
X9035833Y-12151024D02*
X9045357Y-12170071D01*
X9045357Y-12170071D02*
X9054881Y-12208167D01*
X9054881Y-12208167D02*
X9054881Y-12255786D01*
X9054881Y-12255786D02*
X9045357Y-12293881D01*
X9045357Y-12293881D02*
X9035833Y-12312928D01*
X9035833Y-12312928D02*
X9026310Y-12322452D01*
X9026310Y-12322452D02*
X9007262Y-12331976D01*
X9007262Y-12331976D02*
X8988214Y-12331976D01*
X8988214Y-12331976D02*
X8969167Y-12322452D01*
X8969167Y-12322452D02*
X8959643Y-12312928D01*
X8959643Y-12312928D02*
X8950119Y-12293881D01*
X8950119Y-12293881D02*
X8940595Y-12255786D01*
X8940595Y-12255786D02*
X8940595Y-12208167D01*
X8940595Y-12208167D02*
X8950119Y-12170071D01*
X8950119Y-12170071D02*
X8959643Y-12151024D01*
X8959643Y-12151024D02*
X8969167Y-12141500D01*
X8969167Y-12141500D02*
X8988214Y-12131976D01*
X9140595Y-12312928D02*
X9150119Y-12322452D01*
X9150119Y-12322452D02*
X9140595Y-12331976D01*
X9140595Y-12331976D02*
X9131072Y-12322452D01*
X9131072Y-12322452D02*
X9140595Y-12312928D01*
X9140595Y-12312928D02*
X9140595Y-12331976D01*
X9273929Y-12131976D02*
X9292976Y-12131976D01*
X9292976Y-12131976D02*
X9312024Y-12141500D01*
X9312024Y-12141500D02*
X9321548Y-12151024D01*
X9321548Y-12151024D02*
X9331072Y-12170071D01*
X9331072Y-12170071D02*
X9340595Y-12208167D01*
X9340595Y-12208167D02*
X9340595Y-12255786D01*
X9340595Y-12255786D02*
X9331072Y-12293881D01*
X9331072Y-12293881D02*
X9321548Y-12312928D01*
X9321548Y-12312928D02*
X9312024Y-12322452D01*
X9312024Y-12322452D02*
X9292976Y-12331976D01*
X9292976Y-12331976D02*
X9273929Y-12331976D01*
X9273929Y-12331976D02*
X9254881Y-12322452D01*
X9254881Y-12322452D02*
X9245357Y-12312928D01*
X9245357Y-12312928D02*
X9235833Y-12293881D01*
X9235833Y-12293881D02*
X9226310Y-12255786D01*
X9226310Y-12255786D02*
X9226310Y-12208167D01*
X9226310Y-12208167D02*
X9235833Y-12170071D01*
X9235833Y-12170071D02*
X9245357Y-12151024D01*
X9245357Y-12151024D02*
X9254881Y-12141500D01*
X9254881Y-12141500D02*
X9273929Y-12131976D01*
X9531072Y-12331976D02*
X9416786Y-12331976D01*
X9473929Y-12331976D02*
X9473929Y-12131976D01*
X9473929Y-12131976D02*
X9454881Y-12160548D01*
X9454881Y-12160548D02*
X9435833Y-12179595D01*
X9435833Y-12179595D02*
X9416786Y-12189119D01*
X9607262Y-12151024D02*
X9616786Y-12141500D01*
X9616786Y-12141500D02*
X9635833Y-12131976D01*
X9635833Y-12131976D02*
X9683453Y-12131976D01*
X9683453Y-12131976D02*
X9702500Y-12141500D01*
X9702500Y-12141500D02*
X9712024Y-12151024D01*
X9712024Y-12151024D02*
X9721548Y-12170071D01*
X9721548Y-12170071D02*
X9721548Y-12189119D01*
X9721548Y-12189119D02*
X9712024Y-12217690D01*
X9712024Y-12217690D02*
X9597738Y-12331976D01*
X9597738Y-12331976D02*
X9721548Y-12331976D01*
X9892976Y-12131976D02*
X9854881Y-12131976D01*
X9854881Y-12131976D02*
X9835833Y-12141500D01*
X9835833Y-12141500D02*
X9826310Y-12151024D01*
X9826310Y-12151024D02*
X9807262Y-12179595D01*
X9807262Y-12179595D02*
X9797738Y-12217690D01*
X9797738Y-12217690D02*
X9797738Y-12293881D01*
X9797738Y-12293881D02*
X9807262Y-12312928D01*
X9807262Y-12312928D02*
X9816786Y-12322452D01*
X9816786Y-12322452D02*
X9835833Y-12331976D01*
X9835833Y-12331976D02*
X9873929Y-12331976D01*
X9873929Y-12331976D02*
X9892976Y-12322452D01*
X9892976Y-12322452D02*
X9902500Y-12312928D01*
X9902500Y-12312928D02*
X9912024Y-12293881D01*
X9912024Y-12293881D02*
X9912024Y-12246262D01*
X9912024Y-12246262D02*
X9902500Y-12227214D01*
X9902500Y-12227214D02*
X9892976Y-12217690D01*
X9892976Y-12217690D02*
X9873929Y-12208167D01*
X9873929Y-12208167D02*
X9835833Y-12208167D01*
X9835833Y-12208167D02*
X9816786Y-12217690D01*
X9816786Y-12217690D02*
X9807262Y-12227214D01*
X9807262Y-12227214D02*
X9797738Y-12246262D01*
X9988214Y-12131976D02*
X9988214Y-12170071D01*
X10064405Y-12131976D02*
X10064405Y-12170071D01*
X10327262Y-12408167D02*
X10317738Y-12398643D01*
X10317738Y-12398643D02*
X10298691Y-12370071D01*
X10298691Y-12370071D02*
X10289167Y-12351024D01*
X10289167Y-12351024D02*
X10279643Y-12322452D01*
X10279643Y-12322452D02*
X10270119Y-12274833D01*
X10270119Y-12274833D02*
X10270119Y-12236738D01*
X10270119Y-12236738D02*
X10279643Y-12189119D01*
X10279643Y-12189119D02*
X10289167Y-12160548D01*
X10289167Y-12160548D02*
X10298691Y-12141500D01*
X10298691Y-12141500D02*
X10317738Y-12112928D01*
X10317738Y-12112928D02*
X10327262Y-12103405D01*
X10508214Y-12331976D02*
X10393929Y-12331976D01*
X10451072Y-12331976D02*
X10451072Y-12131976D01*
X10451072Y-12131976D02*
X10432024Y-12160548D01*
X10432024Y-12160548D02*
X10412976Y-12179595D01*
X10412976Y-12179595D02*
X10393929Y-12189119D01*
X10574881Y-12131976D02*
X10698691Y-12131976D01*
X10698691Y-12131976D02*
X10632024Y-12208167D01*
X10632024Y-12208167D02*
X10660595Y-12208167D01*
X10660595Y-12208167D02*
X10679643Y-12217690D01*
X10679643Y-12217690D02*
X10689167Y-12227214D01*
X10689167Y-12227214D02*
X10698691Y-12246262D01*
X10698691Y-12246262D02*
X10698691Y-12293881D01*
X10698691Y-12293881D02*
X10689167Y-12312928D01*
X10689167Y-12312928D02*
X10679643Y-12322452D01*
X10679643Y-12322452D02*
X10660595Y-12331976D01*
X10660595Y-12331976D02*
X10603453Y-12331976D01*
X10603453Y-12331976D02*
X10584405Y-12322452D01*
X10584405Y-12322452D02*
X10574881Y-12312928D01*
X10879643Y-12131976D02*
X10784405Y-12131976D01*
X10784405Y-12131976D02*
X10774881Y-12227214D01*
X10774881Y-12227214D02*
X10784405Y-12217690D01*
X10784405Y-12217690D02*
X10803453Y-12208167D01*
X10803453Y-12208167D02*
X10851072Y-12208167D01*
X10851072Y-12208167D02*
X10870119Y-12217690D01*
X10870119Y-12217690D02*
X10879643Y-12227214D01*
X10879643Y-12227214D02*
X10889167Y-12246262D01*
X10889167Y-12246262D02*
X10889167Y-12293881D01*
X10889167Y-12293881D02*
X10879643Y-12312928D01*
X10879643Y-12312928D02*
X10870119Y-12322452D01*
X10870119Y-12322452D02*
X10851072Y-12331976D01*
X10851072Y-12331976D02*
X10803453Y-12331976D01*
X10803453Y-12331976D02*
X10784405Y-12322452D01*
X10784405Y-12322452D02*
X10774881Y-12312928D01*
X11094881Y-12331976D02*
X11094881Y-12131976D01*
X11180595Y-12331976D02*
X11180595Y-12227214D01*
X11180595Y-12227214D02*
X11171072Y-12208167D01*
X11171072Y-12208167D02*
X11152024Y-12198643D01*
X11152024Y-12198643D02*
X11123453Y-12198643D01*
X11123453Y-12198643D02*
X11104405Y-12208167D01*
X11104405Y-12208167D02*
X11094881Y-12217690D01*
X11304405Y-12331976D02*
X11285357Y-12322452D01*
X11285357Y-12322452D02*
X11275833Y-12312928D01*
X11275833Y-12312928D02*
X11266310Y-12293881D01*
X11266310Y-12293881D02*
X11266310Y-12236738D01*
X11266310Y-12236738D02*
X11275833Y-12217690D01*
X11275833Y-12217690D02*
X11285357Y-12208167D01*
X11285357Y-12208167D02*
X11304405Y-12198643D01*
X11304405Y-12198643D02*
X11332976Y-12198643D01*
X11332976Y-12198643D02*
X11352024Y-12208167D01*
X11352024Y-12208167D02*
X11361548Y-12217690D01*
X11361548Y-12217690D02*
X11371072Y-12236738D01*
X11371072Y-12236738D02*
X11371072Y-12293881D01*
X11371072Y-12293881D02*
X11361548Y-12312928D01*
X11361548Y-12312928D02*
X11352024Y-12322452D01*
X11352024Y-12322452D02*
X11332976Y-12331976D01*
X11332976Y-12331976D02*
X11304405Y-12331976D01*
X11485357Y-12331976D02*
X11466310Y-12322452D01*
X11466310Y-12322452D02*
X11456786Y-12303405D01*
X11456786Y-12303405D02*
X11456786Y-12131976D01*
X11637738Y-12322452D02*
X11618691Y-12331976D01*
X11618691Y-12331976D02*
X11580595Y-12331976D01*
X11580595Y-12331976D02*
X11561548Y-12322452D01*
X11561548Y-12322452D02*
X11552024Y-12303405D01*
X11552024Y-12303405D02*
X11552024Y-12227214D01*
X11552024Y-12227214D02*
X11561548Y-12208167D01*
X11561548Y-12208167D02*
X11580595Y-12198643D01*
X11580595Y-12198643D02*
X11618691Y-12198643D01*
X11618691Y-12198643D02*
X11637738Y-12208167D01*
X11637738Y-12208167D02*
X11647262Y-12227214D01*
X11647262Y-12227214D02*
X11647262Y-12246262D01*
X11647262Y-12246262D02*
X11552024Y-12265309D01*
X11723453Y-12322452D02*
X11742500Y-12331976D01*
X11742500Y-12331976D02*
X11780595Y-12331976D01*
X11780595Y-12331976D02*
X11799643Y-12322452D01*
X11799643Y-12322452D02*
X11809167Y-12303405D01*
X11809167Y-12303405D02*
X11809167Y-12293881D01*
X11809167Y-12293881D02*
X11799643Y-12274833D01*
X11799643Y-12274833D02*
X11780595Y-12265309D01*
X11780595Y-12265309D02*
X11752024Y-12265309D01*
X11752024Y-12265309D02*
X11732976Y-12255786D01*
X11732976Y-12255786D02*
X11723453Y-12236738D01*
X11723453Y-12236738D02*
X11723453Y-12227214D01*
X11723453Y-12227214D02*
X11732976Y-12208167D01*
X11732976Y-12208167D02*
X11752024Y-12198643D01*
X11752024Y-12198643D02*
X11780595Y-12198643D01*
X11780595Y-12198643D02*
X11799643Y-12208167D01*
X11875834Y-12408167D02*
X11885357Y-12398643D01*
X11885357Y-12398643D02*
X11904405Y-12370071D01*
X11904405Y-12370071D02*
X11913929Y-12351024D01*
X11913929Y-12351024D02*
X11923453Y-12322452D01*
X11923453Y-12322452D02*
X11932976Y-12274833D01*
X11932976Y-12274833D02*
X11932976Y-12236738D01*
X11932976Y-12236738D02*
X11923453Y-12189119D01*
X11923453Y-12189119D02*
X11913929Y-12160548D01*
X11913929Y-12160548D02*
X11904405Y-12141500D01*
X11904405Y-12141500D02*
X11885357Y-12112928D01*
X11885357Y-12112928D02*
X11875834Y-12103405D01*
D13*
X6862500Y-12522500D02*
G75*
G03*
X6862500Y-12522500I-20000J0D01*
G01*
D11*
X7148214Y-12395976D02*
X7167262Y-12395976D01*
X7167262Y-12395976D02*
X7186309Y-12405500D01*
X7186309Y-12405500D02*
X7195833Y-12415024D01*
X7195833Y-12415024D02*
X7205357Y-12434071D01*
X7205357Y-12434071D02*
X7214881Y-12472167D01*
X7214881Y-12472167D02*
X7214881Y-12519786D01*
X7214881Y-12519786D02*
X7205357Y-12557881D01*
X7205357Y-12557881D02*
X7195833Y-12576928D01*
X7195833Y-12576928D02*
X7186309Y-12586452D01*
X7186309Y-12586452D02*
X7167262Y-12595976D01*
X7167262Y-12595976D02*
X7148214Y-12595976D01*
X7148214Y-12595976D02*
X7129167Y-12586452D01*
X7129167Y-12586452D02*
X7119643Y-12576928D01*
X7119643Y-12576928D02*
X7110119Y-12557881D01*
X7110119Y-12557881D02*
X7100595Y-12519786D01*
X7100595Y-12519786D02*
X7100595Y-12472167D01*
X7100595Y-12472167D02*
X7110119Y-12434071D01*
X7110119Y-12434071D02*
X7119643Y-12415024D01*
X7119643Y-12415024D02*
X7129167Y-12405500D01*
X7129167Y-12405500D02*
X7148214Y-12395976D01*
X7300595Y-12576928D02*
X7310119Y-12586452D01*
X7310119Y-12586452D02*
X7300595Y-12595976D01*
X7300595Y-12595976D02*
X7291071Y-12586452D01*
X7291071Y-12586452D02*
X7300595Y-12576928D01*
X7300595Y-12576928D02*
X7300595Y-12595976D01*
X7481548Y-12462643D02*
X7481548Y-12595976D01*
X7433928Y-12386452D02*
X7386309Y-12529309D01*
X7386309Y-12529309D02*
X7510119Y-12529309D01*
X7624405Y-12395976D02*
X7643452Y-12395976D01*
X7643452Y-12395976D02*
X7662500Y-12405500D01*
X7662500Y-12405500D02*
X7672024Y-12415024D01*
X7672024Y-12415024D02*
X7681548Y-12434071D01*
X7681548Y-12434071D02*
X7691071Y-12472167D01*
X7691071Y-12472167D02*
X7691071Y-12519786D01*
X7691071Y-12519786D02*
X7681548Y-12557881D01*
X7681548Y-12557881D02*
X7672024Y-12576928D01*
X7672024Y-12576928D02*
X7662500Y-12586452D01*
X7662500Y-12586452D02*
X7643452Y-12595976D01*
X7643452Y-12595976D02*
X7624405Y-12595976D01*
X7624405Y-12595976D02*
X7605357Y-12586452D01*
X7605357Y-12586452D02*
X7595833Y-12576928D01*
X7595833Y-12576928D02*
X7586309Y-12557881D01*
X7586309Y-12557881D02*
X7576786Y-12519786D01*
X7576786Y-12519786D02*
X7576786Y-12472167D01*
X7576786Y-12472167D02*
X7586309Y-12434071D01*
X7586309Y-12434071D02*
X7595833Y-12415024D01*
X7595833Y-12415024D02*
X7605357Y-12405500D01*
X7605357Y-12405500D02*
X7624405Y-12395976D01*
X7814881Y-12395976D02*
X7833929Y-12395976D01*
X7833929Y-12395976D02*
X7852976Y-12405500D01*
X7852976Y-12405500D02*
X7862500Y-12415024D01*
X7862500Y-12415024D02*
X7872024Y-12434071D01*
X7872024Y-12434071D02*
X7881548Y-12472167D01*
X7881548Y-12472167D02*
X7881548Y-12519786D01*
X7881548Y-12519786D02*
X7872024Y-12557881D01*
X7872024Y-12557881D02*
X7862500Y-12576928D01*
X7862500Y-12576928D02*
X7852976Y-12586452D01*
X7852976Y-12586452D02*
X7833929Y-12595976D01*
X7833929Y-12595976D02*
X7814881Y-12595976D01*
X7814881Y-12595976D02*
X7795833Y-12586452D01*
X7795833Y-12586452D02*
X7786309Y-12576928D01*
X7786309Y-12576928D02*
X7776786Y-12557881D01*
X7776786Y-12557881D02*
X7767262Y-12519786D01*
X7767262Y-12519786D02*
X7767262Y-12472167D01*
X7767262Y-12472167D02*
X7776786Y-12434071D01*
X7776786Y-12434071D02*
X7786309Y-12415024D01*
X7786309Y-12415024D02*
X7795833Y-12405500D01*
X7795833Y-12405500D02*
X7814881Y-12395976D01*
X7967262Y-12595976D02*
X7967262Y-12462643D01*
X7967262Y-12481690D02*
X7976786Y-12472167D01*
X7976786Y-12472167D02*
X7995833Y-12462643D01*
X7995833Y-12462643D02*
X8024405Y-12462643D01*
X8024405Y-12462643D02*
X8043452Y-12472167D01*
X8043452Y-12472167D02*
X8052976Y-12491214D01*
X8052976Y-12491214D02*
X8052976Y-12595976D01*
X8052976Y-12491214D02*
X8062500Y-12472167D01*
X8062500Y-12472167D02*
X8081548Y-12462643D01*
X8081548Y-12462643D02*
X8110119Y-12462643D01*
X8110119Y-12462643D02*
X8129167Y-12472167D01*
X8129167Y-12472167D02*
X8138690Y-12491214D01*
X8138690Y-12491214D02*
X8138690Y-12595976D01*
X8233929Y-12595976D02*
X8233929Y-12462643D01*
X8233929Y-12481690D02*
X8243452Y-12472167D01*
X8243452Y-12472167D02*
X8262500Y-12462643D01*
X8262500Y-12462643D02*
X8291071Y-12462643D01*
X8291071Y-12462643D02*
X8310119Y-12472167D01*
X8310119Y-12472167D02*
X8319643Y-12491214D01*
X8319643Y-12491214D02*
X8319643Y-12595976D01*
X8319643Y-12491214D02*
X8329167Y-12472167D01*
X8329167Y-12472167D02*
X8348214Y-12462643D01*
X8348214Y-12462643D02*
X8376786Y-12462643D01*
X8376786Y-12462643D02*
X8395833Y-12472167D01*
X8395833Y-12472167D02*
X8405357Y-12491214D01*
X8405357Y-12491214D02*
X8405357Y-12595976D01*
X8763452Y-12386452D02*
X8592024Y-12643595D01*
X8988214Y-12395976D02*
X9007262Y-12395976D01*
X9007262Y-12395976D02*
X9026310Y-12405500D01*
X9026310Y-12405500D02*
X9035833Y-12415024D01*
X9035833Y-12415024D02*
X9045357Y-12434071D01*
X9045357Y-12434071D02*
X9054881Y-12472167D01*
X9054881Y-12472167D02*
X9054881Y-12519786D01*
X9054881Y-12519786D02*
X9045357Y-12557881D01*
X9045357Y-12557881D02*
X9035833Y-12576928D01*
X9035833Y-12576928D02*
X9026310Y-12586452D01*
X9026310Y-12586452D02*
X9007262Y-12595976D01*
X9007262Y-12595976D02*
X8988214Y-12595976D01*
X8988214Y-12595976D02*
X8969167Y-12586452D01*
X8969167Y-12586452D02*
X8959643Y-12576928D01*
X8959643Y-12576928D02*
X8950119Y-12557881D01*
X8950119Y-12557881D02*
X8940595Y-12519786D01*
X8940595Y-12519786D02*
X8940595Y-12472167D01*
X8940595Y-12472167D02*
X8950119Y-12434071D01*
X8950119Y-12434071D02*
X8959643Y-12415024D01*
X8959643Y-12415024D02*
X8969167Y-12405500D01*
X8969167Y-12405500D02*
X8988214Y-12395976D01*
X9140595Y-12576928D02*
X9150119Y-12586452D01*
X9150119Y-12586452D02*
X9140595Y-12595976D01*
X9140595Y-12595976D02*
X9131072Y-12586452D01*
X9131072Y-12586452D02*
X9140595Y-12576928D01*
X9140595Y-12576928D02*
X9140595Y-12595976D01*
X9273929Y-12395976D02*
X9292976Y-12395976D01*
X9292976Y-12395976D02*
X9312024Y-12405500D01*
X9312024Y-12405500D02*
X9321548Y-12415024D01*
X9321548Y-12415024D02*
X9331072Y-12434071D01*
X9331072Y-12434071D02*
X9340595Y-12472167D01*
X9340595Y-12472167D02*
X9340595Y-12519786D01*
X9340595Y-12519786D02*
X9331072Y-12557881D01*
X9331072Y-12557881D02*
X9321548Y-12576928D01*
X9321548Y-12576928D02*
X9312024Y-12586452D01*
X9312024Y-12586452D02*
X9292976Y-12595976D01*
X9292976Y-12595976D02*
X9273929Y-12595976D01*
X9273929Y-12595976D02*
X9254881Y-12586452D01*
X9254881Y-12586452D02*
X9245357Y-12576928D01*
X9245357Y-12576928D02*
X9235833Y-12557881D01*
X9235833Y-12557881D02*
X9226310Y-12519786D01*
X9226310Y-12519786D02*
X9226310Y-12472167D01*
X9226310Y-12472167D02*
X9235833Y-12434071D01*
X9235833Y-12434071D02*
X9245357Y-12415024D01*
X9245357Y-12415024D02*
X9254881Y-12405500D01*
X9254881Y-12405500D02*
X9273929Y-12395976D01*
X9531072Y-12595976D02*
X9416786Y-12595976D01*
X9473929Y-12595976D02*
X9473929Y-12395976D01*
X9473929Y-12395976D02*
X9454881Y-12424548D01*
X9454881Y-12424548D02*
X9435833Y-12443595D01*
X9435833Y-12443595D02*
X9416786Y-12453119D01*
X9712024Y-12395976D02*
X9616786Y-12395976D01*
X9616786Y-12395976D02*
X9607262Y-12491214D01*
X9607262Y-12491214D02*
X9616786Y-12481690D01*
X9616786Y-12481690D02*
X9635833Y-12472167D01*
X9635833Y-12472167D02*
X9683453Y-12472167D01*
X9683453Y-12472167D02*
X9702500Y-12481690D01*
X9702500Y-12481690D02*
X9712024Y-12491214D01*
X9712024Y-12491214D02*
X9721548Y-12510262D01*
X9721548Y-12510262D02*
X9721548Y-12557881D01*
X9721548Y-12557881D02*
X9712024Y-12576928D01*
X9712024Y-12576928D02*
X9702500Y-12586452D01*
X9702500Y-12586452D02*
X9683453Y-12595976D01*
X9683453Y-12595976D02*
X9635833Y-12595976D01*
X9635833Y-12595976D02*
X9616786Y-12586452D01*
X9616786Y-12586452D02*
X9607262Y-12576928D01*
X9788214Y-12395976D02*
X9921548Y-12395976D01*
X9921548Y-12395976D02*
X9835833Y-12595976D01*
X9988214Y-12395976D02*
X9988214Y-12434071D01*
X10064405Y-12395976D02*
X10064405Y-12434071D01*
X10327262Y-12672167D02*
X10317738Y-12662643D01*
X10317738Y-12662643D02*
X10298691Y-12634071D01*
X10298691Y-12634071D02*
X10289167Y-12615024D01*
X10289167Y-12615024D02*
X10279643Y-12586452D01*
X10279643Y-12586452D02*
X10270119Y-12538833D01*
X10270119Y-12538833D02*
X10270119Y-12500738D01*
X10270119Y-12500738D02*
X10279643Y-12453119D01*
X10279643Y-12453119D02*
X10289167Y-12424548D01*
X10289167Y-12424548D02*
X10298691Y-12405500D01*
X10298691Y-12405500D02*
X10317738Y-12376928D01*
X10317738Y-12376928D02*
X10327262Y-12367405D01*
X10508214Y-12595976D02*
X10393929Y-12595976D01*
X10451072Y-12595976D02*
X10451072Y-12395976D01*
X10451072Y-12395976D02*
X10432024Y-12424548D01*
X10432024Y-12424548D02*
X10412976Y-12443595D01*
X10412976Y-12443595D02*
X10393929Y-12453119D01*
X10584405Y-12415024D02*
X10593929Y-12405500D01*
X10593929Y-12405500D02*
X10612976Y-12395976D01*
X10612976Y-12395976D02*
X10660595Y-12395976D01*
X10660595Y-12395976D02*
X10679643Y-12405500D01*
X10679643Y-12405500D02*
X10689167Y-12415024D01*
X10689167Y-12415024D02*
X10698691Y-12434071D01*
X10698691Y-12434071D02*
X10698691Y-12453119D01*
X10698691Y-12453119D02*
X10689167Y-12481690D01*
X10689167Y-12481690D02*
X10574881Y-12595976D01*
X10574881Y-12595976D02*
X10698691Y-12595976D01*
X10879643Y-12395976D02*
X10784405Y-12395976D01*
X10784405Y-12395976D02*
X10774881Y-12491214D01*
X10774881Y-12491214D02*
X10784405Y-12481690D01*
X10784405Y-12481690D02*
X10803453Y-12472167D01*
X10803453Y-12472167D02*
X10851072Y-12472167D01*
X10851072Y-12472167D02*
X10870119Y-12481690D01*
X10870119Y-12481690D02*
X10879643Y-12491214D01*
X10879643Y-12491214D02*
X10889167Y-12510262D01*
X10889167Y-12510262D02*
X10889167Y-12557881D01*
X10889167Y-12557881D02*
X10879643Y-12576928D01*
X10879643Y-12576928D02*
X10870119Y-12586452D01*
X10870119Y-12586452D02*
X10851072Y-12595976D01*
X10851072Y-12595976D02*
X10803453Y-12595976D01*
X10803453Y-12595976D02*
X10784405Y-12586452D01*
X10784405Y-12586452D02*
X10774881Y-12576928D01*
X11094881Y-12595976D02*
X11094881Y-12395976D01*
X11180595Y-12595976D02*
X11180595Y-12491214D01*
X11180595Y-12491214D02*
X11171072Y-12472167D01*
X11171072Y-12472167D02*
X11152024Y-12462643D01*
X11152024Y-12462643D02*
X11123453Y-12462643D01*
X11123453Y-12462643D02*
X11104405Y-12472167D01*
X11104405Y-12472167D02*
X11094881Y-12481690D01*
X11304405Y-12595976D02*
X11285357Y-12586452D01*
X11285357Y-12586452D02*
X11275833Y-12576928D01*
X11275833Y-12576928D02*
X11266310Y-12557881D01*
X11266310Y-12557881D02*
X11266310Y-12500738D01*
X11266310Y-12500738D02*
X11275833Y-12481690D01*
X11275833Y-12481690D02*
X11285357Y-12472167D01*
X11285357Y-12472167D02*
X11304405Y-12462643D01*
X11304405Y-12462643D02*
X11332976Y-12462643D01*
X11332976Y-12462643D02*
X11352024Y-12472167D01*
X11352024Y-12472167D02*
X11361548Y-12481690D01*
X11361548Y-12481690D02*
X11371072Y-12500738D01*
X11371072Y-12500738D02*
X11371072Y-12557881D01*
X11371072Y-12557881D02*
X11361548Y-12576928D01*
X11361548Y-12576928D02*
X11352024Y-12586452D01*
X11352024Y-12586452D02*
X11332976Y-12595976D01*
X11332976Y-12595976D02*
X11304405Y-12595976D01*
X11485357Y-12595976D02*
X11466310Y-12586452D01*
X11466310Y-12586452D02*
X11456786Y-12567405D01*
X11456786Y-12567405D02*
X11456786Y-12395976D01*
X11637738Y-12586452D02*
X11618691Y-12595976D01*
X11618691Y-12595976D02*
X11580595Y-12595976D01*
X11580595Y-12595976D02*
X11561548Y-12586452D01*
X11561548Y-12586452D02*
X11552024Y-12567405D01*
X11552024Y-12567405D02*
X11552024Y-12491214D01*
X11552024Y-12491214D02*
X11561548Y-12472167D01*
X11561548Y-12472167D02*
X11580595Y-12462643D01*
X11580595Y-12462643D02*
X11618691Y-12462643D01*
X11618691Y-12462643D02*
X11637738Y-12472167D01*
X11637738Y-12472167D02*
X11647262Y-12491214D01*
X11647262Y-12491214D02*
X11647262Y-12510262D01*
X11647262Y-12510262D02*
X11552024Y-12529309D01*
X11723453Y-12586452D02*
X11742500Y-12595976D01*
X11742500Y-12595976D02*
X11780595Y-12595976D01*
X11780595Y-12595976D02*
X11799643Y-12586452D01*
X11799643Y-12586452D02*
X11809167Y-12567405D01*
X11809167Y-12567405D02*
X11809167Y-12557881D01*
X11809167Y-12557881D02*
X11799643Y-12538833D01*
X11799643Y-12538833D02*
X11780595Y-12529309D01*
X11780595Y-12529309D02*
X11752024Y-12529309D01*
X11752024Y-12529309D02*
X11732976Y-12519786D01*
X11732976Y-12519786D02*
X11723453Y-12500738D01*
X11723453Y-12500738D02*
X11723453Y-12491214D01*
X11723453Y-12491214D02*
X11732976Y-12472167D01*
X11732976Y-12472167D02*
X11752024Y-12462643D01*
X11752024Y-12462643D02*
X11780595Y-12462643D01*
X11780595Y-12462643D02*
X11799643Y-12472167D01*
X11875834Y-12672167D02*
X11885357Y-12662643D01*
X11885357Y-12662643D02*
X11904405Y-12634071D01*
X11904405Y-12634071D02*
X11913929Y-12615024D01*
X11913929Y-12615024D02*
X11923453Y-12586452D01*
X11923453Y-12586452D02*
X11932976Y-12538833D01*
X11932976Y-12538833D02*
X11932976Y-12500738D01*
X11932976Y-12500738D02*
X11923453Y-12453119D01*
X11923453Y-12453119D02*
X11913929Y-12424548D01*
X11913929Y-12424548D02*
X11904405Y-12405500D01*
X11904405Y-12405500D02*
X11885357Y-12376928D01*
X11885357Y-12376928D02*
X11875834Y-12367405D01*
D14*
X6832500Y-12756500D02*
X6832500Y-12816500D01*
X6802500Y-12786500D02*
X6862500Y-12786500D01*
D11*
X7148214Y-12659976D02*
X7167262Y-12659976D01*
X7167262Y-12659976D02*
X7186309Y-12669500D01*
X7186309Y-12669500D02*
X7195833Y-12679024D01*
X7195833Y-12679024D02*
X7205357Y-12698071D01*
X7205357Y-12698071D02*
X7214881Y-12736167D01*
X7214881Y-12736167D02*
X7214881Y-12783786D01*
X7214881Y-12783786D02*
X7205357Y-12821881D01*
X7205357Y-12821881D02*
X7195833Y-12840928D01*
X7195833Y-12840928D02*
X7186309Y-12850452D01*
X7186309Y-12850452D02*
X7167262Y-12859976D01*
X7167262Y-12859976D02*
X7148214Y-12859976D01*
X7148214Y-12859976D02*
X7129167Y-12850452D01*
X7129167Y-12850452D02*
X7119643Y-12840928D01*
X7119643Y-12840928D02*
X7110119Y-12821881D01*
X7110119Y-12821881D02*
X7100595Y-12783786D01*
X7100595Y-12783786D02*
X7100595Y-12736167D01*
X7100595Y-12736167D02*
X7110119Y-12698071D01*
X7110119Y-12698071D02*
X7119643Y-12679024D01*
X7119643Y-12679024D02*
X7129167Y-12669500D01*
X7129167Y-12669500D02*
X7148214Y-12659976D01*
X7300595Y-12840928D02*
X7310119Y-12850452D01*
X7310119Y-12850452D02*
X7300595Y-12859976D01*
X7300595Y-12859976D02*
X7291071Y-12850452D01*
X7291071Y-12850452D02*
X7300595Y-12840928D01*
X7300595Y-12840928D02*
X7300595Y-12859976D01*
X7481548Y-12659976D02*
X7443452Y-12659976D01*
X7443452Y-12659976D02*
X7424405Y-12669500D01*
X7424405Y-12669500D02*
X7414881Y-12679024D01*
X7414881Y-12679024D02*
X7395833Y-12707595D01*
X7395833Y-12707595D02*
X7386309Y-12745690D01*
X7386309Y-12745690D02*
X7386309Y-12821881D01*
X7386309Y-12821881D02*
X7395833Y-12840928D01*
X7395833Y-12840928D02*
X7405357Y-12850452D01*
X7405357Y-12850452D02*
X7424405Y-12859976D01*
X7424405Y-12859976D02*
X7462500Y-12859976D01*
X7462500Y-12859976D02*
X7481548Y-12850452D01*
X7481548Y-12850452D02*
X7491071Y-12840928D01*
X7491071Y-12840928D02*
X7500595Y-12821881D01*
X7500595Y-12821881D02*
X7500595Y-12774262D01*
X7500595Y-12774262D02*
X7491071Y-12755214D01*
X7491071Y-12755214D02*
X7481548Y-12745690D01*
X7481548Y-12745690D02*
X7462500Y-12736167D01*
X7462500Y-12736167D02*
X7424405Y-12736167D01*
X7424405Y-12736167D02*
X7405357Y-12745690D01*
X7405357Y-12745690D02*
X7395833Y-12755214D01*
X7395833Y-12755214D02*
X7386309Y-12774262D01*
X7624405Y-12659976D02*
X7643452Y-12659976D01*
X7643452Y-12659976D02*
X7662500Y-12669500D01*
X7662500Y-12669500D02*
X7672024Y-12679024D01*
X7672024Y-12679024D02*
X7681548Y-12698071D01*
X7681548Y-12698071D02*
X7691071Y-12736167D01*
X7691071Y-12736167D02*
X7691071Y-12783786D01*
X7691071Y-12783786D02*
X7681548Y-12821881D01*
X7681548Y-12821881D02*
X7672024Y-12840928D01*
X7672024Y-12840928D02*
X7662500Y-12850452D01*
X7662500Y-12850452D02*
X7643452Y-12859976D01*
X7643452Y-12859976D02*
X7624405Y-12859976D01*
X7624405Y-12859976D02*
X7605357Y-12850452D01*
X7605357Y-12850452D02*
X7595833Y-12840928D01*
X7595833Y-12840928D02*
X7586309Y-12821881D01*
X7586309Y-12821881D02*
X7576786Y-12783786D01*
X7576786Y-12783786D02*
X7576786Y-12736167D01*
X7576786Y-12736167D02*
X7586309Y-12698071D01*
X7586309Y-12698071D02*
X7595833Y-12679024D01*
X7595833Y-12679024D02*
X7605357Y-12669500D01*
X7605357Y-12669500D02*
X7624405Y-12659976D01*
X7814881Y-12659976D02*
X7833929Y-12659976D01*
X7833929Y-12659976D02*
X7852976Y-12669500D01*
X7852976Y-12669500D02*
X7862500Y-12679024D01*
X7862500Y-12679024D02*
X7872024Y-12698071D01*
X7872024Y-12698071D02*
X7881548Y-12736167D01*
X7881548Y-12736167D02*
X7881548Y-12783786D01*
X7881548Y-12783786D02*
X7872024Y-12821881D01*
X7872024Y-12821881D02*
X7862500Y-12840928D01*
X7862500Y-12840928D02*
X7852976Y-12850452D01*
X7852976Y-12850452D02*
X7833929Y-12859976D01*
X7833929Y-12859976D02*
X7814881Y-12859976D01*
X7814881Y-12859976D02*
X7795833Y-12850452D01*
X7795833Y-12850452D02*
X7786309Y-12840928D01*
X7786309Y-12840928D02*
X7776786Y-12821881D01*
X7776786Y-12821881D02*
X7767262Y-12783786D01*
X7767262Y-12783786D02*
X7767262Y-12736167D01*
X7767262Y-12736167D02*
X7776786Y-12698071D01*
X7776786Y-12698071D02*
X7786309Y-12679024D01*
X7786309Y-12679024D02*
X7795833Y-12669500D01*
X7795833Y-12669500D02*
X7814881Y-12659976D01*
X7967262Y-12859976D02*
X7967262Y-12726643D01*
X7967262Y-12745690D02*
X7976786Y-12736167D01*
X7976786Y-12736167D02*
X7995833Y-12726643D01*
X7995833Y-12726643D02*
X8024405Y-12726643D01*
X8024405Y-12726643D02*
X8043452Y-12736167D01*
X8043452Y-12736167D02*
X8052976Y-12755214D01*
X8052976Y-12755214D02*
X8052976Y-12859976D01*
X8052976Y-12755214D02*
X8062500Y-12736167D01*
X8062500Y-12736167D02*
X8081548Y-12726643D01*
X8081548Y-12726643D02*
X8110119Y-12726643D01*
X8110119Y-12726643D02*
X8129167Y-12736167D01*
X8129167Y-12736167D02*
X8138690Y-12755214D01*
X8138690Y-12755214D02*
X8138690Y-12859976D01*
X8233929Y-12859976D02*
X8233929Y-12726643D01*
X8233929Y-12745690D02*
X8243452Y-12736167D01*
X8243452Y-12736167D02*
X8262500Y-12726643D01*
X8262500Y-12726643D02*
X8291071Y-12726643D01*
X8291071Y-12726643D02*
X8310119Y-12736167D01*
X8310119Y-12736167D02*
X8319643Y-12755214D01*
X8319643Y-12755214D02*
X8319643Y-12859976D01*
X8319643Y-12755214D02*
X8329167Y-12736167D01*
X8329167Y-12736167D02*
X8348214Y-12726643D01*
X8348214Y-12726643D02*
X8376786Y-12726643D01*
X8376786Y-12726643D02*
X8395833Y-12736167D01*
X8395833Y-12736167D02*
X8405357Y-12755214D01*
X8405357Y-12755214D02*
X8405357Y-12859976D01*
X8763452Y-12650452D02*
X8592024Y-12907595D01*
X8988214Y-12659976D02*
X9007262Y-12659976D01*
X9007262Y-12659976D02*
X9026310Y-12669500D01*
X9026310Y-12669500D02*
X9035833Y-12679024D01*
X9035833Y-12679024D02*
X9045357Y-12698071D01*
X9045357Y-12698071D02*
X9054881Y-12736167D01*
X9054881Y-12736167D02*
X9054881Y-12783786D01*
X9054881Y-12783786D02*
X9045357Y-12821881D01*
X9045357Y-12821881D02*
X9035833Y-12840928D01*
X9035833Y-12840928D02*
X9026310Y-12850452D01*
X9026310Y-12850452D02*
X9007262Y-12859976D01*
X9007262Y-12859976D02*
X8988214Y-12859976D01*
X8988214Y-12859976D02*
X8969167Y-12850452D01*
X8969167Y-12850452D02*
X8959643Y-12840928D01*
X8959643Y-12840928D02*
X8950119Y-12821881D01*
X8950119Y-12821881D02*
X8940595Y-12783786D01*
X8940595Y-12783786D02*
X8940595Y-12736167D01*
X8940595Y-12736167D02*
X8950119Y-12698071D01*
X8950119Y-12698071D02*
X8959643Y-12679024D01*
X8959643Y-12679024D02*
X8969167Y-12669500D01*
X8969167Y-12669500D02*
X8988214Y-12659976D01*
X9140595Y-12840928D02*
X9150119Y-12850452D01*
X9150119Y-12850452D02*
X9140595Y-12859976D01*
X9140595Y-12859976D02*
X9131072Y-12850452D01*
X9131072Y-12850452D02*
X9140595Y-12840928D01*
X9140595Y-12840928D02*
X9140595Y-12859976D01*
X9273929Y-12659976D02*
X9292976Y-12659976D01*
X9292976Y-12659976D02*
X9312024Y-12669500D01*
X9312024Y-12669500D02*
X9321548Y-12679024D01*
X9321548Y-12679024D02*
X9331072Y-12698071D01*
X9331072Y-12698071D02*
X9340595Y-12736167D01*
X9340595Y-12736167D02*
X9340595Y-12783786D01*
X9340595Y-12783786D02*
X9331072Y-12821881D01*
X9331072Y-12821881D02*
X9321548Y-12840928D01*
X9321548Y-12840928D02*
X9312024Y-12850452D01*
X9312024Y-12850452D02*
X9292976Y-12859976D01*
X9292976Y-12859976D02*
X9273929Y-12859976D01*
X9273929Y-12859976D02*
X9254881Y-12850452D01*
X9254881Y-12850452D02*
X9245357Y-12840928D01*
X9245357Y-12840928D02*
X9235833Y-12821881D01*
X9235833Y-12821881D02*
X9226310Y-12783786D01*
X9226310Y-12783786D02*
X9226310Y-12736167D01*
X9226310Y-12736167D02*
X9235833Y-12698071D01*
X9235833Y-12698071D02*
X9245357Y-12679024D01*
X9245357Y-12679024D02*
X9254881Y-12669500D01*
X9254881Y-12669500D02*
X9273929Y-12659976D01*
X9416786Y-12679024D02*
X9426310Y-12669500D01*
X9426310Y-12669500D02*
X9445357Y-12659976D01*
X9445357Y-12659976D02*
X9492976Y-12659976D01*
X9492976Y-12659976D02*
X9512024Y-12669500D01*
X9512024Y-12669500D02*
X9521548Y-12679024D01*
X9521548Y-12679024D02*
X9531072Y-12698071D01*
X9531072Y-12698071D02*
X9531072Y-12717119D01*
X9531072Y-12717119D02*
X9521548Y-12745690D01*
X9521548Y-12745690D02*
X9407262Y-12859976D01*
X9407262Y-12859976D02*
X9531072Y-12859976D01*
X9597738Y-12659976D02*
X9721548Y-12659976D01*
X9721548Y-12659976D02*
X9654881Y-12736167D01*
X9654881Y-12736167D02*
X9683453Y-12736167D01*
X9683453Y-12736167D02*
X9702500Y-12745690D01*
X9702500Y-12745690D02*
X9712024Y-12755214D01*
X9712024Y-12755214D02*
X9721548Y-12774262D01*
X9721548Y-12774262D02*
X9721548Y-12821881D01*
X9721548Y-12821881D02*
X9712024Y-12840928D01*
X9712024Y-12840928D02*
X9702500Y-12850452D01*
X9702500Y-12850452D02*
X9683453Y-12859976D01*
X9683453Y-12859976D02*
X9626310Y-12859976D01*
X9626310Y-12859976D02*
X9607262Y-12850452D01*
X9607262Y-12850452D02*
X9597738Y-12840928D01*
X9892976Y-12659976D02*
X9854881Y-12659976D01*
X9854881Y-12659976D02*
X9835833Y-12669500D01*
X9835833Y-12669500D02*
X9826310Y-12679024D01*
X9826310Y-12679024D02*
X9807262Y-12707595D01*
X9807262Y-12707595D02*
X9797738Y-12745690D01*
X9797738Y-12745690D02*
X9797738Y-12821881D01*
X9797738Y-12821881D02*
X9807262Y-12840928D01*
X9807262Y-12840928D02*
X9816786Y-12850452D01*
X9816786Y-12850452D02*
X9835833Y-12859976D01*
X9835833Y-12859976D02*
X9873929Y-12859976D01*
X9873929Y-12859976D02*
X9892976Y-12850452D01*
X9892976Y-12850452D02*
X9902500Y-12840928D01*
X9902500Y-12840928D02*
X9912024Y-12821881D01*
X9912024Y-12821881D02*
X9912024Y-12774262D01*
X9912024Y-12774262D02*
X9902500Y-12755214D01*
X9902500Y-12755214D02*
X9892976Y-12745690D01*
X9892976Y-12745690D02*
X9873929Y-12736167D01*
X9873929Y-12736167D02*
X9835833Y-12736167D01*
X9835833Y-12736167D02*
X9816786Y-12745690D01*
X9816786Y-12745690D02*
X9807262Y-12755214D01*
X9807262Y-12755214D02*
X9797738Y-12774262D01*
X9988214Y-12659976D02*
X9988214Y-12698071D01*
X10064405Y-12659976D02*
X10064405Y-12698071D01*
X10327262Y-12936167D02*
X10317738Y-12926643D01*
X10317738Y-12926643D02*
X10298691Y-12898071D01*
X10298691Y-12898071D02*
X10289167Y-12879024D01*
X10289167Y-12879024D02*
X10279643Y-12850452D01*
X10279643Y-12850452D02*
X10270119Y-12802833D01*
X10270119Y-12802833D02*
X10270119Y-12764738D01*
X10270119Y-12764738D02*
X10279643Y-12717119D01*
X10279643Y-12717119D02*
X10289167Y-12688548D01*
X10289167Y-12688548D02*
X10298691Y-12669500D01*
X10298691Y-12669500D02*
X10317738Y-12640928D01*
X10317738Y-12640928D02*
X10327262Y-12631405D01*
X10441548Y-12659976D02*
X10460595Y-12659976D01*
X10460595Y-12659976D02*
X10479643Y-12669500D01*
X10479643Y-12669500D02*
X10489167Y-12679024D01*
X10489167Y-12679024D02*
X10498691Y-12698071D01*
X10498691Y-12698071D02*
X10508214Y-12736167D01*
X10508214Y-12736167D02*
X10508214Y-12783786D01*
X10508214Y-12783786D02*
X10498691Y-12821881D01*
X10498691Y-12821881D02*
X10489167Y-12840928D01*
X10489167Y-12840928D02*
X10479643Y-12850452D01*
X10479643Y-12850452D02*
X10460595Y-12859976D01*
X10460595Y-12859976D02*
X10441548Y-12859976D01*
X10441548Y-12859976D02*
X10422500Y-12850452D01*
X10422500Y-12850452D02*
X10412976Y-12840928D01*
X10412976Y-12840928D02*
X10403453Y-12821881D01*
X10403453Y-12821881D02*
X10393929Y-12783786D01*
X10393929Y-12783786D02*
X10393929Y-12736167D01*
X10393929Y-12736167D02*
X10403453Y-12698071D01*
X10403453Y-12698071D02*
X10412976Y-12679024D01*
X10412976Y-12679024D02*
X10422500Y-12669500D01*
X10422500Y-12669500D02*
X10441548Y-12659976D01*
X10713929Y-12859976D02*
X10713929Y-12659976D01*
X10799643Y-12859976D02*
X10799643Y-12755214D01*
X10799643Y-12755214D02*
X10790119Y-12736167D01*
X10790119Y-12736167D02*
X10771072Y-12726643D01*
X10771072Y-12726643D02*
X10742500Y-12726643D01*
X10742500Y-12726643D02*
X10723453Y-12736167D01*
X10723453Y-12736167D02*
X10713929Y-12745690D01*
X10923453Y-12859976D02*
X10904405Y-12850452D01*
X10904405Y-12850452D02*
X10894881Y-12840928D01*
X10894881Y-12840928D02*
X10885357Y-12821881D01*
X10885357Y-12821881D02*
X10885357Y-12764738D01*
X10885357Y-12764738D02*
X10894881Y-12745690D01*
X10894881Y-12745690D02*
X10904405Y-12736167D01*
X10904405Y-12736167D02*
X10923453Y-12726643D01*
X10923453Y-12726643D02*
X10952024Y-12726643D01*
X10952024Y-12726643D02*
X10971072Y-12736167D01*
X10971072Y-12736167D02*
X10980595Y-12745690D01*
X10980595Y-12745690D02*
X10990119Y-12764738D01*
X10990119Y-12764738D02*
X10990119Y-12821881D01*
X10990119Y-12821881D02*
X10980595Y-12840928D01*
X10980595Y-12840928D02*
X10971072Y-12850452D01*
X10971072Y-12850452D02*
X10952024Y-12859976D01*
X10952024Y-12859976D02*
X10923453Y-12859976D01*
X11104405Y-12859976D02*
X11085357Y-12850452D01*
X11085357Y-12850452D02*
X11075834Y-12831405D01*
X11075834Y-12831405D02*
X11075834Y-12659976D01*
X11256786Y-12850452D02*
X11237738Y-12859976D01*
X11237738Y-12859976D02*
X11199643Y-12859976D01*
X11199643Y-12859976D02*
X11180595Y-12850452D01*
X11180595Y-12850452D02*
X11171072Y-12831405D01*
X11171072Y-12831405D02*
X11171072Y-12755214D01*
X11171072Y-12755214D02*
X11180595Y-12736167D01*
X11180595Y-12736167D02*
X11199643Y-12726643D01*
X11199643Y-12726643D02*
X11237738Y-12726643D01*
X11237738Y-12726643D02*
X11256786Y-12736167D01*
X11256786Y-12736167D02*
X11266310Y-12755214D01*
X11266310Y-12755214D02*
X11266310Y-12774262D01*
X11266310Y-12774262D02*
X11171072Y-12793309D01*
X11342500Y-12850452D02*
X11361548Y-12859976D01*
X11361548Y-12859976D02*
X11399643Y-12859976D01*
X11399643Y-12859976D02*
X11418691Y-12850452D01*
X11418691Y-12850452D02*
X11428214Y-12831405D01*
X11428214Y-12831405D02*
X11428214Y-12821881D01*
X11428214Y-12821881D02*
X11418691Y-12802833D01*
X11418691Y-12802833D02*
X11399643Y-12793309D01*
X11399643Y-12793309D02*
X11371072Y-12793309D01*
X11371072Y-12793309D02*
X11352024Y-12783786D01*
X11352024Y-12783786D02*
X11342500Y-12764738D01*
X11342500Y-12764738D02*
X11342500Y-12755214D01*
X11342500Y-12755214D02*
X11352024Y-12736167D01*
X11352024Y-12736167D02*
X11371072Y-12726643D01*
X11371072Y-12726643D02*
X11399643Y-12726643D01*
X11399643Y-12726643D02*
X11418691Y-12736167D01*
X11633929Y-12783786D02*
X11786310Y-12783786D01*
X11710119Y-12859976D02*
X11710119Y-12707595D01*
X12087262Y-12726643D02*
X12087262Y-12859976D01*
X12039643Y-12650452D02*
X11992024Y-12793309D01*
X11992024Y-12793309D02*
X12115833Y-12793309D01*
X12302500Y-12850452D02*
X12321548Y-12859976D01*
X12321548Y-12859976D02*
X12359643Y-12859976D01*
X12359643Y-12859976D02*
X12378691Y-12850452D01*
X12378691Y-12850452D02*
X12388214Y-12831405D01*
X12388214Y-12831405D02*
X12388214Y-12821881D01*
X12388214Y-12821881D02*
X12378691Y-12802833D01*
X12378691Y-12802833D02*
X12359643Y-12793309D01*
X12359643Y-12793309D02*
X12331072Y-12793309D01*
X12331072Y-12793309D02*
X12312024Y-12783786D01*
X12312024Y-12783786D02*
X12302500Y-12764738D01*
X12302500Y-12764738D02*
X12302500Y-12755214D01*
X12302500Y-12755214D02*
X12312024Y-12736167D01*
X12312024Y-12736167D02*
X12331072Y-12726643D01*
X12331072Y-12726643D02*
X12359643Y-12726643D01*
X12359643Y-12726643D02*
X12378691Y-12736167D01*
X12502500Y-12859976D02*
X12483453Y-12850452D01*
X12483453Y-12850452D02*
X12473929Y-12831405D01*
X12473929Y-12831405D02*
X12473929Y-12659976D01*
X12607262Y-12859976D02*
X12588214Y-12850452D01*
X12588214Y-12850452D02*
X12578691Y-12840928D01*
X12578691Y-12840928D02*
X12569167Y-12821881D01*
X12569167Y-12821881D02*
X12569167Y-12764738D01*
X12569167Y-12764738D02*
X12578691Y-12745690D01*
X12578691Y-12745690D02*
X12588214Y-12736167D01*
X12588214Y-12736167D02*
X12607262Y-12726643D01*
X12607262Y-12726643D02*
X12635834Y-12726643D01*
X12635834Y-12726643D02*
X12654881Y-12736167D01*
X12654881Y-12736167D02*
X12664405Y-12745690D01*
X12664405Y-12745690D02*
X12673929Y-12764738D01*
X12673929Y-12764738D02*
X12673929Y-12821881D01*
X12673929Y-12821881D02*
X12664405Y-12840928D01*
X12664405Y-12840928D02*
X12654881Y-12850452D01*
X12654881Y-12850452D02*
X12635834Y-12859976D01*
X12635834Y-12859976D02*
X12607262Y-12859976D01*
X12731072Y-12726643D02*
X12807262Y-12726643D01*
X12759643Y-12659976D02*
X12759643Y-12831405D01*
X12759643Y-12831405D02*
X12769167Y-12850452D01*
X12769167Y-12850452D02*
X12788214Y-12859976D01*
X12788214Y-12859976D02*
X12807262Y-12859976D01*
X12864405Y-12850452D02*
X12883453Y-12859976D01*
X12883453Y-12859976D02*
X12921548Y-12859976D01*
X12921548Y-12859976D02*
X12940595Y-12850452D01*
X12940595Y-12850452D02*
X12950119Y-12831405D01*
X12950119Y-12831405D02*
X12950119Y-12821881D01*
X12950119Y-12821881D02*
X12940595Y-12802833D01*
X12940595Y-12802833D02*
X12921548Y-12793309D01*
X12921548Y-12793309D02*
X12892976Y-12793309D01*
X12892976Y-12793309D02*
X12873929Y-12783786D01*
X12873929Y-12783786D02*
X12864405Y-12764738D01*
X12864405Y-12764738D02*
X12864405Y-12755214D01*
X12864405Y-12755214D02*
X12873929Y-12736167D01*
X12873929Y-12736167D02*
X12892976Y-12726643D01*
X12892976Y-12726643D02*
X12921548Y-12726643D01*
X12921548Y-12726643D02*
X12940595Y-12736167D01*
X13016786Y-12936167D02*
X13026310Y-12926643D01*
X13026310Y-12926643D02*
X13045357Y-12898071D01*
X13045357Y-12898071D02*
X13054881Y-12879024D01*
X13054881Y-12879024D02*
X13064405Y-12850452D01*
X13064405Y-12850452D02*
X13073929Y-12802833D01*
X13073929Y-12802833D02*
X13073929Y-12764738D01*
X13073929Y-12764738D02*
X13064405Y-12717119D01*
X13064405Y-12717119D02*
X13054881Y-12688548D01*
X13054881Y-12688548D02*
X13045357Y-12669500D01*
X13045357Y-12669500D02*
X13026310Y-12640928D01*
X13026310Y-12640928D02*
X13016786Y-12631405D01*
M02*
