G04 #@! TF.GenerationSoftware,KiCad,Pcbnew,7.0.2*
G04 #@! TF.CreationDate,2023-08-08T21:17:24+02:00*
G04 #@! TF.ProjectId,Watchy,57617463-6879-42e6-9b69-6361645f7063,rev?*
G04 #@! TF.SameCoordinates,Original*
G04 #@! TF.FileFunction,Paste,Top*
G04 #@! TF.FilePolarity,Positive*
%FSLAX46Y46*%
G04 Gerber Fmt 4.6, Leading zero omitted, Abs format (unit mm)*
G04 Created by KiCad (PCBNEW 7.0.2) date 2023-08-08 21:17:24*
%MOMM*%
%LPD*%
G01*
G04 APERTURE LIST*
G04 Aperture macros list*
%AMRoundRect*
0 Rectangle with rounded corners*
0 $1 Rounding radius*
0 $2 $3 $4 $5 $6 $7 $8 $9 X,Y pos of 4 corners*
0 Add a 4 corners polygon primitive as box body*
4,1,4,$2,$3,$4,$5,$6,$7,$8,$9,$2,$3,0*
0 Add four circle primitives for the rounded corners*
1,1,$1+$1,$2,$3*
1,1,$1+$1,$4,$5*
1,1,$1+$1,$6,$7*
1,1,$1+$1,$8,$9*
0 Add four rect primitives between the rounded corners*
20,1,$1+$1,$2,$3,$4,$5,0*
20,1,$1+$1,$4,$5,$6,$7,0*
20,1,$1+$1,$6,$7,$8,$9,0*
20,1,$1+$1,$8,$9,$2,$3,0*%
G04 Aperture macros list end*
%ADD10R,0.800000X0.900000*%
%ADD11R,0.900000X0.800000*%
%ADD12R,0.400000X0.600000*%
%ADD13R,0.600000X0.400000*%
%ADD14RoundRect,0.250000X0.275000X0.275000X-0.275000X0.275000X-0.275000X-0.275000X0.275000X-0.275000X0*%
%ADD15RoundRect,0.062500X0.350000X0.062500X-0.350000X0.062500X-0.350000X-0.062500X0.350000X-0.062500X0*%
%ADD16RoundRect,0.062500X0.062500X0.350000X-0.062500X0.350000X-0.062500X-0.350000X0.062500X-0.350000X0*%
%ADD17R,3.900000X1.200000*%
%ADD18R,1.200000X0.900000*%
%ADD19R,0.250000X0.700000*%
%ADD20R,0.700000X0.250000*%
%ADD21R,0.772500X0.772500*%
%ADD22R,0.400000X0.650000*%
%ADD23R,1.000000X1.250000*%
%ADD24R,1.000000X1.400000*%
%ADD25R,0.800000X0.800000*%
%ADD26R,0.900000X1.200000*%
%ADD27R,0.650000X1.060000*%
%ADD28R,2.900000X2.100000*%
%ADD29R,1.600000X0.500000*%
%ADD30R,0.300000X1.300000*%
%ADD31R,2.000000X3.000000*%
%ADD32R,1.100000X1.100000*%
%ADD33R,1.350000X1.500000*%
%ADD34O,1.350000X1.500000*%
%ADD35R,0.500000X0.500000*%
%ADD36R,0.900000X0.500000*%
%ADD37R,1.000000X1.800000*%
%ADD38R,0.375000X0.350000*%
%ADD39R,0.350000X0.375000*%
%ADD40RoundRect,0.172500X-0.332500X0.172500X-0.332500X-0.172500X0.332500X-0.172500X0.332500X0.172500X0*%
%ADD41RoundRect,0.062500X-0.062500X0.350000X-0.062500X-0.350000X0.062500X-0.350000X0.062500X0.350000X0*%
%ADD42RoundRect,0.225000X-0.225000X-0.250000X0.225000X-0.250000X0.225000X0.250000X-0.225000X0.250000X0*%
%ADD43RoundRect,0.225000X0.250000X-0.225000X0.250000X0.225000X-0.250000X0.225000X-0.250000X-0.225000X0*%
%ADD44RoundRect,0.225000X-0.250000X0.225000X-0.250000X-0.225000X0.250000X-0.225000X0.250000X0.225000X0*%
%ADD45RoundRect,0.140000X0.170000X-0.140000X0.170000X0.140000X-0.170000X0.140000X-0.170000X-0.140000X0*%
%ADD46RoundRect,0.140000X-0.140000X-0.170000X0.140000X-0.170000X0.140000X0.170000X-0.140000X0.170000X0*%
%ADD47R,1.160000X0.600000*%
%ADD48R,1.160000X0.300000*%
G04 APERTURE END LIST*
D10*
X95436000Y-111185200D03*
X97336000Y-111185200D03*
X96386000Y-109185200D03*
D11*
X76735800Y-81874400D03*
X76735800Y-79974400D03*
X74735800Y-80924400D03*
D12*
X83312200Y-79603600D03*
X84212200Y-79603600D03*
D13*
X99100000Y-88360000D03*
X99100000Y-87460000D03*
X93947600Y-110889200D03*
X93947600Y-109989200D03*
D14*
X92372800Y-91033600D03*
X92372800Y-89733600D03*
X91072800Y-91033600D03*
X91072800Y-89733600D03*
D15*
X93660300Y-91633600D03*
X93660300Y-91133600D03*
X93660300Y-90633600D03*
X93660300Y-90133600D03*
X93660300Y-89633600D03*
X93660300Y-89133600D03*
D16*
X92972800Y-88446100D03*
X92472800Y-88446100D03*
X91972800Y-88446100D03*
X91472800Y-88446100D03*
X90972800Y-88446100D03*
X90472800Y-88446100D03*
D15*
X89785300Y-89133600D03*
X89785300Y-89633600D03*
X89785300Y-90133600D03*
X89785300Y-90633600D03*
X89785300Y-91133600D03*
X89785300Y-91633600D03*
D16*
X90472800Y-92321100D03*
X90972800Y-92321100D03*
X91472800Y-92321100D03*
X91972800Y-92321100D03*
X92472800Y-92321100D03*
X92972800Y-92321100D03*
D11*
X78005800Y-96835000D03*
X78005800Y-94935000D03*
X76005800Y-95885000D03*
D17*
X75030000Y-105240000D03*
X75030000Y-108040000D03*
D12*
X76200200Y-83185000D03*
X77100200Y-83185000D03*
D18*
X74550000Y-98640000D03*
X74550000Y-101940000D03*
D19*
X86952750Y-83670350D03*
X86452750Y-83670350D03*
X85952750Y-83670350D03*
X85452750Y-83670350D03*
X84952750Y-83670350D03*
X84452750Y-83670350D03*
X83952750Y-83670350D03*
X83452750Y-83670350D03*
X82952750Y-83670350D03*
X82452750Y-83670350D03*
X81952750Y-83670350D03*
X81452750Y-83670350D03*
D20*
X80802750Y-84320350D03*
X80802750Y-84820350D03*
X80802750Y-85320350D03*
X80802750Y-85820350D03*
X80802750Y-86320350D03*
X80802750Y-86820350D03*
X80802750Y-87320350D03*
X80802750Y-87820350D03*
X80802750Y-88320350D03*
X80802750Y-88820350D03*
X80802750Y-89320350D03*
X80802750Y-89820350D03*
D19*
X81452750Y-90470350D03*
X81952750Y-90470350D03*
X82452750Y-90470350D03*
X82952750Y-90470350D03*
X83452750Y-90470350D03*
X83952750Y-90470350D03*
X84452750Y-90470350D03*
X84952750Y-90470350D03*
X85452750Y-90470350D03*
X85952750Y-90470350D03*
X86452750Y-90470350D03*
X86952750Y-90470350D03*
D20*
X87602750Y-89820350D03*
X87602750Y-89320350D03*
X87602750Y-88820350D03*
X87602750Y-88320350D03*
X87602750Y-87820350D03*
X87602750Y-87320350D03*
X87602750Y-86820350D03*
X87602750Y-86320350D03*
X87602750Y-85820350D03*
X87602750Y-85320350D03*
X87602750Y-84820350D03*
X87602750Y-84320350D03*
D21*
X86134000Y-85139100D03*
X84846500Y-85139100D03*
X83559000Y-85139100D03*
X82271500Y-85139100D03*
X86134000Y-86426600D03*
X84846500Y-86426600D03*
X83559000Y-86426600D03*
X82271500Y-86426600D03*
X86134000Y-87714100D03*
X84846500Y-87714100D03*
X83559000Y-87714100D03*
X82271500Y-87714100D03*
X86134000Y-89001600D03*
X84846500Y-89001600D03*
X83559000Y-89001600D03*
X82271500Y-89001600D03*
D22*
X89817800Y-95692000D03*
X90467800Y-95692000D03*
X91117800Y-95692000D03*
X91117800Y-93792000D03*
X90467800Y-93792000D03*
X89817800Y-93792000D03*
D13*
X73250000Y-110220000D03*
X73250000Y-109320000D03*
D23*
X95021000Y-101015800D03*
X97021000Y-101015800D03*
D12*
X101916000Y-87579200D03*
X101016000Y-87579200D03*
D13*
X100000000Y-88360000D03*
X100000000Y-87460000D03*
D24*
X69830000Y-109130000D03*
X71530000Y-109130000D03*
X69830000Y-103530000D03*
X71530000Y-103530000D03*
X101370000Y-109130000D03*
X99670000Y-109130000D03*
X101370000Y-103530000D03*
X99670000Y-103530000D03*
D12*
X93026000Y-103098600D03*
X92126000Y-103098600D03*
D18*
X72250000Y-98640000D03*
X72250000Y-101940000D03*
D23*
X73530000Y-103520000D03*
X75530000Y-103520000D03*
D12*
X96910000Y-79670000D03*
X97810000Y-79670000D03*
D25*
X101740000Y-86380000D03*
X101740000Y-84780000D03*
D23*
X74530000Y-109770000D03*
X76530000Y-109770000D03*
D26*
X97656600Y-107169200D03*
X94356600Y-107169200D03*
D27*
X92210200Y-82303800D03*
X93160200Y-82303800D03*
X94110200Y-82303800D03*
X94110200Y-80103800D03*
X92210200Y-80103800D03*
D12*
X90028800Y-86233000D03*
X89128800Y-86233000D03*
X92126000Y-102082600D03*
X93026000Y-102082600D03*
D13*
X99662600Y-101251600D03*
X99662600Y-102151600D03*
D28*
X96880000Y-87877000D03*
X96880000Y-81545000D03*
D29*
X99730000Y-85345000D03*
X99730000Y-84095000D03*
D18*
X69950000Y-101940000D03*
X69950000Y-98640000D03*
D27*
X95082000Y-105043400D03*
X96032000Y-105043400D03*
X96982000Y-105043400D03*
X96982000Y-102843400D03*
X95082000Y-102843400D03*
D24*
X101370000Y-77130000D03*
X99670000Y-77130000D03*
X101370000Y-82730000D03*
X99670000Y-82730000D03*
X69830000Y-77130000D03*
X71530000Y-77130000D03*
X69830000Y-82730000D03*
X71530000Y-82730000D03*
D30*
X91225000Y-97420000D03*
X90725000Y-97420000D03*
X90225000Y-97420000D03*
X89725000Y-97420000D03*
X89225000Y-97420000D03*
X88725000Y-97420000D03*
X88225000Y-97420000D03*
X87725000Y-97420000D03*
X87225000Y-97420000D03*
X86725000Y-97420000D03*
X86225000Y-97420000D03*
X85725000Y-97420000D03*
X85225000Y-97420000D03*
X84725000Y-97420000D03*
X84225000Y-97420000D03*
X83725000Y-97420000D03*
X83225000Y-97420000D03*
X82725000Y-97420000D03*
X82225000Y-97420000D03*
X81725000Y-97420000D03*
X81225000Y-97420000D03*
X80725000Y-97420000D03*
X80225000Y-97420000D03*
X79725000Y-97420000D03*
D31*
X78075000Y-99770000D03*
X92875000Y-99770000D03*
D12*
X90028800Y-87223600D03*
X89128800Y-87223600D03*
X73493400Y-83159600D03*
X72593400Y-83159600D03*
D32*
X78733000Y-79981600D03*
X78733000Y-82781600D03*
D33*
X69900000Y-85155000D03*
D34*
X71900000Y-85155000D03*
D13*
X74440400Y-84233600D03*
X74440400Y-85133600D03*
D35*
X88725000Y-79430000D03*
D36*
X90825000Y-79430000D03*
D12*
X74396800Y-83312000D03*
X75296800Y-83312000D03*
X76454200Y-84277200D03*
X77354200Y-84277200D03*
D37*
X73455200Y-87909400D03*
X70955200Y-87909400D03*
D38*
X75837400Y-91752800D03*
X75837400Y-92252800D03*
X75837400Y-92752800D03*
X75837400Y-93252800D03*
D39*
X76349900Y-93265300D03*
X76849900Y-93265300D03*
D38*
X77362400Y-93252800D03*
X77362400Y-92752800D03*
X77362400Y-92252800D03*
X77362400Y-91752800D03*
D39*
X76849900Y-91740300D03*
X76349900Y-91740300D03*
D40*
X76894200Y-87778500D03*
X75644200Y-87778500D03*
X76894200Y-88628500D03*
X75644200Y-88628500D03*
D41*
X77269200Y-86741000D03*
X76769200Y-86741000D03*
X76269200Y-86741000D03*
X75769200Y-86741000D03*
X75269200Y-86741000D03*
X75269200Y-89666000D03*
X75769200Y-89666000D03*
X76269200Y-89666000D03*
X76769200Y-89666000D03*
X77269200Y-89666000D03*
D13*
X75456400Y-84182800D03*
X75456400Y-85082800D03*
X90772600Y-82796800D03*
X90772600Y-81896800D03*
D42*
X83800000Y-80899000D03*
X85350000Y-80899000D03*
D43*
X87710000Y-95415000D03*
X87710000Y-93865000D03*
X82510000Y-95415000D03*
X82510000Y-93865000D03*
X85110000Y-95415000D03*
X85110000Y-93865000D03*
X86410000Y-95415000D03*
X86410000Y-93865000D03*
X83810000Y-95415000D03*
X83810000Y-93865000D03*
X81160000Y-95415000D03*
X81160000Y-93865000D03*
X79860000Y-95415000D03*
X79860000Y-93865000D03*
D44*
X73221200Y-80073200D03*
X73221200Y-81623200D03*
D12*
X78340800Y-92075000D03*
X79240800Y-92075000D03*
D45*
X94811200Y-88516400D03*
X94811200Y-87556400D03*
D46*
X92985000Y-96774000D03*
X93945000Y-96774000D03*
D12*
X93864200Y-95631000D03*
X92964200Y-95631000D03*
D47*
X95690000Y-97560000D03*
X95690000Y-96760000D03*
D48*
X95690000Y-95610000D03*
X95690000Y-94610000D03*
X95690000Y-94110000D03*
X95690000Y-93110000D03*
D47*
X95690000Y-91960000D03*
X95690000Y-91160000D03*
X95690000Y-91160000D03*
X95690000Y-91960000D03*
D48*
X95690000Y-92610000D03*
X95690000Y-93610000D03*
X95690000Y-95110000D03*
X95690000Y-96110000D03*
D47*
X95690000Y-96760000D03*
X95690000Y-97560000D03*
D12*
X92735600Y-87172800D03*
X93635600Y-87172800D03*
X93864200Y-94640400D03*
X92964200Y-94640400D03*
X99720600Y-86487000D03*
X100620600Y-86487000D03*
X91908400Y-87147400D03*
X91008400Y-87147400D03*
M02*
