M48
; DRILL file {KiCad (7.0.0)} date Wed Sep 20 22:00:40 2023
; FORMAT={-:-/ absolute / inch / decimal}
; #@! TF.CreationDate,2023-09-20T22:00:40+02:00
; #@! TF.GenerationSoftware,Kicad,Pcbnew,(7.0.0)
; #@! TF.FileFunction,Plated,1,2,PTH
FMAT,2
INCH
; #@! TA.AperFunction,Plated,PTH,ViaDrill
T1C0.0126
; #@! TA.AperFunction,Plated,PTH,ViaDrill
T2C0.0157
; #@! TA.AperFunction,Plated,PTH,ComponentDrill
T3C0.0236
%
G90
G05
T1
X2.7449Y-3.4295
X2.7449Y-3.4689
X2.7449Y-3.5083
X2.7449Y-3.5476
X2.7449Y-3.587
X2.7449Y-3.6264
X2.7449Y-3.6657
X2.7449Y-3.7051
X2.7449Y-3.7445
X2.7449Y-4.3744
X2.7843Y-3.1539
X2.7843Y-3.5476
X2.7843Y-4.3744
X2.799Y-3.391
X2.8097Y-4.129
X2.8307Y-3.413
X2.8457Y-4.363
X2.855Y-3.305
X2.8809Y-3.3949
X2.8887Y-3.315
X2.9024Y-4.3744
X2.909Y-3.533
X2.9097Y-3.402
X2.915Y-3.625
X2.931Y-3.461
X2.9317Y-3.705
X2.9327Y-3.97
X2.9388Y-3.3966
X2.94Y-3.575
X2.9417Y-3.7839
X2.9417Y-4.3744
X2.9447Y-3.236
X2.9477Y-3.678
X2.9578Y-3.608
X2.9811Y-4.3744
X2.9841Y-3.5756
X2.9867Y-3.825
X3.0047Y-3.358
X3.016Y-3.641
X3.0205Y-4.3744
X3.0317Y-3.779
X3.0407Y-3.36
X3.053Y-3.148
X3.0598Y-4.1382
X3.0598Y-4.1776
X3.0598Y-4.2957
X3.0598Y-4.335
X3.0667Y-3.376
X3.0745Y-3.2982
X3.0814Y-3.5727
X3.0906Y-3.685
X3.0907Y-3.849
X3.0926Y-3.3409
X3.0992Y-4.2957
X3.0992Y-4.335
X3.111Y-3.5741
X3.114Y-3.385
X3.12Y-4.038
X3.1386Y-4.1382
X3.1386Y-4.1776
X3.1386Y-4.2169
X3.1386Y-4.2957
X3.1386Y-4.335
X3.143Y-3.4389
X3.145Y-3.5059
X3.145Y-3.47
X3.151Y-3.3405
X3.158Y-3.642
X3.168Y-3.5727
X3.178Y-4.1382
X3.178Y-4.1776
X3.178Y-4.2169
X3.178Y-4.2957
X3.178Y-4.335
X3.1957Y-3.201
X3.2173Y-4.0594
X3.2173Y-4.1382
X3.2173Y-4.1776
X3.2173Y-4.2169
X3.2173Y-4.2957
X3.2173Y-4.335
X3.2197Y-3.238
X3.224Y-3.6181
X3.2267Y-3.648
X3.2398Y-3.4213
X3.2398Y-3.4626
X3.2474Y-3.2051
X3.2567Y-4.0594
X3.2567Y-4.1382
X3.2567Y-4.1776
X3.2567Y-4.2169
X3.2567Y-4.2957
X3.2567Y-4.335
X3.2638Y-3.9742
X3.2877Y-3.616
X3.2897Y-3.3393
X3.2902Y-3.4213
X3.2902Y-3.4626
X3.2902Y-3.5039
X3.291Y-3.234
X3.2961Y-4.0594
X3.2961Y-4.1382
X3.2961Y-4.1776
X3.2961Y-4.2169
X3.2961Y-4.2957
X3.2961Y-4.335
X3.335Y-3.6256
X3.3354Y-4.0594
X3.3354Y-4.1382
X3.3354Y-4.1776
X3.3354Y-4.2169
X3.3354Y-4.2957
X3.3354Y-4.335
X3.3357Y-3.92
X3.3406Y-3.4213
X3.3406Y-3.4626
X3.3406Y-3.5039
X3.3442Y-3.2205
X3.3508Y-3.6955
X3.357Y-3.137
X3.3577Y-3.898
X3.367Y-3.951
X3.3748Y-4.0594
X3.3748Y-4.1382
X3.3748Y-4.1776
X3.3748Y-4.2169
X3.3748Y-4.2957
X3.3748Y-4.335
X3.3761Y-3.8742
X3.3809Y-3.2187
X3.3821Y-3.605
X3.3909Y-3.4213
X3.3909Y-3.4626
X3.3909Y-3.5039
X3.4029Y-3.631
X3.4142Y-4.0594
X3.4142Y-4.1382
X3.4142Y-4.1776
X3.4142Y-4.2169
X3.4142Y-4.2957
X3.4142Y-4.335
X3.4237Y-3.604
X3.4337Y-3.92
X3.448Y-3.626
X3.453Y-3.209
X3.4535Y-4.0594
X3.4535Y-4.1382
X3.4535Y-4.1776
X3.4535Y-4.2169
X3.4535Y-4.2957
X3.4535Y-4.335
X3.481Y-3.967
X3.4857Y-3.53
X3.4857Y-3.573
X3.489Y-3.2735
X3.4929Y-4.0594
X3.4929Y-4.1382
X3.4929Y-4.1776
X3.4929Y-4.2169
X3.4929Y-4.2957
X3.4929Y-4.335
X3.4931Y-3.3385
X3.5026Y-3.6376
X3.5033Y-3.4712
X3.508Y-3.693
X3.508Y-3.966
X3.509Y-3.938
X3.515Y-3.301
X3.5177Y-3.434
X3.5178Y-3.3612
X3.529Y-3.188
X3.5323Y-4.0594
X3.5323Y-4.1382
X3.5323Y-4.1776
X3.5323Y-4.2957
X3.5323Y-4.335
X3.537Y-3.467
X3.57Y-3.357
X3.5717Y-4.2957
X3.5717Y-4.335
X3.5857Y-4.06
X3.6007Y-3.294
X3.6028Y-3.9975
X3.611Y-4.2563
X3.611Y-4.2957
X3.611Y-4.335
X3.6111Y-3.5584
X3.617Y-3.782
X3.6179Y-3.7046
X3.6223Y-3.1971
X3.6277Y-3.395
X3.6504Y-4.2169
X3.6504Y-4.2563
X3.6504Y-4.2957
X3.6504Y-4.335
X3.6608Y-3.81
X3.666Y-3.303
X3.6687Y-3.186
X3.669Y-3.361
X3.6747Y-3.397
X3.676Y-4.1
X3.6801Y-3.6838
X3.688Y-3.469
X3.6898Y-4.2957
X3.7064Y-3.1969
X3.7217Y-3.5716
X3.7237Y-3.728
X3.728Y-3.515
X3.73Y-3.84
X3.7329Y-3.5442
X3.737Y-3.333
X3.7487Y-4.292
X3.7673Y-3.589
X3.774Y-3.138
X3.774Y-3.374
X3.7752Y-4.0807
X3.784Y-3.272
X3.8147Y-3.707
X3.829Y-3.759
X3.844Y-3.088
X3.85Y-3.788
X3.8508Y-3.1366
X3.857Y-3.308
X3.862Y-3.274
X3.8637Y-3.36
X3.869Y-3.527
X3.883Y-3.581
X3.883Y-4.021
X3.8866Y-4.3744
X3.926Y-4.3744
X3.9654Y-3.9413
X3.9654Y-3.9807
X3.9654Y-4.0201
X3.9654Y-4.2169
X3.9654Y-4.3744
X3.9728Y-3.1992
X3.9767Y-3.488
T2
X2.9173Y-3.8465
T3
G00X3.8118Y-3.5449
M15
G01X3.7685Y-3.5449
M16
G05
G00X3.8118Y-3.885
M15
G01X3.7685Y-3.885
M16
G05
G00X3.9701Y-3.5449
M15
G01X3.9386Y-3.5449
M16
G05
G00X3.9701Y-3.885
M15
G01X3.9386Y-3.885
M16
G05
T0
M30
